%MOIN*%
%FSLAX54Y54*%
%ADD10C,0.0139*%
%ADD11C,0.0079*%
%ADD12C,0.0020*%
%ADD13C,0.3195*%
%ADD14C,0.2762*%
%ADD15C,0.0250*%
G75*
D10*
G36*
X1888Y3542D02*
X1448Y3643D01*
X1888Y3745D01*
X1888Y3915D01*
X1329Y3915D01*
X1329Y3806D01*
X1707Y3806D01*
X1713Y3806D01*
X1719Y3806D01*
X1727Y3806D01*
X1734Y3806D01*
X1743Y3806D01*
X1753Y3806D01*
X1763Y3806D01*
X1771Y3806D01*
X1779Y3806D01*
X1787Y3807D01*
X1793Y3807D01*
X1798Y3807D01*
X1329Y3701D01*
X1329Y3588D01*
X1798Y3482D01*
X1793Y3482D01*
X1787Y3482D01*
X1779Y3482D01*
X1771Y3482D01*
X1763Y3482D01*
X1753Y3482D01*
X1743Y3482D01*
X1734Y3482D01*
X1727Y3483D01*
X1719Y3483D01*
X1713Y3483D01*
X1707Y3483D01*
X1329Y3483D01*
X1329Y3374D01*
X1888Y3374D01*
X1888Y3542D01*
G37*
G36*
X1888Y2217D02*
X1329Y2217D01*
X1329Y2108D01*
X1726Y2108D01*
X1329Y1879D01*
X1329Y1762D01*
X1888Y1762D01*
X1888Y1871D01*
X1498Y1871D01*
X1888Y2094D01*
X1888Y2217D01*
G37*
G36*
X1789Y1278D02*
X1888Y1278D01*
X1888Y1689D01*
X1329Y1689D01*
X1329Y1265D01*
X1429Y1265D01*
X1429Y1574D01*
X1573Y1574D01*
X1573Y1303D01*
X1670Y1303D01*
X1670Y1574D01*
X1789Y1574D01*
X1789Y1278D01*
G37*
G36*
X1888Y767D02*
X1888Y1220D01*
X1789Y1220D01*
X1789Y1052D01*
X1329Y1052D01*
X1329Y934D01*
X1789Y934D01*
X1789Y767D01*
X1888Y767D01*
G37*
G36*
X579Y2613D02*
X579Y2475D01*
X878Y2475D01*
X878Y2213D01*
X579Y2213D01*
X579Y2074D01*
X1248Y2074D01*
X1248Y2213D01*
X993Y2213D01*
X993Y2475D01*
X1248Y2475D01*
X1248Y2613D01*
X579Y2613D01*
G37*
G36*
X1248Y1285D02*
X579Y1285D01*
X579Y1155D01*
X1054Y1155D01*
X579Y882D01*
X579Y742D01*
X1248Y742D01*
X1248Y872D01*
X781Y872D01*
X1248Y1139D01*
X1248Y1285D01*
G37*
D11*
X27542Y3075D02*
X27356Y3538D01*
X27244Y4023D01*
X27210Y4520D01*
X27254Y5015D01*
X27375Y5496D01*
X27569Y5952D01*
X27831Y6371D01*
X28156Y6744D01*
X28534Y7060D01*
X28956Y7313D01*
X29412Y7497D01*
X29890Y7606D01*
X30379Y7640D01*
X30867Y7597D01*
X31340Y7478D01*
X31789Y7287D01*
X32202Y7028D01*
X32568Y6709D01*
X32880Y6337D01*
X33129Y5921D01*
X33309Y5472D01*
X33417Y5001D01*
X33450Y4520D01*
X33408Y4040D01*
X33291Y3574D01*
X33102Y3133D01*
X32848Y2727D01*
X32533Y2366D01*
X32167Y2059D01*
X31758Y1814D01*
X31316Y1637D01*
X30853Y1531D01*
X30379Y1498D01*
X29907Y1540D01*
X29449Y1656D01*
X29014Y1841D01*
X28615Y2091D01*
X28260Y2401D01*
X27959Y2761D01*
X27718Y3164D01*
X27543Y3598D01*
X27439Y4054D01*
X27407Y4520D01*
X27448Y4984D01*
X27562Y5436D01*
X27744Y5863D01*
X27991Y6256D01*
X28295Y6604D01*
X28650Y6901D01*
X29046Y7138D01*
X29473Y7309D01*
X29921Y7412D01*
X30379Y7443D01*
X30836Y7402D01*
X31280Y7291D01*
X31700Y7112D01*
X32086Y6869D01*
X32429Y6570D01*
X32720Y6221D01*
X32953Y5832D01*
X33122Y5411D01*
X33223Y4970D01*
X33253Y4520D01*
X33213Y4071D01*
X33103Y3635D01*
X32927Y3222D01*
X32689Y2842D01*
X32394Y2505D01*
X32051Y2219D01*
X31668Y1990D01*
X31255Y1824D01*
X30822Y1725D01*
X30379Y1695D01*
X29938Y1735D01*
X29509Y1843D01*
X29104Y2016D01*
X28731Y2251D01*
X28399Y2540D01*
X28118Y2877D01*
X27893Y3253D01*
X27730Y3659D01*
X27633Y4085D01*
X27604Y4520D01*
X27643Y4953D01*
X27749Y5375D01*
X27919Y5773D01*
X28150Y6140D01*
X28434Y6465D01*
X28765Y6742D01*
X29135Y6962D01*
X29534Y7122D01*
X29952Y7218D01*
X30379Y7246D01*
X30805Y7208D01*
X31219Y7104D01*
X31610Y6936D01*
X31970Y6710D01*
X32290Y6430D01*
X32561Y6105D01*
X32778Y5742D01*
X32935Y5350D01*
X33028Y4940D01*
X33057Y4520D01*
X33019Y4102D01*
X32916Y3696D01*
X32752Y3311D01*
X32529Y2958D01*
X32255Y2644D01*
X31936Y2378D01*
X31579Y2165D01*
X31195Y2011D01*
X30791Y1920D01*
X30379Y1892D01*
X29969Y1929D01*
X29570Y2030D01*
X29193Y2192D01*
X28846Y2410D01*
X28539Y2679D01*
X28277Y2993D01*
X28069Y3343D01*
X27917Y3720D01*
X27828Y4116D01*
X27801Y4520D01*
X27837Y4923D01*
X27936Y5314D01*
X28095Y5684D01*
X28309Y6024D01*
X28573Y6326D01*
X28881Y6582D01*
X29224Y6787D01*
X29595Y6935D01*
X29983Y7023D01*
X30379Y7050D01*
X30774Y7014D01*
X31158Y6916D01*
X31521Y6761D01*
X31855Y6551D01*
X32151Y6291D01*
X32402Y5989D01*
X32603Y5653D01*
X32748Y5290D01*
X32834Y4909D01*
X32860Y4520D01*
X32824Y4133D01*
X32729Y3757D01*
X32576Y3401D01*
X32370Y3074D01*
X32116Y2784D01*
X31820Y2537D01*
X31490Y2341D01*
X31134Y2198D01*
X30760Y2114D01*
X30379Y2089D01*
X30000Y2124D01*
X29631Y2217D01*
X29282Y2367D01*
X28962Y2569D01*
X28678Y2818D01*
X28436Y3108D01*
X28244Y3432D01*
X28105Y3781D01*
X28022Y4147D01*
X27998Y4520D01*
X28032Y4892D01*
X28123Y5253D01*
X28270Y5595D01*
X28468Y5908D01*
X28712Y6187D01*
X28997Y6423D01*
X29314Y6612D01*
X29656Y6748D01*
X30014Y6829D01*
X30379Y6853D01*
X30743Y6819D01*
X31097Y6729D01*
X31432Y6585D01*
X31739Y6391D01*
X32011Y6152D01*
X32243Y5874D01*
X32427Y5563D01*
X32560Y5229D01*
X32640Y4878D01*
X32663Y4520D01*
X32630Y4163D01*
X32542Y3817D01*
X32401Y3490D01*
X32211Y3189D01*
X31977Y2923D01*
X31704Y2697D01*
X31400Y2516D01*
X31073Y2386D01*
X30730Y2308D01*
X30379Y2286D01*
X30031Y2318D01*
X29692Y2404D01*
X29372Y2542D01*
X29078Y2728D01*
X28817Y2958D01*
X28596Y3224D01*
X28419Y3521D01*
X28292Y3842D01*
X28216Y4177D01*
X28194Y4520D01*
X28226Y4861D01*
X28311Y5192D01*
X28446Y5505D01*
X28628Y5793D01*
X28852Y6048D01*
X29112Y6264D01*
X29403Y6436D01*
X29716Y6561D01*
X30045Y6634D01*
X30379Y6656D01*
X30713Y6625D01*
X31036Y6542D01*
X31342Y6410D01*
X31623Y6232D01*
X31872Y6013D01*
X32083Y5758D01*
X32252Y5474D01*
X32373Y5168D01*
X32445Y4847D01*
X32466Y4520D01*
X32435Y4194D01*
X32354Y3878D01*
X32225Y3579D01*
X32051Y3305D01*
X31837Y3062D01*
X31588Y2856D01*
X31311Y2691D01*
X31012Y2573D01*
X30699Y2503D01*
X30379Y2483D01*
X30061Y2513D01*
X29753Y2592D01*
X29461Y2718D01*
X29193Y2888D01*
X28956Y3097D01*
X28755Y3340D01*
X28595Y3611D01*
X28479Y3903D01*
X28411Y4208D01*
X28391Y4520D01*
X28420Y4830D01*
X28498Y5131D01*
X28621Y5416D01*
X28787Y5677D01*
X28991Y5908D01*
X29228Y6105D01*
X29492Y6261D01*
X29777Y6373D01*
X30075Y6440D01*
X30379Y6459D01*
X30682Y6430D01*
X30976Y6355D01*
X31253Y6235D01*
X31508Y6073D01*
X31733Y5874D01*
X31924Y5642D01*
X32076Y5385D01*
X32186Y5107D01*
X32251Y4816D01*
X32269Y4520D01*
X32241Y4225D01*
X32167Y3939D01*
X32050Y3669D01*
X31892Y3421D01*
X31698Y3201D01*
X31473Y3015D01*
X31222Y2867D01*
X30951Y2760D01*
X30668Y2697D01*
X30379Y2679D01*
X30092Y2707D01*
X29814Y2779D01*
X29550Y2893D01*
X29309Y3047D01*
X29095Y3236D01*
X28914Y3456D01*
X28770Y3700D01*
X28666Y3963D01*
X28605Y4239D01*
X28588Y4520D01*
X28615Y4799D01*
X28685Y5070D01*
X28796Y5326D01*
X28946Y5561D01*
X29130Y5769D01*
X29344Y5945D01*
X29582Y6085D01*
X29838Y6186D01*
X30106Y6246D01*
X30379Y6262D01*
X30651Y6236D01*
X30915Y6167D01*
X31164Y6059D01*
X31392Y5914D01*
X31594Y5734D01*
X31765Y5527D01*
X31901Y5295D01*
X31999Y5046D01*
X32056Y4786D01*
X32072Y4520D01*
X32047Y4256D01*
X31980Y4000D01*
X31875Y3758D01*
X31733Y3536D01*
X31559Y3340D01*
X31357Y3174D01*
X31132Y3042D01*
X30890Y2947D01*
X30637Y2892D01*
X30379Y2876D01*
X30123Y2901D01*
X29875Y2966D01*
X29640Y3069D01*
X29425Y3206D01*
X29235Y3375D01*
X29073Y3571D01*
X28945Y3789D01*
X28853Y4024D01*
X28800Y4270D01*
X28785Y4520D01*
X28809Y4769D01*
X28872Y5010D01*
X28972Y5237D01*
X29105Y5446D01*
X29269Y5630D01*
X29459Y5786D01*
X29671Y5910D01*
X29899Y5999D01*
X30137Y6051D01*
X30379Y6065D01*
X30620Y6041D01*
X30854Y5980D01*
X31074Y5884D01*
X31276Y5754D01*
X31455Y5595D01*
X31606Y5411D01*
X31725Y5206D01*
X31812Y4985D01*
X31862Y4755D01*
X31875Y4520D01*
X31852Y4287D01*
X31793Y4061D01*
X31699Y3847D01*
X31574Y3652D01*
X31420Y3480D01*
X31241Y3333D01*
X31043Y3218D01*
X30829Y3135D01*
X30607Y3086D01*
X30379Y3073D01*
X30154Y3096D01*
X29935Y3153D01*
X29729Y3244D01*
X29541Y3365D01*
X29374Y3514D01*
X29233Y3687D01*
X29121Y3879D01*
X29041Y4085D01*
X28994Y4301D01*
X28982Y4520D01*
X29004Y4738D01*
X29059Y4949D01*
X29147Y5148D01*
X29265Y5330D01*
X29408Y5491D01*
X29575Y5627D01*
X29761Y5735D01*
X29960Y5812D01*
X30168Y5857D01*
X30379Y5868D01*
X30590Y5847D01*
X30793Y5793D01*
X30985Y5708D01*
X31160Y5595D01*
X31315Y5456D01*
X31446Y5295D01*
X31550Y5116D01*
X31624Y4925D01*
X31667Y4724D01*
X31679Y4520D01*
X31658Y4318D01*
X31606Y4122D01*
X31524Y3937D01*
X31415Y3768D01*
X31281Y3619D01*
X31126Y3493D01*
X30954Y3393D01*
X30769Y3322D01*
X30576Y3281D01*
X30379Y3270D01*
X30185Y3290D01*
X29996Y3341D01*
X29819Y3419D01*
X29656Y3525D01*
X29513Y3654D01*
X29392Y3803D01*
X29296Y3968D01*
X29228Y4146D01*
X29188Y4331D01*
X29179Y4520D01*
X29198Y4707D01*
X29247Y4888D01*
X29323Y5058D01*
X29424Y5214D01*
X29548Y5352D01*
X29691Y5468D01*
X29850Y5559D01*
X30020Y5625D01*
X30198Y5662D01*
X30379Y5672D01*
X30559Y5653D01*
X30732Y5606D01*
X30896Y5533D01*
X31045Y5436D01*
X31176Y5317D01*
X31287Y5180D01*
X31375Y5027D01*
X31437Y4864D01*
X31473Y4693D01*
X31482Y4520D01*
X31463Y4348D01*
X31418Y4182D01*
X31348Y4026D01*
X31255Y3884D01*
X31141Y3758D01*
X31010Y3652D01*
X30864Y3568D01*
X30708Y3509D01*
X30545Y3475D01*
X30379Y3467D01*
X30215Y3485D01*
X30057Y3528D01*
X29908Y3595D01*
X29772Y3684D01*
X29652Y3793D01*
X29551Y3918D01*
X29472Y4058D01*
X29415Y4207D01*
X29383Y4362D01*
X29375Y4520D01*
X29393Y4676D01*
X29434Y4827D01*
X29498Y4969D01*
X29583Y5099D01*
X29687Y5212D01*
X29807Y5308D01*
X29939Y5384D01*
X30081Y5437D01*
X30229Y5468D01*
X30379Y5475D01*
X30528Y5458D01*
X30671Y5419D01*
X30806Y5358D01*
X30929Y5276D01*
X31037Y5178D01*
X31128Y5064D01*
X31199Y4938D01*
X31250Y4803D01*
X31279Y4662D01*
X31285Y4520D01*
X31269Y4379D01*
X31231Y4243D01*
X31173Y4116D01*
X31096Y3999D01*
X31002Y3897D01*
X30894Y3811D01*
X30775Y3744D01*
X30647Y3696D01*
X30514Y3669D01*
X30379Y3664D01*
X30246Y3679D01*
X30118Y3715D01*
X29997Y3770D01*
X29888Y3843D01*
X29791Y3932D01*
X29711Y4034D01*
X29647Y4147D01*
X29602Y4268D01*
X29577Y4393D01*
X29572Y4520D01*
X29587Y4646D01*
X29621Y4766D01*
X29673Y4880D01*
X29742Y4983D01*
X29826Y5073D01*
X29922Y5149D01*
X30029Y5208D01*
X30142Y5250D01*
X30260Y5273D01*
X30379Y5278D01*
X30497Y5264D01*
X30610Y5231D01*
X30717Y5182D01*
X30813Y5117D01*
X30898Y5038D01*
X30969Y4948D01*
X31024Y4848D01*
X31063Y4742D01*
X31084Y4632D01*
X31088Y4520D01*
X31074Y4410D01*
X31044Y4304D01*
X30998Y4205D01*
X30937Y4115D01*
X30863Y4036D01*
X30778Y3971D01*
X30685Y3919D01*
X30586Y3884D01*
X30483Y3864D01*
X30379Y3861D01*
X30277Y3874D01*
X30179Y3902D01*
X30087Y3946D01*
X30003Y4002D01*
X29931Y4071D01*
X29870Y4150D01*
X29823Y4236D01*
X29790Y4328D01*
X29772Y4424D01*
X29769Y4520D01*
X29782Y4615D01*
X29808Y4706D01*
X29849Y4790D01*
X29902Y4867D01*
X29965Y4934D01*
X30038Y4990D01*
X30118Y5033D01*
X30203Y5063D01*
X30291Y5079D01*
X30379Y5081D01*
X30466Y5069D01*
X30550Y5044D01*
X30627Y5007D01*
X30698Y4958D01*
X30759Y4899D01*
X30809Y4832D01*
X30849Y4759D01*
X30876Y4681D01*
X30890Y4601D01*
X30891Y4520D01*
X30880Y4441D01*
X30857Y4365D01*
X30822Y4294D01*
X30778Y4231D01*
X30724Y4176D01*
X30663Y4130D01*
X30596Y4095D01*
X30525Y4071D01*
X30452Y4058D01*
X30379Y4057D01*
X30308Y4068D01*
X30239Y4089D01*
X30176Y4121D01*
X30119Y4162D01*
X30070Y4210D01*
X30029Y4265D01*
X29998Y4326D01*
X29977Y4389D01*
X29966Y4455D01*
X29966Y4520D01*
X29976Y4584D01*
X29996Y4645D01*
X30024Y4701D01*
X30061Y4751D01*
X30104Y4795D01*
X30154Y4831D01*
X30207Y4858D01*
X30264Y4876D01*
X30322Y4885D01*
X30379Y4884D01*
X30436Y4875D01*
X30489Y4857D01*
X30538Y4831D01*
X30582Y4799D01*
X30620Y4760D01*
X30650Y4717D01*
X30673Y4670D01*
X30688Y4620D01*
X30695Y4570D01*
X30694Y4520D01*
X27799Y2646D02*
X27542Y3075D01*
X27799Y2646D02*
X28121Y2262D01*
X28499Y1932D01*
X28925Y1665D01*
X29388Y1468D01*
X29877Y1346D01*
X30379Y1302D01*
X30884Y1336D01*
X31377Y1450D01*
X31847Y1639D01*
X32283Y1900D01*
X33677Y2786D01*
X33725Y2806D02*
X33833Y2833D01*
X33886Y2835D02*
X34048Y2806D01*
X34104Y2780D02*
X34639Y2340D01*
X34716Y2279D01*
X34769Y2260D02*
X39042Y2260D01*
X39106Y2286D02*
X39199Y2380D01*
X39503Y2703D01*
X39541Y2729D02*
X39669Y2786D01*
X39733Y2797D02*
X39848Y2785D01*
X39943Y2753D02*
X41739Y1640D01*
X42282Y1410D01*
X42775Y1296D01*
X43279Y1261D01*
X43782Y1306D01*
X44271Y1428D01*
X44734Y1625D01*
X45160Y1892D01*
X45538Y2222D01*
X45859Y2606D01*
X46116Y3035D01*
X46303Y3498D01*
X46414Y3983D01*
X46449Y4480D01*
X46405Y4975D01*
X46284Y5456D01*
X46090Y5912D01*
X45827Y6331D01*
X45503Y6704D01*
X45125Y7020D01*
X44703Y7273D01*
X44247Y7457D01*
X43768Y7567D01*
X43279Y7600D01*
X42792Y7557D01*
X42318Y7438D01*
X41870Y7247D01*
X41457Y6988D01*
X41091Y6669D01*
X40779Y6297D01*
X40530Y5881D01*
X40349Y5432D01*
X40242Y4961D01*
X40208Y4480D01*
X40251Y4000D01*
X40368Y3534D01*
X40556Y3093D01*
X40811Y2687D01*
X41125Y2326D01*
X41492Y2019D01*
X41901Y1774D01*
X42343Y1597D01*
X42806Y1491D01*
X43279Y1458D01*
X43751Y1500D01*
X44210Y1616D01*
X44644Y1801D01*
X45044Y2051D01*
X45399Y2361D01*
X45700Y2721D01*
X45941Y3124D01*
X46116Y3558D01*
X46220Y4014D01*
X46252Y4480D01*
X46210Y4944D01*
X46097Y5395D01*
X45915Y5823D01*
X45668Y6216D01*
X45364Y6564D01*
X45009Y6861D01*
X44613Y7098D01*
X44186Y7270D01*
X43737Y7372D01*
X43279Y7403D01*
X42823Y7362D01*
X42379Y7251D01*
X41959Y7071D01*
X41573Y6829D01*
X41230Y6530D01*
X40938Y6181D01*
X40705Y5791D01*
X40537Y5371D01*
X40436Y4930D01*
X40405Y4480D01*
X40446Y4031D01*
X40555Y3595D01*
X40732Y3182D01*
X40970Y2802D01*
X41265Y2465D01*
X41607Y2179D01*
X41990Y1950D01*
X42403Y1784D01*
X42837Y1685D01*
X43279Y1655D01*
X43720Y1695D01*
X44149Y1803D01*
X44555Y1976D01*
X44928Y2211D01*
X45259Y2500D01*
X45541Y2837D01*
X45766Y3213D01*
X45929Y3619D01*
X46026Y4045D01*
X46055Y4480D01*
X46016Y4913D01*
X45910Y5335D01*
X45739Y5733D01*
X45509Y6100D01*
X45225Y6425D01*
X44893Y6702D01*
X44524Y6922D01*
X44125Y7082D01*
X43707Y7178D01*
X43279Y7206D01*
X42854Y7168D01*
X42440Y7064D01*
X42048Y6896D01*
X41688Y6670D01*
X41369Y6390D01*
X41098Y6065D01*
X40881Y5702D01*
X40724Y5310D01*
X40630Y4900D01*
X40602Y4480D01*
X40640Y4062D01*
X40743Y3656D01*
X40907Y3271D01*
X41129Y2918D01*
X41404Y2604D01*
X41723Y2338D01*
X42080Y2125D01*
X42464Y1971D01*
X42867Y1880D01*
X43279Y1852D01*
X43690Y1889D01*
X44088Y1990D01*
X44466Y2152D01*
X44812Y2370D01*
X45120Y2639D01*
X45381Y2953D01*
X45590Y3303D01*
X45741Y3680D01*
X45831Y4076D01*
X45858Y4480D01*
X45821Y4883D01*
X45722Y5274D01*
X45564Y5644D01*
X45350Y5984D01*
X45085Y6286D01*
X44778Y6542D01*
X44434Y6747D01*
X44064Y6895D01*
X43676Y6983D01*
X43279Y7009D01*
X42884Y6974D01*
X42501Y6876D01*
X42138Y6721D01*
X41804Y6510D01*
X41508Y6251D01*
X41257Y5949D01*
X41056Y5613D01*
X40911Y5249D01*
X40825Y4869D01*
X40799Y4480D01*
X40834Y4093D01*
X40930Y3717D01*
X41083Y3361D01*
X41289Y3034D01*
X41543Y2744D01*
X41839Y2497D01*
X42169Y2301D01*
X42525Y2158D01*
X42898Y2074D01*
X43279Y2049D01*
X43659Y2084D01*
X44028Y2177D01*
X44376Y2327D01*
X44697Y2529D01*
X44981Y2778D01*
X45222Y3068D01*
X45415Y3392D01*
X45554Y3741D01*
X45637Y4107D01*
X45661Y4480D01*
X45627Y4852D01*
X45535Y5213D01*
X45389Y5555D01*
X45190Y5869D01*
X44946Y6147D01*
X44662Y6383D01*
X44345Y6572D01*
X44003Y6708D01*
X43645Y6789D01*
X43279Y6813D01*
X42915Y6779D01*
X42562Y6689D01*
X42227Y6545D01*
X41920Y6351D01*
X41647Y6112D01*
X41416Y5834D01*
X41232Y5523D01*
X41098Y5189D01*
X41019Y4838D01*
X40996Y4480D01*
X41029Y4123D01*
X41117Y3777D01*
X41258Y3450D01*
X41448Y3149D01*
X41682Y2883D01*
X41954Y2657D01*
X42258Y2476D01*
X42586Y2346D01*
X42929Y2268D01*
X43279Y2246D01*
X43628Y2278D01*
X43967Y2364D01*
X44287Y2502D01*
X44581Y2688D01*
X44842Y2918D01*
X45063Y3184D01*
X45239Y3481D01*
X45367Y3802D01*
X45442Y4137D01*
X45464Y4480D01*
X45433Y4821D01*
X45348Y5152D01*
X45213Y5465D01*
X45031Y5753D01*
X44807Y6008D01*
X44546Y6224D01*
X44256Y6396D01*
X43942Y6521D01*
X43614Y6594D01*
X43279Y6616D01*
X42946Y6585D01*
X42622Y6502D01*
X42316Y6370D01*
X42036Y6192D01*
X41786Y5973D01*
X41575Y5718D01*
X41407Y5434D01*
X41286Y5128D01*
X41214Y4807D01*
X41193Y4480D01*
X41223Y4154D01*
X41304Y3838D01*
X41433Y3539D01*
X41607Y3265D01*
X41821Y3022D01*
X42070Y2816D01*
X42348Y2651D01*
X42647Y2533D01*
X42960Y2463D01*
X43279Y2443D01*
X43597Y2473D01*
X43906Y2552D01*
X44198Y2678D01*
X44465Y2848D01*
X44703Y3057D01*
X44904Y3300D01*
X45064Y3571D01*
X45180Y3863D01*
X45248Y4168D01*
X45268Y4480D01*
X45238Y4790D01*
X45161Y5091D01*
X45038Y5376D01*
X44872Y5637D01*
X44668Y5869D01*
X44431Y6065D01*
X44166Y6221D01*
X43882Y6333D01*
X43584Y6400D01*
X43279Y6419D01*
X42977Y6390D01*
X42683Y6315D01*
X42406Y6194D01*
X42151Y6033D01*
X41926Y5834D01*
X41735Y5602D01*
X41582Y5345D01*
X41473Y5067D01*
X41408Y4776D01*
X41390Y4480D01*
X41418Y4185D01*
X41492Y3899D01*
X41609Y3629D01*
X41767Y3381D01*
X41961Y3161D01*
X42186Y2975D01*
X42437Y2827D01*
X42708Y2720D01*
X42991Y2657D01*
X43279Y2639D01*
X43567Y2667D01*
X43845Y2739D01*
X44108Y2853D01*
X44350Y3007D01*
X44563Y3196D01*
X44745Y3416D01*
X44889Y3660D01*
X44992Y3923D01*
X45053Y4199D01*
X45071Y4480D01*
X45044Y4759D01*
X44974Y5031D01*
X44862Y5287D01*
X44713Y5521D01*
X44529Y5729D01*
X44315Y5905D01*
X44077Y6045D01*
X43821Y6146D01*
X43553Y6206D01*
X43279Y6222D01*
X43008Y6196D01*
X42744Y6128D01*
X42495Y6019D01*
X42267Y5873D01*
X42065Y5695D01*
X41894Y5487D01*
X41758Y5255D01*
X41660Y5006D01*
X41602Y4746D01*
X41586Y4480D01*
X41612Y4216D01*
X41679Y3960D01*
X41784Y3718D01*
X41926Y3497D01*
X42100Y3300D01*
X42302Y3134D01*
X42526Y3002D01*
X42768Y2907D01*
X43021Y2852D01*
X43279Y2836D01*
X43536Y2861D01*
X43784Y2926D01*
X44019Y3029D01*
X44234Y3166D01*
X44424Y3335D01*
X44585Y3531D01*
X44713Y3749D01*
X44805Y3984D01*
X44859Y4230D01*
X44874Y4480D01*
X44849Y4729D01*
X44786Y4970D01*
X44687Y5197D01*
X44553Y5406D01*
X44389Y5590D01*
X44199Y5746D01*
X43988Y5870D01*
X43760Y5959D01*
X43522Y6011D01*
X43279Y6025D01*
X43038Y6001D01*
X42805Y5940D01*
X42584Y5844D01*
X42383Y5714D01*
X42204Y5555D01*
X42053Y5371D01*
X41933Y5166D01*
X41847Y4945D01*
X41797Y4715D01*
X41783Y4480D01*
X41807Y4247D01*
X41866Y4021D01*
X41959Y3807D01*
X42085Y3612D01*
X42239Y3440D01*
X42417Y3293D01*
X42616Y3178D01*
X42829Y3095D01*
X43052Y3046D01*
X43279Y3033D01*
X43505Y3056D01*
X43723Y3113D01*
X43929Y3204D01*
X44118Y3325D01*
X44285Y3474D01*
X44426Y3647D01*
X44538Y3839D01*
X44618Y4045D01*
X44665Y4261D01*
X44677Y4480D01*
X44655Y4698D01*
X44599Y4909D01*
X44511Y5108D01*
X44394Y5290D01*
X44250Y5451D01*
X44084Y5587D01*
X43898Y5695D01*
X43699Y5772D01*
X43491Y5817D01*
X43279Y5828D01*
X43069Y5807D01*
X42866Y5753D01*
X42674Y5668D01*
X42498Y5555D01*
X42343Y5416D01*
X42212Y5255D01*
X42109Y5077D01*
X42034Y4884D01*
X41991Y4684D01*
X41980Y4480D01*
X42001Y4278D01*
X42053Y4082D01*
X42135Y3897D01*
X42244Y3728D01*
X42378Y3579D01*
X42533Y3453D01*
X42705Y3353D01*
X42890Y3282D01*
X43083Y3241D01*
X43279Y3230D01*
X43474Y3250D01*
X43663Y3301D01*
X43840Y3379D01*
X44002Y3485D01*
X44146Y3614D01*
X44267Y3763D01*
X44362Y3928D01*
X44431Y4106D01*
X44470Y4291D01*
X44480Y4480D01*
X44461Y4667D01*
X44412Y4848D01*
X44336Y5018D01*
X44235Y5174D01*
X44111Y5312D01*
X43968Y5428D01*
X43809Y5519D01*
X43638Y5585D01*
X43460Y5622D01*
X43279Y5632D01*
X43100Y5612D01*
X42927Y5566D01*
X42763Y5493D01*
X42614Y5396D01*
X42482Y5277D01*
X42372Y5139D01*
X42284Y4987D01*
X42222Y4824D01*
X42186Y4653D01*
X42177Y4480D01*
X42195Y4308D01*
X42240Y4142D01*
X42310Y3986D01*
X42404Y3844D01*
X42517Y3718D01*
X42649Y3612D01*
X42795Y3528D01*
X42951Y3469D01*
X43114Y3435D01*
X43279Y3427D01*
X43443Y3445D01*
X43602Y3488D01*
X43751Y3555D01*
X43887Y3644D01*
X44007Y3753D01*
X44108Y3878D01*
X44187Y4018D01*
X44243Y4167D01*
X44276Y4322D01*
X44283Y4480D01*
X44266Y4636D01*
X44225Y4787D01*
X44161Y4929D01*
X44076Y5058D01*
X43972Y5173D01*
X43852Y5268D01*
X43719Y5344D01*
X43577Y5397D01*
X43430Y5428D01*
X43279Y5435D01*
X43131Y5418D01*
X42987Y5379D01*
X42853Y5317D01*
X42730Y5237D01*
X42622Y5138D01*
X42531Y5024D01*
X42459Y4898D01*
X42409Y4763D01*
X42380Y4622D01*
X42374Y4480D01*
X42390Y4339D01*
X42427Y4203D01*
X42486Y4076D01*
X42563Y3959D01*
X42657Y3857D01*
X42764Y3771D01*
X42884Y3704D01*
X43012Y3656D01*
X43145Y3629D01*
X43279Y3624D01*
X43413Y3639D01*
X43541Y3675D01*
X43661Y3730D01*
X43771Y3803D01*
X43868Y3892D01*
X43948Y3994D01*
X44012Y4107D01*
X44056Y4228D01*
X44081Y4353D01*
X44086Y4480D01*
X44072Y4605D01*
X44038Y4726D01*
X43985Y4840D01*
X43916Y4943D01*
X43833Y5033D01*
X43736Y5109D01*
X43630Y5168D01*
X43517Y5210D01*
X43399Y5233D01*
X43279Y5238D01*
X43162Y5224D01*
X43048Y5191D01*
X42942Y5142D01*
X42846Y5077D01*
X42761Y4999D01*
X42690Y4908D01*
X42635Y4808D01*
X42596Y4702D01*
X42575Y4592D01*
X42571Y4480D01*
X42584Y4370D01*
X42615Y4264D01*
X42661Y4165D01*
X42722Y4075D01*
X42796Y3996D01*
X42880Y3931D01*
X42973Y3879D01*
X43073Y3844D01*
X43175Y3824D01*
X43279Y3821D01*
X43382Y3834D01*
X43480Y3862D01*
X43572Y3906D01*
X43655Y3962D01*
X43728Y4031D01*
X43789Y4110D01*
X43836Y4196D01*
X43869Y4288D01*
X43887Y4384D01*
X43890Y4480D01*
X43877Y4575D01*
X43850Y4666D01*
X43810Y4750D01*
X43757Y4827D01*
X43694Y4894D01*
X43621Y4950D01*
X43541Y4993D01*
X43456Y5023D01*
X43368Y5039D01*
X43279Y5041D01*
X43192Y5029D01*
X43109Y5004D01*
X43031Y4967D01*
X42961Y4918D01*
X42900Y4859D01*
X42849Y4792D01*
X42810Y4719D01*
X42783Y4641D01*
X42769Y4561D01*
X42768Y4480D01*
X42779Y4401D01*
X42802Y4325D01*
X42836Y4254D01*
X42881Y4191D01*
X42935Y4136D01*
X42996Y4090D01*
X43063Y4055D01*
X43133Y4031D01*
X43206Y4018D01*
X43279Y4017D01*
X43351Y4028D01*
X43419Y4049D01*
X43483Y4081D01*
X43540Y4122D01*
X43589Y4170D01*
X43630Y4225D01*
X43661Y4286D01*
X43682Y4349D01*
X43692Y4415D01*
X43693Y4480D01*
X43683Y4544D01*
X43663Y4605D01*
X43634Y4661D01*
X43598Y4711D01*
X43554Y4755D01*
X43505Y4791D01*
X43451Y4818D01*
X43395Y4836D01*
X43337Y4845D01*
X43279Y4844D01*
X43223Y4835D01*
X43170Y4817D01*
X43121Y4791D01*
X43077Y4759D01*
X43039Y4720D01*
X43009Y4677D01*
X42986Y4630D01*
X42971Y4580D01*
X42963Y4530D01*
X42964Y4480D01*
X39733Y2797D02*
X39726Y2797D01*
X39720Y2797D01*
X39713Y2797D01*
X39707Y2797D01*
X39700Y2796D01*
X39694Y2794D01*
X39687Y2793D01*
X39681Y2791D01*
X39675Y2789D01*
X39669Y2786D01*
X39541Y2729D02*
X39535Y2727D01*
X39529Y2723D01*
X39524Y2720D01*
X39518Y2716D01*
X39513Y2712D01*
X39508Y2708D01*
X39503Y2703D01*
X39848Y2785D02*
X39857Y2784D01*
X39866Y2783D01*
X39875Y2781D01*
X39884Y2778D01*
X39893Y2776D01*
X39902Y2773D01*
X39910Y2770D01*
X39919Y2766D01*
X39927Y2762D01*
X39935Y2758D01*
X39943Y2753D01*
X39437Y2360D02*
X39437Y2371D01*
X39438Y2383D01*
X39439Y2394D01*
X39440Y2405D01*
X39442Y2416D01*
X39444Y2427D01*
X39447Y2438D01*
X39450Y2449D01*
X39453Y2460D01*
X39457Y2471D01*
X39461Y2482D01*
X39465Y2492D01*
X39470Y2502D01*
X39475Y2512D01*
X39481Y2522D01*
X39486Y2532D01*
X39493Y2541D01*
X39499Y2550D01*
X39506Y2560D01*
X39513Y2568D01*
X39521Y2577D01*
X39528Y2585D01*
X39536Y2593D01*
X39545Y2601D01*
X39553Y2608D01*
X39562Y2615D01*
X39571Y2622D01*
X39581Y2628D01*
X39590Y2634D01*
X39600Y2640D01*
X39610Y2646D01*
X39620Y2651D01*
X39630Y2656D01*
X39641Y2660D01*
X39651Y2664D01*
X39662Y2667D01*
X39673Y2671D01*
X39684Y2674D01*
X39695Y2676D01*
X39706Y2678D01*
X39717Y2680D01*
X39728Y2681D01*
X39740Y2682D01*
X39751Y2682D01*
X39762Y2682D01*
X39774Y2682D01*
X39785Y2682D01*
X39796Y2680D01*
X39807Y2679D01*
X39819Y2677D01*
X39830Y2675D01*
X39841Y2672D01*
X39851Y2669D01*
X39862Y2666D01*
X39873Y2662D01*
X39883Y2658D01*
X39894Y2653D01*
X39904Y2648D01*
X39914Y2643D01*
X39924Y2637D01*
X39934Y2631D01*
X39943Y2625D01*
X39952Y2619D01*
X39961Y2612D01*
X39970Y2604D01*
X39978Y2597D01*
X39986Y2589D01*
X39994Y2581D01*
X40002Y2573D01*
X40009Y2564D01*
X40016Y2555D01*
X40023Y2546D01*
X40029Y2537D01*
X40035Y2527D01*
X40041Y2517D01*
X40046Y2507D01*
X40051Y2497D01*
X40056Y2487D01*
X40060Y2476D01*
X40064Y2466D01*
X40068Y2455D01*
X40071Y2444D01*
X40074Y2433D01*
X40076Y2422D01*
X40078Y2411D01*
X40079Y2399D01*
X40081Y2388D01*
X40081Y2377D01*
X40082Y2366D01*
X40082Y2354D01*
X40081Y2343D01*
X40081Y2332D01*
X40079Y2320D01*
X40078Y2309D01*
X40076Y2298D01*
X40074Y2287D01*
X40071Y2276D01*
X40068Y2265D01*
X40064Y2254D01*
X40060Y2244D01*
X40056Y2233D01*
X40051Y2223D01*
X40046Y2213D01*
X40041Y2203D01*
X40035Y2193D01*
X40029Y2183D01*
X40023Y2174D01*
X40016Y2165D01*
X40009Y2156D01*
X40002Y2147D01*
X39994Y2139D01*
X39986Y2131D01*
X39978Y2123D01*
X39970Y2116D01*
X39961Y2108D01*
X39952Y2101D01*
X39943Y2095D01*
X39934Y2089D01*
X39924Y2083D01*
X39914Y2077D01*
X39904Y2072D01*
X39894Y2067D01*
X39883Y2062D01*
X39873Y2058D01*
X39862Y2054D01*
X39851Y2051D01*
X39841Y2048D01*
X39830Y2045D01*
X39819Y2043D01*
X39807Y2041D01*
X39796Y2040D01*
X39785Y2039D01*
X39774Y2038D01*
X39762Y2038D01*
X39751Y2038D01*
X39740Y2038D01*
X39728Y2039D01*
X39717Y2040D01*
X39706Y2042D01*
X39695Y2044D01*
X39684Y2047D01*
X39673Y2049D01*
X39662Y2053D01*
X39651Y2056D01*
X39641Y2060D01*
X39630Y2064D01*
X39620Y2069D01*
X39610Y2074D01*
X39600Y2080D01*
X39590Y2086D01*
X39581Y2092D01*
X39571Y2098D01*
X39562Y2105D01*
X39553Y2112D01*
X39545Y2119D01*
X39536Y2127D01*
X39528Y2135D01*
X39521Y2143D01*
X39513Y2152D01*
X39506Y2161D01*
X39499Y2170D01*
X39493Y2179D01*
X39486Y2188D01*
X39481Y2198D01*
X39475Y2208D01*
X39470Y2218D01*
X39465Y2228D01*
X39461Y2239D01*
X39457Y2249D01*
X39453Y2260D01*
X39450Y2271D01*
X39447Y2282D01*
X39444Y2293D01*
X39442Y2304D01*
X39440Y2315D01*
X39439Y2326D01*
X39438Y2337D01*
X39437Y2349D01*
X39437Y2360D01*
X39106Y2286D02*
X39101Y2282D01*
X39097Y2278D01*
X39092Y2275D01*
X39087Y2272D01*
X39082Y2269D01*
X39076Y2267D01*
X39071Y2265D01*
X39065Y2263D01*
X39060Y2262D01*
X39054Y2261D01*
X39048Y2260D01*
X39042Y2260D01*
X34769Y2260D02*
X34763Y2260D01*
X34758Y2261D01*
X34752Y2262D01*
X34747Y2263D01*
X34741Y2265D01*
X34736Y2267D01*
X34731Y2269D01*
X34726Y2272D01*
X34721Y2275D01*
X34716Y2279D01*
X33577Y2380D02*
X33577Y2391D01*
X33578Y2403D01*
X33579Y2414D01*
X33580Y2425D01*
X33582Y2436D01*
X33584Y2447D01*
X33587Y2458D01*
X33590Y2469D01*
X33593Y2480D01*
X33597Y2491D01*
X33601Y2501D01*
X33605Y2512D01*
X33610Y2522D01*
X33615Y2532D01*
X33621Y2542D01*
X33626Y2552D01*
X33633Y2561D01*
X33639Y2571D01*
X33646Y2579D01*
X33653Y2588D01*
X33661Y2597D01*
X33668Y2605D01*
X33676Y2613D01*
X33685Y2621D01*
X33693Y2628D01*
X33702Y2635D01*
X33711Y2642D01*
X33720Y2648D01*
X33730Y2655D01*
X33740Y2660D01*
X33750Y2666D01*
X33760Y2671D01*
X33770Y2675D01*
X33781Y2680D01*
X33791Y2684D01*
X33802Y2687D01*
X33813Y2691D01*
X33824Y2693D01*
X33835Y2696D01*
X33846Y2698D01*
X33857Y2700D01*
X33868Y2701D01*
X33880Y2702D01*
X33891Y2702D01*
X33902Y2703D01*
X33914Y2702D01*
X33925Y2701D01*
X33936Y2700D01*
X33947Y2699D01*
X33959Y2697D01*
X33970Y2695D01*
X33981Y2692D01*
X33992Y2689D01*
X34002Y2686D01*
X34013Y2682D01*
X34023Y2678D01*
X34034Y2673D01*
X34044Y2668D01*
X34054Y2663D01*
X34064Y2657D01*
X34073Y2651D01*
X34083Y2645D01*
X34092Y2639D01*
X34101Y2632D01*
X34110Y2624D01*
X34118Y2617D01*
X34126Y2609D01*
X34134Y2601D01*
X34142Y2593D01*
X34149Y2584D01*
X34156Y2575D01*
X34163Y2566D01*
X34169Y2556D01*
X34175Y2547D01*
X34181Y2537D01*
X34186Y2527D01*
X34191Y2517D01*
X34196Y2507D01*
X34200Y2496D01*
X34204Y2486D01*
X34208Y2475D01*
X34211Y2464D01*
X34214Y2453D01*
X34216Y2442D01*
X34218Y2431D01*
X34220Y2420D01*
X34221Y2408D01*
X34222Y2397D01*
X34222Y2386D01*
X34222Y2374D01*
X34222Y2363D01*
X34221Y2352D01*
X34220Y2341D01*
X34218Y2329D01*
X34216Y2318D01*
X34214Y2307D01*
X34211Y2296D01*
X34208Y2285D01*
X34204Y2274D01*
X34200Y2264D01*
X34196Y2253D01*
X34191Y2243D01*
X34186Y2233D01*
X34181Y2223D01*
X34175Y2213D01*
X34169Y2204D01*
X34163Y2194D01*
X34156Y2185D01*
X34149Y2176D01*
X34142Y2167D01*
X34134Y2159D01*
X34126Y2151D01*
X34118Y2143D01*
X34110Y2136D01*
X34101Y2128D01*
X34092Y2121D01*
X34083Y2115D01*
X34073Y2109D01*
X34064Y2103D01*
X34054Y2097D01*
X34044Y2092D01*
X34034Y2087D01*
X34023Y2082D01*
X34013Y2078D01*
X34002Y2074D01*
X33992Y2071D01*
X33981Y2068D01*
X33970Y2065D01*
X33959Y2063D01*
X33947Y2061D01*
X33936Y2060D01*
X33925Y2059D01*
X33914Y2058D01*
X33902Y2058D01*
X33891Y2058D01*
X33880Y2058D01*
X33868Y2059D01*
X33857Y2060D01*
X33846Y2062D01*
X33835Y2064D01*
X33824Y2067D01*
X33813Y2069D01*
X33802Y2073D01*
X33791Y2076D01*
X33781Y2080D01*
X33770Y2084D01*
X33760Y2089D01*
X33750Y2094D01*
X33740Y2100D01*
X33730Y2106D01*
X33720Y2112D01*
X33711Y2118D01*
X33702Y2125D01*
X33693Y2132D01*
X33685Y2139D01*
X33676Y2147D01*
X33668Y2155D01*
X33661Y2163D01*
X33653Y2172D01*
X33646Y2181D01*
X33639Y2189D01*
X33633Y2199D01*
X33626Y2208D01*
X33621Y2218D01*
X33615Y2228D01*
X33610Y2238D01*
X33605Y2248D01*
X33601Y2258D01*
X33597Y2269D01*
X33593Y2280D01*
X33590Y2291D01*
X33587Y2302D01*
X33584Y2313D01*
X33582Y2324D01*
X33580Y2335D01*
X33579Y2346D01*
X33578Y2357D01*
X33577Y2369D01*
X33577Y2380D01*
X33677Y2786D02*
X33684Y2790D01*
X33690Y2793D01*
X33697Y2797D01*
X33704Y2800D01*
X33711Y2802D01*
X33718Y2804D01*
X33725Y2806D01*
X33833Y2833D02*
X33839Y2835D01*
X33846Y2836D01*
X33853Y2837D01*
X33860Y2837D01*
X33866Y2837D01*
X33873Y2837D01*
X33880Y2836D01*
X33886Y2835D01*
X34048Y2806D02*
X34055Y2804D01*
X34062Y2802D01*
X34068Y2800D01*
X34074Y2798D01*
X34081Y2795D01*
X34087Y2792D01*
X34093Y2788D01*
X34098Y2784D01*
X34104Y2780D01*
D12*
X11199Y3468D02*
X11199Y3709D01*
X10557Y3709D01*
X10557Y3841D01*
X11199Y3841D01*
X11199Y4081D01*
X11313Y4081D01*
X11313Y3468D01*
X11199Y3468D01*
X11199Y3478D02*
X11313Y3478D01*
X11313Y3498D02*
X11199Y3498D01*
X11199Y3518D02*
X11313Y3518D01*
X11313Y3538D02*
X11199Y3538D01*
X11199Y3558D02*
X11313Y3558D01*
X11313Y3577D02*
X11199Y3577D01*
X11199Y3597D02*
X11313Y3597D01*
X11313Y3617D02*
X11199Y3617D01*
X11199Y3637D02*
X11313Y3637D01*
X11313Y3657D02*
X11199Y3657D01*
X11199Y3677D02*
X11313Y3677D01*
X11313Y3697D02*
X11199Y3697D01*
X11313Y3717D02*
X10557Y3717D01*
X10557Y3736D02*
X11313Y3736D01*
X11313Y3756D02*
X10557Y3756D01*
X10557Y3776D02*
X11313Y3776D01*
X11313Y3796D02*
X10557Y3796D01*
X10557Y3816D02*
X11313Y3816D01*
X11313Y3836D02*
X10557Y3836D01*
X11199Y3855D02*
X11313Y3855D01*
X11313Y3875D02*
X11199Y3875D01*
X11199Y3895D02*
X11313Y3895D01*
X11313Y3915D02*
X11199Y3915D01*
X11199Y3935D02*
X11313Y3935D01*
X11313Y3955D02*
X11199Y3955D01*
X11199Y3974D02*
X11313Y3974D01*
X11313Y3994D02*
X11199Y3994D01*
X11199Y4014D02*
X11313Y4014D01*
X11313Y4034D02*
X11199Y4034D01*
X11199Y4054D02*
X11313Y4054D01*
X11313Y4074D02*
X11199Y4074D01*
X11313Y4160D02*
X10829Y4160D01*
X10702Y4183D01*
X10612Y4246D01*
X10557Y4344D01*
X10539Y4471D01*
X10557Y4598D01*
X10612Y4696D01*
X10702Y4759D01*
X10829Y4781D01*
X11313Y4781D01*
X11313Y4782D01*
X11313Y4649D01*
X10873Y4649D01*
X10796Y4645D01*
X10725Y4624D01*
X10674Y4571D01*
X10654Y4471D01*
X10674Y4371D01*
X10725Y4318D01*
X10796Y4297D01*
X10873Y4293D01*
X11313Y4293D01*
X11313Y4160D01*
X11313Y4173D02*
X10757Y4173D01*
X10687Y4193D02*
X11313Y4193D01*
X11313Y4213D02*
X10659Y4213D01*
X10630Y4233D02*
X11313Y4233D01*
X11313Y4253D02*
X10608Y4253D01*
X10597Y4272D02*
X11313Y4272D01*
X11313Y4292D02*
X10585Y4292D01*
X10574Y4312D02*
X10744Y4312D01*
X10712Y4332D02*
X10563Y4332D01*
X10556Y4352D02*
X10692Y4352D01*
X10673Y4372D02*
X10553Y4372D01*
X10550Y4391D02*
X10670Y4391D01*
X10666Y4411D02*
X10547Y4411D01*
X10544Y4431D02*
X10662Y4431D01*
X10658Y4451D02*
X10542Y4451D01*
X10539Y4471D02*
X10654Y4471D01*
X10658Y4491D02*
X10542Y4491D01*
X10544Y4511D02*
X10662Y4511D01*
X10666Y4530D02*
X10547Y4530D01*
X10550Y4550D02*
X10669Y4550D01*
X10673Y4570D02*
X10553Y4570D01*
X10556Y4590D02*
X10692Y4590D01*
X10711Y4610D02*
X10563Y4610D01*
X10574Y4630D02*
X10743Y4630D01*
X10659Y4729D02*
X11313Y4729D01*
X11313Y4749D02*
X10687Y4749D01*
X10630Y4709D02*
X11313Y4709D01*
X11313Y4689D02*
X10608Y4689D01*
X10597Y4669D02*
X11313Y4669D01*
X11313Y4649D02*
X10586Y4649D01*
X10757Y4769D02*
X11313Y4769D01*
X11214Y4948D02*
X11088Y4876D01*
X10935Y4851D01*
X10782Y4876D01*
X10656Y4948D01*
X10570Y5062D01*
X10554Y5140D01*
X10665Y5140D01*
X10672Y5109D01*
X10737Y5038D01*
X10829Y4997D01*
X10936Y4984D01*
X11041Y4997D01*
X11134Y5038D01*
X11199Y5109D01*
X11206Y5140D01*
X11316Y5140D01*
X11300Y5062D01*
X11214Y4948D01*
X10656Y4947D01*
X10641Y4967D02*
X11228Y4967D01*
X11244Y4987D02*
X10959Y4987D01*
X10912Y4987D02*
X10626Y4987D01*
X10611Y5007D02*
X10808Y5007D01*
X10763Y5027D02*
X10596Y5027D01*
X10582Y5047D02*
X10729Y5047D01*
X10711Y5066D02*
X10569Y5066D01*
X10565Y5086D02*
X10693Y5086D01*
X10675Y5106D02*
X10561Y5106D01*
X10557Y5126D02*
X10668Y5126D01*
X10664Y5140D02*
X10647Y5214D01*
X10672Y5318D01*
X10737Y5389D01*
X10829Y5430D01*
X10935Y5443D01*
X11041Y5430D01*
X11134Y5389D01*
X11199Y5318D01*
X11223Y5214D01*
X11206Y5140D01*
X11316Y5140D01*
X11331Y5214D01*
X11299Y5366D01*
X11214Y5479D01*
X11088Y5551D01*
X10935Y5576D01*
X10782Y5551D01*
X10655Y5479D01*
X10570Y5366D01*
X10539Y5214D01*
X10554Y5140D01*
X10664Y5140D01*
X10663Y5146D02*
X10553Y5146D01*
X10549Y5166D02*
X10658Y5166D01*
X10654Y5186D02*
X10545Y5186D01*
X10541Y5205D02*
X10649Y5205D01*
X10650Y5225D02*
X10541Y5225D01*
X10545Y5245D02*
X10654Y5245D01*
X10659Y5265D02*
X10549Y5265D01*
X10553Y5285D02*
X10664Y5285D01*
X10668Y5305D02*
X10557Y5305D01*
X10562Y5324D02*
X10677Y5324D01*
X10695Y5344D02*
X10566Y5344D01*
X10570Y5364D02*
X10714Y5364D01*
X10732Y5384D02*
X10584Y5384D01*
X10599Y5404D02*
X10769Y5404D01*
X10815Y5424D02*
X10614Y5424D01*
X10629Y5443D02*
X11241Y5443D01*
X11256Y5424D02*
X11056Y5424D01*
X11101Y5404D02*
X11271Y5404D01*
X11286Y5384D02*
X11139Y5384D01*
X11157Y5364D02*
X11300Y5364D01*
X11304Y5344D02*
X11175Y5344D01*
X11193Y5324D02*
X11308Y5324D01*
X11312Y5305D02*
X11202Y5305D01*
X11207Y5285D02*
X11316Y5285D01*
X11320Y5265D02*
X11211Y5265D01*
X11216Y5245D02*
X11325Y5245D01*
X11329Y5225D02*
X11221Y5225D01*
X11221Y5205D02*
X11330Y5205D01*
X11325Y5186D02*
X11217Y5186D01*
X11212Y5166D02*
X11321Y5166D01*
X11317Y5146D02*
X11208Y5146D01*
X11203Y5126D02*
X11313Y5126D01*
X11309Y5106D02*
X11196Y5106D01*
X11178Y5086D02*
X11305Y5086D01*
X11301Y5066D02*
X11160Y5066D01*
X11142Y5047D02*
X11288Y5047D01*
X11273Y5027D02*
X11108Y5027D01*
X11063Y5007D02*
X11258Y5007D01*
X11178Y4927D02*
X10691Y4927D01*
X10726Y4907D02*
X11143Y4907D01*
X11108Y4888D02*
X10761Y4888D01*
X10833Y4868D02*
X11036Y4868D01*
X11226Y5463D02*
X10643Y5463D01*
X10662Y5483D02*
X11207Y5483D01*
X11172Y5503D02*
X10697Y5503D01*
X10732Y5523D02*
X11137Y5523D01*
X11102Y5543D02*
X10767Y5543D01*
X10854Y5563D02*
X11016Y5563D01*
X16962Y5563D02*
X17076Y5563D01*
X17076Y5543D02*
X16962Y5543D01*
X16962Y5523D02*
X17076Y5523D01*
X17076Y5503D02*
X16962Y5503D01*
X16962Y5483D02*
X17076Y5483D01*
X17076Y5463D02*
X16962Y5463D01*
X16962Y5443D02*
X17076Y5443D01*
X17076Y5424D02*
X16962Y5424D01*
X16962Y5404D02*
X17076Y5404D01*
X17076Y5384D02*
X16962Y5384D01*
X16962Y5364D02*
X17076Y5364D01*
X17076Y5344D02*
X16962Y5344D01*
X16962Y5327D02*
X16962Y5879D01*
X17718Y5879D01*
X17718Y5878D01*
X17718Y5334D01*
X17604Y5334D01*
X17604Y5746D01*
X17406Y5746D01*
X17406Y5365D01*
X17298Y5365D01*
X17298Y5746D01*
X17076Y5746D01*
X17076Y5327D01*
X16962Y5327D01*
X16962Y5299D02*
X16962Y5162D01*
X17062Y5127D01*
X17162Y5091D01*
X17162Y4789D01*
X17062Y4754D01*
X16962Y4718D01*
X16962Y4576D01*
X17264Y4693D01*
X17348Y4725D01*
X17348Y4854D01*
X17263Y4824D01*
X17263Y5055D01*
X17348Y5025D01*
X17348Y5137D01*
X17385Y5137D01*
X17265Y5183D01*
X17113Y5241D01*
X16962Y5299D01*
X16962Y5285D02*
X16999Y5285D01*
X16962Y5265D02*
X17051Y5265D01*
X17103Y5245D02*
X16962Y5245D01*
X16962Y5225D02*
X17155Y5225D01*
X17206Y5205D02*
X16962Y5205D01*
X16962Y5186D02*
X17258Y5186D01*
X17310Y5166D02*
X16962Y5166D01*
X17009Y5146D02*
X17362Y5146D01*
X17348Y5137D02*
X17348Y5026D01*
X17426Y4998D01*
X17588Y4941D01*
X17588Y4938D01*
X17426Y4881D01*
X17348Y4854D01*
X17348Y4725D01*
X17416Y4751D01*
X17567Y4810D01*
X17718Y4868D01*
X17718Y5009D01*
X17567Y5067D01*
X17416Y5125D01*
X17385Y5137D01*
X17348Y5137D01*
X17348Y5126D02*
X17065Y5126D01*
X17121Y5106D02*
X17348Y5106D01*
X17464Y5106D01*
X17413Y5126D02*
X17348Y5126D01*
X17348Y5086D02*
X17162Y5086D01*
X17162Y5066D02*
X17348Y5066D01*
X17568Y5066D01*
X17516Y5086D02*
X17348Y5086D01*
X17348Y5047D02*
X17288Y5047D01*
X17263Y5047D02*
X17162Y5047D01*
X17162Y5027D02*
X17263Y5027D01*
X17263Y5007D02*
X17162Y5007D01*
X17162Y4987D02*
X17263Y4987D01*
X17263Y4967D02*
X17162Y4967D01*
X17162Y4947D02*
X17263Y4947D01*
X17263Y4927D02*
X17162Y4927D01*
X17162Y4907D02*
X17263Y4907D01*
X17263Y4888D02*
X17162Y4888D01*
X17162Y4868D02*
X17263Y4868D01*
X17263Y4848D02*
X17162Y4848D01*
X17162Y4828D02*
X17263Y4828D01*
X17274Y4828D02*
X17348Y4828D01*
X17615Y4828D01*
X17564Y4808D02*
X17348Y4808D01*
X17162Y4808D01*
X17160Y4788D02*
X17348Y4788D01*
X17512Y4788D01*
X17460Y4769D02*
X17348Y4769D01*
X17104Y4769D01*
X17047Y4749D02*
X17348Y4749D01*
X17409Y4749D01*
X17357Y4729D02*
X17348Y4729D01*
X16992Y4729D01*
X16962Y4709D02*
X17307Y4709D01*
X17255Y4689D02*
X16962Y4689D01*
X16962Y4669D02*
X17203Y4669D01*
X17152Y4649D02*
X16962Y4649D01*
X16962Y4630D02*
X17100Y4630D01*
X17049Y4610D02*
X16962Y4610D01*
X16962Y4590D02*
X16997Y4590D01*
X16962Y4526D02*
X16962Y4293D01*
X17070Y4293D01*
X17070Y4393D01*
X17610Y4393D01*
X17610Y4293D01*
X17718Y4293D01*
X17718Y4526D01*
X16962Y4526D01*
X16962Y4511D02*
X17718Y4511D01*
X17718Y4491D02*
X16962Y4491D01*
X16962Y4471D02*
X17718Y4471D01*
X17718Y4451D02*
X16962Y4451D01*
X16962Y4431D02*
X17718Y4431D01*
X17718Y4411D02*
X16962Y4411D01*
X16962Y4391D02*
X17070Y4391D01*
X17070Y4372D02*
X16962Y4372D01*
X16962Y4352D02*
X17070Y4352D01*
X17070Y4332D02*
X16962Y4332D01*
X16962Y4312D02*
X17070Y4312D01*
X17071Y4293D02*
X16962Y4293D01*
X16962Y4212D01*
X16992Y4062D01*
X17073Y3958D01*
X17193Y3898D01*
X17341Y3879D01*
X17488Y3898D01*
X17608Y3958D01*
X17689Y4062D01*
X17718Y4212D01*
X17718Y4293D01*
X17611Y4293D01*
X17611Y4263D01*
X17590Y4136D01*
X17533Y4059D01*
X17447Y4021D01*
X17341Y4011D01*
X17234Y4021D01*
X17148Y4059D01*
X17091Y4136D01*
X17071Y4263D01*
X17071Y4293D01*
X16962Y4292D01*
X16962Y4272D02*
X17071Y4272D01*
X17072Y4253D02*
X16962Y4253D01*
X16962Y4233D02*
X17075Y4233D01*
X17079Y4213D02*
X16962Y4213D01*
X16966Y4193D02*
X17082Y4193D01*
X17085Y4173D02*
X16970Y4173D01*
X16974Y4153D02*
X17088Y4153D01*
X17093Y4133D02*
X16978Y4133D01*
X16982Y4114D02*
X17108Y4114D01*
X17123Y4094D02*
X16986Y4094D01*
X16990Y4074D02*
X17137Y4074D01*
X17160Y4054D02*
X16998Y4054D01*
X17014Y4034D02*
X17204Y4034D01*
X17304Y4014D02*
X17029Y4014D01*
X17045Y3994D02*
X17636Y3994D01*
X17652Y4014D02*
X17377Y4014D01*
X17477Y4034D02*
X17667Y4034D01*
X17683Y4054D02*
X17521Y4054D01*
X17544Y4074D02*
X17691Y4074D01*
X17695Y4094D02*
X17558Y4094D01*
X17573Y4114D02*
X17699Y4114D01*
X17703Y4133D02*
X17588Y4133D01*
X17593Y4153D02*
X17707Y4153D01*
X17711Y4173D02*
X17596Y4173D01*
X17599Y4193D02*
X17715Y4193D01*
X17718Y4213D02*
X17602Y4213D01*
X17605Y4233D02*
X17718Y4233D01*
X17718Y4253D02*
X17609Y4253D01*
X17611Y4272D02*
X17718Y4272D01*
X17718Y4292D02*
X17611Y4292D01*
X17610Y4312D02*
X17718Y4312D01*
X17718Y4332D02*
X17610Y4332D01*
X17610Y4352D02*
X17718Y4352D01*
X17718Y4372D02*
X17610Y4372D01*
X17610Y4391D02*
X17718Y4391D01*
X17621Y3974D02*
X17060Y3974D01*
X17080Y3955D02*
X17601Y3955D01*
X17561Y3935D02*
X17120Y3935D01*
X17160Y3915D02*
X17521Y3915D01*
X17465Y3895D02*
X17216Y3895D01*
X16962Y3466D02*
X17718Y3466D01*
X17718Y3334D01*
X16962Y3334D01*
X16962Y3466D01*
X16962Y3458D02*
X17718Y3458D01*
X17718Y3439D02*
X16962Y3439D01*
X16962Y3419D02*
X17718Y3419D01*
X17718Y3399D02*
X16962Y3399D01*
X16962Y3379D02*
X17718Y3379D01*
X17718Y3359D02*
X16962Y3359D01*
X16962Y3339D02*
X17718Y3339D01*
X17718Y3241D02*
X17718Y3240D01*
X16961Y3240D01*
X16961Y3114D01*
X17517Y3114D01*
X17517Y3111D01*
X17378Y3025D01*
X17239Y2939D01*
X16962Y2767D01*
X16962Y2627D01*
X17718Y2627D01*
X17718Y2753D01*
X17161Y2753D01*
X17161Y2755D01*
X17300Y2842D01*
X17718Y3101D01*
X17718Y3241D01*
X17718Y3240D01*
X17718Y3220D02*
X16961Y3220D01*
X16961Y3200D02*
X17718Y3200D01*
X17718Y3180D02*
X16961Y3180D01*
X16961Y3161D02*
X17718Y3161D01*
X17718Y3141D02*
X16961Y3141D01*
X16961Y3121D02*
X17718Y3121D01*
X17718Y3101D02*
X17502Y3101D01*
X17470Y3081D02*
X17687Y3081D01*
X17655Y3061D02*
X17438Y3061D01*
X17406Y3041D02*
X17623Y3041D01*
X17591Y3022D02*
X17373Y3022D01*
X17341Y3002D02*
X17559Y3002D01*
X17527Y2982D02*
X17309Y2982D01*
X17277Y2962D02*
X17495Y2962D01*
X17463Y2942D02*
X17245Y2942D01*
X17213Y2922D02*
X17431Y2922D01*
X17399Y2903D02*
X17181Y2903D01*
X17149Y2883D02*
X17367Y2883D01*
X17335Y2863D02*
X17117Y2863D01*
X17085Y2843D02*
X17303Y2843D01*
X17271Y2823D02*
X17053Y2823D01*
X17020Y2803D02*
X17239Y2803D01*
X17207Y2784D02*
X16988Y2784D01*
X16962Y2764D02*
X17175Y2764D01*
X16962Y2744D02*
X17718Y2744D01*
X17718Y2724D02*
X16962Y2724D01*
X16962Y2704D02*
X17718Y2704D01*
X17718Y2684D02*
X16962Y2684D01*
X16962Y2664D02*
X17718Y2664D01*
X17718Y2644D02*
X16962Y2644D01*
X25108Y3394D02*
X25108Y3534D01*
X25247Y3620D01*
X25386Y3706D01*
X25525Y3792D01*
X25664Y3878D01*
X25664Y3881D01*
X25108Y3881D01*
X25108Y4007D01*
X25865Y4007D01*
X25865Y3868D01*
X25726Y3781D01*
X25586Y3695D01*
X25447Y3608D01*
X25308Y3522D01*
X25308Y3520D01*
X25865Y3520D01*
X25865Y3394D01*
X25108Y3394D01*
X25108Y3399D02*
X25865Y3399D01*
X25865Y3419D02*
X25108Y3419D01*
X25108Y3439D02*
X25865Y3439D01*
X25865Y3458D02*
X25108Y3458D01*
X25108Y3478D02*
X25865Y3478D01*
X25865Y3498D02*
X25108Y3498D01*
X25108Y3518D02*
X25865Y3518D01*
X25429Y3597D02*
X25211Y3597D01*
X25179Y3577D02*
X25397Y3577D01*
X25365Y3558D02*
X25147Y3558D01*
X25115Y3538D02*
X25333Y3538D01*
X25275Y3637D02*
X25493Y3637D01*
X25461Y3617D02*
X25243Y3617D01*
X25307Y3657D02*
X25525Y3657D01*
X25557Y3677D02*
X25339Y3677D01*
X25372Y3697D02*
X25589Y3697D01*
X25621Y3717D02*
X25404Y3717D01*
X25436Y3736D02*
X25653Y3736D01*
X25685Y3756D02*
X25468Y3756D01*
X25500Y3776D02*
X25717Y3776D01*
X25749Y3796D02*
X25532Y3796D01*
X25564Y3816D02*
X25781Y3816D01*
X25813Y3836D02*
X25596Y3836D01*
X25628Y3855D02*
X25845Y3855D01*
X25865Y3875D02*
X25660Y3875D01*
X25865Y3895D02*
X25108Y3895D01*
X25108Y3915D02*
X25865Y3915D01*
X25865Y3935D02*
X25108Y3935D01*
X25108Y3955D02*
X25865Y3955D01*
X25865Y3974D02*
X25108Y3974D01*
X25108Y3994D02*
X25865Y3994D01*
X25865Y4080D02*
X25108Y4080D01*
X25108Y4212D01*
X25865Y4212D01*
X25865Y4080D01*
X25865Y4094D02*
X25108Y4094D01*
X25108Y4114D02*
X25865Y4114D01*
X25865Y4133D02*
X25108Y4133D01*
X25108Y4153D02*
X25865Y4153D01*
X25865Y4173D02*
X25108Y4173D01*
X25108Y4193D02*
X25865Y4193D01*
X25260Y4321D02*
X25109Y4262D01*
X25109Y4404D01*
X25209Y4440D01*
X25309Y4475D01*
X25309Y4777D01*
X25209Y4813D01*
X25109Y4848D01*
X25109Y4985D01*
X25260Y4927D01*
X25411Y4869D01*
X25563Y4811D01*
X25596Y4798D01*
X25596Y4675D01*
X25572Y4684D01*
X25409Y4741D01*
X25409Y4510D01*
X25572Y4567D01*
X25596Y4575D01*
X25596Y4450D01*
X25563Y4437D01*
X25411Y4379D01*
X25260Y4321D01*
X25238Y4312D02*
X25109Y4312D01*
X25109Y4292D02*
X25186Y4292D01*
X25134Y4272D02*
X25109Y4272D01*
X25109Y4332D02*
X25289Y4332D01*
X25341Y4352D02*
X25109Y4352D01*
X25109Y4372D02*
X25392Y4372D01*
X25444Y4391D02*
X25109Y4391D01*
X25128Y4411D02*
X25496Y4411D01*
X25547Y4431D02*
X25184Y4431D01*
X25240Y4451D02*
X25596Y4451D01*
X25597Y4451D01*
X25714Y4496D01*
X25865Y4554D01*
X25865Y4695D01*
X25714Y4753D01*
X25596Y4798D01*
X25596Y4676D01*
X25735Y4627D01*
X25735Y4624D01*
X25596Y4576D01*
X25596Y4450D01*
X25596Y4471D02*
X25296Y4471D01*
X25309Y4491D02*
X25596Y4491D01*
X25700Y4491D01*
X25649Y4471D02*
X25596Y4471D01*
X25596Y4511D02*
X25410Y4511D01*
X25309Y4511D01*
X25309Y4530D02*
X25409Y4530D01*
X25409Y4550D02*
X25309Y4550D01*
X25309Y4570D02*
X25409Y4570D01*
X25409Y4590D02*
X25309Y4590D01*
X25309Y4610D02*
X25409Y4610D01*
X25409Y4630D02*
X25309Y4630D01*
X25309Y4649D02*
X25409Y4649D01*
X25409Y4669D02*
X25309Y4669D01*
X25309Y4689D02*
X25409Y4689D01*
X25409Y4709D02*
X25309Y4709D01*
X25309Y4729D02*
X25409Y4729D01*
X25444Y4729D02*
X25596Y4729D01*
X25776Y4729D01*
X25724Y4749D02*
X25596Y4749D01*
X25309Y4749D01*
X25309Y4769D02*
X25596Y4769D01*
X25672Y4769D01*
X25621Y4788D02*
X25596Y4788D01*
X25278Y4788D01*
X25222Y4808D02*
X25570Y4808D01*
X25518Y4828D02*
X25166Y4828D01*
X25110Y4848D02*
X25466Y4848D01*
X25414Y4868D02*
X25109Y4868D01*
X25109Y4888D02*
X25362Y4888D01*
X25311Y4907D02*
X25109Y4907D01*
X25109Y4927D02*
X25259Y4927D01*
X25207Y4947D02*
X25109Y4947D01*
X25109Y4967D02*
X25155Y4967D01*
X25109Y5041D02*
X25109Y5042D01*
X25507Y5042D01*
X25507Y5364D01*
X25406Y5364D01*
X25406Y5163D01*
X25319Y5177D01*
X25253Y5218D01*
X25211Y5284D01*
X25198Y5374D01*
X25223Y5479D01*
X25288Y5550D01*
X25380Y5591D01*
X25487Y5604D01*
X25593Y5591D01*
X25685Y5550D01*
X25750Y5479D01*
X25775Y5374D01*
X25765Y5306D01*
X25736Y5246D01*
X25689Y5202D01*
X25624Y5179D01*
X25624Y5050D01*
X25736Y5086D01*
X25624Y5086D01*
X25624Y5066D02*
X25674Y5066D01*
X25624Y5106D02*
X25759Y5106D01*
X25781Y5126D02*
X25624Y5126D01*
X25624Y5146D02*
X25803Y5146D01*
X25817Y5158D02*
X25736Y5086D01*
X25817Y5158D02*
X25866Y5257D01*
X25883Y5374D01*
X25851Y5526D01*
X25765Y5640D01*
X25639Y5712D01*
X25487Y5736D01*
X25333Y5712D01*
X25207Y5640D01*
X25122Y5526D01*
X25090Y5374D01*
X25114Y5252D01*
X25197Y5146D01*
X25109Y5126D01*
X25109Y5041D01*
X25109Y5047D02*
X25507Y5047D01*
X25507Y5066D02*
X25109Y5066D01*
X25109Y5086D02*
X25507Y5086D01*
X25507Y5106D02*
X25109Y5106D01*
X25109Y5126D02*
X25507Y5126D01*
X25507Y5146D02*
X25195Y5146D01*
X25182Y5166D02*
X25388Y5166D01*
X25406Y5166D02*
X25507Y5166D01*
X25507Y5186D02*
X25406Y5186D01*
X25406Y5205D02*
X25507Y5205D01*
X25507Y5225D02*
X25406Y5225D01*
X25406Y5245D02*
X25507Y5245D01*
X25507Y5265D02*
X25406Y5265D01*
X25406Y5285D02*
X25507Y5285D01*
X25507Y5305D02*
X25406Y5305D01*
X25406Y5324D02*
X25507Y5324D01*
X25507Y5344D02*
X25406Y5344D01*
X25224Y5265D02*
X25111Y5265D01*
X25108Y5285D02*
X25211Y5285D01*
X25209Y5305D02*
X25104Y5305D01*
X25100Y5324D02*
X25206Y5324D01*
X25203Y5344D02*
X25096Y5344D01*
X25092Y5364D02*
X25200Y5364D01*
X25201Y5384D02*
X25093Y5384D01*
X25097Y5404D02*
X25205Y5404D01*
X25210Y5424D02*
X25101Y5424D01*
X25105Y5443D02*
X25214Y5443D01*
X25219Y5463D02*
X25109Y5463D01*
X25113Y5483D02*
X25227Y5483D01*
X25245Y5503D02*
X25117Y5503D01*
X25121Y5523D02*
X25263Y5523D01*
X25281Y5543D02*
X25134Y5543D01*
X25149Y5563D02*
X25316Y5563D01*
X25361Y5583D02*
X25164Y5583D01*
X25179Y5602D02*
X25470Y5602D01*
X25503Y5602D02*
X25793Y5602D01*
X25808Y5583D02*
X25612Y5583D01*
X25657Y5563D02*
X25823Y5563D01*
X25838Y5543D02*
X25692Y5543D01*
X25710Y5523D02*
X25851Y5523D01*
X25856Y5503D02*
X25728Y5503D01*
X25746Y5483D02*
X25860Y5483D01*
X25864Y5463D02*
X25754Y5463D01*
X25758Y5443D02*
X25868Y5443D01*
X25872Y5424D02*
X25763Y5424D01*
X25768Y5404D02*
X25876Y5404D01*
X25880Y5384D02*
X25772Y5384D01*
X25773Y5364D02*
X25881Y5364D01*
X25878Y5344D02*
X25771Y5344D01*
X25768Y5324D02*
X25876Y5324D01*
X25873Y5305D02*
X25765Y5305D01*
X25755Y5285D02*
X25870Y5285D01*
X25867Y5265D02*
X25745Y5265D01*
X25735Y5245D02*
X25860Y5245D01*
X25850Y5225D02*
X25714Y5225D01*
X25693Y5205D02*
X25841Y5205D01*
X25831Y5186D02*
X25641Y5186D01*
X25624Y5166D02*
X25821Y5166D01*
X25306Y5186D02*
X25167Y5186D01*
X25151Y5205D02*
X25274Y5205D01*
X25248Y5225D02*
X25135Y5225D01*
X25120Y5245D02*
X25236Y5245D01*
X25194Y5622D02*
X25778Y5622D01*
X25762Y5642D02*
X25210Y5642D01*
X25245Y5662D02*
X25727Y5662D01*
X25692Y5682D02*
X25280Y5682D01*
X25315Y5702D02*
X25657Y5702D01*
X25578Y5721D02*
X25394Y5721D01*
X25500Y4709D02*
X25596Y4709D01*
X25828Y4709D01*
X25865Y4689D02*
X25596Y4689D01*
X25557Y4689D01*
X25615Y4669D02*
X25865Y4669D01*
X25865Y4649D02*
X25671Y4649D01*
X25694Y4610D02*
X25865Y4610D01*
X25865Y4630D02*
X25728Y4630D01*
X25637Y4590D02*
X25865Y4590D01*
X25865Y4570D02*
X25596Y4570D01*
X25582Y4570D01*
X25596Y4550D02*
X25855Y4550D01*
X25804Y4530D02*
X25596Y4530D01*
X25467Y4530D01*
X25524Y4550D02*
X25596Y4550D01*
X25596Y4511D02*
X25752Y4511D01*
X17718Y4868D02*
X17387Y4868D01*
X17348Y4848D02*
X17331Y4848D01*
X17348Y4848D02*
X17667Y4848D01*
X17718Y4888D02*
X17444Y4888D01*
X17501Y4907D02*
X17718Y4907D01*
X17718Y4927D02*
X17558Y4927D01*
X17570Y4947D02*
X17718Y4947D01*
X17718Y4967D02*
X17514Y4967D01*
X17457Y4987D02*
X17718Y4987D01*
X17718Y5007D02*
X17401Y5007D01*
X17348Y5027D02*
X17344Y5027D01*
X17671Y5027D01*
X17620Y5047D02*
X17348Y5047D01*
X17298Y5384D02*
X17406Y5384D01*
X17406Y5404D02*
X17298Y5404D01*
X17298Y5424D02*
X17406Y5424D01*
X17406Y5443D02*
X17298Y5443D01*
X17298Y5463D02*
X17406Y5463D01*
X17406Y5483D02*
X17298Y5483D01*
X17298Y5503D02*
X17406Y5503D01*
X17406Y5523D02*
X17298Y5523D01*
X17298Y5543D02*
X17406Y5543D01*
X17406Y5563D02*
X17298Y5563D01*
X17298Y5583D02*
X17406Y5583D01*
X17406Y5602D02*
X17298Y5602D01*
X17298Y5622D02*
X17406Y5622D01*
X17406Y5642D02*
X17298Y5642D01*
X17298Y5662D02*
X17406Y5662D01*
X17406Y5682D02*
X17298Y5682D01*
X17298Y5702D02*
X17406Y5702D01*
X17406Y5721D02*
X17298Y5721D01*
X17298Y5741D02*
X17406Y5741D01*
X17604Y5741D02*
X17718Y5741D01*
X17718Y5761D02*
X16962Y5761D01*
X16962Y5741D02*
X17076Y5741D01*
X17076Y5721D02*
X16962Y5721D01*
X16962Y5702D02*
X17076Y5702D01*
X17076Y5682D02*
X16962Y5682D01*
X16962Y5662D02*
X17076Y5662D01*
X17076Y5642D02*
X16962Y5642D01*
X16962Y5622D02*
X17076Y5622D01*
X17076Y5602D02*
X16962Y5602D01*
X16962Y5583D02*
X17076Y5583D01*
X17604Y5583D02*
X17718Y5583D01*
X17718Y5602D02*
X17604Y5602D01*
X17604Y5622D02*
X17718Y5622D01*
X17718Y5642D02*
X17604Y5642D01*
X17604Y5662D02*
X17718Y5662D01*
X17718Y5682D02*
X17604Y5682D01*
X17604Y5702D02*
X17718Y5702D01*
X17718Y5721D02*
X17604Y5721D01*
X17718Y5781D02*
X16962Y5781D01*
X16962Y5801D02*
X17718Y5801D01*
X17718Y5821D02*
X16962Y5821D01*
X16962Y5841D02*
X17718Y5841D01*
X17718Y5860D02*
X16962Y5860D01*
X16962Y5952D02*
X16962Y6085D01*
X17303Y6085D01*
X17303Y6429D01*
X16962Y6429D01*
X16962Y6562D01*
X17718Y6562D01*
X17718Y6429D01*
X17418Y6429D01*
X17418Y6085D01*
X17718Y6085D01*
X17718Y5952D01*
X16962Y5952D01*
X16962Y5960D02*
X17718Y5960D01*
X17718Y5979D02*
X16962Y5979D01*
X16962Y5999D02*
X17718Y5999D01*
X17718Y6019D02*
X16962Y6019D01*
X16962Y6039D02*
X17718Y6039D01*
X17718Y6059D02*
X16962Y6059D01*
X16962Y6079D02*
X17718Y6079D01*
X17418Y6099D02*
X17303Y6099D01*
X17303Y6118D02*
X17418Y6118D01*
X17418Y6138D02*
X17303Y6138D01*
X17303Y6158D02*
X17418Y6158D01*
X17418Y6178D02*
X17303Y6178D01*
X17303Y6198D02*
X17418Y6198D01*
X17418Y6218D02*
X17303Y6218D01*
X17303Y6238D02*
X17418Y6238D01*
X17418Y6257D02*
X17303Y6257D01*
X17303Y6277D02*
X17418Y6277D01*
X17418Y6297D02*
X17303Y6297D01*
X17303Y6317D02*
X17418Y6317D01*
X17418Y6337D02*
X17303Y6337D01*
X17303Y6357D02*
X17418Y6357D01*
X17418Y6377D02*
X17303Y6377D01*
X17303Y6396D02*
X17418Y6396D01*
X17418Y6416D02*
X17303Y6416D01*
X16962Y6436D02*
X17718Y6436D01*
X17718Y6456D02*
X16962Y6456D01*
X16962Y6476D02*
X17718Y6476D01*
X17718Y6496D02*
X16962Y6496D01*
X16962Y6515D02*
X17718Y6515D01*
X17718Y6535D02*
X16962Y6535D01*
X16962Y6555D02*
X17718Y6555D01*
X17718Y5563D02*
X17604Y5563D01*
X17604Y5543D02*
X17718Y5543D01*
X17718Y5523D02*
X17604Y5523D01*
X17604Y5503D02*
X17718Y5503D01*
X17718Y5483D02*
X17604Y5483D01*
X17604Y5463D02*
X17718Y5463D01*
X17718Y5443D02*
X17604Y5443D01*
X17604Y5424D02*
X17718Y5424D01*
X17718Y5404D02*
X17604Y5404D01*
X17604Y5384D02*
X17718Y5384D01*
X17718Y5364D02*
X17604Y5364D01*
X17604Y5344D02*
X17718Y5344D01*
X47945Y4052D02*
X47945Y3908D01*
X48611Y3908D01*
X48611Y3907D01*
X48167Y3813D01*
X47945Y3767D01*
X47945Y3646D01*
X48167Y3599D01*
X48611Y3506D01*
X48611Y3503D01*
X47945Y3503D01*
X47945Y3359D01*
X48779Y3359D01*
X48779Y3592D01*
X48386Y3666D01*
X48190Y3704D01*
X48190Y3705D01*
X48386Y3743D01*
X48779Y3818D01*
X48779Y4052D01*
X47945Y4052D01*
X47945Y4034D02*
X48779Y4034D01*
X48779Y4014D02*
X47945Y4014D01*
X47945Y3994D02*
X48779Y3994D01*
X48779Y3974D02*
X47945Y3974D01*
X47945Y3955D02*
X48779Y3955D01*
X48779Y3935D02*
X47945Y3935D01*
X47945Y3915D02*
X48779Y3915D01*
X48779Y3895D02*
X48557Y3895D01*
X48462Y3875D02*
X48779Y3875D01*
X48779Y3855D02*
X48368Y3855D01*
X48273Y3836D02*
X48779Y3836D01*
X48768Y3816D02*
X48178Y3816D01*
X48083Y3796D02*
X48663Y3796D01*
X48559Y3776D02*
X47989Y3776D01*
X47945Y3756D02*
X48455Y3756D01*
X48436Y3657D02*
X47945Y3657D01*
X47945Y3677D02*
X48332Y3677D01*
X48351Y3736D02*
X47945Y3736D01*
X47945Y3717D02*
X48247Y3717D01*
X48229Y3697D02*
X47945Y3697D01*
X47986Y3637D02*
X48541Y3637D01*
X48645Y3617D02*
X48080Y3617D01*
X48175Y3597D02*
X48749Y3597D01*
X48779Y3577D02*
X48270Y3577D01*
X48365Y3558D02*
X48779Y3558D01*
X48779Y3538D02*
X48459Y3538D01*
X48554Y3518D02*
X48779Y3518D01*
X48779Y3498D02*
X47945Y3498D01*
X47945Y3478D02*
X48779Y3478D01*
X48779Y3458D02*
X47945Y3458D01*
X47945Y3439D02*
X48779Y3439D01*
X48779Y3419D02*
X47945Y3419D01*
X47945Y3399D02*
X48779Y3399D01*
X48779Y3379D02*
X47945Y3379D01*
X47945Y3359D02*
X48779Y3359D01*
X48845Y3405D02*
X48845Y3555D01*
X49679Y3555D01*
X49679Y3405D01*
X49678Y3409D01*
X49408Y3409D01*
X49408Y3405D01*
X49444Y3380D01*
X49469Y3348D01*
X49484Y3309D01*
X49489Y3263D01*
X49486Y3228D01*
X49478Y3198D01*
X49465Y3173D01*
X49447Y3152D01*
X49423Y3135D01*
X49391Y3124D01*
X49354Y3116D01*
X49310Y3113D01*
X48842Y3113D01*
X48842Y3263D01*
X49277Y3263D01*
X49319Y3267D01*
X49346Y3280D01*
X49361Y3299D01*
X49366Y3328D01*
X49360Y3362D01*
X49352Y3376D01*
X49340Y3386D01*
X49307Y3401D01*
X49262Y3405D01*
X48845Y3405D01*
X48845Y3419D02*
X49679Y3419D01*
X49679Y3439D02*
X48845Y3439D01*
X48845Y3458D02*
X49679Y3458D01*
X49679Y3478D02*
X48845Y3478D01*
X48845Y3498D02*
X49679Y3498D01*
X49679Y3518D02*
X48845Y3518D01*
X48845Y3538D02*
X49679Y3538D01*
X49678Y3599D02*
X49540Y3599D01*
X49540Y3768D01*
X48842Y3768D01*
X48842Y3924D01*
X49540Y3924D01*
X49540Y4094D01*
X49678Y4094D01*
X49678Y3599D01*
X49678Y3617D02*
X49540Y3617D01*
X49540Y3637D02*
X49678Y3637D01*
X49678Y3657D02*
X49540Y3657D01*
X49540Y3677D02*
X49678Y3677D01*
X49678Y3697D02*
X49540Y3697D01*
X49540Y3717D02*
X49678Y3717D01*
X49678Y3736D02*
X49540Y3736D01*
X49540Y3756D02*
X49678Y3756D01*
X49678Y3776D02*
X48842Y3776D01*
X48842Y3796D02*
X49678Y3796D01*
X49678Y3816D02*
X48842Y3816D01*
X48842Y3836D02*
X49678Y3836D01*
X49678Y3855D02*
X48842Y3855D01*
X48842Y3875D02*
X49678Y3875D01*
X49678Y3895D02*
X48842Y3895D01*
X48842Y3915D02*
X49678Y3915D01*
X49678Y3935D02*
X49540Y3935D01*
X49540Y3955D02*
X49678Y3955D01*
X49678Y3974D02*
X49540Y3974D01*
X49540Y3994D02*
X49678Y3994D01*
X49678Y4014D02*
X49540Y4014D01*
X49540Y4034D02*
X49678Y4034D01*
X49678Y4054D02*
X49540Y4054D01*
X49540Y4074D02*
X49678Y4074D01*
X49678Y4094D02*
X49540Y4094D01*
X49744Y4052D02*
X50578Y4052D01*
X50578Y3818D01*
X50381Y3781D01*
X50185Y3743D01*
X49988Y3705D01*
X49988Y3704D01*
X50185Y3666D01*
X50381Y3629D01*
X50578Y3592D01*
X50578Y3359D01*
X49744Y3359D01*
X49744Y3503D01*
X50410Y3503D01*
X50410Y3506D01*
X50188Y3552D01*
X49966Y3599D01*
X49744Y3646D01*
X49744Y3767D01*
X49966Y3813D01*
X50188Y3860D01*
X50410Y3907D01*
X50410Y3908D01*
X49744Y3908D01*
X49744Y4052D01*
X49744Y4034D02*
X50578Y4034D01*
X50578Y4014D02*
X49744Y4014D01*
X49744Y3994D02*
X50578Y3994D01*
X50578Y3974D02*
X49744Y3974D01*
X49744Y3955D02*
X50578Y3955D01*
X50578Y3935D02*
X49744Y3935D01*
X49744Y3915D02*
X50578Y3915D01*
X50578Y3895D02*
X50356Y3895D01*
X50261Y3875D02*
X50578Y3875D01*
X50578Y3855D02*
X50166Y3855D01*
X50071Y3836D02*
X50578Y3836D01*
X50566Y3816D02*
X49977Y3816D01*
X49882Y3796D02*
X50462Y3796D01*
X50358Y3776D02*
X49787Y3776D01*
X49744Y3756D02*
X50254Y3756D01*
X50235Y3657D02*
X49744Y3657D01*
X49744Y3677D02*
X50131Y3677D01*
X50150Y3736D02*
X49744Y3736D01*
X49744Y3717D02*
X50046Y3717D01*
X50027Y3697D02*
X49744Y3697D01*
X49784Y3637D02*
X50339Y3637D01*
X50443Y3617D02*
X49879Y3617D01*
X49974Y3597D02*
X50547Y3597D01*
X50578Y3577D02*
X50068Y3577D01*
X50163Y3558D02*
X50578Y3558D01*
X50578Y3538D02*
X50258Y3538D01*
X50353Y3518D02*
X50578Y3518D01*
X50578Y3498D02*
X49744Y3498D01*
X49744Y3478D02*
X50578Y3478D01*
X50578Y3458D02*
X49744Y3458D01*
X49744Y3439D02*
X50578Y3439D01*
X50578Y3419D02*
X49744Y3419D01*
X49744Y3399D02*
X50578Y3399D01*
X50578Y3379D02*
X49744Y3379D01*
X49744Y3359D02*
X50578Y3359D01*
X50374Y3275D02*
X50374Y3125D01*
X49939Y3125D01*
X49897Y3120D01*
X49870Y3109D01*
X49855Y3089D01*
X49850Y3061D01*
X49856Y3026D01*
X49864Y3013D01*
X49876Y3002D01*
X49909Y2987D01*
X49954Y2983D01*
X50371Y2983D01*
X50371Y2832D01*
X49741Y2832D01*
X49741Y2976D01*
X49814Y2976D01*
X49814Y2978D01*
X49817Y2976D01*
X49777Y3004D01*
X49750Y3038D01*
X49735Y3078D01*
X49730Y3125D01*
X49733Y3159D01*
X49741Y3189D01*
X49753Y3215D01*
X49771Y3236D01*
X49795Y3252D01*
X49825Y3265D01*
X49862Y3272D01*
X49906Y3275D01*
X50374Y3275D01*
X50374Y3260D02*
X49813Y3260D01*
X49777Y3240D02*
X50374Y3240D01*
X50374Y3220D02*
X49757Y3220D01*
X49746Y3200D02*
X50374Y3200D01*
X50374Y3180D02*
X49739Y3180D01*
X49734Y3161D02*
X50374Y3161D01*
X50374Y3141D02*
X49732Y3141D01*
X49731Y3121D02*
X49901Y3121D01*
X49864Y3101D02*
X49733Y3101D01*
X49735Y3081D02*
X49854Y3081D01*
X49851Y3061D02*
X49741Y3061D01*
X49749Y3041D02*
X49854Y3041D01*
X49859Y3022D02*
X49763Y3022D01*
X49779Y3002D02*
X49876Y3002D01*
X49809Y2982D02*
X50371Y2982D01*
X50371Y2962D02*
X49741Y2962D01*
X49741Y2942D02*
X50371Y2942D01*
X50371Y2922D02*
X49741Y2922D01*
X49741Y2903D02*
X50371Y2903D01*
X50371Y2883D02*
X49741Y2883D01*
X49741Y2863D02*
X50371Y2863D01*
X50371Y2843D02*
X49741Y2843D01*
X49688Y2880D02*
X49688Y3030D01*
X49550Y3030D01*
X49550Y2880D01*
X49688Y2880D01*
X49550Y2883D01*
X49550Y2903D02*
X49688Y2903D01*
X49688Y2922D02*
X49550Y2922D01*
X49550Y2942D02*
X49688Y2942D01*
X49688Y2962D02*
X49550Y2962D01*
X49550Y2982D02*
X49688Y2982D01*
X49688Y3002D02*
X49550Y3002D01*
X49550Y3022D02*
X49688Y3022D01*
X49472Y3022D02*
X48842Y3022D01*
X48842Y3030D02*
X49472Y3030D01*
X49472Y2880D01*
X48842Y2880D01*
X48842Y3030D01*
X48842Y3002D02*
X49472Y3002D01*
X49472Y2982D02*
X48842Y2982D01*
X48842Y2962D02*
X49472Y2962D01*
X49472Y2942D02*
X48842Y2942D01*
X48842Y2922D02*
X49472Y2922D01*
X49472Y2903D02*
X48842Y2903D01*
X48842Y2883D02*
X49472Y2883D01*
X49477Y2793D02*
X49477Y2650D01*
X49472Y2652D01*
X49399Y2652D01*
X49399Y2650D01*
X49439Y2622D01*
X49468Y2588D01*
X49484Y2547D01*
X49490Y2501D01*
X49487Y2467D01*
X49480Y2437D01*
X49466Y2411D01*
X49448Y2390D01*
X49424Y2373D01*
X49393Y2361D01*
X49355Y2354D01*
X49312Y2351D01*
X48844Y2351D01*
X48844Y2501D01*
X49279Y2501D01*
X49321Y2506D01*
X49348Y2517D01*
X49363Y2537D01*
X49367Y2565D01*
X49361Y2600D01*
X49354Y2613D01*
X49342Y2624D01*
X49309Y2639D01*
X49264Y2643D01*
X48847Y2643D01*
X48847Y2793D01*
X49477Y2793D01*
X49477Y2784D02*
X48847Y2784D01*
X48847Y2764D02*
X49477Y2764D01*
X49477Y2744D02*
X48847Y2744D01*
X48847Y2724D02*
X49477Y2724D01*
X49477Y2704D02*
X48847Y2704D01*
X48847Y2684D02*
X49477Y2684D01*
X49477Y2664D02*
X48847Y2664D01*
X48847Y2644D02*
X49406Y2644D01*
X49436Y2625D02*
X49340Y2625D01*
X49359Y2605D02*
X49454Y2605D01*
X49469Y2585D02*
X49364Y2585D01*
X49367Y2565D02*
X49477Y2565D01*
X49485Y2545D02*
X49364Y2545D01*
X49354Y2525D02*
X49487Y2525D01*
X49490Y2506D02*
X49321Y2506D01*
X49489Y2486D02*
X48844Y2486D01*
X48844Y2466D02*
X49487Y2466D01*
X49482Y2446D02*
X48844Y2446D01*
X48844Y2426D02*
X49474Y2426D01*
X49462Y2406D02*
X48844Y2406D01*
X48844Y2387D02*
X49443Y2387D01*
X49406Y2367D02*
X48844Y2367D01*
X48778Y2367D02*
X47944Y2367D01*
X47944Y2351D02*
X48778Y2351D01*
X48778Y2501D01*
X48779Y2502D01*
X48515Y2502D01*
X48515Y2504D01*
X48548Y2530D01*
X48572Y2558D01*
X48584Y2585D01*
X48467Y2585D01*
X48467Y2580D01*
X48464Y2558D01*
X48454Y2540D01*
X48437Y2526D01*
X48415Y2517D01*
X48350Y2507D01*
X48260Y2504D01*
X48170Y2507D01*
X48106Y2517D01*
X48083Y2526D01*
X48067Y2540D01*
X48056Y2558D01*
X48053Y2580D01*
X48053Y2585D01*
X47938Y2585D01*
X47950Y2554D01*
X47974Y2524D01*
X48011Y2497D01*
X48011Y2495D01*
X47944Y2495D01*
X47944Y2351D01*
X47944Y2387D02*
X48778Y2387D01*
X48778Y2406D02*
X47944Y2406D01*
X47944Y2426D02*
X48778Y2426D01*
X48778Y2446D02*
X47944Y2446D01*
X47944Y2466D02*
X48778Y2466D01*
X48778Y2486D02*
X47944Y2486D01*
X47972Y2525D02*
X48086Y2525D01*
X48064Y2545D02*
X47957Y2545D01*
X47945Y2565D02*
X48055Y2565D01*
X48053Y2585D02*
X47938Y2585D01*
X47936Y2587D01*
X48052Y2587D01*
X48055Y2604D01*
X48065Y2622D01*
X48082Y2636D01*
X48104Y2645D01*
X48169Y2656D01*
X48259Y2658D01*
X48349Y2656D01*
X48413Y2645D01*
X48436Y2636D01*
X48452Y2622D01*
X48463Y2604D01*
X48466Y2587D01*
X48583Y2587D01*
X48586Y2593D01*
X48590Y2632D01*
X48586Y2675D01*
X48571Y2713D01*
X48547Y2744D01*
X48512Y2769D01*
X48467Y2789D01*
X48410Y2802D01*
X48341Y2810D01*
X48260Y2813D01*
X48179Y2810D01*
X48110Y2802D01*
X48053Y2789D01*
X48008Y2769D01*
X47975Y2744D01*
X47951Y2713D01*
X47938Y2675D01*
X47933Y2632D01*
X47938Y2589D01*
X47939Y2587D01*
X47936Y2605D02*
X48055Y2605D01*
X48068Y2625D02*
X47934Y2625D01*
X47935Y2644D02*
X48103Y2644D01*
X47975Y2744D02*
X48547Y2744D01*
X48562Y2724D02*
X47960Y2724D01*
X47948Y2704D02*
X48574Y2704D01*
X48582Y2684D02*
X47941Y2684D01*
X47937Y2664D02*
X48587Y2664D01*
X48589Y2644D02*
X48415Y2644D01*
X48450Y2625D02*
X48590Y2625D01*
X48587Y2605D02*
X48463Y2605D01*
X48467Y2585D02*
X48584Y2585D01*
X48575Y2565D02*
X48465Y2565D01*
X48457Y2545D02*
X48562Y2545D01*
X48543Y2525D02*
X48435Y2525D01*
X48517Y2506D02*
X48307Y2506D01*
X48214Y2506D02*
X47999Y2506D01*
X48030Y2307D02*
X48574Y2307D01*
X48574Y2317D02*
X48574Y2166D01*
X48139Y2166D01*
X48097Y2162D01*
X48070Y2150D01*
X48055Y2130D01*
X48050Y2102D01*
X48056Y2067D01*
X48064Y2054D01*
X48076Y2043D01*
X48109Y2028D01*
X48154Y2024D01*
X48571Y2024D01*
X48571Y1874D01*
X47941Y1874D01*
X47941Y2018D01*
X48014Y2018D01*
X48014Y2021D01*
X48017Y2019D01*
X47977Y2047D01*
X47950Y2081D01*
X47935Y2122D01*
X47930Y2168D01*
X47933Y2201D01*
X47941Y2231D01*
X47953Y2256D01*
X47971Y2278D01*
X47995Y2294D01*
X48025Y2306D01*
X48062Y2313D01*
X48106Y2317D01*
X48574Y2317D01*
X48574Y2287D02*
X47985Y2287D01*
X47962Y2267D02*
X48574Y2267D01*
X48574Y2247D02*
X47949Y2247D01*
X47940Y2228D02*
X48574Y2228D01*
X48574Y2208D02*
X47935Y2208D01*
X47932Y2188D02*
X48574Y2188D01*
X48574Y2168D02*
X47930Y2168D01*
X47932Y2148D02*
X48069Y2148D01*
X48055Y2128D02*
X47934Y2128D01*
X47940Y2109D02*
X48051Y2109D01*
X48053Y2089D02*
X47947Y2089D01*
X47959Y2069D02*
X48056Y2069D01*
X48070Y2049D02*
X47975Y2049D01*
X48003Y2029D02*
X48107Y2029D01*
X47941Y2009D02*
X48571Y2009D01*
X48571Y1989D02*
X47941Y1989D01*
X47941Y1970D02*
X48571Y1970D01*
X48571Y1950D02*
X47941Y1950D01*
X47941Y1930D02*
X48571Y1930D01*
X48571Y1910D02*
X47941Y1910D01*
X47941Y1890D02*
X48571Y1890D01*
X48667Y1930D02*
X49477Y1930D01*
X49477Y1950D02*
X48658Y1950D01*
X48649Y1968D02*
X48668Y1927D01*
X48695Y1893D01*
X48730Y1869D01*
X48772Y1852D01*
X48821Y1841D01*
X48878Y1838D01*
X49477Y1838D01*
X49477Y1982D01*
X49406Y1982D01*
X49406Y1985D01*
X49448Y2011D01*
X49475Y2042D01*
X49489Y2075D01*
X49490Y2081D01*
X49367Y2081D01*
X49370Y2063D01*
X49367Y2042D01*
X49358Y2026D01*
X49343Y2012D01*
X49322Y2001D01*
X49258Y1989D01*
X49160Y1985D01*
X49087Y1989D01*
X49030Y2003D01*
X49009Y2014D01*
X48992Y2027D01*
X48982Y2045D01*
X48979Y2067D01*
X48982Y2083D01*
X48860Y2083D01*
X48854Y2076D01*
X48856Y2072D01*
X48872Y2038D01*
X48896Y2008D01*
X48928Y1982D01*
X48928Y1979D01*
X48845Y1979D01*
X48802Y1984D01*
X48766Y1997D01*
X48752Y2008D01*
X48742Y2023D01*
X48736Y2040D01*
X48734Y2062D01*
X48739Y2088D01*
X48752Y2113D01*
X48773Y2129D01*
X48800Y2135D01*
X48800Y2279D01*
X48763Y2276D01*
X48730Y2267D01*
X48701Y2250D01*
X48677Y2228D01*
X48658Y2200D01*
X48644Y2165D01*
X48635Y2126D01*
X48632Y2081D01*
X48637Y2019D01*
X48649Y1968D01*
X49477Y1970D01*
X49446Y2009D02*
X49338Y2009D01*
X49360Y2029D02*
X49464Y2029D01*
X49478Y2049D02*
X49368Y2049D01*
X49369Y2069D02*
X49486Y2069D01*
X49483Y2074D02*
X49487Y2099D01*
X49486Y2127D01*
X49480Y2153D01*
X49471Y2175D01*
X49457Y2195D01*
X49424Y2226D01*
X49382Y2250D01*
X49333Y2267D01*
X49279Y2276D01*
X49166Y2282D01*
X49087Y2279D01*
X49019Y2270D01*
X48964Y2256D01*
X48922Y2237D01*
X48890Y2212D01*
X48868Y2180D01*
X48854Y2144D01*
X48850Y2102D01*
X48854Y2072D01*
X48854Y2076D01*
X48976Y2076D01*
X48977Y2083D01*
X48988Y2099D01*
X49003Y2113D01*
X49024Y2122D01*
X49076Y2132D01*
X49138Y2135D01*
X49244Y2132D01*
X49283Y2127D01*
X49313Y2120D01*
X49336Y2110D01*
X49351Y2096D01*
X49360Y2078D01*
X49360Y2074D01*
X49483Y2074D01*
X49485Y2089D02*
X49354Y2089D01*
X49337Y2109D02*
X49487Y2109D01*
X49486Y2128D02*
X49276Y2128D01*
X49256Y1989D02*
X49414Y1989D01*
X49477Y1910D02*
X48682Y1910D01*
X48700Y1890D02*
X49477Y1890D01*
X49477Y1870D02*
X48729Y1870D01*
X48777Y1850D02*
X49477Y1850D01*
X49731Y1831D02*
X49841Y1831D01*
X49840Y1825D02*
X49841Y1806D01*
X49847Y1791D01*
X49858Y1779D01*
X49873Y1769D01*
X49918Y1755D01*
X49985Y1751D01*
X49985Y1607D01*
X49927Y1610D01*
X49876Y1619D01*
X49832Y1636D01*
X49796Y1658D01*
X49768Y1688D01*
X49747Y1727D01*
X49735Y1774D01*
X49730Y1829D01*
X49733Y1881D01*
X49744Y1927D01*
X49765Y1965D01*
X49796Y1997D01*
X49841Y2021D01*
X49898Y2039D01*
X49970Y2050D01*
X50057Y2052D01*
X50146Y2048D01*
X50218Y2035D01*
X50275Y2014D01*
X50320Y1985D01*
X50351Y1951D01*
X50372Y1910D01*
X50384Y1864D01*
X50389Y1814D01*
X50384Y1765D01*
X50372Y1723D01*
X50351Y1687D01*
X50323Y1656D01*
X50287Y1634D01*
X50245Y1617D01*
X50197Y1607D01*
X50144Y1604D01*
X50144Y1748D01*
X50189Y1751D01*
X50191Y1753D01*
X50231Y1763D01*
X50248Y1772D01*
X50261Y1784D01*
X50270Y1799D01*
X50273Y1818D01*
X50270Y1844D01*
X50260Y1864D01*
X50243Y1878D01*
X50221Y1889D01*
X50155Y1901D01*
X50059Y1904D01*
X49958Y1901D01*
X49921Y1897D01*
X49891Y1889D01*
X49868Y1878D01*
X49852Y1865D01*
X49843Y1847D01*
X49840Y1825D01*
X49841Y1811D02*
X49732Y1811D01*
X49734Y1791D02*
X49848Y1791D01*
X49870Y1771D02*
X49736Y1771D01*
X49741Y1751D02*
X49982Y1751D01*
X49985Y1731D02*
X49746Y1731D01*
X49755Y1711D02*
X49985Y1711D01*
X49985Y1692D02*
X49766Y1692D01*
X49783Y1672D02*
X49985Y1672D01*
X49985Y1652D02*
X49806Y1652D01*
X49841Y1632D02*
X49985Y1632D01*
X49985Y1612D02*
X49914Y1612D01*
X50144Y1612D02*
X50221Y1612D01*
X50282Y1632D02*
X50144Y1632D01*
X50144Y1652D02*
X50316Y1652D01*
X50337Y1672D02*
X50144Y1672D01*
X50144Y1692D02*
X50354Y1692D01*
X50366Y1711D02*
X50144Y1711D01*
X50144Y1731D02*
X50375Y1731D01*
X50381Y1751D02*
X50190Y1751D01*
X50246Y1771D02*
X50385Y1771D01*
X50387Y1791D02*
X50265Y1791D01*
X50272Y1811D02*
X50389Y1811D01*
X50387Y1831D02*
X50272Y1831D01*
X50267Y1850D02*
X50386Y1850D01*
X50383Y1870D02*
X50252Y1870D01*
X50214Y1890D02*
X50377Y1890D01*
X50372Y1910D02*
X49740Y1910D01*
X49735Y1890D02*
X49896Y1890D01*
X49858Y1870D02*
X49733Y1870D01*
X49732Y1850D02*
X49845Y1850D01*
X49746Y1930D02*
X50362Y1930D01*
X50352Y1950D02*
X49756Y1950D01*
X49769Y1970D02*
X50334Y1970D01*
X50313Y1989D02*
X49789Y1989D01*
X49819Y2009D02*
X50281Y2009D01*
X50232Y2029D02*
X49867Y2029D01*
X49967Y2049D02*
X50126Y2049D01*
X50372Y2137D02*
X49742Y2137D01*
X49742Y2286D01*
X50372Y2286D01*
X50372Y2137D01*
X50372Y2148D02*
X49742Y2148D01*
X49742Y2168D02*
X50372Y2168D01*
X50372Y2188D02*
X49742Y2188D01*
X49742Y2208D02*
X50372Y2208D01*
X50372Y2228D02*
X49742Y2228D01*
X49742Y2247D02*
X50372Y2247D01*
X50372Y2267D02*
X49742Y2267D01*
X49800Y2406D02*
X50041Y2406D01*
X50035Y2400D02*
X50012Y2387D01*
X49985Y2378D01*
X49955Y2372D01*
X49921Y2371D01*
X49874Y2375D01*
X49834Y2387D01*
X49799Y2406D01*
X49772Y2432D01*
X49751Y2463D01*
X49738Y2501D01*
X49730Y2543D01*
X49727Y2588D01*
X49730Y2647D01*
X49739Y2693D01*
X49756Y2730D01*
X49778Y2759D01*
X49807Y2780D01*
X49841Y2793D01*
X49880Y2801D01*
X49924Y2804D01*
X49946Y2804D01*
X49946Y2669D01*
X49925Y2669D01*
X49928Y2665D01*
X49891Y2660D01*
X49862Y2645D01*
X49843Y2621D01*
X49837Y2588D01*
X49841Y2556D01*
X49855Y2532D01*
X49879Y2517D01*
X49912Y2513D01*
X49939Y2517D01*
X49958Y2530D01*
X49972Y2547D01*
X49982Y2569D01*
X50023Y2674D01*
X50051Y2728D01*
X50069Y2748D01*
X50089Y2767D01*
X50111Y2780D01*
X50137Y2791D01*
X50165Y2796D01*
X50197Y2798D01*
X50234Y2795D01*
X50270Y2786D01*
X50303Y2771D01*
X50332Y2748D01*
X50354Y2719D01*
X50372Y2681D01*
X50384Y2636D01*
X50389Y2582D01*
X50386Y2534D01*
X50377Y2493D01*
X50362Y2459D01*
X50341Y2430D01*
X50315Y2410D01*
X50285Y2395D01*
X50249Y2386D01*
X50209Y2382D01*
X50183Y2382D01*
X50183Y2517D01*
X50225Y2521D01*
X50255Y2531D01*
X50266Y2540D01*
X50273Y2552D01*
X50279Y2584D01*
X50275Y2611D01*
X50261Y2633D01*
X50240Y2650D01*
X50210Y2656D01*
X50188Y2652D01*
X50168Y2642D01*
X50150Y2622D01*
X50135Y2591D01*
X50102Y2501D01*
X50089Y2468D01*
X50072Y2441D01*
X50054Y2419D01*
X50035Y2400D01*
X50011Y2387D02*
X49836Y2387D01*
X49779Y2426D02*
X50061Y2426D01*
X50075Y2446D02*
X49763Y2446D01*
X49751Y2466D02*
X50088Y2466D01*
X50096Y2486D02*
X49743Y2486D01*
X49737Y2506D02*
X50104Y2506D01*
X50111Y2525D02*
X49952Y2525D01*
X49970Y2545D02*
X50119Y2545D01*
X50126Y2565D02*
X49981Y2565D01*
X49989Y2585D02*
X50133Y2585D01*
X50142Y2605D02*
X49996Y2605D01*
X50004Y2625D02*
X50152Y2625D01*
X50173Y2644D02*
X50012Y2644D01*
X50019Y2664D02*
X50377Y2664D01*
X50382Y2644D02*
X50247Y2644D01*
X50266Y2625D02*
X50385Y2625D01*
X50387Y2605D02*
X50276Y2605D01*
X50279Y2585D02*
X50389Y2585D01*
X50388Y2565D02*
X50276Y2565D01*
X50269Y2545D02*
X50387Y2545D01*
X50384Y2525D02*
X50239Y2525D01*
X50183Y2506D02*
X50380Y2506D01*
X50374Y2486D02*
X50183Y2486D01*
X50183Y2466D02*
X50365Y2466D01*
X50352Y2446D02*
X50183Y2446D01*
X50183Y2426D02*
X50336Y2426D01*
X50309Y2406D02*
X50183Y2406D01*
X50183Y2387D02*
X50253Y2387D01*
X50450Y2286D02*
X50588Y2286D01*
X50588Y2137D01*
X50450Y2137D01*
X50450Y2286D01*
X50450Y2267D02*
X50588Y2267D01*
X50588Y2247D02*
X50450Y2247D01*
X50450Y2228D02*
X50588Y2228D01*
X50588Y2208D02*
X50450Y2208D01*
X50450Y2188D02*
X50588Y2188D01*
X50588Y2168D02*
X50450Y2168D01*
X50450Y2148D02*
X50588Y2148D01*
X49481Y2148D02*
X48856Y2148D01*
X48853Y2128D02*
X49058Y2128D01*
X48999Y2109D02*
X48851Y2109D01*
X48852Y2089D02*
X48981Y2089D01*
X48979Y2069D02*
X48857Y2069D01*
X48867Y2049D02*
X48981Y2049D01*
X48991Y2029D02*
X48879Y2029D01*
X48895Y2009D02*
X49017Y2009D01*
X49088Y1989D02*
X48919Y1989D01*
X48786Y1989D02*
X48644Y1989D01*
X48639Y2009D02*
X48751Y2009D01*
X48740Y2029D02*
X48636Y2029D01*
X48635Y2049D02*
X48735Y2049D01*
X48736Y2069D02*
X48633Y2069D01*
X48633Y2089D02*
X48739Y2089D01*
X48750Y2109D02*
X48634Y2109D01*
X48636Y2128D02*
X48773Y2128D01*
X48800Y2148D02*
X48641Y2148D01*
X48646Y2168D02*
X48800Y2168D01*
X48800Y2188D02*
X48653Y2188D01*
X48663Y2208D02*
X48800Y2208D01*
X48800Y2228D02*
X48677Y2228D01*
X48698Y2247D02*
X48800Y2247D01*
X48800Y2267D02*
X48731Y2267D01*
X48873Y2188D02*
X49462Y2188D01*
X49474Y2168D02*
X48863Y2168D01*
X48888Y2208D02*
X49444Y2208D01*
X49422Y2228D02*
X48910Y2228D01*
X48944Y2247D02*
X49388Y2247D01*
X49331Y2267D02*
X49009Y2267D01*
X49734Y2525D02*
X49866Y2525D01*
X49848Y2545D02*
X49730Y2545D01*
X49729Y2565D02*
X49840Y2565D01*
X49837Y2585D02*
X49728Y2585D01*
X49728Y2605D02*
X49840Y2605D01*
X49846Y2625D02*
X49729Y2625D01*
X49730Y2644D02*
X49862Y2644D01*
X49927Y2664D02*
X49734Y2664D01*
X49738Y2684D02*
X49946Y2684D01*
X49946Y2704D02*
X49744Y2704D01*
X49753Y2724D02*
X49946Y2724D01*
X49946Y2744D02*
X49766Y2744D01*
X49785Y2764D02*
X49946Y2764D01*
X49946Y2784D02*
X49816Y2784D01*
X49914Y2803D02*
X49946Y2803D01*
X50050Y2724D02*
X50350Y2724D01*
X50361Y2704D02*
X50039Y2704D01*
X50029Y2684D02*
X50371Y2684D01*
X50335Y2744D02*
X50065Y2744D01*
X50086Y2764D02*
X50313Y2764D01*
X50276Y2784D02*
X50120Y2784D01*
X48583Y3002D02*
X48587Y3063D01*
X48586Y3077D01*
X48587Y3078D01*
X48473Y3078D01*
X48472Y3089D01*
X48460Y3109D01*
X48440Y3124D01*
X48415Y3134D01*
X48344Y3144D01*
X48256Y3146D01*
X48167Y3144D01*
X48097Y3134D01*
X48071Y3124D01*
X48052Y3109D01*
X48040Y3089D01*
X48038Y3078D01*
X47930Y3078D01*
X47933Y3126D01*
X47948Y3178D01*
X47974Y3218D01*
X48010Y3250D01*
X48056Y3272D01*
X48113Y3287D01*
X48181Y3294D01*
X48257Y3298D01*
X48334Y3294D01*
X48400Y3285D01*
X48457Y3269D01*
X48503Y3245D01*
X48539Y3213D01*
X48566Y3173D01*
X48583Y3124D01*
X48587Y3078D01*
X48476Y3078D01*
X48479Y3065D01*
X48476Y3044D01*
X48467Y3026D01*
X48451Y3013D01*
X48428Y3002D01*
X48359Y2989D01*
X48257Y2984D01*
X48155Y2989D01*
X48088Y3002D01*
X48065Y3013D01*
X48049Y3026D01*
X48040Y3044D01*
X48037Y3065D01*
X48040Y3078D01*
X47932Y3078D01*
X47930Y3065D01*
X47935Y3006D01*
X47950Y2957D01*
X47975Y2917D01*
X48011Y2885D01*
X48058Y2861D01*
X48115Y2845D01*
X48181Y2835D01*
X48257Y2832D01*
X48335Y2835D01*
X48403Y2843D01*
X48460Y2858D01*
X48506Y2880D01*
X48542Y2911D01*
X48568Y2951D01*
X48583Y3002D01*
X48428Y3002D01*
X48462Y3022D02*
X48584Y3022D01*
X48586Y3041D02*
X48475Y3041D01*
X48479Y3061D02*
X48587Y3061D01*
X48587Y3081D02*
X48473Y3081D01*
X48464Y3101D02*
X48585Y3101D01*
X48583Y3121D02*
X48444Y3121D01*
X48369Y3141D02*
X48577Y3141D01*
X48571Y3161D02*
X47943Y3161D01*
X47938Y3141D02*
X48143Y3141D01*
X48068Y3121D02*
X47933Y3121D01*
X47932Y3101D02*
X48047Y3101D01*
X48039Y3081D02*
X47931Y3081D01*
X47931Y3061D02*
X48037Y3061D01*
X48041Y3041D02*
X47932Y3041D01*
X47934Y3022D02*
X48054Y3022D01*
X48089Y3002D02*
X47936Y3002D01*
X47942Y2982D02*
X48577Y2982D01*
X48571Y2962D02*
X47948Y2962D01*
X47959Y2942D02*
X48562Y2942D01*
X48550Y2922D02*
X47972Y2922D01*
X47991Y2903D02*
X48533Y2903D01*
X48509Y2883D02*
X48016Y2883D01*
X48054Y2863D02*
X48470Y2863D01*
X48403Y2843D02*
X48126Y2843D01*
X48118Y2803D02*
X48403Y2803D01*
X48480Y2784D02*
X48041Y2784D01*
X48001Y2764D02*
X48520Y2764D01*
X48561Y3180D02*
X47950Y3180D01*
X47963Y3200D02*
X48548Y3200D01*
X48532Y3220D02*
X47976Y3220D01*
X47999Y3240D02*
X48509Y3240D01*
X48474Y3260D02*
X48031Y3260D01*
X48086Y3280D02*
X48420Y3280D01*
X48842Y3260D02*
X49489Y3260D01*
X49487Y3280D02*
X49347Y3280D01*
X49362Y3300D02*
X49485Y3300D01*
X49481Y3320D02*
X49365Y3320D01*
X49364Y3339D02*
X49473Y3339D01*
X49461Y3359D02*
X49360Y3359D01*
X49348Y3379D02*
X49445Y3379D01*
X49417Y3399D02*
X49312Y3399D01*
X49487Y3240D02*
X48842Y3240D01*
X48842Y3220D02*
X49484Y3220D01*
X49479Y3200D02*
X48842Y3200D01*
X48842Y3180D02*
X49469Y3180D01*
X49454Y3161D02*
X48842Y3161D01*
X48842Y3141D02*
X49431Y3141D01*
X49379Y3121D02*
X48842Y3121D01*
X48779Y1813D02*
X47945Y1813D01*
X47945Y1663D01*
X48779Y1663D01*
X48779Y1813D01*
X47945Y1811D01*
X47945Y1791D02*
X48779Y1791D01*
X48779Y1771D02*
X47945Y1771D01*
X47945Y1751D02*
X48779Y1751D01*
X48779Y1731D02*
X47945Y1731D01*
X47945Y1711D02*
X48779Y1711D01*
X48779Y1692D02*
X47945Y1692D01*
X47945Y1672D02*
X48779Y1672D01*
X48518Y1542D02*
X48485Y1562D01*
X48443Y1574D01*
X48392Y1579D01*
X48377Y1579D01*
X48377Y1443D01*
X48395Y1443D01*
X48428Y1439D01*
X48454Y1426D01*
X48470Y1405D01*
X48476Y1375D01*
X48472Y1342D01*
X48457Y1320D01*
X48433Y1308D01*
X48401Y1304D01*
X48373Y1307D01*
X48353Y1318D01*
X48338Y1335D01*
X48328Y1364D01*
X48326Y1368D01*
X48226Y1368D01*
X48236Y1337D01*
X48257Y1304D01*
X48133Y1304D01*
X48109Y1306D01*
X48088Y1311D01*
X48071Y1322D01*
X48058Y1334D01*
X48041Y1364D01*
X48041Y1367D01*
X47944Y1367D01*
X47944Y1366D01*
X47953Y1349D01*
X47966Y1334D01*
X48007Y1306D01*
X48007Y1303D01*
X47974Y1295D01*
X47941Y1283D01*
X47941Y1139D01*
X47993Y1154D01*
X48062Y1158D01*
X48392Y1158D01*
X48433Y1160D01*
X48470Y1166D01*
X48503Y1178D01*
X48532Y1197D01*
X48554Y1224D01*
X48571Y1260D01*
X48581Y1308D01*
X48584Y1370D01*
X48589Y1373D01*
X48586Y1414D01*
X48578Y1453D01*
X48565Y1487D01*
X48545Y1517D01*
X48518Y1542D01*
X48529Y1533D02*
X48377Y1533D01*
X48377Y1553D02*
X48501Y1553D01*
X48448Y1573D02*
X48377Y1573D01*
X48377Y1513D02*
X48548Y1513D01*
X48561Y1493D02*
X48377Y1493D01*
X48377Y1473D02*
X48570Y1473D01*
X48578Y1453D02*
X48377Y1453D01*
X48439Y1434D02*
X48582Y1434D01*
X48586Y1414D02*
X48463Y1414D01*
X48473Y1394D02*
X48587Y1394D01*
X48589Y1374D02*
X48476Y1374D01*
X48474Y1354D02*
X48584Y1354D01*
X48583Y1334D02*
X48467Y1334D01*
X48445Y1315D02*
X48582Y1315D01*
X48578Y1295D02*
X47973Y1295D01*
X47994Y1315D02*
X48083Y1315D01*
X48058Y1334D02*
X47966Y1334D01*
X47950Y1354D02*
X48047Y1354D01*
X48043Y1370D02*
X48038Y1398D01*
X48044Y1424D01*
X48064Y1442D01*
X48092Y1451D01*
X48125Y1454D01*
X48163Y1450D01*
X48191Y1434D01*
X48212Y1409D01*
X48226Y1370D01*
X48326Y1370D01*
X48304Y1450D01*
X48277Y1517D01*
X48260Y1542D01*
X48239Y1564D01*
X48214Y1579D01*
X48184Y1589D01*
X48148Y1595D01*
X48106Y1596D01*
X48043Y1589D01*
X48013Y1579D01*
X47986Y1565D01*
X47963Y1545D01*
X47945Y1521D01*
X47935Y1492D01*
X47932Y1455D01*
X47935Y1406D01*
X47945Y1368D01*
X47945Y1370D01*
X48043Y1370D01*
X47944Y1374D01*
X47938Y1394D02*
X48039Y1394D01*
X48042Y1414D02*
X47934Y1414D01*
X47933Y1434D02*
X48055Y1434D01*
X48119Y1453D02*
X47932Y1453D01*
X47933Y1473D02*
X48294Y1473D01*
X48302Y1453D02*
X48130Y1453D01*
X48192Y1434D02*
X48308Y1434D01*
X48314Y1414D02*
X48208Y1414D01*
X48218Y1394D02*
X48320Y1394D01*
X48325Y1374D02*
X48225Y1374D01*
X48231Y1354D02*
X48331Y1354D01*
X48339Y1334D02*
X48238Y1334D01*
X48251Y1315D02*
X48359Y1315D01*
X48547Y1215D02*
X47941Y1215D01*
X47941Y1195D02*
X48529Y1195D01*
X48497Y1176D02*
X47941Y1176D01*
X47941Y1156D02*
X48019Y1156D01*
X47941Y1235D02*
X48559Y1235D01*
X48568Y1255D02*
X47941Y1255D01*
X47941Y1275D02*
X48574Y1275D01*
X48574Y1057D02*
X47944Y1057D01*
X47944Y907D01*
X48322Y907D01*
X48350Y903D01*
X48374Y896D01*
X48394Y884D01*
X48409Y869D01*
X48421Y853D01*
X48428Y833D01*
X48434Y794D01*
X48434Y770D01*
X48433Y746D01*
X48587Y746D01*
X48589Y760D01*
X48589Y773D01*
X48581Y816D01*
X48560Y853D01*
X48529Y883D01*
X48488Y908D01*
X48488Y911D01*
X48572Y911D01*
X48574Y913D01*
X48574Y1057D01*
X47944Y1056D01*
X47944Y1037D02*
X48574Y1037D01*
X48574Y1017D02*
X47944Y1017D01*
X47944Y997D02*
X48574Y997D01*
X48574Y977D02*
X47944Y977D01*
X47944Y957D02*
X48574Y957D01*
X48574Y937D02*
X47944Y937D01*
X47944Y917D02*
X48574Y917D01*
X48534Y878D02*
X48400Y878D01*
X48417Y858D02*
X48555Y858D01*
X48569Y838D02*
X48426Y838D01*
X48431Y818D02*
X48580Y818D01*
X48585Y798D02*
X48434Y798D01*
X48434Y778D02*
X48588Y778D01*
X48589Y759D02*
X48434Y759D01*
X48369Y898D02*
X48505Y898D01*
X48286Y1493D02*
X47935Y1493D01*
X47942Y1513D02*
X48278Y1513D01*
X48267Y1533D02*
X47954Y1533D01*
X47972Y1553D02*
X48250Y1553D01*
X48224Y1573D02*
X48001Y1573D01*
X48072Y1592D02*
X48163Y1592D01*
D13*
X21909Y4517D03*
D14*
X14169Y4517D03*
X8169Y4517D03*
D15*
X30679Y4520D03*
D10*
G36*
X1888Y3124D02*
X1329Y3324D01*
X1329Y3202D01*
X1444Y3163D01*
X1444Y2957D01*
X1329Y2921D01*
X1329Y2794D01*
X1888Y2992D01*
X1888Y3124D01*
G37*
%LPC*%
G36*
X1540Y3131D02*
X1540Y2989D01*
X1760Y3059D01*
X1540Y3131D01*
G37*
%LPD*%
G36*
X638Y3386D02*
X670Y3352D01*
X709Y3326D01*
X755Y3310D01*
X801Y3293D01*
X854Y3284D01*
X914Y3284D01*
X976Y3284D01*
X1029Y3293D01*
X1075Y3310D01*
X1121Y3326D01*
X1160Y3352D01*
X1191Y3386D01*
X1217Y3411D01*
X1236Y3442D01*
X1249Y3478D01*
X1262Y3515D01*
X1269Y3557D01*
X1269Y3605D01*
X1269Y3653D01*
X1262Y3695D01*
X1249Y3732D01*
X1236Y3768D01*
X1217Y3799D01*
X1191Y3824D01*
X1160Y3858D01*
X1121Y3884D01*
X1075Y3901D01*
X1029Y3918D01*
X976Y3926D01*
X914Y3926D01*
X854Y3926D01*
X801Y3918D01*
X755Y3901D01*
X709Y3884D01*
X670Y3858D01*
X638Y3824D01*
X612Y3799D01*
X592Y3768D01*
X579Y3732D01*
X566Y3695D01*
X560Y3653D01*
X560Y3605D01*
X560Y3557D01*
X566Y3515D01*
X579Y3478D01*
X592Y3442D01*
X612Y3411D01*
X638Y3386D01*
G37*
%LPC*%
G36*
X740Y3473D02*
X760Y3457D01*
X785Y3445D01*
X814Y3436D01*
X843Y3428D01*
X877Y3424D01*
X914Y3424D01*
X952Y3424D01*
X985Y3428D01*
X1014Y3436D01*
X1043Y3445D01*
X1068Y3457D01*
X1089Y3473D01*
X1109Y3489D01*
X1124Y3508D01*
X1135Y3530D01*
X1145Y3552D01*
X1150Y3577D01*
X1150Y3605D01*
X1150Y3633D01*
X1145Y3658D01*
X1135Y3680D01*
X1125Y3702D01*
X1109Y3721D01*
X1089Y3738D01*
X1068Y3754D01*
X1044Y3767D01*
X1014Y3775D01*
X985Y3783D01*
X952Y3787D01*
X914Y3787D01*
X877Y3787D01*
X843Y3783D01*
X814Y3775D01*
X785Y3767D01*
X760Y3754D01*
X740Y3738D01*
X719Y3721D01*
X704Y3702D01*
X694Y3680D01*
X684Y3658D01*
X678Y3633D01*
X678Y3605D01*
X678Y3577D01*
X684Y3552D01*
X694Y3530D01*
X704Y3508D01*
X719Y3489D01*
X740Y3473D01*
G37*
%LPD*%
G36*
X868Y2755D02*
X885Y2735D01*
X907Y2720D01*
X935Y2710D01*
X963Y2700D01*
X997Y2695D01*
X1036Y2695D01*
X1072Y2695D01*
X1104Y2700D01*
X1130Y2710D01*
X1157Y2720D01*
X1179Y2735D01*
X1196Y2755D01*
X1214Y2775D01*
X1227Y2798D01*
X1235Y2825D01*
X1244Y2852D01*
X1248Y2882D01*
X1248Y2916D01*
X1248Y3208D01*
X579Y3208D01*
X579Y3069D01*
X819Y3069D01*
X819Y2926D01*
X819Y2889D01*
X823Y2856D01*
X832Y2828D01*
X840Y2799D01*
X852Y2775D01*
X868Y2755D01*
G37*
%LPC*%
G36*
X1110Y2861D02*
X1117Y2870D01*
X1123Y2881D01*
X1126Y2894D01*
X1130Y2907D01*
X1132Y2922D01*
X1132Y2938D01*
X1132Y3069D01*
X935Y3069D01*
X935Y2938D01*
X935Y2922D01*
X937Y2907D01*
X941Y2894D01*
X945Y2881D01*
X951Y2870D01*
X959Y2861D01*
X967Y2852D01*
X977Y2845D01*
X990Y2841D01*
X1003Y2836D01*
X1018Y2834D01*
X1035Y2834D01*
X1053Y2834D01*
X1068Y2836D01*
X1080Y2841D01*
X1092Y2845D01*
X1102Y2852D01*
X1110Y2861D01*
G37*
%LPD*%
G36*
X638Y1469D02*
X670Y1435D01*
X709Y1410D01*
X755Y1393D01*
X801Y1376D01*
X854Y1368D01*
X914Y1368D01*
X976Y1368D01*
X1029Y1376D01*
X1075Y1393D01*
X1121Y1410D01*
X1160Y1435D01*
X1191Y1469D01*
X1217Y1494D01*
X1236Y1525D01*
X1249Y1562D01*
X1262Y1598D01*
X1269Y1641D01*
X1269Y1689D01*
X1269Y1736D01*
X1262Y1779D01*
X1249Y1815D01*
X1236Y1852D01*
X1217Y1883D01*
X1191Y1908D01*
X1160Y1942D01*
X1121Y1967D01*
X1075Y1984D01*
X1029Y2001D01*
X976Y2010D01*
X914Y2010D01*
X854Y2010D01*
X801Y2001D01*
X755Y1984D01*
X709Y1967D01*
X670Y1942D01*
X638Y1908D01*
X612Y1883D01*
X592Y1852D01*
X579Y1815D01*
X566Y1779D01*
X560Y1736D01*
X560Y1689D01*
X560Y1641D01*
X566Y1598D01*
X579Y1562D01*
X592Y1525D01*
X612Y1494D01*
X638Y1469D01*
G37*
%LPC*%
G36*
X740Y1557D02*
X760Y1540D01*
X785Y1528D01*
X814Y1520D01*
X843Y1512D01*
X877Y1508D01*
X914Y1508D01*
X952Y1508D01*
X985Y1512D01*
X1014Y1520D01*
X1043Y1528D01*
X1068Y1540D01*
X1089Y1557D01*
X1109Y1573D01*
X1124Y1592D01*
X1135Y1614D01*
X1145Y1636D01*
X1150Y1661D01*
X1150Y1689D01*
X1150Y1716D01*
X1145Y1741D01*
X1135Y1763D01*
X1125Y1785D01*
X1109Y1805D01*
X1089Y1821D01*
X1068Y1838D01*
X1044Y1850D01*
X1014Y1858D01*
X985Y1867D01*
X952Y1871D01*
X914Y1871D01*
X877Y1871D01*
X843Y1867D01*
X814Y1858D01*
X785Y1850D01*
X760Y1838D01*
X740Y1821D01*
X719Y1805D01*
X704Y1785D01*
X694Y1763D01*
X684Y1741D01*
X678Y1716D01*
X678Y1689D01*
X678Y1661D01*
X684Y1636D01*
X694Y1614D01*
X704Y1592D01*
X719Y1573D01*
X740Y1557D01*
G37*
%LPD*%
G36*
X1714Y2395D02*
X1714Y2280D01*
X1741Y2283D01*
X1765Y2291D01*
X1788Y2303D01*
X1810Y2316D01*
X1831Y2333D01*
X1849Y2354D01*
X1867Y2376D01*
X1880Y2401D01*
X1889Y2429D01*
X1898Y2458D01*
X1903Y2490D01*
X1903Y2526D01*
X1903Y2567D01*
X1896Y2604D01*
X1882Y2637D01*
X1869Y2670D01*
X1848Y2699D01*
X1821Y2724D01*
X1793Y2748D01*
X1762Y2767D01*
X1725Y2780D01*
X1689Y2792D01*
X1648Y2798D01*
X1603Y2798D01*
X1558Y2798D01*
X1518Y2792D01*
X1483Y2780D01*
X1447Y2768D01*
X1417Y2749D01*
X1391Y2724D01*
X1365Y2701D01*
X1346Y2674D01*
X1333Y2643D01*
X1320Y2613D01*
X1314Y2579D01*
X1314Y2542D01*
X1314Y2519D01*
X1316Y2499D01*
X1321Y2480D01*
X1326Y2461D01*
X1333Y2444D01*
X1342Y2428D01*
X1348Y2419D01*
X1355Y2410D01*
X1364Y2399D01*
X1374Y2389D01*
X1385Y2379D01*
X1398Y2367D01*
X1329Y2356D01*
X1329Y2278D01*
X1629Y2278D01*
X1629Y2511D01*
X1536Y2511D01*
X1536Y2382D01*
X1517Y2385D01*
X1501Y2390D01*
X1486Y2398D01*
X1471Y2405D01*
X1458Y2416D01*
X1446Y2428D01*
X1435Y2441D01*
X1427Y2455D01*
X1421Y2471D01*
X1415Y2487D01*
X1412Y2505D01*
X1412Y2525D01*
X1412Y2545D01*
X1416Y2563D01*
X1423Y2581D01*
X1430Y2599D01*
X1441Y2616D01*
X1455Y2632D01*
X1470Y2647D01*
X1489Y2659D01*
X1513Y2667D01*
X1538Y2675D01*
X1567Y2679D01*
X1602Y2679D01*
X1636Y2679D01*
X1666Y2675D01*
X1691Y2668D01*
X1717Y2661D01*
X1738Y2650D01*
X1755Y2635D01*
X1772Y2621D01*
X1785Y2604D01*
X1794Y2586D01*
X1802Y2567D01*
X1806Y2547D01*
X1806Y2524D01*
X1806Y2512D01*
X1805Y2501D01*
X1803Y2490D01*
X1801Y2480D01*
X1798Y2470D01*
X1794Y2460D01*
X1786Y2443D01*
X1776Y2429D01*
X1762Y2418D01*
X1749Y2407D01*
X1733Y2399D01*
X1714Y2395D01*
G37*
M02*
