%MOIN*%
%FSLAX54Y54*%
%ADD10C,0.0020*%
%ADD11C,0.3195*%
%ADD12C,0.2762*%
%ADD13C,0.0079*%
%ADD14C,0.0250*%
%ADD15R,0.2343X0.3384*%
%ADD16R,0.1427X0.2751*%
%ADD17R,0.1224X0.4354*%
%ADD18R,0.1244X0.2875*%
%ADD19C,0.0139*%
%ADD20R,0.2854X0.3569*%
G75*
D10*
X377Y703D02*
X377Y862D01*
X536Y976D01*
X696Y1090D01*
X855Y1203D01*
X782Y1282D01*
X708Y1361D01*
X377Y1361D01*
X377Y1487D01*
X1322Y1487D01*
X1322Y1361D01*
X1323Y1361D01*
X851Y1361D01*
X969Y1241D01*
X1087Y1121D01*
X1205Y1002D01*
X1323Y882D01*
X1323Y719D01*
X1195Y852D01*
X1068Y985D01*
X941Y1117D01*
X800Y1014D01*
X659Y910D01*
X518Y807D01*
X377Y703D01*
X377Y719D02*
X399Y719D01*
X377Y739D02*
X426Y739D01*
X453Y759D02*
X377Y759D01*
X377Y778D02*
X480Y778D01*
X507Y798D02*
X377Y798D01*
X377Y818D02*
X534Y818D01*
X561Y838D02*
X377Y838D01*
X377Y858D02*
X588Y858D01*
X615Y878D02*
X399Y878D01*
X427Y898D02*
X642Y898D01*
X669Y917D02*
X455Y917D01*
X482Y937D02*
X696Y937D01*
X723Y957D02*
X510Y957D01*
X538Y977D02*
X750Y977D01*
X777Y997D02*
X566Y997D01*
X594Y1017D02*
X804Y1017D01*
X831Y1037D02*
X621Y1037D01*
X649Y1056D02*
X858Y1056D01*
X885Y1076D02*
X677Y1076D01*
X705Y1096D02*
X912Y1096D01*
X939Y1116D02*
X733Y1116D01*
X760Y1136D02*
X1073Y1136D01*
X1092Y1116D02*
X942Y1116D01*
X961Y1096D02*
X1112Y1096D01*
X1131Y1076D02*
X980Y1076D01*
X999Y1056D02*
X1151Y1056D01*
X1170Y1037D02*
X1018Y1037D01*
X1037Y1017D02*
X1190Y1017D01*
X1209Y997D02*
X1056Y997D01*
X1075Y977D02*
X1229Y977D01*
X1248Y957D02*
X1094Y957D01*
X1113Y937D02*
X1268Y937D01*
X1287Y917D02*
X1132Y917D01*
X1151Y898D02*
X1307Y898D01*
X1323Y878D02*
X1170Y878D01*
X1189Y858D02*
X1323Y858D01*
X1323Y838D02*
X1208Y838D01*
X1227Y818D02*
X1323Y818D01*
X1323Y798D02*
X1247Y798D01*
X1265Y778D02*
X1323Y778D01*
X1323Y759D02*
X1284Y759D01*
X1303Y739D02*
X1323Y739D01*
X2016Y1026D02*
X2323Y827D01*
X2477Y728D01*
X2477Y885D01*
X1982Y1190D01*
X2477Y1502D01*
X2477Y1666D01*
X2170Y1465D01*
X2016Y1365D01*
X1862Y1264D01*
X1437Y1264D01*
X1437Y1126D01*
X1862Y1126D01*
X2016Y1026D01*
X2031Y1017D02*
X2263Y1017D01*
X2295Y997D02*
X2061Y997D01*
X2092Y977D02*
X2328Y977D01*
X2360Y957D02*
X2122Y957D01*
X2153Y937D02*
X2392Y937D01*
X2424Y917D02*
X2184Y917D01*
X2215Y898D02*
X2457Y898D01*
X2477Y878D02*
X2245Y878D01*
X2276Y858D02*
X2477Y858D01*
X2477Y838D02*
X2307Y838D01*
X2337Y818D02*
X2477Y818D01*
X2477Y798D02*
X2368Y798D01*
X2399Y778D02*
X2477Y778D01*
X2477Y759D02*
X2429Y759D01*
X2460Y739D02*
X2477Y739D01*
X2231Y1037D02*
X2000Y1037D01*
X1969Y1056D02*
X2198Y1056D01*
X2166Y1076D02*
X1939Y1076D01*
X1908Y1096D02*
X2134Y1096D01*
X2102Y1116D02*
X1877Y1116D01*
X1991Y1195D02*
X1437Y1195D01*
X1437Y1215D02*
X2022Y1215D01*
X2054Y1235D02*
X1437Y1235D01*
X1437Y1255D02*
X2085Y1255D01*
X2117Y1275D02*
X1878Y1275D01*
X1909Y1295D02*
X2148Y1295D01*
X2180Y1315D02*
X1939Y1315D01*
X1969Y1334D02*
X2211Y1334D01*
X2243Y1354D02*
X2000Y1354D01*
X2030Y1374D02*
X2274Y1374D01*
X2306Y1394D02*
X2060Y1394D01*
X2091Y1414D02*
X2337Y1414D01*
X2369Y1434D02*
X2121Y1434D01*
X2151Y1453D02*
X2400Y1453D01*
X2432Y1473D02*
X2182Y1473D01*
X2212Y1493D02*
X2463Y1493D01*
X2477Y1513D02*
X2243Y1513D01*
X2273Y1533D02*
X2477Y1533D01*
X2477Y1553D02*
X2303Y1553D01*
X2334Y1573D02*
X2477Y1573D01*
X2477Y1592D02*
X2364Y1592D01*
X2395Y1612D02*
X2477Y1612D01*
X2477Y1632D02*
X2425Y1632D01*
X2455Y1652D02*
X2477Y1652D01*
X2374Y1791D02*
X2052Y1791D01*
X2022Y1791D01*
X2028Y1793D02*
X1866Y1735D01*
X1866Y2088D01*
X2028Y2029D01*
X2052Y2020D01*
X2052Y2149D01*
X1957Y2186D01*
X1783Y2254D01*
X1610Y2322D01*
X1437Y2389D01*
X1437Y2248D01*
X1593Y2190D01*
X1750Y2132D01*
X1750Y1692D01*
X1593Y1635D01*
X1437Y1578D01*
X1437Y1425D01*
X1610Y1493D01*
X1783Y1561D01*
X1957Y1628D01*
X2084Y1678D01*
X2052Y1678D01*
X2052Y1802D01*
X2028Y1793D01*
X2052Y1801D02*
X2052Y1678D01*
X2084Y1678D01*
X2130Y1696D01*
X2303Y1763D01*
X2477Y1831D01*
X2477Y1984D01*
X2303Y2051D01*
X2130Y2119D01*
X2052Y2149D01*
X2052Y2149D01*
X2052Y2020D01*
X2190Y1970D01*
X2351Y1911D01*
X2351Y1908D01*
X2190Y1851D01*
X2052Y1801D01*
X2078Y1811D02*
X2425Y1811D01*
X2476Y1831D02*
X2134Y1831D01*
X2189Y1850D02*
X2477Y1850D01*
X2477Y1870D02*
X2245Y1870D01*
X2300Y1890D02*
X2477Y1890D01*
X2477Y1910D02*
X2351Y1910D01*
X2300Y1930D02*
X2477Y1930D01*
X2477Y1950D02*
X2245Y1950D01*
X2191Y1970D02*
X2477Y1970D01*
X2462Y1989D02*
X2136Y1989D01*
X2082Y2009D02*
X2411Y2009D01*
X2360Y2029D02*
X2052Y2029D01*
X2027Y2029D01*
X2052Y2049D02*
X1973Y2049D01*
X1918Y2069D02*
X2052Y2069D01*
X2258Y2069D01*
X2208Y2089D02*
X2052Y2089D01*
X1750Y2089D01*
X1750Y2109D02*
X2052Y2109D01*
X2157Y2109D01*
X2106Y2128D02*
X2052Y2128D01*
X1750Y2128D01*
X1705Y2148D02*
X2052Y2148D01*
X2055Y2148D01*
X2004Y2168D02*
X1652Y2168D01*
X1598Y2188D02*
X1953Y2188D01*
X1902Y2208D02*
X1545Y2208D01*
X1491Y2228D02*
X1851Y2228D01*
X1800Y2247D02*
X1438Y2247D01*
X1437Y2267D02*
X1749Y2267D01*
X1698Y2287D02*
X1437Y2287D01*
X1437Y2307D02*
X1647Y2307D01*
X1596Y2327D02*
X1437Y2327D01*
X1437Y2347D02*
X1545Y2347D01*
X1494Y2367D02*
X1437Y2367D01*
X1437Y2387D02*
X1443Y2387D01*
X1437Y2417D02*
X1437Y3106D01*
X2477Y3106D01*
X2477Y2967D01*
X2477Y2967D01*
X1553Y2967D01*
X1553Y2417D01*
X1437Y2417D01*
X1437Y2426D02*
X1553Y2426D01*
X1553Y2446D02*
X1437Y2446D01*
X1437Y2466D02*
X1553Y2466D01*
X1553Y2486D02*
X1437Y2486D01*
X1437Y2506D02*
X1553Y2506D01*
X1553Y2525D02*
X1437Y2525D01*
X1437Y2545D02*
X1553Y2545D01*
X1553Y2565D02*
X1437Y2565D01*
X1437Y2585D02*
X1553Y2585D01*
X1553Y2605D02*
X1437Y2605D01*
X1437Y2625D02*
X1553Y2625D01*
X1553Y2644D02*
X1437Y2644D01*
X1437Y2664D02*
X1553Y2664D01*
X1553Y2684D02*
X1437Y2684D01*
X1437Y2704D02*
X1553Y2704D01*
X1553Y2724D02*
X1437Y2724D01*
X1437Y2744D02*
X1553Y2744D01*
X1553Y2764D02*
X1437Y2764D01*
X1437Y2784D02*
X1553Y2784D01*
X1553Y2803D02*
X1437Y2803D01*
X1437Y2823D02*
X1553Y2823D01*
X1553Y2843D02*
X1437Y2843D01*
X1437Y2863D02*
X1553Y2863D01*
X1553Y2883D02*
X1437Y2883D01*
X1437Y2903D02*
X1553Y2903D01*
X1553Y2922D02*
X1437Y2922D01*
X1437Y2942D02*
X1553Y2942D01*
X1553Y2962D02*
X1437Y2962D01*
X1437Y2982D02*
X2477Y2982D01*
X2477Y3002D02*
X1437Y3002D01*
X1437Y3022D02*
X2477Y3022D01*
X2477Y3041D02*
X1437Y3041D01*
X1437Y3061D02*
X2477Y3061D01*
X2477Y3081D02*
X1437Y3081D01*
X1437Y3101D02*
X2477Y3101D01*
X2396Y3239D02*
X2291Y3176D01*
X2170Y3158D01*
X2047Y3176D01*
X1942Y3239D01*
X1878Y3350D01*
X1862Y3477D01*
X1862Y3716D01*
X1978Y3716D01*
X1978Y3524D01*
X1979Y3524D01*
X1990Y3422D01*
X2027Y3351D01*
X2087Y3310D01*
X2170Y3297D01*
X2252Y3310D01*
X2311Y3351D01*
X2348Y3421D01*
X2360Y3524D01*
X2360Y3716D01*
X2477Y3716D01*
X2360Y3716D01*
X2360Y3795D01*
X1978Y3795D01*
X1978Y3716D01*
X1862Y3716D01*
X1862Y3795D01*
X1437Y3795D01*
X1437Y3933D01*
X2477Y3933D01*
X2477Y3716D01*
X2477Y3716D01*
X2477Y3477D01*
X2477Y3477D01*
X2460Y3350D01*
X2396Y3239D01*
X1942Y3240D01*
X1930Y3260D02*
X2408Y3260D01*
X2420Y3280D02*
X1919Y3280D01*
X1907Y3300D02*
X2151Y3300D01*
X2188Y3300D02*
X2431Y3300D01*
X2442Y3320D02*
X2265Y3320D01*
X2294Y3339D02*
X2454Y3339D01*
X2461Y3359D02*
X2316Y3359D01*
X2326Y3379D02*
X2464Y3379D01*
X2466Y3399D02*
X2336Y3399D01*
X2347Y3419D02*
X2469Y3419D01*
X2472Y3439D02*
X2350Y3439D01*
X2352Y3458D02*
X2474Y3458D01*
X2477Y3478D02*
X2355Y3478D01*
X2357Y3498D02*
X2477Y3498D01*
X2477Y3518D02*
X2359Y3518D01*
X2360Y3538D02*
X2477Y3538D01*
X2477Y3558D02*
X2360Y3558D01*
X2360Y3577D02*
X2477Y3577D01*
X2477Y3597D02*
X2360Y3597D01*
X2360Y3617D02*
X2477Y3617D01*
X2477Y3637D02*
X2360Y3637D01*
X2360Y3657D02*
X2477Y3657D01*
X2477Y3677D02*
X2360Y3677D01*
X2360Y3697D02*
X2477Y3697D01*
X2477Y3717D02*
X2360Y3717D01*
X2360Y3736D02*
X2477Y3736D01*
X2477Y3756D02*
X2360Y3756D01*
X2360Y3776D02*
X2477Y3776D01*
X2477Y3796D02*
X1437Y3796D01*
X1437Y3816D02*
X2477Y3816D01*
X2477Y3836D02*
X1437Y3836D01*
X1437Y3855D02*
X2477Y3855D01*
X2477Y3875D02*
X1437Y3875D01*
X1437Y3895D02*
X2477Y3895D01*
X2477Y3915D02*
X1437Y3915D01*
X1323Y3915D02*
X998Y3915D01*
X720Y3915D01*
X377Y3915D01*
X377Y3460D01*
X397Y3357D01*
X397Y3357D01*
X525Y3357D01*
X483Y3476D01*
X483Y3476D01*
X483Y3791D01*
X720Y3791D01*
X720Y3916D01*
X377Y3916D01*
X377Y3895D02*
X720Y3895D01*
X998Y3895D01*
X1323Y3895D01*
X1323Y3875D02*
X998Y3875D01*
X720Y3875D01*
X377Y3875D01*
X377Y3855D02*
X720Y3855D01*
X998Y3855D01*
X1323Y3855D01*
X1323Y3836D02*
X998Y3836D01*
X720Y3836D01*
X377Y3836D01*
X377Y3816D02*
X720Y3816D01*
X998Y3816D01*
X1323Y3816D01*
X1323Y3796D02*
X998Y3796D01*
X720Y3796D01*
X377Y3796D01*
X377Y3776D02*
X483Y3776D01*
X483Y3756D02*
X377Y3756D01*
X377Y3736D02*
X483Y3736D01*
X483Y3717D02*
X377Y3717D01*
X377Y3697D02*
X483Y3697D01*
X483Y3677D02*
X377Y3677D01*
X377Y3657D02*
X483Y3657D01*
X483Y3637D02*
X377Y3637D01*
X377Y3617D02*
X483Y3617D01*
X483Y3597D02*
X377Y3597D01*
X377Y3577D02*
X483Y3577D01*
X483Y3558D02*
X377Y3558D01*
X377Y3538D02*
X483Y3538D01*
X483Y3518D02*
X377Y3518D01*
X377Y3498D02*
X483Y3498D01*
X483Y3478D02*
X377Y3478D01*
X378Y3458D02*
X489Y3458D01*
X496Y3439D02*
X381Y3439D01*
X385Y3419D02*
X503Y3419D01*
X510Y3399D02*
X389Y3399D01*
X392Y3379D02*
X517Y3379D01*
X524Y3359D02*
X396Y3359D01*
X401Y3336D01*
X462Y3246D01*
X548Y3191D01*
X649Y3173D01*
X798Y3219D01*
X877Y3353D01*
X880Y3353D01*
X961Y3249D01*
X998Y3238D01*
X998Y3367D01*
X954Y3385D01*
X916Y3539D01*
X916Y3539D01*
X916Y3791D01*
X998Y3791D01*
X998Y3917D01*
X998Y3917D01*
X720Y3917D01*
X720Y3791D01*
X810Y3791D01*
X810Y3504D01*
X803Y3427D01*
X778Y3362D01*
X729Y3316D01*
X653Y3299D01*
X528Y3346D01*
X524Y3357D01*
X397Y3357D01*
X400Y3339D02*
X545Y3339D01*
X598Y3320D02*
X412Y3320D01*
X426Y3300D02*
X650Y3300D01*
X657Y3300D02*
X845Y3300D01*
X834Y3280D02*
X439Y3280D01*
X452Y3260D02*
X822Y3260D01*
X810Y3240D02*
X471Y3240D01*
X503Y3220D02*
X798Y3220D01*
X738Y3200D02*
X534Y3200D01*
X531Y3141D02*
X377Y3141D01*
X377Y3161D02*
X480Y3161D01*
X429Y3180D02*
X377Y3180D01*
X377Y3200D02*
X378Y3200D01*
X377Y3072D01*
X520Y3019D01*
X662Y2966D01*
X662Y2566D01*
X520Y2514D01*
X377Y2463D01*
X377Y2324D01*
X535Y2385D01*
X693Y2447D01*
X850Y2509D01*
X987Y2562D01*
X987Y2684D01*
X915Y2658D01*
X768Y2606D01*
X768Y2926D01*
X915Y2873D01*
X987Y2847D01*
X987Y2963D01*
X850Y3016D01*
X693Y3078D01*
X377Y3201D01*
X377Y3121D02*
X582Y3121D01*
X633Y3101D02*
X377Y3101D01*
X377Y3081D02*
X684Y3081D01*
X735Y3061D02*
X407Y3061D01*
X460Y3041D02*
X786Y3041D01*
X837Y3022D02*
X513Y3022D01*
X567Y3002D02*
X888Y3002D01*
X939Y2982D02*
X620Y2982D01*
X662Y2962D02*
X987Y2962D01*
X990Y2962D01*
X1008Y2955D01*
X1323Y2833D01*
X1323Y2693D01*
X1165Y2632D01*
X1008Y2570D01*
X987Y2562D01*
X987Y2684D01*
X1062Y2711D01*
X1209Y2763D01*
X1209Y2766D01*
X1062Y2820D01*
X987Y2847D01*
X987Y2964D01*
X987Y2942D02*
X662Y2942D01*
X662Y2922D02*
X768Y2922D01*
X779Y2922D02*
X987Y2922D01*
X1093Y2922D01*
X1143Y2903D02*
X987Y2903D01*
X834Y2903D01*
X888Y2883D02*
X987Y2883D01*
X1194Y2883D01*
X1245Y2863D02*
X987Y2863D01*
X943Y2863D01*
X998Y2843D02*
X1296Y2843D01*
X1323Y2823D02*
X1052Y2823D01*
X1107Y2803D02*
X1323Y2803D01*
X1323Y2784D02*
X1161Y2784D01*
X1154Y2744D02*
X1323Y2744D01*
X1323Y2764D02*
X1209Y2764D01*
X1098Y2724D02*
X1323Y2724D01*
X1323Y2704D02*
X1043Y2704D01*
X987Y2684D02*
X1300Y2684D01*
X1249Y2664D02*
X987Y2664D01*
X932Y2664D01*
X987Y2644D02*
X876Y2644D01*
X820Y2625D02*
X987Y2625D01*
X1147Y2625D01*
X1096Y2605D02*
X987Y2605D01*
X662Y2605D01*
X662Y2585D02*
X987Y2585D01*
X1046Y2585D01*
X995Y2565D02*
X987Y2565D01*
X660Y2565D01*
X605Y2545D02*
X944Y2545D01*
X893Y2525D02*
X550Y2525D01*
X496Y2506D02*
X842Y2506D01*
X792Y2486D02*
X441Y2486D01*
X386Y2466D02*
X741Y2466D01*
X690Y2446D02*
X377Y2446D01*
X377Y2426D02*
X639Y2426D01*
X654Y2382D02*
X848Y2410D01*
X1042Y2380D01*
X1200Y2295D01*
X1307Y2155D01*
X1346Y1962D01*
X1326Y1822D01*
X1268Y1704D01*
X1172Y1618D01*
X1039Y1573D01*
X1039Y1699D01*
X1126Y1733D01*
X1189Y1792D01*
X1189Y1792D01*
X1240Y1964D01*
X1208Y2109D01*
X1122Y2208D01*
X1000Y2266D01*
X857Y2284D01*
X704Y2266D01*
X578Y2208D01*
X493Y2108D01*
X461Y1962D01*
X481Y1852D01*
X538Y1768D01*
X625Y1713D01*
X734Y1689D01*
X734Y1564D01*
X583Y1600D01*
X456Y1687D01*
X378Y1820D01*
X356Y1973D01*
X394Y2165D01*
X498Y2301D01*
X654Y2382D01*
X683Y2387D02*
X1002Y2387D01*
X1067Y2367D02*
X624Y2367D01*
X586Y2347D02*
X1104Y2347D01*
X1141Y2327D02*
X548Y2327D01*
X510Y2307D02*
X1177Y2307D01*
X1206Y2287D02*
X487Y2287D01*
X472Y2267D02*
X717Y2267D01*
X664Y2247D02*
X457Y2247D01*
X442Y2228D02*
X621Y2228D01*
X578Y2208D02*
X427Y2208D01*
X412Y2188D02*
X561Y2188D01*
X544Y2168D02*
X397Y2168D01*
X391Y2148D02*
X527Y2148D01*
X510Y2128D02*
X387Y2128D01*
X383Y2109D02*
X493Y2109D01*
X488Y2089D02*
X379Y2089D01*
X375Y2069D02*
X484Y2069D01*
X480Y2049D02*
X371Y2049D01*
X367Y2029D02*
X475Y2029D01*
X471Y2009D02*
X363Y2009D01*
X360Y1989D02*
X467Y1989D01*
X462Y1970D02*
X357Y1970D01*
X359Y1950D02*
X463Y1950D01*
X467Y1930D02*
X362Y1930D01*
X365Y1910D02*
X471Y1910D01*
X474Y1890D02*
X368Y1890D01*
X371Y1870D02*
X478Y1870D01*
X482Y1850D02*
X374Y1850D01*
X376Y1831D02*
X496Y1831D01*
X509Y1811D02*
X383Y1811D01*
X395Y1791D02*
X523Y1791D01*
X536Y1771D02*
X406Y1771D01*
X418Y1751D02*
X565Y1751D01*
X597Y1731D02*
X430Y1731D01*
X441Y1711D02*
X633Y1711D01*
X723Y1692D02*
X453Y1692D01*
X478Y1672D02*
X734Y1672D01*
X734Y1652D02*
X507Y1652D01*
X536Y1632D02*
X734Y1632D01*
X734Y1612D02*
X565Y1612D01*
X615Y1592D02*
X734Y1592D01*
X734Y1573D02*
X697Y1573D01*
X377Y1473D02*
X1322Y1473D01*
X1322Y1453D02*
X377Y1453D01*
X377Y1434D02*
X1322Y1434D01*
X1322Y1414D02*
X377Y1414D01*
X377Y1394D02*
X1322Y1394D01*
X1322Y1374D02*
X377Y1374D01*
X715Y1354D02*
X858Y1354D01*
X877Y1334D02*
X733Y1334D01*
X752Y1315D02*
X897Y1315D01*
X917Y1295D02*
X770Y1295D01*
X789Y1275D02*
X936Y1275D01*
X956Y1255D02*
X807Y1255D01*
X826Y1235D02*
X975Y1235D01*
X995Y1215D02*
X844Y1215D01*
X844Y1195D02*
X1014Y1195D01*
X1034Y1176D02*
X816Y1176D01*
X788Y1156D02*
X1053Y1156D01*
X1437Y1156D02*
X2037Y1156D01*
X2069Y1136D02*
X1437Y1136D01*
X1437Y1176D02*
X2005Y1176D01*
X1509Y1453D02*
X1437Y1453D01*
X1437Y1434D02*
X1458Y1434D01*
X1437Y1473D02*
X1560Y1473D01*
X1611Y1493D02*
X1437Y1493D01*
X1437Y1513D02*
X1662Y1513D01*
X1712Y1533D02*
X1437Y1533D01*
X1437Y1553D02*
X1763Y1553D01*
X1814Y1573D02*
X1437Y1573D01*
X1476Y1592D02*
X1865Y1592D01*
X1916Y1612D02*
X1530Y1612D01*
X1585Y1632D02*
X1967Y1632D01*
X2017Y1652D02*
X1640Y1652D01*
X1695Y1672D02*
X2068Y1672D01*
X2052Y1692D02*
X1749Y1692D01*
X1750Y1711D02*
X2052Y1711D01*
X2170Y1711D01*
X2119Y1692D02*
X2052Y1692D01*
X2052Y1731D02*
X1750Y1731D01*
X1750Y1751D02*
X1866Y1751D01*
X1866Y1771D02*
X1750Y1771D01*
X1750Y1791D02*
X1866Y1791D01*
X1866Y1811D02*
X1750Y1811D01*
X1750Y1831D02*
X1866Y1831D01*
X1866Y1850D02*
X1750Y1850D01*
X1750Y1870D02*
X1866Y1870D01*
X1866Y1890D02*
X1750Y1890D01*
X1750Y1910D02*
X1866Y1910D01*
X1866Y1930D02*
X1750Y1930D01*
X1750Y1950D02*
X1866Y1950D01*
X1866Y1970D02*
X1750Y1970D01*
X1750Y1989D02*
X1866Y1989D01*
X1866Y2009D02*
X1750Y2009D01*
X1750Y2029D02*
X1866Y2029D01*
X1866Y2049D02*
X1750Y2049D01*
X1750Y2069D02*
X1866Y2069D01*
X2052Y2049D02*
X2310Y2049D01*
X1344Y1970D02*
X1238Y1970D01*
X1235Y1950D02*
X1344Y1950D01*
X1341Y1930D02*
X1230Y1930D01*
X1224Y1910D02*
X1338Y1910D01*
X1335Y1890D02*
X1218Y1890D01*
X1212Y1870D02*
X1332Y1870D01*
X1330Y1850D02*
X1206Y1850D01*
X1200Y1831D02*
X1327Y1831D01*
X1320Y1811D02*
X1194Y1811D01*
X1188Y1791D02*
X1311Y1791D01*
X1301Y1771D02*
X1167Y1771D01*
X1146Y1751D02*
X1291Y1751D01*
X1281Y1731D02*
X1123Y1731D01*
X1072Y1711D02*
X1271Y1711D01*
X1254Y1692D02*
X1039Y1692D01*
X1039Y1672D02*
X1232Y1672D01*
X1210Y1652D02*
X1039Y1652D01*
X1039Y1632D02*
X1187Y1632D01*
X1155Y1612D02*
X1039Y1612D01*
X1039Y1592D02*
X1096Y1592D01*
X1911Y1751D02*
X2052Y1751D01*
X2272Y1751D01*
X2221Y1731D02*
X2052Y1731D01*
X2052Y1771D02*
X1967Y1771D01*
X2052Y1771D02*
X2323Y1771D01*
X1340Y1989D02*
X1234Y1989D01*
X1229Y2009D02*
X1336Y2009D01*
X1332Y2029D02*
X1225Y2029D01*
X1221Y2049D02*
X1328Y2049D01*
X1324Y2069D02*
X1216Y2069D01*
X1212Y2089D02*
X1320Y2089D01*
X1316Y2109D02*
X1208Y2109D01*
X1191Y2128D02*
X1312Y2128D01*
X1308Y2148D02*
X1174Y2148D01*
X1157Y2168D02*
X1296Y2168D01*
X1281Y2188D02*
X1140Y2188D01*
X1122Y2208D02*
X1266Y2208D01*
X1251Y2228D02*
X1081Y2228D01*
X1039Y2247D02*
X1236Y2247D01*
X1221Y2267D02*
X988Y2267D01*
X870Y2406D02*
X824Y2406D01*
X589Y2406D02*
X377Y2406D01*
X377Y2387D02*
X538Y2387D01*
X487Y2367D02*
X377Y2367D01*
X377Y2347D02*
X436Y2347D01*
X385Y2327D02*
X377Y2327D01*
X662Y2625D02*
X768Y2625D01*
X768Y2644D02*
X662Y2644D01*
X662Y2664D02*
X768Y2664D01*
X768Y2684D02*
X662Y2684D01*
X662Y2704D02*
X768Y2704D01*
X768Y2724D02*
X662Y2724D01*
X662Y2744D02*
X768Y2744D01*
X768Y2764D02*
X662Y2764D01*
X662Y2784D02*
X768Y2784D01*
X768Y2803D02*
X662Y2803D01*
X662Y2823D02*
X768Y2823D01*
X768Y2843D02*
X662Y2843D01*
X662Y2863D02*
X768Y2863D01*
X768Y2883D02*
X662Y2883D01*
X662Y2903D02*
X768Y2903D01*
X987Y2942D02*
X1041Y2942D01*
X674Y3180D02*
X606Y3180D01*
X952Y3260D02*
X998Y3260D01*
X1227Y3260D01*
X1212Y3245D02*
X1289Y3324D01*
X1308Y3375D01*
X1319Y3439D01*
X1322Y3508D01*
X1323Y3574D01*
X1323Y3574D01*
X1323Y3917D01*
X998Y3917D01*
X998Y3917D01*
X998Y3791D01*
X1217Y3791D01*
X1217Y3539D01*
X1212Y3462D01*
X1192Y3397D01*
X1147Y3354D01*
X1067Y3338D01*
X998Y3367D01*
X998Y3238D01*
X1091Y3212D01*
X1212Y3245D01*
X1195Y3240D02*
X998Y3240D01*
X992Y3240D01*
X998Y3280D02*
X937Y3280D01*
X921Y3300D02*
X998Y3300D01*
X1265Y3300D01*
X1246Y3280D02*
X998Y3280D01*
X998Y3320D02*
X906Y3320D01*
X890Y3339D02*
X998Y3339D01*
X1064Y3339D01*
X1074Y3339D02*
X1295Y3339D01*
X1303Y3359D02*
X1152Y3359D01*
X1173Y3379D02*
X1309Y3379D01*
X1312Y3399D02*
X1192Y3399D01*
X1199Y3419D02*
X1315Y3419D01*
X1318Y3439D02*
X1205Y3439D01*
X1211Y3458D02*
X1319Y3458D01*
X1321Y3478D02*
X1213Y3478D01*
X1214Y3498D02*
X1322Y3498D01*
X1322Y3518D02*
X1216Y3518D01*
X1217Y3538D02*
X1323Y3538D01*
X1323Y3558D02*
X1217Y3558D01*
X1217Y3577D02*
X1323Y3577D01*
X1323Y3597D02*
X1217Y3597D01*
X1217Y3617D02*
X1323Y3617D01*
X1323Y3637D02*
X1217Y3637D01*
X1217Y3657D02*
X1323Y3657D01*
X1323Y3677D02*
X1217Y3677D01*
X1217Y3697D02*
X1323Y3697D01*
X1323Y3717D02*
X1217Y3717D01*
X1217Y3736D02*
X1323Y3736D01*
X1323Y3756D02*
X1217Y3756D01*
X1217Y3776D02*
X1323Y3776D01*
X916Y3776D02*
X810Y3776D01*
X810Y3756D02*
X916Y3756D01*
X916Y3736D02*
X810Y3736D01*
X810Y3717D02*
X916Y3717D01*
X916Y3697D02*
X810Y3697D01*
X810Y3677D02*
X916Y3677D01*
X916Y3657D02*
X810Y3657D01*
X810Y3637D02*
X916Y3637D01*
X916Y3617D02*
X810Y3617D01*
X810Y3597D02*
X916Y3597D01*
X916Y3577D02*
X810Y3577D01*
X810Y3558D02*
X916Y3558D01*
X917Y3538D02*
X810Y3538D01*
X810Y3518D02*
X921Y3518D01*
X926Y3498D02*
X810Y3498D01*
X808Y3478D02*
X931Y3478D01*
X936Y3458D02*
X806Y3458D01*
X804Y3439D02*
X941Y3439D01*
X946Y3419D02*
X800Y3419D01*
X792Y3399D02*
X951Y3399D01*
X969Y3379D02*
X784Y3379D01*
X775Y3359D02*
X998Y3359D01*
X1016Y3359D01*
X998Y3320D02*
X1285Y3320D01*
X1121Y3220D02*
X1063Y3220D01*
X869Y3339D02*
X754Y3339D01*
X733Y3320D02*
X857Y3320D01*
X1867Y3439D02*
X1988Y3439D01*
X1986Y3458D02*
X1864Y3458D01*
X1862Y3478D02*
X1984Y3478D01*
X1981Y3498D02*
X1862Y3498D01*
X1862Y3518D02*
X1979Y3518D01*
X1978Y3538D02*
X1862Y3538D01*
X1862Y3558D02*
X1978Y3558D01*
X1978Y3577D02*
X1862Y3577D01*
X1862Y3597D02*
X1978Y3597D01*
X1978Y3617D02*
X1862Y3617D01*
X1862Y3637D02*
X1978Y3637D01*
X1978Y3657D02*
X1862Y3657D01*
X1862Y3677D02*
X1978Y3677D01*
X1978Y3697D02*
X1862Y3697D01*
X1862Y3717D02*
X1978Y3717D01*
X1978Y3736D02*
X1862Y3736D01*
X1862Y3756D02*
X1978Y3756D01*
X1978Y3776D02*
X1862Y3776D01*
X1869Y3419D02*
X1991Y3419D01*
X2002Y3399D02*
X1872Y3399D01*
X1874Y3379D02*
X2012Y3379D01*
X2022Y3359D02*
X1877Y3359D01*
X1884Y3339D02*
X2044Y3339D01*
X2073Y3320D02*
X1896Y3320D01*
X1974Y3220D02*
X2365Y3220D01*
X2332Y3200D02*
X2007Y3200D01*
X2040Y3180D02*
X2299Y3180D01*
X2186Y3161D02*
X2153Y3161D01*
X1198Y2644D02*
X987Y2644D01*
X10557Y3709D02*
X10557Y3841D01*
X11199Y3841D01*
X11199Y4081D01*
X11313Y4081D01*
X11313Y3468D01*
X11199Y3468D01*
X11199Y3709D01*
X10557Y3709D01*
X10557Y3717D02*
X11313Y3717D01*
X11313Y3736D02*
X10557Y3736D01*
X10557Y3756D02*
X11313Y3756D01*
X11313Y3776D02*
X10557Y3776D01*
X10557Y3796D02*
X11313Y3796D01*
X11313Y3816D02*
X10557Y3816D01*
X10557Y3836D02*
X11313Y3836D01*
X11313Y3855D02*
X11199Y3855D01*
X11199Y3875D02*
X11313Y3875D01*
X11313Y3895D02*
X11199Y3895D01*
X11199Y3915D02*
X11313Y3915D01*
X11313Y3935D02*
X11199Y3935D01*
X11199Y3955D02*
X11313Y3955D01*
X11313Y3974D02*
X11199Y3974D01*
X11199Y3994D02*
X11313Y3994D01*
X11313Y4014D02*
X11199Y4014D01*
X11199Y4034D02*
X11313Y4034D01*
X11313Y4054D02*
X11199Y4054D01*
X11199Y4074D02*
X11313Y4074D01*
X11313Y4160D02*
X10829Y4160D01*
X10702Y4183D01*
X10612Y4246D01*
X10557Y4344D01*
X10539Y4471D01*
X10557Y4598D01*
X10612Y4696D01*
X10702Y4759D01*
X10829Y4781D01*
X11313Y4781D01*
X11313Y4782D01*
X11313Y4649D01*
X10873Y4649D01*
X10796Y4645D01*
X10725Y4624D01*
X10674Y4571D01*
X10654Y4471D01*
X10674Y4371D01*
X10725Y4318D01*
X10796Y4297D01*
X10873Y4293D01*
X11313Y4293D01*
X11313Y4160D01*
X11313Y4173D02*
X10757Y4173D01*
X10687Y4193D02*
X11313Y4193D01*
X11313Y4213D02*
X10659Y4213D01*
X10630Y4233D02*
X11313Y4233D01*
X11313Y4253D02*
X10608Y4253D01*
X10597Y4272D02*
X11313Y4272D01*
X11313Y4292D02*
X10585Y4292D01*
X10574Y4312D02*
X10744Y4312D01*
X10712Y4332D02*
X10563Y4332D01*
X10556Y4352D02*
X10692Y4352D01*
X10673Y4372D02*
X10553Y4372D01*
X10550Y4391D02*
X10670Y4391D01*
X10666Y4411D02*
X10547Y4411D01*
X10544Y4431D02*
X10662Y4431D01*
X10658Y4451D02*
X10542Y4451D01*
X10539Y4471D02*
X10654Y4471D01*
X10658Y4491D02*
X10542Y4491D01*
X10544Y4511D02*
X10662Y4511D01*
X10666Y4530D02*
X10547Y4530D01*
X10550Y4550D02*
X10669Y4550D01*
X10673Y4570D02*
X10553Y4570D01*
X10556Y4590D02*
X10692Y4590D01*
X10711Y4610D02*
X10563Y4610D01*
X10574Y4630D02*
X10743Y4630D01*
X10659Y4729D02*
X11313Y4729D01*
X11313Y4749D02*
X10687Y4749D01*
X10630Y4709D02*
X11313Y4709D01*
X11313Y4689D02*
X10608Y4689D01*
X10597Y4669D02*
X11313Y4669D01*
X11313Y4649D02*
X10586Y4649D01*
X10757Y4769D02*
X11313Y4769D01*
X11214Y4948D02*
X11088Y4876D01*
X10935Y4851D01*
X10782Y4876D01*
X10656Y4948D01*
X10570Y5062D01*
X10554Y5140D01*
X10665Y5140D01*
X10672Y5109D01*
X10737Y5038D01*
X10829Y4997D01*
X10936Y4984D01*
X11041Y4997D01*
X11134Y5038D01*
X11199Y5109D01*
X11206Y5140D01*
X11316Y5140D01*
X11300Y5062D01*
X11214Y4948D01*
X10656Y4947D01*
X10641Y4967D02*
X11228Y4967D01*
X11244Y4987D02*
X10959Y4987D01*
X10912Y4987D02*
X10626Y4987D01*
X10611Y5007D02*
X10808Y5007D01*
X10763Y5027D02*
X10596Y5027D01*
X10582Y5047D02*
X10729Y5047D01*
X10711Y5066D02*
X10569Y5066D01*
X10565Y5086D02*
X10693Y5086D01*
X10675Y5106D02*
X10561Y5106D01*
X10557Y5126D02*
X10668Y5126D01*
X10664Y5140D02*
X10647Y5214D01*
X10672Y5318D01*
X10737Y5389D01*
X10829Y5430D01*
X10935Y5443D01*
X11041Y5430D01*
X11134Y5389D01*
X11199Y5318D01*
X11223Y5214D01*
X11206Y5140D01*
X11316Y5140D01*
X11331Y5214D01*
X11299Y5366D01*
X11214Y5479D01*
X11088Y5551D01*
X10935Y5576D01*
X10782Y5551D01*
X10655Y5479D01*
X10570Y5366D01*
X10539Y5214D01*
X10554Y5140D01*
X10664Y5140D01*
X10663Y5146D02*
X10553Y5146D01*
X10549Y5166D02*
X10658Y5166D01*
X10654Y5186D02*
X10545Y5186D01*
X10541Y5205D02*
X10649Y5205D01*
X10650Y5225D02*
X10541Y5225D01*
X10545Y5245D02*
X10654Y5245D01*
X10659Y5265D02*
X10549Y5265D01*
X10553Y5285D02*
X10664Y5285D01*
X10668Y5305D02*
X10557Y5305D01*
X10562Y5324D02*
X10677Y5324D01*
X10695Y5344D02*
X10566Y5344D01*
X10570Y5364D02*
X10714Y5364D01*
X10732Y5384D02*
X10584Y5384D01*
X10599Y5404D02*
X10769Y5404D01*
X10815Y5424D02*
X10614Y5424D01*
X10629Y5443D02*
X11241Y5443D01*
X11256Y5424D02*
X11056Y5424D01*
X11101Y5404D02*
X11271Y5404D01*
X11286Y5384D02*
X11139Y5384D01*
X11157Y5364D02*
X11300Y5364D01*
X11304Y5344D02*
X11175Y5344D01*
X11193Y5324D02*
X11308Y5324D01*
X11312Y5305D02*
X11202Y5305D01*
X11207Y5285D02*
X11316Y5285D01*
X11320Y5265D02*
X11211Y5265D01*
X11216Y5245D02*
X11325Y5245D01*
X11329Y5225D02*
X11221Y5225D01*
X11221Y5205D02*
X11330Y5205D01*
X11325Y5186D02*
X11217Y5186D01*
X11212Y5166D02*
X11321Y5166D01*
X11317Y5146D02*
X11208Y5146D01*
X11203Y5126D02*
X11313Y5126D01*
X11309Y5106D02*
X11196Y5106D01*
X11178Y5086D02*
X11305Y5086D01*
X11301Y5066D02*
X11160Y5066D01*
X11142Y5047D02*
X11288Y5047D01*
X11273Y5027D02*
X11108Y5027D01*
X11063Y5007D02*
X11258Y5007D01*
X11178Y4927D02*
X10691Y4927D01*
X10726Y4907D02*
X11143Y4907D01*
X11108Y4888D02*
X10761Y4888D01*
X10833Y4868D02*
X11036Y4868D01*
X11226Y5463D02*
X10643Y5463D01*
X10662Y5483D02*
X11207Y5483D01*
X11172Y5503D02*
X10697Y5503D01*
X10732Y5523D02*
X11137Y5523D01*
X11102Y5543D02*
X10767Y5543D01*
X10854Y5563D02*
X11016Y5563D01*
X16962Y5563D02*
X17076Y5563D01*
X17076Y5543D02*
X16962Y5543D01*
X16962Y5523D02*
X17076Y5523D01*
X17076Y5503D02*
X16962Y5503D01*
X16962Y5483D02*
X17076Y5483D01*
X17076Y5463D02*
X16962Y5463D01*
X16962Y5443D02*
X17076Y5443D01*
X17076Y5424D02*
X16962Y5424D01*
X16962Y5404D02*
X17076Y5404D01*
X17076Y5384D02*
X16962Y5384D01*
X16962Y5364D02*
X17076Y5364D01*
X17076Y5344D02*
X16962Y5344D01*
X16962Y5327D02*
X16962Y5879D01*
X17718Y5879D01*
X17718Y5878D01*
X17718Y5334D01*
X17604Y5334D01*
X17604Y5746D01*
X17406Y5746D01*
X17406Y5365D01*
X17298Y5365D01*
X17298Y5746D01*
X17076Y5746D01*
X17076Y5327D01*
X16962Y5327D01*
X16962Y5299D02*
X16962Y5162D01*
X17062Y5127D01*
X17162Y5091D01*
X17162Y4789D01*
X17062Y4754D01*
X16962Y4718D01*
X16962Y4576D01*
X17264Y4693D01*
X17348Y4725D01*
X17348Y4854D01*
X17263Y4824D01*
X17263Y5055D01*
X17348Y5025D01*
X17348Y5137D01*
X17385Y5137D01*
X17385Y5137D01*
X17265Y5183D01*
X17113Y5241D01*
X16962Y5299D01*
X16962Y5285D02*
X16999Y5285D01*
X16962Y5265D02*
X17051Y5265D01*
X17103Y5245D02*
X16962Y5245D01*
X16962Y5225D02*
X17155Y5225D01*
X17206Y5205D02*
X16962Y5205D01*
X16962Y5186D02*
X17258Y5186D01*
X17310Y5166D02*
X16962Y5166D01*
X17009Y5146D02*
X17362Y5146D01*
X17348Y5137D02*
X17348Y5026D01*
X17426Y4998D01*
X17588Y4941D01*
X17588Y4938D01*
X17426Y4881D01*
X17348Y4854D01*
X17348Y4725D01*
X17416Y4751D01*
X17567Y4810D01*
X17718Y4868D01*
X17718Y5009D01*
X17567Y5067D01*
X17416Y5125D01*
X17385Y5137D01*
X17385Y5137D01*
X17348Y5137D01*
X17348Y5126D02*
X17065Y5126D01*
X17121Y5106D02*
X17348Y5106D01*
X17464Y5106D01*
X17413Y5126D02*
X17348Y5126D01*
X17348Y5086D02*
X17162Y5086D01*
X17162Y5066D02*
X17348Y5066D01*
X17568Y5066D01*
X17516Y5086D02*
X17348Y5086D01*
X17348Y5047D02*
X17288Y5047D01*
X17263Y5047D02*
X17162Y5047D01*
X17162Y5027D02*
X17263Y5027D01*
X17263Y5007D02*
X17162Y5007D01*
X17162Y4987D02*
X17263Y4987D01*
X17263Y4967D02*
X17162Y4967D01*
X17162Y4947D02*
X17263Y4947D01*
X17263Y4927D02*
X17162Y4927D01*
X17162Y4907D02*
X17263Y4907D01*
X17263Y4888D02*
X17162Y4888D01*
X17162Y4868D02*
X17263Y4868D01*
X17263Y4848D02*
X17162Y4848D01*
X17162Y4828D02*
X17263Y4828D01*
X17274Y4828D02*
X17348Y4828D01*
X17615Y4828D01*
X17564Y4808D02*
X17348Y4808D01*
X17162Y4808D01*
X17160Y4788D02*
X17348Y4788D01*
X17512Y4788D01*
X17460Y4769D02*
X17348Y4769D01*
X17104Y4769D01*
X17047Y4749D02*
X17348Y4749D01*
X17409Y4749D01*
X17357Y4729D02*
X17348Y4729D01*
X16992Y4729D01*
X16962Y4709D02*
X17307Y4709D01*
X17255Y4689D02*
X16962Y4689D01*
X16962Y4669D02*
X17203Y4669D01*
X17152Y4649D02*
X16962Y4649D01*
X16962Y4630D02*
X17100Y4630D01*
X17049Y4610D02*
X16962Y4610D01*
X16962Y4590D02*
X16997Y4590D01*
X16962Y4526D02*
X16962Y4293D01*
X17070Y4293D01*
X17070Y4393D01*
X17610Y4393D01*
X17610Y4293D01*
X17718Y4293D01*
X17718Y4526D01*
X16962Y4526D01*
X16962Y4511D02*
X17718Y4511D01*
X17718Y4491D02*
X16962Y4491D01*
X16962Y4471D02*
X17718Y4471D01*
X17718Y4451D02*
X16962Y4451D01*
X16962Y4431D02*
X17718Y4431D01*
X17718Y4411D02*
X16962Y4411D01*
X16962Y4391D02*
X17070Y4391D01*
X17070Y4372D02*
X16962Y4372D01*
X16962Y4352D02*
X17070Y4352D01*
X17070Y4332D02*
X16962Y4332D01*
X16962Y4312D02*
X17070Y4312D01*
X17071Y4293D02*
X16962Y4293D01*
X16962Y4212D01*
X16992Y4062D01*
X17073Y3958D01*
X17193Y3898D01*
X17341Y3879D01*
X17488Y3898D01*
X17608Y3958D01*
X17689Y4062D01*
X17718Y4212D01*
X17718Y4293D01*
X17611Y4293D01*
X17611Y4263D01*
X17590Y4136D01*
X17533Y4059D01*
X17447Y4021D01*
X17341Y4011D01*
X17234Y4021D01*
X17148Y4059D01*
X17091Y4136D01*
X17071Y4263D01*
X17071Y4293D01*
X16962Y4292D01*
X16962Y4272D02*
X17071Y4272D01*
X17072Y4253D02*
X16962Y4253D01*
X16962Y4233D02*
X17075Y4233D01*
X17079Y4213D02*
X16962Y4213D01*
X16966Y4193D02*
X17082Y4193D01*
X17085Y4173D02*
X16970Y4173D01*
X16974Y4153D02*
X17088Y4153D01*
X17093Y4133D02*
X16978Y4133D01*
X16982Y4114D02*
X17108Y4114D01*
X17123Y4094D02*
X16986Y4094D01*
X16990Y4074D02*
X17137Y4074D01*
X17160Y4054D02*
X16998Y4054D01*
X17014Y4034D02*
X17204Y4034D01*
X17304Y4014D02*
X17029Y4014D01*
X17045Y3994D02*
X17636Y3994D01*
X17652Y4014D02*
X17377Y4014D01*
X17477Y4034D02*
X17667Y4034D01*
X17683Y4054D02*
X17521Y4054D01*
X17544Y4074D02*
X17691Y4074D01*
X17695Y4094D02*
X17558Y4094D01*
X17573Y4114D02*
X17699Y4114D01*
X17703Y4133D02*
X17588Y4133D01*
X17593Y4153D02*
X17707Y4153D01*
X17711Y4173D02*
X17596Y4173D01*
X17599Y4193D02*
X17715Y4193D01*
X17718Y4213D02*
X17602Y4213D01*
X17605Y4233D02*
X17718Y4233D01*
X17718Y4253D02*
X17609Y4253D01*
X17611Y4272D02*
X17718Y4272D01*
X17718Y4292D02*
X17611Y4292D01*
X17610Y4312D02*
X17718Y4312D01*
X17718Y4332D02*
X17610Y4332D01*
X17610Y4352D02*
X17718Y4352D01*
X17718Y4372D02*
X17610Y4372D01*
X17610Y4391D02*
X17718Y4391D01*
X17621Y3974D02*
X17060Y3974D01*
X17080Y3955D02*
X17601Y3955D01*
X17561Y3935D02*
X17120Y3935D01*
X17160Y3915D02*
X17521Y3915D01*
X17465Y3895D02*
X17216Y3895D01*
X16962Y3466D02*
X17718Y3466D01*
X17718Y3334D01*
X16962Y3334D01*
X16962Y3466D01*
X16962Y3458D02*
X17718Y3458D01*
X17718Y3439D02*
X16962Y3439D01*
X16962Y3419D02*
X17718Y3419D01*
X17718Y3399D02*
X16962Y3399D01*
X16962Y3379D02*
X17718Y3379D01*
X17718Y3359D02*
X16962Y3359D01*
X16962Y3339D02*
X17718Y3339D01*
X17718Y3241D02*
X17718Y3240D01*
X16961Y3240D01*
X16961Y3114D01*
X17517Y3114D01*
X17517Y3111D01*
X17378Y3025D01*
X17239Y2939D01*
X16962Y2767D01*
X16962Y2627D01*
X17718Y2627D01*
X17718Y2753D01*
X17161Y2753D01*
X17161Y2755D01*
X17300Y2842D01*
X17718Y3101D01*
X17718Y3241D01*
X17718Y3240D01*
X17718Y3220D02*
X16961Y3220D01*
X16961Y3200D02*
X17718Y3200D01*
X17718Y3180D02*
X16961Y3180D01*
X16961Y3161D02*
X17718Y3161D01*
X17718Y3141D02*
X16961Y3141D01*
X16961Y3121D02*
X17718Y3121D01*
X17718Y3101D02*
X17502Y3101D01*
X17470Y3081D02*
X17687Y3081D01*
X17655Y3061D02*
X17438Y3061D01*
X17406Y3041D02*
X17623Y3041D01*
X17591Y3022D02*
X17373Y3022D01*
X17341Y3002D02*
X17559Y3002D01*
X17527Y2982D02*
X17309Y2982D01*
X17277Y2962D02*
X17495Y2962D01*
X17463Y2942D02*
X17245Y2942D01*
X17213Y2922D02*
X17431Y2922D01*
X17399Y2903D02*
X17181Y2903D01*
X17149Y2883D02*
X17367Y2883D01*
X17335Y2863D02*
X17117Y2863D01*
X17085Y2843D02*
X17303Y2843D01*
X17271Y2823D02*
X17053Y2823D01*
X17020Y2803D02*
X17239Y2803D01*
X17207Y2784D02*
X16988Y2784D01*
X16962Y2764D02*
X17175Y2764D01*
X16962Y2744D02*
X17718Y2744D01*
X17718Y2724D02*
X16962Y2724D01*
X16962Y2704D02*
X17718Y2704D01*
X17718Y2684D02*
X16962Y2684D01*
X16962Y2664D02*
X17718Y2664D01*
X17718Y2644D02*
X16962Y2644D01*
X11313Y3478D02*
X11199Y3478D01*
X11199Y3498D02*
X11313Y3498D01*
X11313Y3518D02*
X11199Y3518D01*
X11199Y3538D02*
X11313Y3538D01*
X11313Y3558D02*
X11199Y3558D01*
X11199Y3577D02*
X11313Y3577D01*
X11313Y3597D02*
X11199Y3597D01*
X11199Y3617D02*
X11313Y3617D01*
X11313Y3637D02*
X11199Y3637D01*
X11199Y3657D02*
X11313Y3657D01*
X11313Y3677D02*
X11199Y3677D01*
X11199Y3697D02*
X11313Y3697D01*
X17331Y4848D02*
X17348Y4848D01*
X17667Y4848D01*
X17718Y4868D02*
X17387Y4868D01*
X17444Y4888D02*
X17718Y4888D01*
X17718Y4907D02*
X17501Y4907D01*
X17558Y4927D02*
X17718Y4927D01*
X17718Y4947D02*
X17570Y4947D01*
X17514Y4967D02*
X17718Y4967D01*
X17718Y4987D02*
X17457Y4987D01*
X17401Y5007D02*
X17718Y5007D01*
X17671Y5027D02*
X17348Y5027D01*
X17344Y5027D01*
X17348Y5047D02*
X17620Y5047D01*
X17604Y5344D02*
X17718Y5344D01*
X17718Y5364D02*
X17604Y5364D01*
X17604Y5384D02*
X17718Y5384D01*
X17718Y5404D02*
X17604Y5404D01*
X17604Y5424D02*
X17718Y5424D01*
X17718Y5443D02*
X17604Y5443D01*
X17604Y5463D02*
X17718Y5463D01*
X17718Y5483D02*
X17604Y5483D01*
X17604Y5503D02*
X17718Y5503D01*
X17718Y5523D02*
X17604Y5523D01*
X17604Y5543D02*
X17718Y5543D01*
X17718Y5563D02*
X17604Y5563D01*
X17604Y5583D02*
X17718Y5583D01*
X17718Y5602D02*
X17604Y5602D01*
X17604Y5622D02*
X17718Y5622D01*
X17718Y5642D02*
X17604Y5642D01*
X17604Y5662D02*
X17718Y5662D01*
X17718Y5682D02*
X17604Y5682D01*
X17604Y5702D02*
X17718Y5702D01*
X17718Y5721D02*
X17604Y5721D01*
X17604Y5741D02*
X17718Y5741D01*
X17718Y5761D02*
X16962Y5761D01*
X16962Y5741D02*
X17076Y5741D01*
X17076Y5721D02*
X16962Y5721D01*
X16962Y5702D02*
X17076Y5702D01*
X17076Y5682D02*
X16962Y5682D01*
X16962Y5662D02*
X17076Y5662D01*
X17076Y5642D02*
X16962Y5642D01*
X16962Y5622D02*
X17076Y5622D01*
X17076Y5602D02*
X16962Y5602D01*
X16962Y5583D02*
X17076Y5583D01*
X17298Y5583D02*
X17406Y5583D01*
X17406Y5602D02*
X17298Y5602D01*
X17298Y5622D02*
X17406Y5622D01*
X17406Y5642D02*
X17298Y5642D01*
X17298Y5662D02*
X17406Y5662D01*
X17406Y5682D02*
X17298Y5682D01*
X17298Y5702D02*
X17406Y5702D01*
X17406Y5721D02*
X17298Y5721D01*
X17298Y5741D02*
X17406Y5741D01*
X17718Y5781D02*
X16962Y5781D01*
X16962Y5801D02*
X17718Y5801D01*
X17718Y5821D02*
X16962Y5821D01*
X16962Y5841D02*
X17718Y5841D01*
X17718Y5860D02*
X16962Y5860D01*
X16962Y5952D02*
X16962Y6085D01*
X17303Y6085D01*
X17303Y6429D01*
X16962Y6429D01*
X16962Y6562D01*
X17718Y6562D01*
X17718Y6429D01*
X17418Y6429D01*
X17418Y6085D01*
X17718Y6085D01*
X17718Y5952D01*
X16962Y5952D01*
X16962Y5960D02*
X17718Y5960D01*
X17718Y5979D02*
X16962Y5979D01*
X16962Y5999D02*
X17718Y5999D01*
X17718Y6019D02*
X16962Y6019D01*
X16962Y6039D02*
X17718Y6039D01*
X17718Y6059D02*
X16962Y6059D01*
X16962Y6079D02*
X17718Y6079D01*
X17418Y6099D02*
X17303Y6099D01*
X17303Y6118D02*
X17418Y6118D01*
X17418Y6138D02*
X17303Y6138D01*
X17303Y6158D02*
X17418Y6158D01*
X17418Y6178D02*
X17303Y6178D01*
X17303Y6198D02*
X17418Y6198D01*
X17418Y6218D02*
X17303Y6218D01*
X17303Y6238D02*
X17418Y6238D01*
X17418Y6257D02*
X17303Y6257D01*
X17303Y6277D02*
X17418Y6277D01*
X17418Y6297D02*
X17303Y6297D01*
X17303Y6317D02*
X17418Y6317D01*
X17418Y6337D02*
X17303Y6337D01*
X17303Y6357D02*
X17418Y6357D01*
X17418Y6377D02*
X17303Y6377D01*
X17303Y6396D02*
X17418Y6396D01*
X17418Y6416D02*
X17303Y6416D01*
X16962Y6436D02*
X17718Y6436D01*
X17718Y6456D02*
X16962Y6456D01*
X16962Y6476D02*
X17718Y6476D01*
X17718Y6496D02*
X16962Y6496D01*
X16962Y6515D02*
X17718Y6515D01*
X17718Y6535D02*
X16962Y6535D01*
X16962Y6555D02*
X17718Y6555D01*
X17406Y5563D02*
X17298Y5563D01*
X17298Y5543D02*
X17406Y5543D01*
X17406Y5523D02*
X17298Y5523D01*
X17298Y5503D02*
X17406Y5503D01*
X17406Y5483D02*
X17298Y5483D01*
X17298Y5463D02*
X17406Y5463D01*
X17406Y5443D02*
X17298Y5443D01*
X17298Y5424D02*
X17406Y5424D01*
X17406Y5404D02*
X17298Y5404D01*
X17298Y5384D02*
X17406Y5384D01*
X25090Y5374D02*
X25114Y5252D01*
X25197Y5146D01*
X25109Y5126D01*
X25109Y5041D01*
X25109Y5042D01*
X25507Y5042D01*
X25507Y5364D01*
X25406Y5364D01*
X25406Y5163D01*
X25319Y5177D01*
X25253Y5218D01*
X25211Y5284D01*
X25198Y5374D01*
X25223Y5479D01*
X25288Y5550D01*
X25380Y5591D01*
X25487Y5604D01*
X25593Y5591D01*
X25685Y5550D01*
X25750Y5479D01*
X25775Y5374D01*
X25765Y5306D01*
X25736Y5246D01*
X25689Y5202D01*
X25624Y5179D01*
X25624Y5050D01*
X25736Y5086D01*
X25624Y5086D01*
X25624Y5066D02*
X25674Y5066D01*
X25624Y5106D02*
X25759Y5106D01*
X25781Y5126D02*
X25624Y5126D01*
X25624Y5146D02*
X25803Y5146D01*
X25817Y5158D02*
X25736Y5086D01*
X25817Y5158D02*
X25866Y5257D01*
X25883Y5374D01*
X25851Y5526D01*
X25765Y5640D01*
X25639Y5712D01*
X25487Y5736D01*
X25333Y5712D01*
X25207Y5640D01*
X25122Y5526D01*
X25090Y5374D01*
X25093Y5384D02*
X25201Y5384D01*
X25200Y5364D02*
X25092Y5364D01*
X25096Y5344D02*
X25203Y5344D01*
X25206Y5324D02*
X25100Y5324D01*
X25104Y5305D02*
X25209Y5305D01*
X25211Y5285D02*
X25108Y5285D01*
X25111Y5265D02*
X25224Y5265D01*
X25236Y5245D02*
X25120Y5245D01*
X25135Y5225D02*
X25248Y5225D01*
X25274Y5205D02*
X25151Y5205D01*
X25167Y5186D02*
X25306Y5186D01*
X25388Y5166D02*
X25182Y5166D01*
X25195Y5146D02*
X25507Y5146D01*
X25507Y5166D02*
X25406Y5166D01*
X25406Y5186D02*
X25507Y5186D01*
X25507Y5205D02*
X25406Y5205D01*
X25406Y5225D02*
X25507Y5225D01*
X25507Y5245D02*
X25406Y5245D01*
X25406Y5265D02*
X25507Y5265D01*
X25507Y5285D02*
X25406Y5285D01*
X25406Y5305D02*
X25507Y5305D01*
X25507Y5324D02*
X25406Y5324D01*
X25406Y5344D02*
X25507Y5344D01*
X25745Y5265D02*
X25867Y5265D01*
X25870Y5285D02*
X25755Y5285D01*
X25765Y5305D02*
X25873Y5305D01*
X25876Y5324D02*
X25768Y5324D01*
X25771Y5344D02*
X25878Y5344D01*
X25881Y5364D02*
X25773Y5364D01*
X25772Y5384D02*
X25880Y5384D01*
X25876Y5404D02*
X25768Y5404D01*
X25763Y5424D02*
X25872Y5424D01*
X25868Y5443D02*
X25758Y5443D01*
X25754Y5463D02*
X25864Y5463D01*
X25860Y5483D02*
X25746Y5483D01*
X25728Y5503D02*
X25856Y5503D01*
X25851Y5523D02*
X25710Y5523D01*
X25692Y5543D02*
X25838Y5543D01*
X25823Y5563D02*
X25657Y5563D01*
X25612Y5583D02*
X25808Y5583D01*
X25793Y5602D02*
X25503Y5602D01*
X25470Y5602D02*
X25179Y5602D01*
X25164Y5583D02*
X25361Y5583D01*
X25316Y5563D02*
X25149Y5563D01*
X25134Y5543D02*
X25281Y5543D01*
X25263Y5523D02*
X25121Y5523D01*
X25117Y5503D02*
X25245Y5503D01*
X25227Y5483D02*
X25113Y5483D01*
X25109Y5463D02*
X25219Y5463D01*
X25214Y5443D02*
X25105Y5443D01*
X25101Y5424D02*
X25210Y5424D01*
X25205Y5404D02*
X25097Y5404D01*
X25624Y5166D02*
X25821Y5166D01*
X25831Y5186D02*
X25641Y5186D01*
X25693Y5205D02*
X25841Y5205D01*
X25850Y5225D02*
X25714Y5225D01*
X25735Y5245D02*
X25860Y5245D01*
X25507Y5126D02*
X25109Y5126D01*
X25109Y5106D02*
X25507Y5106D01*
X25507Y5086D02*
X25109Y5086D01*
X25109Y5066D02*
X25507Y5066D01*
X25507Y5047D02*
X25109Y5047D01*
X25109Y4985D02*
X25109Y4848D01*
X25209Y4813D01*
X25309Y4777D01*
X25309Y4475D01*
X25209Y4440D01*
X25109Y4404D01*
X25109Y4262D01*
X25260Y4321D01*
X25411Y4379D01*
X25563Y4437D01*
X25596Y4450D01*
X25596Y4575D01*
X25572Y4567D01*
X25409Y4510D01*
X25409Y4741D01*
X25572Y4684D01*
X25596Y4675D01*
X25596Y4798D01*
X25596Y4798D01*
X25563Y4811D01*
X25411Y4869D01*
X25260Y4927D01*
X25109Y4985D01*
X25109Y4967D02*
X25155Y4967D01*
X25109Y4947D02*
X25207Y4947D01*
X25259Y4927D02*
X25109Y4927D01*
X25109Y4907D02*
X25311Y4907D01*
X25362Y4888D02*
X25109Y4888D01*
X25109Y4868D02*
X25414Y4868D01*
X25466Y4848D02*
X25110Y4848D01*
X25166Y4828D02*
X25518Y4828D01*
X25570Y4808D02*
X25222Y4808D01*
X25278Y4788D02*
X25596Y4788D01*
X25621Y4788D01*
X25596Y4798D02*
X25596Y4798D01*
X25596Y4676D01*
X25735Y4627D01*
X25735Y4624D01*
X25596Y4576D01*
X25596Y4450D01*
X25714Y4496D01*
X25865Y4554D01*
X25865Y4695D01*
X25714Y4753D01*
X25596Y4798D01*
X25596Y4769D02*
X25309Y4769D01*
X25309Y4749D02*
X25596Y4749D01*
X25724Y4749D01*
X25776Y4729D02*
X25596Y4729D01*
X25444Y4729D01*
X25409Y4729D02*
X25309Y4729D01*
X25309Y4709D02*
X25409Y4709D01*
X25409Y4689D02*
X25309Y4689D01*
X25309Y4669D02*
X25409Y4669D01*
X25409Y4649D02*
X25309Y4649D01*
X25309Y4630D02*
X25409Y4630D01*
X25409Y4610D02*
X25309Y4610D01*
X25309Y4590D02*
X25409Y4590D01*
X25409Y4570D02*
X25309Y4570D01*
X25309Y4550D02*
X25409Y4550D01*
X25409Y4530D02*
X25309Y4530D01*
X25309Y4511D02*
X25409Y4511D01*
X25596Y4511D01*
X25752Y4511D01*
X25700Y4491D02*
X25596Y4491D01*
X25309Y4491D01*
X25296Y4471D02*
X25596Y4471D01*
X25649Y4471D01*
X25597Y4451D02*
X25596Y4451D01*
X25240Y4451D01*
X25184Y4431D02*
X25547Y4431D01*
X25496Y4411D02*
X25128Y4411D01*
X25109Y4391D02*
X25444Y4391D01*
X25392Y4372D02*
X25109Y4372D01*
X25109Y4352D02*
X25341Y4352D01*
X25289Y4332D02*
X25109Y4332D01*
X25109Y4312D02*
X25238Y4312D01*
X25186Y4292D02*
X25109Y4292D01*
X25109Y4272D02*
X25134Y4272D01*
X25108Y4212D02*
X25865Y4212D01*
X25865Y4080D01*
X25108Y4080D01*
X25108Y4212D01*
X25108Y4193D02*
X25865Y4193D01*
X25865Y4173D02*
X25108Y4173D01*
X25108Y4153D02*
X25865Y4153D01*
X25865Y4133D02*
X25108Y4133D01*
X25108Y4114D02*
X25865Y4114D01*
X25865Y4094D02*
X25108Y4094D01*
X25108Y4007D02*
X25865Y4007D01*
X25865Y4007D01*
X25865Y3868D01*
X25726Y3781D01*
X25586Y3695D01*
X25447Y3608D01*
X25308Y3522D01*
X25308Y3520D01*
X25865Y3520D01*
X25865Y3394D01*
X25108Y3394D01*
X25108Y3534D01*
X25247Y3620D01*
X25386Y3706D01*
X25525Y3792D01*
X25664Y3878D01*
X25664Y3881D01*
X25108Y3881D01*
X25108Y4007D01*
X25108Y3994D02*
X25865Y3994D01*
X25865Y3974D02*
X25108Y3974D01*
X25108Y3955D02*
X25865Y3955D01*
X25865Y3935D02*
X25108Y3935D01*
X25108Y3915D02*
X25865Y3915D01*
X25865Y3895D02*
X25108Y3895D01*
X25532Y3796D02*
X25749Y3796D01*
X25781Y3816D02*
X25564Y3816D01*
X25596Y3836D02*
X25813Y3836D01*
X25845Y3855D02*
X25628Y3855D01*
X25660Y3875D02*
X25865Y3875D01*
X25717Y3776D02*
X25500Y3776D01*
X25468Y3756D02*
X25685Y3756D01*
X25653Y3736D02*
X25436Y3736D01*
X25404Y3717D02*
X25621Y3717D01*
X25589Y3697D02*
X25372Y3697D01*
X25339Y3677D02*
X25557Y3677D01*
X25525Y3657D02*
X25307Y3657D01*
X25275Y3637D02*
X25493Y3637D01*
X25461Y3617D02*
X25243Y3617D01*
X25211Y3597D02*
X25429Y3597D01*
X25397Y3577D02*
X25179Y3577D01*
X25147Y3558D02*
X25365Y3558D01*
X25333Y3538D02*
X25115Y3538D01*
X25108Y3518D02*
X25865Y3518D01*
X25865Y3498D02*
X25108Y3498D01*
X25108Y3478D02*
X25865Y3478D01*
X25865Y3458D02*
X25108Y3458D01*
X25108Y3439D02*
X25865Y3439D01*
X25865Y3419D02*
X25108Y3419D01*
X25108Y3399D02*
X25865Y3399D01*
X25804Y4530D02*
X25596Y4530D01*
X25467Y4530D01*
X25524Y4550D02*
X25596Y4550D01*
X25855Y4550D01*
X25865Y4570D02*
X25596Y4570D01*
X25582Y4570D01*
X25637Y4590D02*
X25865Y4590D01*
X25865Y4610D02*
X25694Y4610D01*
X25728Y4630D02*
X25865Y4630D01*
X25865Y4649D02*
X25671Y4649D01*
X25615Y4669D02*
X25865Y4669D01*
X25865Y4689D02*
X25596Y4689D01*
X25557Y4689D01*
X25596Y4709D02*
X25828Y4709D01*
X25672Y4769D02*
X25596Y4769D01*
X25596Y4709D02*
X25500Y4709D01*
X25778Y5622D02*
X25194Y5622D01*
X25210Y5642D02*
X25762Y5642D01*
X25727Y5662D02*
X25245Y5662D01*
X25280Y5682D02*
X25692Y5682D01*
X25657Y5702D02*
X25315Y5702D01*
X25394Y5721D02*
X25578Y5721D01*
X47945Y4052D02*
X47945Y3908D01*
X48611Y3908D01*
X48611Y3907D01*
X48167Y3813D01*
X47945Y3767D01*
X47945Y3646D01*
X48167Y3599D01*
X48611Y3506D01*
X48611Y3503D01*
X47945Y3503D01*
X47945Y3359D01*
X48779Y3359D01*
X48779Y3592D01*
X48386Y3666D01*
X48190Y3704D01*
X48190Y3705D01*
X48386Y3743D01*
X48779Y3818D01*
X48779Y4052D01*
X47945Y4052D01*
X47945Y4034D02*
X48779Y4034D01*
X48779Y4014D02*
X47945Y4014D01*
X47945Y3994D02*
X48779Y3994D01*
X48779Y3974D02*
X47945Y3974D01*
X47945Y3955D02*
X48779Y3955D01*
X48779Y3935D02*
X47945Y3935D01*
X47945Y3915D02*
X48779Y3915D01*
X48779Y3895D02*
X48557Y3895D01*
X48462Y3875D02*
X48779Y3875D01*
X48779Y3855D02*
X48368Y3855D01*
X48273Y3836D02*
X48779Y3836D01*
X48768Y3816D02*
X48178Y3816D01*
X48083Y3796D02*
X48663Y3796D01*
X48559Y3776D02*
X47989Y3776D01*
X47945Y3756D02*
X48455Y3756D01*
X48436Y3657D02*
X47945Y3657D01*
X47945Y3677D02*
X48332Y3677D01*
X48351Y3736D02*
X47945Y3736D01*
X47945Y3717D02*
X48247Y3717D01*
X48229Y3697D02*
X47945Y3697D01*
X47986Y3637D02*
X48541Y3637D01*
X48645Y3617D02*
X48080Y3617D01*
X48175Y3597D02*
X48749Y3597D01*
X48779Y3577D02*
X48270Y3577D01*
X48365Y3558D02*
X48779Y3558D01*
X48779Y3538D02*
X48459Y3538D01*
X48554Y3518D02*
X48779Y3518D01*
X48779Y3498D02*
X47945Y3498D01*
X47945Y3478D02*
X48779Y3478D01*
X48779Y3458D02*
X47945Y3458D01*
X47945Y3439D02*
X48779Y3439D01*
X48779Y3419D02*
X47945Y3419D01*
X47945Y3399D02*
X48779Y3399D01*
X48779Y3379D02*
X47945Y3379D01*
X47945Y3359D02*
X48779Y3359D01*
X48845Y3405D02*
X48845Y3555D01*
X49679Y3555D01*
X49679Y3405D01*
X49678Y3409D01*
X49408Y3409D01*
X49408Y3405D01*
X49444Y3380D01*
X49469Y3348D01*
X49484Y3309D01*
X49489Y3263D01*
X49486Y3228D01*
X49478Y3198D01*
X49465Y3173D01*
X49447Y3152D01*
X49423Y3135D01*
X49391Y3124D01*
X49354Y3116D01*
X49310Y3113D01*
X48842Y3113D01*
X48842Y3263D01*
X49277Y3263D01*
X49319Y3267D01*
X49346Y3280D01*
X49361Y3299D01*
X49366Y3328D01*
X49360Y3362D01*
X49352Y3376D01*
X49340Y3386D01*
X49307Y3401D01*
X49262Y3405D01*
X48845Y3405D01*
X48845Y3419D02*
X49679Y3419D01*
X49679Y3439D02*
X48845Y3439D01*
X48845Y3458D02*
X49679Y3458D01*
X49679Y3478D02*
X48845Y3478D01*
X48845Y3498D02*
X49679Y3498D01*
X49679Y3518D02*
X48845Y3518D01*
X48845Y3538D02*
X49679Y3538D01*
X49678Y3599D02*
X49540Y3599D01*
X49540Y3768D01*
X48842Y3768D01*
X48842Y3924D01*
X49540Y3924D01*
X49540Y4094D01*
X49678Y4094D01*
X49678Y3599D01*
X49678Y3617D02*
X49540Y3617D01*
X49540Y3637D02*
X49678Y3637D01*
X49678Y3657D02*
X49540Y3657D01*
X49540Y3677D02*
X49678Y3677D01*
X49678Y3697D02*
X49540Y3697D01*
X49540Y3717D02*
X49678Y3717D01*
X49678Y3736D02*
X49540Y3736D01*
X49540Y3756D02*
X49678Y3756D01*
X49678Y3776D02*
X48842Y3776D01*
X48842Y3796D02*
X49678Y3796D01*
X49678Y3816D02*
X48842Y3816D01*
X48842Y3836D02*
X49678Y3836D01*
X49678Y3855D02*
X48842Y3855D01*
X48842Y3875D02*
X49678Y3875D01*
X49678Y3895D02*
X48842Y3895D01*
X48842Y3915D02*
X49678Y3915D01*
X49678Y3935D02*
X49540Y3935D01*
X49540Y3955D02*
X49678Y3955D01*
X49678Y3974D02*
X49540Y3974D01*
X49540Y3994D02*
X49678Y3994D01*
X49678Y4014D02*
X49540Y4014D01*
X49540Y4034D02*
X49678Y4034D01*
X49678Y4054D02*
X49540Y4054D01*
X49540Y4074D02*
X49678Y4074D01*
X49678Y4094D02*
X49540Y4094D01*
X49744Y4052D02*
X50578Y4052D01*
X50578Y3818D01*
X50381Y3781D01*
X50185Y3743D01*
X49988Y3705D01*
X49988Y3704D01*
X50185Y3666D01*
X50381Y3629D01*
X50578Y3592D01*
X50578Y3359D01*
X49744Y3359D01*
X49744Y3503D01*
X50410Y3503D01*
X50410Y3506D01*
X50188Y3552D01*
X49966Y3599D01*
X49744Y3646D01*
X49744Y3767D01*
X49966Y3813D01*
X50188Y3860D01*
X50410Y3907D01*
X50410Y3908D01*
X49744Y3908D01*
X49744Y4052D01*
X49744Y4034D02*
X50578Y4034D01*
X50578Y4014D02*
X49744Y4014D01*
X49744Y3994D02*
X50578Y3994D01*
X50578Y3974D02*
X49744Y3974D01*
X49744Y3955D02*
X50578Y3955D01*
X50578Y3935D02*
X49744Y3935D01*
X49744Y3915D02*
X50578Y3915D01*
X50578Y3895D02*
X50356Y3895D01*
X50261Y3875D02*
X50578Y3875D01*
X50578Y3855D02*
X50166Y3855D01*
X50071Y3836D02*
X50578Y3836D01*
X50566Y3816D02*
X49977Y3816D01*
X49882Y3796D02*
X50462Y3796D01*
X50358Y3776D02*
X49787Y3776D01*
X49744Y3756D02*
X50254Y3756D01*
X50235Y3657D02*
X49744Y3657D01*
X49744Y3677D02*
X50131Y3677D01*
X50150Y3736D02*
X49744Y3736D01*
X49744Y3717D02*
X50046Y3717D01*
X50027Y3697D02*
X49744Y3697D01*
X49784Y3637D02*
X50339Y3637D01*
X50443Y3617D02*
X49879Y3617D01*
X49974Y3597D02*
X50547Y3597D01*
X50578Y3577D02*
X50068Y3577D01*
X50163Y3558D02*
X50578Y3558D01*
X50578Y3538D02*
X50258Y3538D01*
X50353Y3518D02*
X50578Y3518D01*
X50578Y3498D02*
X49744Y3498D01*
X49744Y3478D02*
X50578Y3478D01*
X50578Y3458D02*
X49744Y3458D01*
X49744Y3439D02*
X50578Y3439D01*
X50578Y3419D02*
X49744Y3419D01*
X49744Y3399D02*
X50578Y3399D01*
X50578Y3379D02*
X49744Y3379D01*
X49744Y3359D02*
X50578Y3359D01*
X50374Y3275D02*
X50374Y3125D01*
X49939Y3125D01*
X49897Y3120D01*
X49870Y3109D01*
X49855Y3089D01*
X49850Y3061D01*
X49856Y3026D01*
X49864Y3013D01*
X49876Y3002D01*
X49909Y2987D01*
X49954Y2983D01*
X50371Y2983D01*
X50371Y2832D01*
X49741Y2832D01*
X49741Y2976D01*
X49814Y2976D01*
X49814Y2978D01*
X49817Y2976D01*
X49777Y3004D01*
X49750Y3038D01*
X49735Y3078D01*
X49730Y3125D01*
X49733Y3159D01*
X49741Y3189D01*
X49753Y3215D01*
X49771Y3236D01*
X49795Y3252D01*
X49825Y3265D01*
X49862Y3272D01*
X49906Y3275D01*
X50374Y3275D01*
X50374Y3260D02*
X49813Y3260D01*
X49777Y3240D02*
X50374Y3240D01*
X50374Y3220D02*
X49757Y3220D01*
X49746Y3200D02*
X50374Y3200D01*
X50374Y3180D02*
X49739Y3180D01*
X49734Y3161D02*
X50374Y3161D01*
X50374Y3141D02*
X49732Y3141D01*
X49731Y3121D02*
X49901Y3121D01*
X49864Y3101D02*
X49733Y3101D01*
X49735Y3081D02*
X49854Y3081D01*
X49851Y3061D02*
X49741Y3061D01*
X49749Y3041D02*
X49854Y3041D01*
X49859Y3022D02*
X49763Y3022D01*
X49779Y3002D02*
X49876Y3002D01*
X49809Y2982D02*
X50371Y2982D01*
X50371Y2962D02*
X49741Y2962D01*
X49741Y2942D02*
X50371Y2942D01*
X50371Y2922D02*
X49741Y2922D01*
X49741Y2903D02*
X50371Y2903D01*
X50371Y2883D02*
X49741Y2883D01*
X49741Y2863D02*
X50371Y2863D01*
X50371Y2843D02*
X49741Y2843D01*
X49688Y2880D02*
X49688Y3030D01*
X49550Y3030D01*
X49550Y2880D01*
X49688Y2880D01*
X49550Y2883D01*
X49550Y2903D02*
X49688Y2903D01*
X49688Y2922D02*
X49550Y2922D01*
X49550Y2942D02*
X49688Y2942D01*
X49688Y2962D02*
X49550Y2962D01*
X49550Y2982D02*
X49688Y2982D01*
X49688Y3002D02*
X49550Y3002D01*
X49550Y3022D02*
X49688Y3022D01*
X49472Y3022D02*
X48842Y3022D01*
X48842Y3030D02*
X49472Y3030D01*
X49472Y2880D01*
X48842Y2880D01*
X48842Y3030D01*
X48842Y3002D02*
X49472Y3002D01*
X49472Y2982D02*
X48842Y2982D01*
X48842Y2962D02*
X49472Y2962D01*
X49472Y2942D02*
X48842Y2942D01*
X48842Y2922D02*
X49472Y2922D01*
X49472Y2903D02*
X48842Y2903D01*
X48842Y2883D02*
X49472Y2883D01*
X49477Y2793D02*
X49477Y2650D01*
X49472Y2652D01*
X49399Y2652D01*
X49399Y2650D01*
X49439Y2622D01*
X49468Y2588D01*
X49484Y2547D01*
X49490Y2501D01*
X49487Y2467D01*
X49480Y2437D01*
X49466Y2411D01*
X49448Y2390D01*
X49424Y2373D01*
X49393Y2361D01*
X49355Y2354D01*
X49312Y2351D01*
X48844Y2351D01*
X48844Y2501D01*
X49279Y2501D01*
X49321Y2506D01*
X49348Y2517D01*
X49363Y2537D01*
X49367Y2565D01*
X49361Y2600D01*
X49354Y2613D01*
X49342Y2624D01*
X49309Y2639D01*
X49264Y2643D01*
X48847Y2643D01*
X48847Y2793D01*
X49477Y2793D01*
X49477Y2784D02*
X48847Y2784D01*
X48847Y2764D02*
X49477Y2764D01*
X49477Y2744D02*
X48847Y2744D01*
X48847Y2724D02*
X49477Y2724D01*
X49477Y2704D02*
X48847Y2704D01*
X48847Y2684D02*
X49477Y2684D01*
X49477Y2664D02*
X48847Y2664D01*
X48847Y2644D02*
X49406Y2644D01*
X49436Y2625D02*
X49340Y2625D01*
X49359Y2605D02*
X49454Y2605D01*
X49469Y2585D02*
X49364Y2585D01*
X49367Y2565D02*
X49477Y2565D01*
X49485Y2545D02*
X49364Y2545D01*
X49354Y2525D02*
X49487Y2525D01*
X49490Y2506D02*
X49321Y2506D01*
X49489Y2486D02*
X48844Y2486D01*
X48844Y2466D02*
X49487Y2466D01*
X49482Y2446D02*
X48844Y2446D01*
X48844Y2426D02*
X49474Y2426D01*
X49462Y2406D02*
X48844Y2406D01*
X48844Y2387D02*
X49443Y2387D01*
X49406Y2367D02*
X48844Y2367D01*
X48778Y2367D02*
X47944Y2367D01*
X47944Y2351D02*
X48778Y2351D01*
X48778Y2501D01*
X48779Y2502D01*
X48515Y2502D01*
X48515Y2504D01*
X48548Y2530D01*
X48572Y2558D01*
X48584Y2585D01*
X48467Y2585D01*
X48467Y2580D01*
X48464Y2558D01*
X48454Y2540D01*
X48437Y2526D01*
X48415Y2517D01*
X48350Y2507D01*
X48260Y2504D01*
X48170Y2507D01*
X48106Y2517D01*
X48083Y2526D01*
X48067Y2540D01*
X48056Y2558D01*
X48053Y2580D01*
X48053Y2585D01*
X47938Y2585D01*
X47950Y2554D01*
X47974Y2524D01*
X48011Y2497D01*
X48011Y2495D01*
X47944Y2495D01*
X47944Y2351D01*
X47944Y2387D02*
X48778Y2387D01*
X48778Y2406D02*
X47944Y2406D01*
X47944Y2426D02*
X48778Y2426D01*
X48778Y2446D02*
X47944Y2446D01*
X47944Y2466D02*
X48778Y2466D01*
X48778Y2486D02*
X47944Y2486D01*
X47972Y2525D02*
X48086Y2525D01*
X48064Y2545D02*
X47957Y2545D01*
X47945Y2565D02*
X48055Y2565D01*
X48053Y2585D02*
X47938Y2585D01*
X47936Y2587D01*
X48052Y2587D01*
X48055Y2604D01*
X48065Y2622D01*
X48082Y2636D01*
X48104Y2645D01*
X48169Y2656D01*
X48259Y2658D01*
X48349Y2656D01*
X48413Y2645D01*
X48436Y2636D01*
X48452Y2622D01*
X48463Y2604D01*
X48466Y2587D01*
X48583Y2587D01*
X48586Y2593D01*
X48590Y2632D01*
X48586Y2675D01*
X48571Y2713D01*
X48547Y2744D01*
X48512Y2769D01*
X48467Y2789D01*
X48410Y2802D01*
X48341Y2810D01*
X48260Y2813D01*
X48179Y2810D01*
X48110Y2802D01*
X48053Y2789D01*
X48008Y2769D01*
X47975Y2744D01*
X47951Y2713D01*
X47938Y2675D01*
X47933Y2632D01*
X47938Y2589D01*
X47939Y2587D01*
X47936Y2605D02*
X48055Y2605D01*
X48068Y2625D02*
X47934Y2625D01*
X47935Y2644D02*
X48103Y2644D01*
X47975Y2744D02*
X48547Y2744D01*
X48562Y2724D02*
X47960Y2724D01*
X47948Y2704D02*
X48574Y2704D01*
X48582Y2684D02*
X47941Y2684D01*
X47937Y2664D02*
X48587Y2664D01*
X48589Y2644D02*
X48415Y2644D01*
X48450Y2625D02*
X48590Y2625D01*
X48587Y2605D02*
X48463Y2605D01*
X48467Y2585D02*
X48584Y2585D01*
X48575Y2565D02*
X48465Y2565D01*
X48457Y2545D02*
X48562Y2545D01*
X48543Y2525D02*
X48435Y2525D01*
X48517Y2506D02*
X48307Y2506D01*
X48214Y2506D02*
X47999Y2506D01*
X48030Y2307D02*
X48574Y2307D01*
X48574Y2317D02*
X48574Y2166D01*
X48139Y2166D01*
X48097Y2162D01*
X48070Y2150D01*
X48055Y2130D01*
X48050Y2102D01*
X48056Y2067D01*
X48064Y2054D01*
X48076Y2043D01*
X48109Y2028D01*
X48154Y2024D01*
X48571Y2024D01*
X48571Y1874D01*
X47941Y1874D01*
X47941Y2018D01*
X48014Y2018D01*
X48014Y2021D01*
X48017Y2019D01*
X47977Y2047D01*
X47950Y2081D01*
X47935Y2122D01*
X47930Y2168D01*
X47933Y2201D01*
X47941Y2231D01*
X47953Y2256D01*
X47971Y2278D01*
X47995Y2294D01*
X48025Y2306D01*
X48062Y2313D01*
X48106Y2317D01*
X48574Y2317D01*
X48574Y2287D02*
X47985Y2287D01*
X47962Y2267D02*
X48574Y2267D01*
X48574Y2247D02*
X47949Y2247D01*
X47940Y2228D02*
X48574Y2228D01*
X48574Y2208D02*
X47935Y2208D01*
X47932Y2188D02*
X48574Y2188D01*
X48574Y2168D02*
X47930Y2168D01*
X47932Y2148D02*
X48069Y2148D01*
X48055Y2128D02*
X47934Y2128D01*
X47940Y2109D02*
X48051Y2109D01*
X48053Y2089D02*
X47947Y2089D01*
X47959Y2069D02*
X48056Y2069D01*
X48070Y2049D02*
X47975Y2049D01*
X48003Y2029D02*
X48107Y2029D01*
X47941Y2009D02*
X48571Y2009D01*
X48571Y1989D02*
X47941Y1989D01*
X47941Y1970D02*
X48571Y1970D01*
X48571Y1950D02*
X47941Y1950D01*
X47941Y1930D02*
X48571Y1930D01*
X48571Y1910D02*
X47941Y1910D01*
X47941Y1890D02*
X48571Y1890D01*
X48667Y1930D02*
X49477Y1930D01*
X49477Y1950D02*
X48658Y1950D01*
X48649Y1968D02*
X48668Y1927D01*
X48695Y1893D01*
X48730Y1869D01*
X48772Y1852D01*
X48821Y1841D01*
X48878Y1838D01*
X49477Y1838D01*
X49477Y1982D01*
X49406Y1982D01*
X49406Y1985D01*
X49448Y2011D01*
X49475Y2042D01*
X49489Y2075D01*
X49490Y2081D01*
X49367Y2081D01*
X49370Y2063D01*
X49367Y2042D01*
X49358Y2026D01*
X49343Y2012D01*
X49322Y2001D01*
X49258Y1989D01*
X49160Y1985D01*
X49087Y1989D01*
X49030Y2003D01*
X49009Y2014D01*
X48992Y2027D01*
X48982Y2045D01*
X48979Y2067D01*
X48982Y2083D01*
X48860Y2083D01*
X48854Y2076D01*
X48856Y2072D01*
X48872Y2038D01*
X48896Y2008D01*
X48928Y1982D01*
X48928Y1979D01*
X48845Y1979D01*
X48802Y1984D01*
X48766Y1997D01*
X48752Y2008D01*
X48742Y2023D01*
X48736Y2040D01*
X48734Y2062D01*
X48739Y2088D01*
X48752Y2113D01*
X48773Y2129D01*
X48800Y2135D01*
X48800Y2279D01*
X48763Y2276D01*
X48730Y2267D01*
X48701Y2250D01*
X48677Y2228D01*
X48658Y2200D01*
X48644Y2165D01*
X48635Y2126D01*
X48632Y2081D01*
X48637Y2019D01*
X48649Y1968D01*
X49477Y1970D01*
X49446Y2009D02*
X49338Y2009D01*
X49360Y2029D02*
X49464Y2029D01*
X49478Y2049D02*
X49368Y2049D01*
X49369Y2069D02*
X49486Y2069D01*
X49483Y2074D02*
X49487Y2099D01*
X49486Y2127D01*
X49480Y2153D01*
X49471Y2175D01*
X49457Y2195D01*
X49424Y2226D01*
X49382Y2250D01*
X49333Y2267D01*
X49279Y2276D01*
X49166Y2282D01*
X49087Y2279D01*
X49019Y2270D01*
X48964Y2256D01*
X48922Y2237D01*
X48890Y2212D01*
X48868Y2180D01*
X48854Y2144D01*
X48850Y2102D01*
X48854Y2072D01*
X48854Y2076D01*
X48976Y2076D01*
X48977Y2083D01*
X48988Y2099D01*
X49003Y2113D01*
X49024Y2122D01*
X49076Y2132D01*
X49138Y2135D01*
X49244Y2132D01*
X49283Y2127D01*
X49313Y2120D01*
X49336Y2110D01*
X49351Y2096D01*
X49360Y2078D01*
X49360Y2074D01*
X49483Y2074D01*
X49485Y2089D02*
X49354Y2089D01*
X49337Y2109D02*
X49487Y2109D01*
X49486Y2128D02*
X49276Y2128D01*
X49256Y1989D02*
X49414Y1989D01*
X49477Y1910D02*
X48682Y1910D01*
X48700Y1890D02*
X49477Y1890D01*
X49477Y1870D02*
X48729Y1870D01*
X48779Y1751D02*
X49480Y1751D01*
X49731Y1831D02*
X49841Y1831D01*
X49840Y1825D02*
X49841Y1806D01*
X49847Y1791D01*
X49858Y1779D01*
X49873Y1769D01*
X49918Y1755D01*
X49985Y1751D01*
X49985Y1607D01*
X49927Y1610D01*
X49876Y1619D01*
X49832Y1636D01*
X49796Y1658D01*
X49768Y1688D01*
X49747Y1727D01*
X49735Y1774D01*
X49730Y1829D01*
X49733Y1881D01*
X49744Y1927D01*
X49765Y1965D01*
X49796Y1997D01*
X49841Y2021D01*
X49898Y2039D01*
X49970Y2050D01*
X50057Y2052D01*
X50146Y2048D01*
X50218Y2035D01*
X50275Y2014D01*
X50320Y1985D01*
X50351Y1951D01*
X50372Y1910D01*
X50384Y1864D01*
X50389Y1814D01*
X50384Y1765D01*
X50372Y1723D01*
X50351Y1687D01*
X50323Y1656D01*
X50287Y1634D01*
X50245Y1617D01*
X50197Y1607D01*
X50144Y1604D01*
X50144Y1748D01*
X50189Y1751D01*
X50191Y1753D01*
X50231Y1763D01*
X50248Y1772D01*
X50261Y1784D01*
X50270Y1799D01*
X50273Y1818D01*
X50270Y1844D01*
X50260Y1864D01*
X50243Y1878D01*
X50221Y1889D01*
X50155Y1901D01*
X50059Y1904D01*
X49958Y1901D01*
X49921Y1897D01*
X49891Y1889D01*
X49868Y1878D01*
X49852Y1865D01*
X49843Y1847D01*
X49840Y1825D01*
X49841Y1811D02*
X49732Y1811D01*
X49734Y1791D02*
X49848Y1791D01*
X49870Y1771D02*
X49736Y1771D01*
X49741Y1751D02*
X49982Y1751D01*
X49985Y1731D02*
X49746Y1731D01*
X49755Y1711D02*
X49985Y1711D01*
X49985Y1692D02*
X49766Y1692D01*
X49783Y1672D02*
X49985Y1672D01*
X49985Y1652D02*
X49806Y1652D01*
X49841Y1632D02*
X49985Y1632D01*
X49985Y1612D02*
X49914Y1612D01*
X50144Y1612D02*
X50221Y1612D01*
X50282Y1632D02*
X50144Y1632D01*
X50144Y1652D02*
X50316Y1652D01*
X50337Y1672D02*
X50144Y1672D01*
X50144Y1692D02*
X50354Y1692D01*
X50366Y1711D02*
X50144Y1711D01*
X50144Y1731D02*
X50375Y1731D01*
X50381Y1751D02*
X50190Y1751D01*
X50246Y1771D02*
X50385Y1771D01*
X50387Y1791D02*
X50265Y1791D01*
X50272Y1811D02*
X50389Y1811D01*
X50387Y1831D02*
X50272Y1831D01*
X50267Y1850D02*
X50386Y1850D01*
X50383Y1870D02*
X50252Y1870D01*
X50214Y1890D02*
X50377Y1890D01*
X50372Y1910D02*
X49740Y1910D01*
X49735Y1890D02*
X49896Y1890D01*
X49858Y1870D02*
X49733Y1870D01*
X49732Y1850D02*
X49845Y1850D01*
X49746Y1930D02*
X50362Y1930D01*
X50352Y1950D02*
X49756Y1950D01*
X49769Y1970D02*
X50334Y1970D01*
X50313Y1989D02*
X49789Y1989D01*
X49819Y2009D02*
X50281Y2009D01*
X50232Y2029D02*
X49867Y2029D01*
X49967Y2049D02*
X50126Y2049D01*
X50372Y2137D02*
X49742Y2137D01*
X49742Y2286D01*
X50372Y2286D01*
X50372Y2137D01*
X50372Y2148D02*
X49742Y2148D01*
X49742Y2168D02*
X50372Y2168D01*
X50372Y2188D02*
X49742Y2188D01*
X49742Y2208D02*
X50372Y2208D01*
X50372Y2228D02*
X49742Y2228D01*
X49742Y2247D02*
X50372Y2247D01*
X50372Y2267D02*
X49742Y2267D01*
X49800Y2406D02*
X50041Y2406D01*
X50035Y2400D02*
X50012Y2387D01*
X49985Y2378D01*
X49955Y2372D01*
X49921Y2371D01*
X49874Y2375D01*
X49834Y2387D01*
X49799Y2406D01*
X49772Y2432D01*
X49751Y2463D01*
X49738Y2501D01*
X49730Y2543D01*
X49727Y2588D01*
X49730Y2647D01*
X49739Y2693D01*
X49756Y2730D01*
X49778Y2759D01*
X49807Y2780D01*
X49841Y2793D01*
X49880Y2801D01*
X49924Y2804D01*
X49946Y2804D01*
X49946Y2669D01*
X49925Y2669D01*
X49928Y2665D01*
X49891Y2660D01*
X49862Y2645D01*
X49843Y2621D01*
X49837Y2588D01*
X49841Y2556D01*
X49855Y2532D01*
X49879Y2517D01*
X49912Y2513D01*
X49939Y2517D01*
X49958Y2530D01*
X49972Y2547D01*
X49982Y2569D01*
X50023Y2674D01*
X50051Y2728D01*
X50069Y2748D01*
X50089Y2767D01*
X50111Y2780D01*
X50137Y2791D01*
X50165Y2796D01*
X50197Y2798D01*
X50234Y2795D01*
X50270Y2786D01*
X50303Y2771D01*
X50332Y2748D01*
X50354Y2719D01*
X50372Y2681D01*
X50384Y2636D01*
X50389Y2582D01*
X50386Y2534D01*
X50377Y2493D01*
X50362Y2459D01*
X50341Y2430D01*
X50315Y2410D01*
X50285Y2395D01*
X50249Y2386D01*
X50209Y2382D01*
X50183Y2382D01*
X50183Y2517D01*
X50225Y2521D01*
X50255Y2531D01*
X50266Y2540D01*
X50273Y2552D01*
X50279Y2584D01*
X50275Y2611D01*
X50261Y2633D01*
X50240Y2650D01*
X50210Y2656D01*
X50188Y2652D01*
X50168Y2642D01*
X50150Y2622D01*
X50135Y2591D01*
X50102Y2501D01*
X50089Y2468D01*
X50072Y2441D01*
X50054Y2419D01*
X50035Y2400D01*
X50011Y2387D02*
X49836Y2387D01*
X49779Y2426D02*
X50061Y2426D01*
X50075Y2446D02*
X49763Y2446D01*
X49751Y2466D02*
X50088Y2466D01*
X50096Y2486D02*
X49743Y2486D01*
X49737Y2506D02*
X50104Y2506D01*
X50111Y2525D02*
X49952Y2525D01*
X49970Y2545D02*
X50119Y2545D01*
X50126Y2565D02*
X49981Y2565D01*
X49989Y2585D02*
X50133Y2585D01*
X50142Y2605D02*
X49996Y2605D01*
X50004Y2625D02*
X50152Y2625D01*
X50173Y2644D02*
X50012Y2644D01*
X50019Y2664D02*
X50377Y2664D01*
X50382Y2644D02*
X50247Y2644D01*
X50266Y2625D02*
X50385Y2625D01*
X50387Y2605D02*
X50276Y2605D01*
X50279Y2585D02*
X50389Y2585D01*
X50388Y2565D02*
X50276Y2565D01*
X50269Y2545D02*
X50387Y2545D01*
X50384Y2525D02*
X50239Y2525D01*
X50183Y2506D02*
X50380Y2506D01*
X50374Y2486D02*
X50183Y2486D01*
X50183Y2466D02*
X50365Y2466D01*
X50352Y2446D02*
X50183Y2446D01*
X50183Y2426D02*
X50336Y2426D01*
X50309Y2406D02*
X50183Y2406D01*
X50183Y2387D02*
X50253Y2387D01*
X50450Y2286D02*
X50588Y2286D01*
X50588Y2137D01*
X50450Y2137D01*
X50450Y2286D01*
X50450Y2267D02*
X50588Y2267D01*
X50588Y2247D02*
X50450Y2247D01*
X50450Y2228D02*
X50588Y2228D01*
X50588Y2208D02*
X50450Y2208D01*
X50450Y2188D02*
X50588Y2188D01*
X50588Y2168D02*
X50450Y2168D01*
X50450Y2148D02*
X50588Y2148D01*
X49481Y2148D02*
X48856Y2148D01*
X48853Y2128D02*
X49058Y2128D01*
X48999Y2109D02*
X48851Y2109D01*
X48852Y2089D02*
X48981Y2089D01*
X48979Y2069D02*
X48857Y2069D01*
X48867Y2049D02*
X48981Y2049D01*
X48991Y2029D02*
X48879Y2029D01*
X48895Y2009D02*
X49017Y2009D01*
X49088Y1989D02*
X48919Y1989D01*
X48786Y1989D02*
X48644Y1989D01*
X48639Y2009D02*
X48751Y2009D01*
X48740Y2029D02*
X48636Y2029D01*
X48635Y2049D02*
X48735Y2049D01*
X48736Y2069D02*
X48633Y2069D01*
X48633Y2089D02*
X48739Y2089D01*
X48750Y2109D02*
X48634Y2109D01*
X48636Y2128D02*
X48773Y2128D01*
X48800Y2148D02*
X48641Y2148D01*
X48646Y2168D02*
X48800Y2168D01*
X48800Y2188D02*
X48653Y2188D01*
X48663Y2208D02*
X48800Y2208D01*
X48800Y2228D02*
X48677Y2228D01*
X48698Y2247D02*
X48800Y2247D01*
X48800Y2267D02*
X48731Y2267D01*
X48873Y2188D02*
X49462Y2188D01*
X49474Y2168D02*
X48863Y2168D01*
X48888Y2208D02*
X49444Y2208D01*
X49422Y2228D02*
X48910Y2228D01*
X48944Y2247D02*
X49388Y2247D01*
X49331Y2267D02*
X49009Y2267D01*
X49734Y2525D02*
X49866Y2525D01*
X49848Y2545D02*
X49730Y2545D01*
X49729Y2565D02*
X49840Y2565D01*
X49837Y2585D02*
X49728Y2585D01*
X49728Y2605D02*
X49840Y2605D01*
X49846Y2625D02*
X49729Y2625D01*
X49730Y2644D02*
X49862Y2644D01*
X49927Y2664D02*
X49734Y2664D01*
X49738Y2684D02*
X49946Y2684D01*
X49946Y2704D02*
X49744Y2704D01*
X49753Y2724D02*
X49946Y2724D01*
X49946Y2744D02*
X49766Y2744D01*
X49785Y2764D02*
X49946Y2764D01*
X49946Y2784D02*
X49816Y2784D01*
X49914Y2803D02*
X49946Y2803D01*
X50050Y2724D02*
X50350Y2724D01*
X50361Y2704D02*
X50039Y2704D01*
X50029Y2684D02*
X50371Y2684D01*
X50335Y2744D02*
X50065Y2744D01*
X50086Y2764D02*
X50313Y2764D01*
X50276Y2784D02*
X50120Y2784D01*
X48583Y3002D02*
X48587Y3063D01*
X48586Y3077D01*
X48587Y3078D01*
X48473Y3078D01*
X48472Y3089D01*
X48460Y3109D01*
X48440Y3124D01*
X48415Y3134D01*
X48344Y3144D01*
X48256Y3146D01*
X48167Y3144D01*
X48097Y3134D01*
X48071Y3124D01*
X48052Y3109D01*
X48040Y3089D01*
X48038Y3078D01*
X47930Y3078D01*
X47933Y3126D01*
X47948Y3178D01*
X47974Y3218D01*
X48010Y3250D01*
X48056Y3272D01*
X48113Y3287D01*
X48181Y3294D01*
X48257Y3298D01*
X48334Y3294D01*
X48400Y3285D01*
X48457Y3269D01*
X48503Y3245D01*
X48539Y3213D01*
X48566Y3173D01*
X48583Y3124D01*
X48587Y3078D01*
X48476Y3078D01*
X48479Y3065D01*
X48476Y3044D01*
X48467Y3026D01*
X48451Y3013D01*
X48428Y3002D01*
X48359Y2989D01*
X48257Y2984D01*
X48155Y2989D01*
X48088Y3002D01*
X48065Y3013D01*
X48049Y3026D01*
X48040Y3044D01*
X48037Y3065D01*
X48040Y3078D01*
X47932Y3078D01*
X47930Y3065D01*
X47935Y3006D01*
X47950Y2957D01*
X47975Y2917D01*
X48011Y2885D01*
X48058Y2861D01*
X48115Y2845D01*
X48181Y2835D01*
X48257Y2832D01*
X48335Y2835D01*
X48403Y2843D01*
X48460Y2858D01*
X48506Y2880D01*
X48542Y2911D01*
X48568Y2951D01*
X48583Y3002D01*
X48428Y3002D01*
X48462Y3022D02*
X48584Y3022D01*
X48586Y3041D02*
X48475Y3041D01*
X48479Y3061D02*
X48587Y3061D01*
X48587Y3081D02*
X48473Y3081D01*
X48464Y3101D02*
X48585Y3101D01*
X48583Y3121D02*
X48444Y3121D01*
X48369Y3141D02*
X48577Y3141D01*
X48571Y3161D02*
X47943Y3161D01*
X47938Y3141D02*
X48143Y3141D01*
X48068Y3121D02*
X47933Y3121D01*
X47932Y3101D02*
X48047Y3101D01*
X48039Y3081D02*
X47931Y3081D01*
X47931Y3061D02*
X48037Y3061D01*
X48041Y3041D02*
X47932Y3041D01*
X47934Y3022D02*
X48054Y3022D01*
X48089Y3002D02*
X47936Y3002D01*
X47942Y2982D02*
X48577Y2982D01*
X48571Y2962D02*
X47948Y2962D01*
X47959Y2942D02*
X48562Y2942D01*
X48550Y2922D02*
X47972Y2922D01*
X47991Y2903D02*
X48533Y2903D01*
X48509Y2883D02*
X48016Y2883D01*
X48054Y2863D02*
X48470Y2863D01*
X48403Y2843D02*
X48126Y2843D01*
X48118Y2803D02*
X48403Y2803D01*
X48480Y2784D02*
X48041Y2784D01*
X48001Y2764D02*
X48520Y2764D01*
X48561Y3180D02*
X47950Y3180D01*
X47963Y3200D02*
X48548Y3200D01*
X48532Y3220D02*
X47976Y3220D01*
X47999Y3240D02*
X48509Y3240D01*
X48474Y3260D02*
X48031Y3260D01*
X48086Y3280D02*
X48420Y3280D01*
X48842Y3260D02*
X49489Y3260D01*
X49487Y3280D02*
X49347Y3280D01*
X49362Y3300D02*
X49485Y3300D01*
X49481Y3320D02*
X49365Y3320D01*
X49364Y3339D02*
X49473Y3339D01*
X49461Y3359D02*
X49360Y3359D01*
X49348Y3379D02*
X49445Y3379D01*
X49417Y3399D02*
X49312Y3399D01*
X49487Y3240D02*
X48842Y3240D01*
X48842Y3220D02*
X49484Y3220D01*
X49479Y3200D02*
X48842Y3200D01*
X48842Y3180D02*
X49469Y3180D01*
X49454Y3161D02*
X48842Y3161D01*
X48842Y3141D02*
X49431Y3141D01*
X49379Y3121D02*
X48842Y3121D01*
X48779Y1813D02*
X47945Y1813D01*
X47945Y1663D01*
X48779Y1663D01*
X48779Y1813D01*
X47945Y1811D01*
X47945Y1791D02*
X48779Y1791D01*
X48779Y1771D02*
X47945Y1771D01*
X47945Y1751D02*
X48779Y1751D01*
X48779Y1731D02*
X47945Y1731D01*
X47945Y1856D02*
X48779Y1856D01*
X48779Y1692D02*
X47945Y1692D01*
X47945Y1672D02*
X48779Y1672D01*
X48518Y1542D02*
X48485Y1562D01*
X48443Y1574D01*
X48392Y1579D01*
X48377Y1579D01*
X48377Y1443D01*
X48395Y1443D01*
X48428Y1439D01*
X48454Y1426D01*
X48470Y1405D01*
X48476Y1375D01*
X48472Y1342D01*
X48457Y1320D01*
X48433Y1308D01*
X48401Y1304D01*
X48373Y1307D01*
X48353Y1318D01*
X48338Y1335D01*
X48328Y1364D01*
X48326Y1368D01*
X48226Y1368D01*
X48236Y1337D01*
X48257Y1304D01*
X48133Y1304D01*
X48109Y1306D01*
X48088Y1311D01*
X48071Y1322D01*
X48058Y1334D01*
X48041Y1364D01*
X48041Y1367D01*
X47944Y1367D01*
X47944Y1366D01*
X47953Y1349D01*
X47966Y1334D01*
X48007Y1306D01*
X48007Y1303D01*
X47974Y1295D01*
X47941Y1283D01*
X47941Y1139D01*
X47993Y1154D01*
X48062Y1158D01*
X48392Y1158D01*
X48433Y1160D01*
X48470Y1166D01*
X48503Y1178D01*
X48532Y1197D01*
X48554Y1224D01*
X48571Y1260D01*
X48581Y1308D01*
X48584Y1370D01*
X48589Y1373D01*
X48586Y1414D01*
X48578Y1453D01*
X48565Y1487D01*
X48545Y1517D01*
X48518Y1542D01*
X48529Y1533D02*
X48377Y1533D01*
X48377Y1553D02*
X48501Y1553D01*
X48448Y1573D02*
X48377Y1573D01*
X48377Y1513D02*
X48548Y1513D01*
X48561Y1493D02*
X48377Y1493D01*
X48377Y1473D02*
X48570Y1473D01*
X48578Y1453D02*
X48377Y1453D01*
X48439Y1434D02*
X48582Y1434D01*
X48586Y1414D02*
X48463Y1414D01*
X48473Y1394D02*
X48587Y1394D01*
X48589Y1374D02*
X48476Y1374D01*
X48474Y1354D02*
X48584Y1354D01*
X48583Y1334D02*
X48467Y1334D01*
X48445Y1315D02*
X48582Y1315D01*
X48578Y1295D02*
X47973Y1295D01*
X47994Y1315D02*
X48083Y1315D01*
X48058Y1334D02*
X47966Y1334D01*
X47950Y1354D02*
X48047Y1354D01*
X48043Y1370D02*
X48038Y1398D01*
X48044Y1424D01*
X48064Y1442D01*
X48092Y1451D01*
X48125Y1454D01*
X48163Y1450D01*
X48191Y1434D01*
X48212Y1409D01*
X48226Y1370D01*
X48326Y1370D01*
X48304Y1450D01*
X48277Y1517D01*
X48260Y1542D01*
X48239Y1564D01*
X48214Y1579D01*
X48184Y1589D01*
X48148Y1595D01*
X48106Y1596D01*
X48043Y1589D01*
X48013Y1579D01*
X47986Y1565D01*
X47963Y1545D01*
X47945Y1521D01*
X47935Y1492D01*
X47932Y1455D01*
X47935Y1406D01*
X47945Y1368D01*
X47945Y1370D01*
X48043Y1370D01*
X47944Y1374D01*
X47938Y1394D02*
X48039Y1394D01*
X48042Y1414D02*
X47934Y1414D01*
X47933Y1434D02*
X48055Y1434D01*
X48119Y1453D02*
X47932Y1453D01*
X47933Y1473D02*
X48294Y1473D01*
X48302Y1453D02*
X48130Y1453D01*
X48192Y1434D02*
X48308Y1434D01*
X48314Y1414D02*
X48208Y1414D01*
X48218Y1394D02*
X48320Y1394D01*
X48325Y1374D02*
X48225Y1374D01*
X48231Y1354D02*
X48331Y1354D01*
X48339Y1334D02*
X48238Y1334D01*
X48251Y1315D02*
X48359Y1315D01*
X48547Y1215D02*
X47941Y1215D01*
X47941Y1195D02*
X48529Y1195D01*
X48497Y1176D02*
X47941Y1176D01*
X47941Y1156D02*
X48019Y1156D01*
X47941Y1235D02*
X48559Y1235D01*
X48568Y1255D02*
X47941Y1255D01*
X47941Y1275D02*
X48574Y1275D01*
X48574Y1057D02*
X47944Y1057D01*
X47944Y907D01*
X48322Y907D01*
X48350Y903D01*
X48374Y896D01*
X48394Y884D01*
X48409Y869D01*
X48421Y853D01*
X48428Y833D01*
X48434Y794D01*
X48434Y770D01*
X48433Y746D01*
X48587Y746D01*
X48589Y760D01*
X48589Y773D01*
X48581Y816D01*
X48560Y853D01*
X48529Y883D01*
X48488Y908D01*
X48488Y911D01*
X48572Y911D01*
X48574Y913D01*
X48574Y1057D01*
X47944Y1056D01*
X47944Y1037D02*
X48574Y1037D01*
X48574Y1017D02*
X47944Y1017D01*
X47944Y997D02*
X48574Y997D01*
X48574Y977D02*
X47944Y977D01*
X47944Y957D02*
X48574Y957D01*
X48574Y937D02*
X47944Y937D01*
X47944Y917D02*
X48574Y917D01*
X48534Y878D02*
X48400Y878D01*
X48417Y858D02*
X48555Y858D01*
X48569Y838D02*
X48426Y838D01*
X48431Y818D02*
X48580Y818D01*
X48585Y798D02*
X48434Y798D01*
X48434Y778D02*
X48588Y778D01*
X48589Y759D02*
X48434Y759D01*
X48369Y898D02*
X48505Y898D01*
X48286Y1493D02*
X47935Y1493D01*
X47942Y1513D02*
X48278Y1513D01*
X48267Y1533D02*
X47954Y1533D01*
X47972Y1553D02*
X48250Y1553D01*
X48224Y1573D02*
X48001Y1573D01*
X48072Y1592D02*
X48163Y1592D01*
D11*
X21909Y4517D03*
D12*
X14169Y4517D03*
X8169Y4517D03*
D13*
X10424Y4500D02*
X10428Y4471D01*
X10424Y4441D01*
X10434Y4428D01*
X10445Y4351D01*
X10439Y4330D01*
X10452Y4308D01*
X10455Y4283D01*
X10473Y4270D01*
X10507Y4208D01*
X10512Y4182D01*
X10528Y4170D01*
X10538Y4153D01*
X10564Y4145D01*
X10624Y4104D01*
X10639Y4083D01*
X10659Y4079D01*
X10677Y4067D01*
X10702Y4072D01*
X10776Y4059D01*
X10784Y4051D01*
X10820Y4051D01*
X10855Y4045D01*
X10864Y4051D01*
X11090Y4051D01*
X11090Y3950D01*
X10512Y3950D01*
X10448Y3886D01*
X10448Y3663D01*
X10512Y3599D01*
X11090Y3599D01*
X11090Y3423D01*
X11154Y3359D01*
X11359Y3359D01*
X11423Y3423D01*
X11423Y4338D01*
X11359Y4402D01*
X10876Y4402D01*
X10814Y4405D01*
X10784Y4414D01*
X10775Y4424D01*
X10765Y4471D01*
X10775Y4518D01*
X10784Y4528D01*
X10814Y4537D01*
X10876Y4540D01*
X11359Y4540D01*
X11423Y4604D01*
X11423Y4827D01*
X11359Y4891D01*
X11312Y4891D01*
X11314Y4898D01*
X11376Y4981D01*
X11397Y4995D01*
X11402Y5015D01*
X11414Y5032D01*
X11411Y5058D01*
X11416Y5086D01*
X11425Y5095D01*
X11425Y5129D01*
X11432Y5162D01*
X11432Y5162D01*
X11434Y5171D01*
X11448Y5192D01*
X11443Y5214D01*
X11448Y5236D01*
X11434Y5256D01*
X11410Y5369D01*
X11414Y5395D01*
X11401Y5412D01*
X11397Y5432D01*
X11375Y5447D01*
X11314Y5529D01*
X11307Y5552D01*
X11287Y5563D01*
X11274Y5581D01*
X11249Y5585D01*
X11163Y5634D01*
X11150Y5652D01*
X11125Y5656D01*
X11102Y5669D01*
X11082Y5663D01*
X10978Y5680D01*
X10962Y5691D01*
X10935Y5687D01*
X10908Y5691D01*
X10892Y5680D01*
X10787Y5663D01*
X10767Y5669D01*
X10745Y5656D01*
X10719Y5652D01*
X10707Y5634D01*
X10620Y5585D01*
X10595Y5581D01*
X10582Y5563D01*
X10562Y5552D01*
X10556Y5528D01*
X10494Y5446D01*
X10472Y5432D01*
X10468Y5412D01*
X10455Y5395D01*
X10459Y5369D01*
X10436Y5256D01*
X10423Y5236D01*
X10427Y5214D01*
X10423Y5191D01*
X10436Y5171D01*
X10445Y5129D01*
X10445Y5095D01*
X10454Y5086D01*
X10456Y5073D01*
X10456Y5073D01*
X10459Y5058D01*
X10456Y5032D01*
X10468Y5016D01*
X10472Y4995D01*
X10494Y4981D01*
X10556Y4898D01*
X10562Y4875D01*
X10582Y4864D01*
X10595Y4846D01*
X10620Y4842D01*
X10625Y4839D01*
X10624Y4838D01*
X10564Y4796D01*
X10538Y4789D01*
X10528Y4771D01*
X10512Y4760D01*
X10507Y4733D01*
X10473Y4672D01*
X10455Y4658D01*
X10452Y4633D01*
X10439Y4612D01*
X10445Y4591D01*
X10434Y4514D01*
X10424Y4500D01*
X10431Y4510D02*
X1937Y4510D01*
X1993Y4565D02*
X2110Y4848D01*
X2110Y4943D01*
X2110Y6059D01*
X2110Y6154D01*
X1993Y6437D01*
X1777Y6654D01*
X1494Y6771D01*
X1187Y6771D01*
X904Y6654D01*
X688Y6437D01*
X571Y6154D01*
X571Y6059D01*
X571Y4943D01*
X571Y4848D01*
X688Y4565D01*
X904Y4349D01*
X1187Y4232D01*
X1494Y4232D01*
X1777Y4349D01*
X1993Y4565D01*
X2003Y4588D02*
X10445Y4588D01*
X10466Y4667D02*
X2035Y4667D01*
X2068Y4745D02*
X10509Y4745D01*
X10604Y4824D02*
X2100Y4824D01*
X2110Y4903D02*
X10553Y4903D01*
X10494Y4981D02*
X2110Y4981D01*
X2110Y5060D02*
X10459Y5060D01*
X10443Y5138D02*
X2110Y5138D01*
X2110Y5217D02*
X10427Y5217D01*
X10444Y5296D02*
X2110Y5296D01*
X2110Y5374D02*
X10458Y5374D01*
X10499Y5453D02*
X2110Y5453D01*
X2110Y5531D02*
X10556Y5531D01*
X10664Y5610D02*
X2110Y5610D01*
X2110Y5688D02*
X10904Y5688D01*
X10924Y5688D02*
X10946Y5688D01*
X10966Y5688D02*
X16853Y5688D01*
X16853Y5610D02*
X11206Y5610D01*
X11313Y5531D02*
X16853Y5531D01*
X16853Y5453D02*
X11371Y5453D01*
X11411Y5374D02*
X16853Y5374D01*
X16853Y5319D02*
X16844Y5296D01*
X16853Y5276D01*
X16853Y5181D01*
X16844Y5156D01*
X16853Y5138D01*
X16853Y5117D01*
X16872Y5098D01*
X16883Y5074D01*
X16902Y5068D01*
X16917Y5053D01*
X16943Y5053D01*
X17026Y5024D01*
X17053Y5014D01*
X17053Y4867D01*
X17026Y4857D01*
X16983Y4842D01*
X16943Y4828D01*
X16917Y4828D01*
X16902Y4813D01*
X16883Y4806D01*
X16871Y4782D01*
X16853Y4764D01*
X16853Y4743D01*
X16844Y4724D01*
X16853Y4699D01*
X16853Y4600D01*
X16844Y4579D01*
X16852Y4557D01*
X16852Y4338D01*
X16852Y4248D01*
X16853Y4247D01*
X16853Y4245D01*
X16846Y4235D01*
X16853Y4201D01*
X16853Y4167D01*
X16862Y4158D01*
X16882Y4058D01*
X16878Y4030D01*
X16890Y4015D01*
X16894Y3996D01*
X16917Y3981D01*
X16975Y3906D01*
X16984Y3880D01*
X17002Y3871D01*
X17015Y3855D01*
X17041Y3852D01*
X17122Y3812D01*
X17134Y3796D01*
X17161Y3792D01*
X17185Y3780D01*
X17204Y3786D01*
X17297Y3774D01*
X17310Y3764D01*
X17341Y3768D01*
X17371Y3764D01*
X17384Y3774D01*
X17477Y3786D01*
X17496Y3780D01*
X17520Y3792D01*
X17547Y3796D01*
X17559Y3812D01*
X17640Y3852D01*
X17666Y3855D01*
X17679Y3871D01*
X17697Y3880D01*
X17706Y3906D01*
X17764Y3981D01*
X17787Y3996D01*
X17791Y4015D01*
X17803Y4030D01*
X17799Y4058D01*
X17819Y4158D01*
X17828Y4167D01*
X17828Y4201D01*
X17835Y4235D01*
X17828Y4245D01*
X17828Y4571D01*
X17764Y4635D01*
X17419Y4635D01*
X17429Y4639D01*
X17429Y4639D01*
X17455Y4649D01*
X17608Y4708D01*
X17739Y4758D01*
X17764Y4758D01*
X17779Y4774D01*
X17800Y4782D01*
X17810Y4805D01*
X17828Y4823D01*
X17828Y4845D01*
X17837Y4865D01*
X17828Y4888D01*
X17828Y4988D01*
X17837Y5012D01*
X17828Y5032D01*
X17828Y5054D01*
X17810Y5072D01*
X17800Y5095D01*
X17779Y5102D01*
X17764Y5118D01*
X17739Y5118D01*
X17564Y5185D01*
X17466Y5222D01*
X17466Y5223D01*
X17446Y5231D01*
X17430Y5246D01*
X17405Y5246D01*
X17381Y5255D01*
X17451Y5255D01*
X17495Y5299D01*
X17495Y5289D01*
X17559Y5224D01*
X17764Y5224D01*
X17828Y5289D01*
X17828Y6130D01*
X17764Y6194D01*
X17527Y6194D01*
X17527Y6320D01*
X17764Y6320D01*
X17828Y6384D01*
X17828Y6607D01*
X17764Y6671D01*
X16916Y6671D01*
X16852Y6607D01*
X16852Y6384D01*
X16916Y6320D01*
X17193Y6320D01*
X17193Y6194D01*
X16916Y6194D01*
X16852Y6130D01*
X16852Y5907D01*
X16853Y5907D01*
X16853Y5319D01*
X16844Y5296D02*
X11426Y5296D01*
X11444Y5217D02*
X16853Y5217D01*
X16852Y5138D02*
X11427Y5138D01*
X11411Y5060D02*
X16910Y5060D01*
X17053Y4981D02*
X11376Y4981D01*
X11317Y4903D02*
X17053Y4903D01*
X16913Y4824D02*
X11423Y4824D01*
X11423Y4745D02*
X16853Y4745D01*
X16853Y4667D02*
X11423Y4667D01*
X11407Y4588D02*
X16848Y4588D01*
X16852Y4510D02*
X10773Y4510D01*
X10773Y4431D02*
X16852Y4431D01*
X16852Y4352D02*
X11409Y4352D01*
X11423Y4274D02*
X16852Y4274D01*
X16853Y4195D02*
X11423Y4195D01*
X11423Y4117D02*
X16870Y4117D01*
X16879Y4038D02*
X11423Y4038D01*
X11423Y3959D02*
X16933Y3959D01*
X16984Y3881D02*
X11423Y3881D01*
X11423Y3802D02*
X17129Y3802D01*
X17552Y3802D02*
X25032Y3802D01*
X25063Y3771D02*
X24998Y3836D01*
X24998Y4052D01*
X24999Y4052D01*
X24999Y4243D01*
X24990Y4265D01*
X24999Y4286D01*
X24999Y4385D01*
X24990Y4410D01*
X24999Y4429D01*
X24999Y4450D01*
X25018Y4468D01*
X25029Y4492D01*
X25049Y4499D01*
X25063Y4514D01*
X25090Y4514D01*
X25130Y4528D01*
X25172Y4543D01*
X25200Y4553D01*
X25200Y4700D01*
X25173Y4710D01*
X25090Y4739D01*
X25063Y4739D01*
X25049Y4754D01*
X25030Y4760D01*
X25018Y4784D01*
X24999Y4803D01*
X24999Y4824D01*
X24990Y4842D01*
X24999Y4867D01*
X24999Y4962D01*
X24990Y4982D01*
X24999Y5005D01*
X24999Y5114D01*
X24992Y5146D01*
X24999Y5158D01*
X24999Y5171D01*
X25015Y5187D01*
X25011Y5206D01*
X25000Y5220D01*
X25003Y5248D01*
X24987Y5332D01*
X24974Y5352D01*
X24979Y5375D01*
X24975Y5398D01*
X24988Y5418D01*
X25011Y5530D01*
X25007Y5555D01*
X25019Y5572D01*
X25024Y5593D01*
X25046Y5607D01*
X25107Y5689D01*
X25113Y5713D01*
X25133Y5724D01*
X25146Y5742D01*
X25171Y5745D01*
X25258Y5795D01*
X25271Y5812D01*
X25296Y5816D01*
X25318Y5829D01*
X25339Y5823D01*
X25444Y5840D01*
X25459Y5852D01*
X25487Y5847D01*
X25514Y5852D01*
X25529Y5840D01*
X25633Y5823D01*
X25653Y5829D01*
X25676Y5816D01*
X25701Y5812D01*
X25714Y5795D01*
X25801Y5745D01*
X25825Y5742D01*
X25839Y5724D01*
X25858Y5713D01*
X25865Y5689D01*
X25927Y5607D01*
X25948Y5593D01*
X25953Y5573D01*
X25965Y5556D01*
X25962Y5530D01*
X25984Y5420D01*
X25997Y5404D01*
X25993Y5378D01*
X25999Y5352D01*
X25987Y5335D01*
X25978Y5268D01*
X25984Y5249D01*
X25972Y5225D01*
X25968Y5197D01*
X25953Y5186D01*
X25925Y5130D01*
X25924Y5107D01*
X25906Y5091D01*
X25895Y5069D01*
X25873Y5062D01*
X25824Y5018D01*
X25813Y4996D01*
X25792Y4989D01*
X25775Y4974D01*
X25750Y4976D01*
X25683Y4954D01*
X25669Y4941D01*
X25641Y4941D01*
X25614Y4932D01*
X25598Y4941D01*
X25579Y4941D01*
X25570Y4950D01*
X25552Y4932D01*
X25551Y4932D01*
X25559Y4929D01*
X25598Y4914D01*
X25604Y4916D01*
X25622Y4908D01*
X25641Y4908D01*
X25657Y4892D01*
X25677Y4884D01*
X25677Y4884D01*
X25711Y4871D01*
X25754Y4855D01*
X25795Y4839D01*
X25885Y4804D01*
X25910Y4804D01*
X25926Y4789D01*
X25946Y4781D01*
X25956Y4758D01*
X25974Y4740D01*
X25974Y4718D01*
X25983Y4698D01*
X25974Y4674D01*
X25974Y4574D01*
X25983Y4551D01*
X25974Y4531D01*
X25974Y4509D01*
X25957Y4491D01*
X25946Y4468D01*
X25926Y4460D01*
X25910Y4445D01*
X25885Y4445D01*
X25795Y4410D01*
X25755Y4395D01*
X25711Y4377D01*
X25678Y4365D01*
X25677Y4364D01*
X25657Y4356D01*
X25641Y4340D01*
X25616Y4340D01*
X25602Y4335D01*
X25566Y4321D01*
X25910Y4321D01*
X25974Y4257D01*
X25974Y4018D01*
X25981Y3985D01*
X25974Y3974D01*
X25974Y3899D01*
X25982Y3887D01*
X25974Y3855D01*
X25974Y3822D01*
X25964Y3812D01*
X25961Y3798D01*
X25934Y3781D01*
X25910Y3758D01*
X25896Y3758D01*
X25822Y3712D01*
X25688Y3629D01*
X25910Y3629D01*
X25974Y3565D01*
X25974Y3348D01*
X25910Y3284D01*
X25063Y3284D01*
X24999Y3348D01*
X24999Y3503D01*
X24991Y3515D01*
X24999Y3546D01*
X24999Y3579D01*
X25009Y3589D01*
X25012Y3603D01*
X25040Y3620D01*
X25063Y3643D01*
X25077Y3643D01*
X25197Y3718D01*
X25285Y3771D01*
X25063Y3771D01*
X25080Y3645D02*
X11423Y3645D01*
X11423Y3724D02*
X25207Y3724D01*
X25714Y3645D02*
X34630Y3645D01*
X34630Y3724D02*
X25840Y3724D01*
X25962Y3802D02*
X34630Y3802D01*
X34630Y3881D02*
X25981Y3881D01*
X25974Y3959D02*
X34630Y3959D01*
X34630Y4038D02*
X25974Y4038D01*
X25974Y4117D02*
X34630Y4117D01*
X34630Y4195D02*
X25974Y4195D01*
X25958Y4274D02*
X34630Y4274D01*
X34630Y4352D02*
X25653Y4352D01*
X25850Y4431D02*
X34630Y4431D01*
X34630Y4510D02*
X25974Y4510D01*
X25974Y4588D02*
X34630Y4588D01*
X34630Y4667D02*
X25974Y4667D01*
X25969Y4745D02*
X34630Y4745D01*
X34630Y4824D02*
X25834Y4824D01*
X25783Y4981D02*
X34630Y4981D01*
X34630Y4903D02*
X25646Y4903D01*
X25871Y5060D02*
X34630Y5060D01*
X34630Y5138D02*
X25929Y5138D01*
X25971Y5217D02*
X34630Y5217D01*
X34630Y5296D02*
X25982Y5296D01*
X25994Y5374D02*
X34630Y5374D01*
X34630Y5453D02*
X25978Y5453D01*
X25962Y5531D02*
X34630Y5531D01*
X34630Y5610D02*
X25925Y5610D01*
X25865Y5688D02*
X34630Y5688D01*
X34630Y5767D02*
X25763Y5767D01*
X25522Y5846D02*
X34704Y5846D01*
X34718Y5859D02*
X34630Y5772D01*
X34630Y2348D01*
X34718Y2261D01*
X34841Y2261D01*
X39081Y2261D01*
X39169Y2348D01*
X39169Y5772D01*
X39081Y5859D01*
X34718Y5859D01*
X34929Y5561D02*
X38870Y5561D01*
X38870Y2559D01*
X34929Y2559D01*
X34929Y5561D01*
X34929Y5531D02*
X38870Y5531D01*
X38870Y5453D02*
X34929Y5453D01*
X34929Y5374D02*
X38870Y5374D01*
X38870Y5296D02*
X34929Y5296D01*
X34929Y5217D02*
X35869Y5217D01*
X35890Y5237D02*
X35802Y5149D01*
X35742Y5090D01*
X35740Y5088D01*
X35740Y5024D01*
X35740Y4713D01*
X35802Y4651D01*
X35892Y4561D01*
X36079Y4561D01*
X36143Y4561D01*
X36202Y4619D01*
X36260Y4561D01*
X36447Y4561D01*
X36512Y4561D01*
X36573Y4622D01*
X36601Y4650D01*
X36691Y4561D01*
X36818Y4561D01*
X36909Y4651D01*
X36909Y4931D01*
X36942Y4931D01*
X37032Y5021D01*
X37032Y5149D01*
X36942Y5240D01*
X36446Y5240D01*
X36386Y5180D01*
X36327Y5240D01*
X36199Y5240D01*
X36171Y5212D01*
X36143Y5240D01*
X36020Y5240D01*
X35955Y5240D01*
X35892Y5240D01*
X35890Y5237D01*
X36166Y5217D02*
X36176Y5217D01*
X36349Y5217D02*
X36423Y5217D01*
X36965Y5217D02*
X37343Y5217D01*
X37363Y5237D02*
X37275Y5149D01*
X37215Y5090D01*
X37213Y5088D01*
X37213Y5024D01*
X37213Y4713D01*
X37275Y4651D01*
X37365Y4561D01*
X37552Y4561D01*
X37617Y4561D01*
X37675Y4619D01*
X37734Y4561D01*
X37920Y4561D01*
X37985Y4561D01*
X38047Y4622D01*
X38074Y4650D01*
X38164Y4561D01*
X38292Y4561D01*
X38382Y4651D01*
X38382Y4931D01*
X38415Y4931D01*
X38505Y5021D01*
X38505Y5149D01*
X38415Y5240D01*
X37919Y5240D01*
X37859Y5180D01*
X37800Y5240D01*
X37672Y5240D01*
X37644Y5212D01*
X37617Y5240D01*
X37493Y5240D01*
X37429Y5240D01*
X37365Y5240D01*
X37363Y5237D01*
X37264Y5138D02*
X37032Y5138D01*
X37032Y5060D02*
X37213Y5060D01*
X37639Y5217D02*
X37649Y5217D01*
X37823Y5217D02*
X37896Y5217D01*
X38438Y5217D02*
X38870Y5217D01*
X38870Y5138D02*
X38505Y5138D01*
X38505Y5060D02*
X38870Y5060D01*
X38870Y4981D02*
X38465Y4981D01*
X38382Y4903D02*
X38870Y4903D01*
X38870Y4824D02*
X38382Y4824D01*
X38382Y4745D02*
X38870Y4745D01*
X38870Y4667D02*
X38382Y4667D01*
X38319Y4588D02*
X38870Y4588D01*
X38870Y4510D02*
X34929Y4510D01*
X34929Y4588D02*
X35865Y4588D01*
X35786Y4667D02*
X34929Y4667D01*
X34929Y4745D02*
X35740Y4745D01*
X35740Y4824D02*
X34929Y4824D01*
X34929Y4903D02*
X35740Y4903D01*
X35740Y4981D02*
X34929Y4981D01*
X34929Y5060D02*
X35740Y5060D01*
X35791Y5138D02*
X34929Y5138D01*
X36909Y4903D02*
X37213Y4903D01*
X37213Y4824D02*
X36909Y4824D01*
X36909Y4745D02*
X37213Y4745D01*
X37259Y4667D02*
X36909Y4667D01*
X36846Y4588D02*
X37338Y4588D01*
X37644Y4588D02*
X37706Y4588D01*
X38013Y4588D02*
X38136Y4588D01*
X38870Y4431D02*
X34929Y4431D01*
X34929Y4352D02*
X38870Y4352D01*
X38870Y4274D02*
X34929Y4274D01*
X34929Y4195D02*
X38870Y4195D01*
X38870Y4117D02*
X34929Y4117D01*
X34929Y4038D02*
X38870Y4038D01*
X38870Y3959D02*
X34929Y3959D01*
X34929Y3881D02*
X38870Y3881D01*
X38870Y3802D02*
X34929Y3802D01*
X34929Y3724D02*
X38870Y3724D01*
X38870Y3645D02*
X34929Y3645D01*
X34929Y3567D02*
X38870Y3567D01*
X38870Y3488D02*
X34929Y3488D01*
X34929Y3409D02*
X38870Y3409D01*
X38870Y3331D02*
X34929Y3331D01*
X34929Y3252D02*
X38870Y3252D01*
X38870Y3173D02*
X34929Y3173D01*
X34929Y3095D02*
X38870Y3095D01*
X38870Y3016D02*
X34929Y3016D01*
X34929Y2938D02*
X38870Y2938D01*
X38870Y2859D02*
X34929Y2859D01*
X34929Y2781D02*
X38870Y2781D01*
X38870Y2702D02*
X34929Y2702D01*
X34929Y2623D02*
X38870Y2623D01*
X39169Y2623D02*
X47823Y2623D01*
X47823Y2631D02*
X47820Y2598D01*
X47822Y2595D01*
X47820Y2588D01*
X47821Y2585D01*
X47820Y2581D01*
X47827Y2567D01*
X47827Y2541D01*
X47834Y2534D01*
X47834Y2533D01*
X47834Y2532D01*
X47834Y2306D01*
X47843Y2297D01*
X47840Y2293D01*
X47841Y2283D01*
X47837Y2268D01*
X47834Y2260D01*
X47829Y2256D01*
X47828Y2247D01*
X47823Y2237D01*
X47826Y2227D01*
X47825Y2219D01*
X47823Y2209D01*
X47817Y2203D01*
X47818Y2191D01*
X47816Y2184D01*
X47820Y2178D01*
X47820Y2168D01*
X47817Y2133D01*
X47819Y2131D01*
X47817Y2126D01*
X47827Y2097D01*
X47830Y2066D01*
X47832Y2064D01*
X47832Y2063D01*
X47832Y1829D01*
X47836Y1824D01*
X47836Y1617D01*
X47856Y1597D01*
X47848Y1574D01*
X47831Y1551D01*
X47831Y1547D01*
X47830Y1546D01*
X47827Y1514D01*
X47817Y1485D01*
X47821Y1476D01*
X47822Y1457D01*
X47820Y1424D01*
X47817Y1420D01*
X47826Y1388D01*
X47828Y1359D01*
X47826Y1353D01*
X47834Y1338D01*
X47834Y1331D01*
X47832Y1328D01*
X47832Y1307D01*
X47823Y1288D01*
X47832Y1264D01*
X47832Y1167D01*
X47823Y1153D01*
X47832Y1124D01*
X47832Y1094D01*
X47834Y1091D01*
X47834Y861D01*
X47899Y797D01*
X48316Y797D01*
X48323Y796D01*
X48324Y792D01*
X48323Y791D01*
X48323Y749D01*
X48322Y719D01*
X2590Y719D01*
X2586Y740D01*
X2586Y855D01*
X2594Y867D01*
X2586Y898D01*
X2586Y931D01*
X2576Y941D01*
X2572Y955D01*
X2545Y972D01*
X2522Y995D01*
X2508Y995D01*
X2189Y1191D01*
X2508Y1392D01*
X2522Y1392D01*
X2545Y1416D01*
X2573Y1433D01*
X2576Y1447D01*
X2586Y1456D01*
X2586Y1489D01*
X2593Y1522D01*
X2586Y1533D01*
X2586Y1655D01*
X2593Y1688D01*
X2586Y1699D01*
X2586Y1711D01*
X2562Y1735D01*
X2556Y1745D01*
X2559Y1746D01*
X2569Y1768D01*
X2586Y1786D01*
X2586Y1808D01*
X2595Y1829D01*
X2586Y1852D01*
X2586Y1963D01*
X2595Y1986D01*
X2586Y2007D01*
X2586Y2029D01*
X2569Y2047D01*
X2559Y2069D01*
X2538Y2077D01*
X2522Y2093D01*
X2497Y2093D01*
X2301Y2170D01*
X2212Y2204D01*
X2171Y2220D01*
X2127Y2237D01*
X2113Y2243D01*
X2097Y2259D01*
X2097Y2259D01*
X2097Y2259D01*
X2072Y2259D01*
X2049Y2268D01*
X2049Y2268D01*
X2039Y2272D01*
X2001Y2287D01*
X1954Y2305D01*
X1781Y2372D01*
X1692Y2407D01*
X1663Y2418D01*
X1663Y2858D01*
X2459Y2858D01*
X2485Y2849D01*
X2503Y2858D01*
X2522Y2858D01*
X2522Y2858D01*
X2523Y2858D01*
X2542Y2877D01*
X2567Y2889D01*
X2573Y2908D01*
X2587Y2922D01*
X2587Y2949D01*
X2595Y2975D01*
X2587Y2993D01*
X2587Y3151D01*
X2523Y3215D01*
X2508Y3215D01*
X2544Y3276D01*
X2562Y3290D01*
X2565Y3314D01*
X2577Y3334D01*
X2571Y3357D01*
X2580Y3426D01*
X2586Y3432D01*
X2586Y3472D01*
X2591Y3508D01*
X2586Y3514D01*
X2586Y3978D01*
X2522Y4042D01*
X1391Y4042D01*
X1372Y4023D01*
X1368Y4026D01*
X1044Y4026D01*
X1043Y4026D01*
X1016Y4026D01*
X990Y4035D01*
X972Y4026D01*
X953Y4026D01*
X952Y4026D01*
X675Y4026D01*
X675Y4026D01*
X332Y4026D01*
X299Y3992D01*
X299Y8315D01*
X50611Y8315D01*
X50611Y4161D01*
X49765Y4161D01*
X49723Y4203D01*
X49495Y4203D01*
X49430Y4139D01*
X49430Y4034D01*
X48889Y4034D01*
X48889Y4097D01*
X48825Y4161D01*
X47900Y4161D01*
X47836Y4097D01*
X47836Y3863D01*
X47861Y3838D01*
X47860Y3836D01*
X47836Y3812D01*
X47836Y3800D01*
X47829Y3789D01*
X47836Y3756D01*
X47836Y3657D01*
X47829Y3624D01*
X47836Y3613D01*
X47836Y3600D01*
X47860Y3576D01*
X47862Y3574D01*
X47836Y3548D01*
X47836Y3314D01*
X47874Y3276D01*
X47868Y3270D01*
X47867Y3258D01*
X47856Y3252D01*
X47848Y3223D01*
X47832Y3197D01*
X47834Y3185D01*
X47827Y3179D01*
X47825Y3146D01*
X47816Y3114D01*
X47821Y3105D01*
X47818Y3102D01*
X47820Y3070D01*
X47820Y3057D01*
X47817Y3032D01*
X47821Y3026D01*
X47817Y3018D01*
X47827Y2986D01*
X47829Y2953D01*
X47836Y2948D01*
X47833Y2937D01*
X47849Y2911D01*
X47858Y2882D01*
X47868Y2877D01*
X47869Y2864D01*
X47891Y2845D01*
X47902Y2828D01*
X47897Y2822D01*
X47873Y2803D01*
X47872Y2796D01*
X47864Y2792D01*
X47854Y2765D01*
X47837Y2743D01*
X47838Y2735D01*
X47834Y2731D01*
X47831Y2699D01*
X47820Y2669D01*
X47821Y2666D01*
X47820Y2665D01*
X47823Y2631D01*
X47831Y2702D02*
X39169Y2702D01*
X39169Y2781D02*
X47860Y2781D01*
X47875Y2859D02*
X39169Y2859D01*
X39169Y2938D02*
X47833Y2938D01*
X47818Y3016D02*
X39169Y3016D01*
X39169Y3095D02*
X47818Y3095D01*
X47827Y3173D02*
X39169Y3173D01*
X39169Y3252D02*
X47857Y3252D01*
X47836Y3331D02*
X39169Y3331D01*
X39169Y3409D02*
X47836Y3409D01*
X47836Y3488D02*
X39169Y3488D01*
X39169Y3567D02*
X47854Y3567D01*
X47834Y3645D02*
X39169Y3645D01*
X39169Y3724D02*
X47836Y3724D01*
X47836Y3802D02*
X39169Y3802D01*
X39169Y3881D02*
X47836Y3881D01*
X47836Y3959D02*
X39169Y3959D01*
X39169Y4038D02*
X47836Y4038D01*
X47855Y4117D02*
X39169Y4117D01*
X39169Y4195D02*
X49486Y4195D01*
X49430Y4117D02*
X48869Y4117D01*
X48889Y4038D02*
X49430Y4038D01*
X49731Y4195D02*
X50611Y4195D01*
X50611Y4274D02*
X49706Y4274D01*
X49604Y4232D02*
X49887Y4349D01*
X50103Y4565D01*
X50220Y4848D01*
X50220Y4943D01*
X50220Y6059D01*
X50220Y6154D01*
X50103Y6437D01*
X49887Y6654D01*
X49604Y6771D01*
X49298Y6771D01*
X49015Y6654D01*
X48798Y6437D01*
X48681Y6154D01*
X48681Y5943D01*
X48681Y4943D01*
X48681Y4848D01*
X48798Y4565D01*
X49015Y4349D01*
X49298Y4232D01*
X49604Y4232D01*
X49891Y4352D02*
X50611Y4352D01*
X50611Y4431D02*
X49969Y4431D01*
X50048Y4510D02*
X50611Y4510D01*
X50611Y4588D02*
X50113Y4588D01*
X50145Y4667D02*
X50611Y4667D01*
X50611Y4745D02*
X50178Y4745D01*
X50210Y4824D02*
X50611Y4824D01*
X50611Y4903D02*
X50220Y4903D01*
X50220Y4981D02*
X50611Y4981D01*
X50611Y5060D02*
X50220Y5060D01*
X50220Y5138D02*
X50611Y5138D01*
X50611Y5217D02*
X50220Y5217D01*
X50220Y5296D02*
X50611Y5296D01*
X50611Y5374D02*
X50220Y5374D01*
X50220Y5453D02*
X50611Y5453D01*
X50611Y5531D02*
X50220Y5531D01*
X50220Y5610D02*
X50611Y5610D01*
X50611Y5688D02*
X50220Y5688D01*
X50220Y5767D02*
X50611Y5767D01*
X50611Y5846D02*
X50220Y5846D01*
X50220Y5924D02*
X50611Y5924D01*
X50611Y6003D02*
X50220Y6003D01*
X50220Y6081D02*
X50611Y6081D01*
X50611Y6160D02*
X50218Y6160D01*
X50186Y6239D02*
X50611Y6239D01*
X50611Y6317D02*
X50153Y6317D01*
X50121Y6396D02*
X50611Y6396D01*
X50611Y6474D02*
X50066Y6474D01*
X49988Y6553D02*
X50611Y6553D01*
X50611Y6631D02*
X49909Y6631D01*
X49751Y6710D02*
X50611Y6710D01*
X50611Y6789D02*
X299Y6789D01*
X299Y6710D02*
X1040Y6710D01*
X882Y6631D02*
X299Y6631D01*
X299Y6553D02*
X804Y6553D01*
X725Y6474D02*
X299Y6474D01*
X299Y6396D02*
X671Y6396D01*
X638Y6317D02*
X299Y6317D01*
X299Y6239D02*
X606Y6239D01*
X573Y6160D02*
X299Y6160D01*
X299Y6081D02*
X571Y6081D01*
X571Y6003D02*
X299Y6003D01*
X299Y5924D02*
X571Y5924D01*
X571Y5846D02*
X299Y5846D01*
X299Y5767D02*
X571Y5767D01*
X571Y5688D02*
X299Y5688D01*
X299Y5610D02*
X571Y5610D01*
X571Y5531D02*
X299Y5531D01*
X299Y5453D02*
X571Y5453D01*
X571Y5374D02*
X299Y5374D01*
X299Y5296D02*
X571Y5296D01*
X571Y5217D02*
X299Y5217D01*
X299Y5138D02*
X571Y5138D01*
X571Y5060D02*
X299Y5060D01*
X299Y4981D02*
X571Y4981D01*
X571Y4903D02*
X299Y4903D01*
X299Y4824D02*
X581Y4824D01*
X613Y4745D02*
X299Y4745D01*
X299Y4667D02*
X646Y4667D01*
X678Y4588D02*
X299Y4588D01*
X299Y4510D02*
X743Y4510D01*
X933Y4729D02*
X860Y4906D01*
X850Y5001D01*
X850Y6001D01*
X860Y6097D01*
X933Y6274D01*
X1051Y6391D01*
X1051Y6051D01*
X1082Y6019D01*
X1051Y5988D01*
X1051Y5864D01*
X1057Y5858D01*
X1051Y5851D01*
X1051Y5728D01*
X1051Y5634D01*
X1098Y5587D01*
X1185Y5500D01*
X1496Y5500D01*
X1542Y5547D01*
X1630Y5634D01*
X1630Y5851D01*
X1600Y5881D01*
X1630Y5910D01*
X1630Y6128D01*
X1583Y6174D01*
X1577Y6180D01*
X1630Y6233D01*
X1630Y6357D01*
X1554Y6433D01*
X1613Y6409D01*
X1748Y6274D01*
X1821Y6097D01*
X1830Y6001D01*
X1830Y5001D01*
X1821Y4906D01*
X1748Y4729D01*
X1630Y4611D01*
X1630Y4746D01*
X1600Y4776D01*
X1630Y4806D01*
X1630Y5023D01*
X1583Y5069D01*
X1577Y5076D01*
X1630Y5128D01*
X1630Y5252D01*
X1542Y5340D01*
X1350Y5340D01*
X1350Y5346D01*
X1262Y5433D01*
X1138Y5433D01*
X1051Y5346D01*
X1051Y4946D01*
X1082Y4914D01*
X1051Y4882D01*
X1051Y4759D01*
X1057Y4753D01*
X1051Y4746D01*
X1051Y4611D01*
X933Y4729D01*
X926Y4745D02*
X1051Y4745D01*
X1051Y4667D02*
X995Y4667D01*
X1051Y4824D02*
X894Y4824D01*
X861Y4903D02*
X1071Y4903D01*
X1051Y4981D02*
X852Y4981D01*
X850Y5060D02*
X1051Y5060D01*
X1051Y5138D02*
X850Y5138D01*
X850Y5217D02*
X1051Y5217D01*
X1051Y5296D02*
X850Y5296D01*
X850Y5374D02*
X1079Y5374D01*
X1321Y5374D02*
X1830Y5374D01*
X1830Y5453D02*
X850Y5453D01*
X850Y5531D02*
X1154Y5531D01*
X1075Y5610D02*
X850Y5610D01*
X850Y5688D02*
X1051Y5688D01*
X1051Y5767D02*
X850Y5767D01*
X850Y5846D02*
X1051Y5846D01*
X1051Y5924D02*
X850Y5924D01*
X851Y6003D02*
X1066Y6003D01*
X1051Y6081D02*
X858Y6081D01*
X886Y6160D02*
X1051Y6160D01*
X1051Y6239D02*
X919Y6239D01*
X977Y6317D02*
X1051Y6317D01*
X1350Y6445D02*
X1350Y6450D01*
X1318Y6482D01*
X1436Y6482D01*
X1526Y6445D01*
X1350Y6445D01*
X1326Y6474D02*
X1454Y6474D01*
X1591Y6396D02*
X1626Y6396D01*
X1630Y6317D02*
X1704Y6317D01*
X1762Y6239D02*
X1630Y6239D01*
X1597Y6160D02*
X1795Y6160D01*
X1823Y6081D02*
X1630Y6081D01*
X1630Y6003D02*
X1830Y6003D01*
X1830Y5924D02*
X1630Y5924D01*
X1630Y5846D02*
X1830Y5846D01*
X1830Y5767D02*
X1630Y5767D01*
X1630Y5688D02*
X1830Y5688D01*
X1830Y5610D02*
X1605Y5610D01*
X1527Y5531D02*
X1830Y5531D01*
X1830Y5296D02*
X1587Y5296D01*
X1630Y5217D02*
X1830Y5217D01*
X1830Y5138D02*
X1630Y5138D01*
X1593Y5060D02*
X1830Y5060D01*
X1829Y4981D02*
X1630Y4981D01*
X1630Y4903D02*
X1820Y4903D01*
X1787Y4824D02*
X1630Y4824D01*
X1630Y4745D02*
X1755Y4745D01*
X1686Y4667D02*
X1630Y4667D01*
X1859Y4431D02*
X10432Y4431D01*
X10445Y4352D02*
X1780Y4352D01*
X1596Y4274D02*
X10468Y4274D01*
X10509Y4195D02*
X299Y4195D01*
X299Y4274D02*
X1085Y4274D01*
X901Y4352D02*
X299Y4352D01*
X299Y4431D02*
X822Y4431D01*
X299Y4117D02*
X10605Y4117D01*
X11090Y4038D02*
X2526Y4038D01*
X2586Y3959D02*
X11090Y3959D01*
X10448Y3881D02*
X2586Y3881D01*
X2586Y3802D02*
X10448Y3802D01*
X10448Y3724D02*
X2586Y3724D01*
X2586Y3645D02*
X10466Y3645D01*
X11090Y3567D02*
X2586Y3567D01*
X2588Y3488D02*
X11090Y3488D01*
X11103Y3409D02*
X2578Y3409D01*
X2575Y3331D02*
X16852Y3331D01*
X16852Y3289D02*
X16854Y3287D01*
X16852Y3285D01*
X16852Y3069D01*
X16916Y3005D01*
X17138Y3005D01*
X16930Y2876D01*
X16916Y2876D01*
X16893Y2853D01*
X16865Y2836D01*
X16862Y2822D01*
X16852Y2812D01*
X16852Y2779D01*
X16845Y2748D01*
X16852Y2736D01*
X16852Y2582D01*
X16916Y2518D01*
X17764Y2518D01*
X17828Y2582D01*
X17828Y2798D01*
X17764Y2862D01*
X17541Y2862D01*
X17750Y2991D01*
X17764Y2991D01*
X17787Y3014D01*
X17815Y3032D01*
X17818Y3046D01*
X17828Y3055D01*
X17828Y3088D01*
X17835Y3120D01*
X17828Y3132D01*
X17828Y3207D01*
X17835Y3218D01*
X17828Y3252D01*
X17828Y3286D01*
X17826Y3287D01*
X17828Y3289D01*
X17828Y3512D01*
X17764Y3576D01*
X16916Y3576D01*
X16852Y3512D01*
X16852Y3289D01*
X16852Y3252D02*
X2530Y3252D01*
X2564Y3173D02*
X16852Y3173D01*
X16852Y3095D02*
X2587Y3095D01*
X2587Y3016D02*
X16904Y3016D01*
X17030Y2938D02*
X2587Y2938D01*
X2524Y2859D02*
X16899Y2859D01*
X16852Y2781D02*
X1663Y2781D01*
X1663Y2702D02*
X16852Y2702D01*
X16852Y2623D02*
X1663Y2623D01*
X1663Y2545D02*
X16889Y2545D01*
X17791Y2545D02*
X34630Y2545D01*
X34630Y2623D02*
X17828Y2623D01*
X17828Y2702D02*
X34630Y2702D01*
X34630Y2781D02*
X17828Y2781D01*
X17767Y2859D02*
X34630Y2859D01*
X34630Y2938D02*
X17663Y2938D01*
X17790Y3016D02*
X34630Y3016D01*
X34630Y3095D02*
X17829Y3095D01*
X17828Y3173D02*
X34630Y3173D01*
X34630Y3252D02*
X17828Y3252D01*
X17828Y3331D02*
X25017Y3331D01*
X24999Y3409D02*
X17828Y3409D01*
X17828Y3488D02*
X24999Y3488D01*
X24999Y3567D02*
X17773Y3567D01*
X16907Y3567D02*
X11423Y3567D01*
X11423Y3488D02*
X16852Y3488D01*
X16852Y3409D02*
X11409Y3409D01*
X17180Y4272D02*
X17195Y4180D01*
X17219Y4147D01*
X17262Y4128D01*
X17341Y4121D01*
X17419Y4128D01*
X17462Y4147D01*
X17486Y4180D01*
X17501Y4268D01*
X17501Y4284D01*
X17180Y4284D01*
X17180Y4272D01*
X17501Y4274D01*
X17489Y4195D02*
X17192Y4195D01*
X17811Y4117D02*
X24999Y4117D01*
X24998Y4038D02*
X17802Y4038D01*
X17748Y3959D02*
X24998Y3959D01*
X24998Y3881D02*
X17697Y3881D01*
X17828Y4195D02*
X24999Y4195D01*
X24994Y4274D02*
X17828Y4274D01*
X17828Y4352D02*
X24999Y4352D01*
X24999Y4431D02*
X17828Y4431D01*
X17828Y4510D02*
X25059Y4510D01*
X25200Y4588D02*
X17811Y4588D01*
X17500Y4667D02*
X25200Y4667D01*
X25057Y4745D02*
X17705Y4745D01*
X17828Y4824D02*
X24999Y4824D01*
X24999Y4903D02*
X17828Y4903D01*
X17828Y4981D02*
X24991Y4981D01*
X24999Y5060D02*
X17822Y5060D01*
X17686Y5138D02*
X24994Y5138D01*
X25003Y5217D02*
X17481Y5217D01*
X17491Y5296D02*
X17495Y5296D01*
X17189Y5329D02*
X17186Y5330D01*
X17186Y5637D01*
X17189Y5637D01*
X17189Y5329D01*
X17186Y5374D02*
X17189Y5374D01*
X17186Y5453D02*
X17189Y5453D01*
X17186Y5531D02*
X17189Y5531D01*
X17186Y5610D02*
X17189Y5610D01*
X16853Y5767D02*
X2110Y5767D01*
X2110Y5846D02*
X16853Y5846D01*
X16852Y5924D02*
X2110Y5924D01*
X2110Y6003D02*
X16852Y6003D01*
X16852Y6081D02*
X2110Y6081D01*
X2108Y6160D02*
X16882Y6160D01*
X17193Y6239D02*
X2075Y6239D01*
X2043Y6317D02*
X17193Y6317D01*
X17527Y6317D02*
X48748Y6317D01*
X48781Y6396D02*
X17828Y6396D01*
X17828Y6474D02*
X48835Y6474D01*
X49043Y6274D02*
X49161Y6391D01*
X49161Y6051D01*
X49193Y6019D01*
X49161Y5988D01*
X49161Y5864D01*
X49167Y5858D01*
X49161Y5851D01*
X49161Y5728D01*
X49161Y5634D01*
X49208Y5587D01*
X49295Y5500D01*
X49606Y5500D01*
X49653Y5547D01*
X49740Y5634D01*
X49740Y5851D01*
X49710Y5881D01*
X49740Y5910D01*
X49740Y6128D01*
X49693Y6174D01*
X49687Y6180D01*
X49740Y6233D01*
X49740Y6357D01*
X49664Y6433D01*
X49723Y6409D01*
X49858Y6274D01*
X49931Y6097D01*
X49941Y6001D01*
X49941Y5001D01*
X49931Y4906D01*
X49858Y4729D01*
X49740Y4611D01*
X49740Y4746D01*
X49710Y4776D01*
X49740Y4806D01*
X49740Y5023D01*
X49693Y5069D01*
X49687Y5076D01*
X49740Y5128D01*
X49740Y5252D01*
X49653Y5340D01*
X49460Y5340D01*
X49460Y5346D01*
X49372Y5433D01*
X49249Y5433D01*
X49161Y5346D01*
X49161Y4946D01*
X49193Y4914D01*
X49161Y4882D01*
X49161Y4759D01*
X49167Y4753D01*
X49161Y4746D01*
X49161Y4611D01*
X49043Y4729D01*
X48970Y4906D01*
X48961Y5001D01*
X48961Y5059D01*
X48961Y6001D01*
X48970Y6097D01*
X49043Y6274D01*
X49029Y6239D02*
X49161Y6239D01*
X49161Y6317D02*
X49087Y6317D01*
X48716Y6239D02*
X17527Y6239D01*
X17798Y6160D02*
X48683Y6160D01*
X48681Y6081D02*
X17828Y6081D01*
X17828Y6003D02*
X48681Y6003D01*
X48681Y5924D02*
X17828Y5924D01*
X17828Y5846D02*
X25451Y5846D01*
X25209Y5767D02*
X17828Y5767D01*
X17828Y5688D02*
X25106Y5688D01*
X25048Y5610D02*
X17828Y5610D01*
X17828Y5531D02*
X25010Y5531D01*
X24995Y5453D02*
X17828Y5453D01*
X17828Y5374D02*
X24979Y5374D01*
X24994Y5296D02*
X17828Y5296D01*
X16852Y6396D02*
X2010Y6396D01*
X1956Y6474D02*
X16852Y6474D01*
X16852Y6553D02*
X1877Y6553D01*
X1799Y6631D02*
X16877Y6631D01*
X17803Y6631D02*
X48992Y6631D01*
X48914Y6553D02*
X17828Y6553D01*
X11012Y5324D02*
X10935Y5333D01*
X10859Y5324D01*
X10802Y5299D01*
X10772Y5265D01*
X10759Y5214D01*
X10760Y5209D01*
X10764Y5195D01*
X10774Y5185D01*
X10774Y5160D01*
X10802Y5129D01*
X10859Y5104D01*
X10936Y5094D01*
X11012Y5104D01*
X11069Y5129D01*
X11097Y5159D01*
X11097Y5185D01*
X11107Y5195D01*
X11111Y5214D01*
X11099Y5265D01*
X11068Y5299D01*
X11012Y5324D01*
X11071Y5296D02*
X10799Y5296D01*
X10760Y5217D02*
X11110Y5217D01*
X11077Y5138D02*
X10793Y5138D01*
X2250Y3685D02*
X2250Y3671D01*
X2251Y3670D01*
X2251Y3530D01*
X2242Y3454D01*
X2227Y3426D01*
X2210Y3414D01*
X2169Y3408D01*
X2129Y3414D01*
X2111Y3426D01*
X2096Y3454D01*
X2088Y3530D01*
X2088Y3569D01*
X2088Y3569D01*
X2088Y3685D01*
X2250Y3685D01*
X2251Y3645D02*
X2088Y3645D01*
X2088Y3567D02*
X2251Y3567D01*
X2246Y3488D02*
X2092Y3488D01*
X2158Y3409D02*
X2181Y3409D01*
X1830Y3215D02*
X1794Y3276D01*
X1775Y3291D01*
X1772Y3314D01*
X1761Y3334D01*
X1767Y3357D01*
X1758Y3426D01*
X1753Y3432D01*
X1753Y3470D01*
X1748Y3508D01*
X1753Y3515D01*
X1753Y3671D01*
X1753Y3671D01*
X1753Y3685D01*
X1432Y3685D01*
X1432Y3618D01*
X1433Y3618D01*
X1432Y3595D01*
X1432Y3549D01*
X1434Y3547D01*
X1432Y3505D01*
X1431Y3470D01*
X1434Y3467D01*
X1427Y3427D01*
X1425Y3388D01*
X1423Y3386D01*
X1427Y3377D01*
X1415Y3346D01*
X1410Y3313D01*
X1399Y3305D01*
X1398Y3304D01*
X1399Y3280D01*
X1383Y3263D01*
X1374Y3242D01*
X1352Y3232D01*
X1300Y3178D01*
X1284Y3151D01*
X1269Y3147D01*
X1259Y3136D01*
X1227Y3135D01*
X1133Y3110D01*
X1105Y3095D01*
X1091Y3099D01*
X1076Y3095D01*
X1049Y3111D01*
X983Y3129D01*
X953Y3129D01*
X941Y3141D01*
X938Y3141D01*
X903Y3146D01*
X897Y3153D01*
X888Y3156D01*
X888Y3156D01*
X873Y3128D01*
X870Y3127D01*
X870Y3126D01*
X889Y3118D01*
X984Y3082D01*
X984Y3082D01*
X1005Y3074D01*
X1005Y3074D01*
X1007Y3073D01*
X1032Y3073D01*
X1048Y3057D01*
X1090Y3041D01*
X1090Y3041D01*
X1327Y2948D01*
X1327Y3151D01*
X1392Y3215D01*
X1830Y3215D01*
X1808Y3252D02*
X1378Y3252D01*
X1350Y3173D02*
X1297Y3173D01*
X1327Y3095D02*
X1106Y3095D01*
X1076Y3095D01*
X950Y3095D01*
X1153Y3016D02*
X1327Y3016D01*
X553Y2890D02*
X480Y2917D01*
X358Y2963D01*
X332Y2963D01*
X317Y2978D01*
X299Y2985D01*
X299Y2551D01*
X317Y2557D01*
X332Y2572D01*
X358Y2572D01*
X525Y2633D01*
X553Y2643D01*
X553Y2890D01*
X553Y2859D02*
X299Y2859D01*
X299Y2781D02*
X553Y2781D01*
X553Y2702D02*
X299Y2702D01*
X299Y2623D02*
X500Y2623D01*
X877Y2761D02*
X877Y2770D01*
X890Y2766D01*
X879Y2762D01*
X877Y2761D01*
X425Y2938D02*
X299Y2938D01*
X299Y3285D02*
X299Y3286D01*
X299Y3287D01*
X299Y3285D01*
X615Y3430D02*
X593Y3494D01*
X593Y3521D01*
X593Y3521D01*
X593Y3681D01*
X701Y3681D01*
X701Y3509D01*
X695Y3452D01*
X685Y3424D01*
X676Y3416D01*
X661Y3412D01*
X615Y3430D01*
X595Y3488D02*
X699Y3488D01*
X701Y3567D02*
X593Y3567D01*
X593Y3645D02*
X701Y3645D01*
X1025Y3645D02*
X1107Y3645D01*
X1107Y3681D02*
X1025Y3681D01*
X1025Y3585D01*
X1026Y3585D01*
X1026Y3553D01*
X1045Y3475D01*
X1060Y3459D01*
X1079Y3452D01*
X1094Y3455D01*
X1096Y3457D01*
X1104Y3482D01*
X1107Y3542D01*
X1107Y3681D01*
X1107Y3567D02*
X1026Y3567D01*
X1041Y3488D02*
X1104Y3488D01*
X1431Y3488D02*
X1750Y3488D01*
X1753Y3567D02*
X1432Y3567D01*
X1432Y3645D02*
X1753Y3645D01*
X1760Y3409D02*
X1426Y3409D01*
X1412Y3331D02*
X1763Y3331D01*
X1387Y4038D02*
X299Y4038D01*
X1090Y2485D02*
X1163Y2513D01*
X1205Y2530D01*
X1248Y2546D01*
X1327Y2578D01*
X1327Y2435D01*
X1327Y2435D01*
X1327Y2410D01*
X1318Y2387D01*
X1327Y2366D01*
X1327Y2308D01*
X1299Y2345D01*
X1292Y2370D01*
X1273Y2380D01*
X1260Y2397D01*
X1234Y2401D01*
X1115Y2465D01*
X1103Y2482D01*
X1088Y2484D01*
X1090Y2484D01*
X1090Y2485D01*
X1114Y2466D02*
X1327Y2466D01*
X1327Y2545D02*
X1243Y2545D01*
X1663Y2466D02*
X34630Y2466D01*
X34630Y2388D02*
X1742Y2388D01*
X1943Y2309D02*
X34669Y2309D01*
X39130Y2309D02*
X47834Y2309D01*
X47834Y2388D02*
X39169Y2388D01*
X39169Y2466D02*
X47834Y2466D01*
X47827Y2545D02*
X39169Y2545D01*
X34630Y3331D02*
X25956Y3331D01*
X25974Y3409D02*
X34630Y3409D01*
X34630Y3488D02*
X25974Y3488D01*
X25973Y3567D02*
X34630Y3567D01*
X39169Y4274D02*
X49195Y4274D01*
X49011Y4352D02*
X39169Y4352D01*
X39169Y4431D02*
X48932Y4431D01*
X48854Y4510D02*
X39169Y4510D01*
X39169Y4588D02*
X48789Y4588D01*
X48756Y4667D02*
X39169Y4667D01*
X39169Y4745D02*
X48724Y4745D01*
X48691Y4824D02*
X39169Y4824D01*
X39169Y4903D02*
X48681Y4903D01*
X48681Y4981D02*
X39169Y4981D01*
X39169Y5060D02*
X48681Y5060D01*
X48681Y5138D02*
X39169Y5138D01*
X39169Y5217D02*
X48681Y5217D01*
X48681Y5296D02*
X39169Y5296D01*
X39169Y5374D02*
X48681Y5374D01*
X48681Y5453D02*
X39169Y5453D01*
X39169Y5531D02*
X48681Y5531D01*
X48681Y5610D02*
X39169Y5610D01*
X39169Y5688D02*
X48681Y5688D01*
X48681Y5767D02*
X39169Y5767D01*
X39095Y5846D02*
X48681Y5846D01*
X48961Y5846D02*
X49161Y5846D01*
X49161Y5767D02*
X48961Y5767D01*
X48961Y5688D02*
X49161Y5688D01*
X49185Y5610D02*
X48961Y5610D01*
X48961Y5531D02*
X49264Y5531D01*
X48961Y5453D02*
X49941Y5453D01*
X49941Y5531D02*
X49637Y5531D01*
X49716Y5610D02*
X49941Y5610D01*
X49941Y5688D02*
X49740Y5688D01*
X49740Y5767D02*
X49941Y5767D01*
X49941Y5846D02*
X49740Y5846D01*
X49740Y5924D02*
X49941Y5924D01*
X49941Y6003D02*
X49740Y6003D01*
X49740Y6081D02*
X49933Y6081D01*
X49905Y6160D02*
X49708Y6160D01*
X49740Y6239D02*
X49873Y6239D01*
X49814Y6317D02*
X49740Y6317D01*
X49736Y6396D02*
X49701Y6396D01*
X49636Y6445D02*
X49460Y6445D01*
X49460Y6450D01*
X49428Y6482D01*
X49546Y6482D01*
X49636Y6445D01*
X49565Y6474D02*
X49436Y6474D01*
X49151Y6710D02*
X1641Y6710D01*
X299Y6867D02*
X50611Y6867D01*
X50611Y6946D02*
X299Y6946D01*
X299Y7025D02*
X50611Y7025D01*
X50611Y7103D02*
X299Y7103D01*
X299Y7182D02*
X50611Y7182D01*
X50611Y7260D02*
X299Y7260D01*
X299Y7339D02*
X50611Y7339D01*
X50611Y7417D02*
X299Y7417D01*
X299Y7496D02*
X50611Y7496D01*
X50611Y7575D02*
X299Y7575D01*
X299Y7653D02*
X50611Y7653D01*
X50611Y7732D02*
X299Y7732D01*
X299Y7810D02*
X50611Y7810D01*
X50611Y7889D02*
X299Y7889D01*
X299Y7968D02*
X50611Y7968D01*
X50611Y8046D02*
X299Y8046D01*
X299Y8125D02*
X50611Y8125D01*
X50611Y8203D02*
X299Y8203D01*
X299Y8282D02*
X50611Y8282D01*
X49161Y6160D02*
X48996Y6160D01*
X48969Y6081D02*
X49161Y6081D01*
X49176Y6003D02*
X48961Y6003D01*
X48961Y5924D02*
X49161Y5924D01*
X49190Y5374D02*
X48961Y5374D01*
X48961Y5296D02*
X49161Y5296D01*
X49161Y5217D02*
X48961Y5217D01*
X48961Y5138D02*
X49161Y5138D01*
X49161Y5060D02*
X48961Y5060D01*
X48963Y4981D02*
X49161Y4981D01*
X49181Y4903D02*
X48971Y4903D01*
X49004Y4824D02*
X49161Y4824D01*
X49161Y4745D02*
X49037Y4745D01*
X49106Y4667D02*
X49161Y4667D01*
X49740Y4667D02*
X49796Y4667D01*
X49740Y4745D02*
X49865Y4745D01*
X49897Y4824D02*
X49740Y4824D01*
X49740Y4903D02*
X49930Y4903D01*
X49939Y4981D02*
X49740Y4981D01*
X49703Y5060D02*
X49941Y5060D01*
X49941Y5138D02*
X49740Y5138D01*
X49740Y5217D02*
X49941Y5217D01*
X49941Y5296D02*
X49697Y5296D01*
X49941Y5374D02*
X49431Y5374D01*
X50568Y3705D02*
X50588Y3709D01*
X50611Y3709D01*
X50611Y3701D01*
X50588Y3701D01*
X50568Y3705D01*
X49664Y3284D02*
X49660Y3275D01*
X49649Y3262D01*
X49646Y3260D01*
X49645Y3257D01*
X49640Y3252D01*
X49641Y3242D01*
X49637Y3226D01*
X49634Y3219D01*
X49628Y3214D01*
X49628Y3206D01*
X49623Y3195D01*
X49626Y3186D01*
X49625Y3178D01*
X49622Y3166D01*
X49617Y3160D01*
X49618Y3149D01*
X49616Y3142D01*
X49618Y3140D01*
X49577Y3140D01*
X49577Y3142D01*
X49581Y3159D01*
X49588Y3171D01*
X49591Y3174D01*
X49591Y3178D01*
X49596Y3187D01*
X49593Y3198D01*
X49594Y3210D01*
X49597Y3222D01*
X49602Y3228D01*
X49601Y3239D01*
X49603Y3246D01*
X49600Y3251D01*
X49599Y3264D01*
X49602Y3299D01*
X49601Y3299D01*
X49631Y3299D01*
X49634Y3296D01*
X49652Y3296D01*
X49664Y3284D01*
X49641Y3252D02*
X49600Y3252D01*
X49591Y3173D02*
X49624Y3173D01*
X50456Y3052D02*
X50483Y3080D01*
X50483Y3250D01*
X50611Y3250D01*
X50611Y2396D01*
X50454Y2396D01*
X50457Y2404D01*
X50472Y2425D01*
X50474Y2426D01*
X50474Y2427D01*
X50477Y2431D01*
X50476Y2436D01*
X50481Y2460D01*
X50490Y2480D01*
X50492Y2482D01*
X50492Y2485D01*
X50495Y2491D01*
X50493Y2497D01*
X50494Y2519D01*
X50500Y2544D01*
X50502Y2546D01*
X50501Y2549D01*
X50503Y2555D01*
X50501Y2557D01*
X50499Y2583D01*
X50501Y2619D01*
X50502Y2620D01*
X50493Y2655D01*
X50490Y2686D01*
X50491Y2688D01*
X50490Y2689D01*
X50490Y2690D01*
X50489Y2691D01*
X50475Y2719D01*
X50469Y2745D01*
X50469Y2748D01*
X50467Y2751D01*
X50466Y2753D01*
X50464Y2754D01*
X50457Y2764D01*
X50480Y2787D01*
X50480Y3028D01*
X50456Y3052D01*
X50480Y3016D02*
X50611Y3016D01*
X50611Y2938D02*
X50480Y2938D01*
X50480Y2859D02*
X50611Y2859D01*
X50611Y2781D02*
X50474Y2781D01*
X50484Y2702D02*
X50611Y2702D01*
X50611Y2623D02*
X50501Y2623D01*
X50501Y2545D02*
X50611Y2545D01*
X50611Y2466D02*
X50484Y2466D01*
X49675Y2374D02*
X49633Y2332D01*
X49633Y2091D01*
X49682Y2042D01*
X49676Y2031D01*
X49655Y2011D01*
X49655Y2000D01*
X49648Y1996D01*
X49641Y1965D01*
X49626Y1939D01*
X49627Y1934D01*
X49627Y1933D01*
X49625Y1897D01*
X49617Y1862D01*
X49618Y1860D01*
X49621Y1828D01*
X49619Y1792D01*
X49618Y1790D01*
X49627Y1755D01*
X49629Y1719D01*
X49630Y1719D01*
X49629Y1715D01*
X49644Y1687D01*
X49652Y1656D01*
X49658Y1653D01*
X49657Y1645D01*
X49679Y1623D01*
X49693Y1596D01*
X49699Y1595D01*
X49700Y1589D01*
X49727Y1573D01*
X49748Y1550D01*
X49751Y1550D01*
X49751Y1549D01*
X49783Y1537D01*
X49813Y1519D01*
X49814Y1519D01*
X49847Y1513D01*
X49879Y1501D01*
X49884Y1503D01*
X49914Y1501D01*
X49952Y1494D01*
X49957Y1498D01*
X49983Y1498D01*
X50025Y1496D01*
X50027Y1498D01*
X50031Y1498D01*
X50061Y1528D01*
X50063Y1530D01*
X50069Y1525D01*
X50099Y1495D01*
X50103Y1495D01*
X50105Y1492D01*
X50148Y1495D01*
X50169Y1495D01*
X50176Y1490D01*
X50212Y1498D01*
X50241Y1500D01*
X50243Y1499D01*
X50246Y1500D01*
X50248Y1500D01*
X50250Y1502D01*
X50277Y1513D01*
X50303Y1518D01*
X50306Y1517D01*
X50311Y1520D01*
X50312Y1520D01*
X50313Y1521D01*
X50336Y1536D01*
X50368Y1548D01*
X50371Y1548D01*
X50393Y1571D01*
X50419Y1588D01*
X50420Y1592D01*
X50423Y1592D01*
X50439Y1620D01*
X50462Y1644D01*
X50462Y1647D01*
X50465Y1649D01*
X50474Y1679D01*
X50490Y1707D01*
X50489Y1709D01*
X50489Y1710D01*
X50492Y1744D01*
X50502Y1778D01*
X50502Y1778D01*
X50502Y1779D01*
X50499Y1814D01*
X50502Y1849D01*
X50501Y1851D01*
X50492Y1882D01*
X50489Y1917D01*
X50490Y1920D01*
X50475Y1949D01*
X50467Y1981D01*
X50462Y1984D01*
X50463Y1991D01*
X50442Y2014D01*
X50435Y2027D01*
X50611Y2027D01*
X50611Y719D01*
X48698Y719D01*
X48698Y738D01*
X48704Y747D01*
X48700Y771D01*
X48703Y792D01*
X48698Y798D01*
X48698Y818D01*
X48696Y821D01*
X48699Y832D01*
X48686Y855D01*
X48683Y869D01*
X48683Y912D01*
X48683Y958D01*
X48683Y1102D01*
X48639Y1146D01*
X48648Y1166D01*
X48667Y1189D01*
X48667Y1192D01*
X48668Y1193D01*
X48675Y1226D01*
X48689Y1256D01*
X48688Y1258D01*
X48690Y1294D01*
X48698Y1329D01*
X48697Y1331D01*
X48701Y1336D01*
X48699Y1366D01*
X48705Y1396D01*
X48699Y1405D01*
X48695Y1428D01*
X48693Y1442D01*
X48697Y1450D01*
X48692Y1462D01*
X48692Y1467D01*
X48689Y1469D01*
X48684Y1483D01*
X48680Y1503D01*
X48681Y1509D01*
X48678Y1514D01*
X48677Y1518D01*
X48674Y1520D01*
X48663Y1537D01*
X48656Y1553D01*
X48825Y1553D01*
X48889Y1617D01*
X48889Y1728D01*
X48918Y1726D01*
X48920Y1729D01*
X49522Y1729D01*
X49586Y1793D01*
X49586Y2003D01*
X49588Y2005D01*
X49587Y2017D01*
X49589Y2025D01*
X49592Y2028D01*
X49600Y2036D01*
X49600Y2057D01*
X49607Y2075D01*
X49604Y2084D01*
X49608Y2098D01*
X49602Y2107D01*
X49603Y2109D01*
X49601Y2115D01*
X49603Y2125D01*
X49597Y2133D01*
X49595Y2143D01*
X49598Y2152D01*
X49594Y2163D01*
X49593Y2178D01*
X49584Y2186D01*
X49584Y2187D01*
X49587Y2201D01*
X49578Y2213D01*
X49576Y2222D01*
X49568Y2227D01*
X49568Y2228D01*
X49566Y2232D01*
X49566Y2243D01*
X49559Y2249D01*
X49556Y2258D01*
X49545Y2263D01*
X49541Y2266D01*
X49522Y2294D01*
X49519Y2295D01*
X49518Y2299D01*
X49516Y2300D01*
X49522Y2308D01*
X49537Y2318D01*
X49542Y2320D01*
X49543Y2323D01*
X49548Y2326D01*
X49549Y2334D01*
X49557Y2349D01*
X49569Y2362D01*
X49575Y2366D01*
X49576Y2371D01*
X49579Y2374D01*
X49579Y2380D01*
X49583Y2397D01*
X49589Y2409D01*
X49592Y2412D01*
X49593Y2416D01*
X49598Y2425D01*
X49595Y2436D01*
X49596Y2448D01*
X49599Y2463D01*
X49605Y2470D01*
X49603Y2480D01*
X49605Y2484D01*
X49602Y2487D01*
X49600Y2503D01*
X49603Y2537D01*
X49600Y2540D01*
X49603Y2547D01*
X49591Y2576D01*
X49587Y2606D01*
X49586Y2607D01*
X49586Y2616D01*
X49593Y2627D01*
X49586Y2660D01*
X49586Y2771D01*
X49648Y2771D01*
X49648Y2771D01*
X49642Y2763D01*
X49642Y2759D01*
X49641Y2758D01*
X49634Y2726D01*
X49621Y2696D01*
X49623Y2690D01*
X49622Y2660D01*
X49614Y2623D01*
X49616Y2621D01*
X49618Y2587D01*
X49617Y2572D01*
X49615Y2568D01*
X49616Y2559D01*
X49616Y2548D01*
X49619Y2545D01*
X49622Y2530D01*
X49623Y2513D01*
X49620Y2507D01*
X49624Y2494D01*
X49624Y2491D01*
X49626Y2489D01*
X49632Y2473D01*
X49637Y2447D01*
X49635Y2440D01*
X49653Y2414D01*
X49664Y2384D01*
X49664Y2384D01*
X49675Y2374D01*
X49663Y2388D02*
X49580Y2388D01*
X49602Y2466D02*
X49633Y2466D01*
X49619Y2545D02*
X49602Y2545D01*
X49591Y2623D02*
X49614Y2623D01*
X49624Y2702D02*
X49586Y2702D01*
X48738Y2702D02*
X48693Y2702D01*
X48690Y2731D01*
X48684Y2736D01*
X48685Y2743D01*
X48667Y2767D01*
X48656Y2795D01*
X48649Y2798D01*
X48648Y2805D01*
X48624Y2823D01*
X48620Y2829D01*
X48626Y2838D01*
X48647Y2856D01*
X48648Y2870D01*
X48660Y2877D01*
X48669Y2906D01*
X48685Y2931D01*
X48682Y2943D01*
X48689Y2949D01*
X48691Y2982D01*
X48701Y3015D01*
X48696Y3024D01*
X48701Y3030D01*
X48700Y3043D01*
X48701Y3044D01*
X48698Y3074D01*
X48700Y3101D01*
X48697Y3104D01*
X48697Y3107D01*
X48701Y3115D01*
X48690Y3147D01*
X48687Y3180D01*
X48680Y3185D01*
X48683Y3196D01*
X48666Y3221D01*
X48656Y3250D01*
X48733Y3250D01*
X48733Y2835D01*
X48738Y2831D01*
X48738Y2748D01*
X48738Y2612D01*
X48702Y2612D01*
X48700Y2631D01*
X48704Y2664D01*
X48702Y2667D01*
X48704Y2674D01*
X48693Y2701D01*
X48701Y2623D02*
X48738Y2623D01*
X48738Y2781D02*
X48661Y2781D01*
X48647Y2859D02*
X48733Y2859D01*
X48733Y2938D02*
X48683Y2938D01*
X48700Y3016D02*
X48733Y3016D01*
X48733Y3095D02*
X48699Y3095D01*
X48688Y3173D02*
X48733Y3173D01*
X50483Y3173D02*
X50611Y3173D01*
X50611Y3095D02*
X50483Y3095D01*
X49633Y2309D02*
X49524Y2309D01*
X49567Y2230D02*
X49633Y2230D01*
X49633Y2152D02*
X49598Y2152D01*
X49606Y2073D02*
X49651Y2073D01*
X49586Y1995D02*
X49648Y1995D01*
X49626Y1916D02*
X49586Y1916D01*
X49586Y1837D02*
X49620Y1837D01*
X49626Y1759D02*
X49552Y1759D01*
X49646Y1680D02*
X48889Y1680D01*
X48873Y1602D02*
X49690Y1602D01*
X49806Y1523D02*
X48672Y1523D01*
X48694Y1445D02*
X50611Y1445D01*
X50611Y1366D02*
X48699Y1366D01*
X48690Y1287D02*
X50611Y1287D01*
X50611Y1209D02*
X48672Y1209D01*
X48655Y1130D02*
X50611Y1130D01*
X50611Y1051D02*
X48683Y1051D01*
X48683Y973D02*
X50611Y973D01*
X50611Y894D02*
X48683Y894D01*
X48698Y816D02*
X50611Y816D01*
X50611Y737D02*
X48698Y737D01*
X48323Y737D02*
X2587Y737D01*
X2586Y816D02*
X47880Y816D01*
X47834Y894D02*
X2587Y894D01*
X2544Y973D02*
X47834Y973D01*
X47834Y1051D02*
X2415Y1051D01*
X2287Y1130D02*
X47830Y1130D01*
X47832Y1209D02*
X2217Y1209D01*
X2342Y1287D02*
X47823Y1287D01*
X47828Y1366D02*
X2467Y1366D01*
X2576Y1445D02*
X47821Y1445D01*
X47828Y1523D02*
X2592Y1523D01*
X2586Y1602D02*
X47851Y1602D01*
X47836Y1680D02*
X2591Y1680D01*
X2564Y1759D02*
X47836Y1759D01*
X47832Y1837D02*
X2592Y1837D01*
X2586Y1916D02*
X47832Y1916D01*
X47832Y1995D02*
X2591Y1995D01*
X2548Y2073D02*
X47830Y2073D01*
X47819Y2152D02*
X2347Y2152D01*
X2145Y2230D02*
X47825Y2230D01*
X50459Y1995D02*
X50611Y1995D01*
X50611Y1916D02*
X50489Y1916D01*
X50501Y1837D02*
X50611Y1837D01*
X50611Y1759D02*
X50496Y1759D01*
X50474Y1680D02*
X50611Y1680D01*
X50611Y1602D02*
X50429Y1602D01*
X50316Y1523D02*
X50611Y1523D01*
X50071Y1523D02*
X50056Y1523D01*
X36663Y4588D02*
X36539Y4588D01*
X36233Y4588D02*
X36171Y4588D01*
X36992Y4981D02*
X37213Y4981D01*
X25664Y5369D02*
X25659Y5338D01*
X25647Y5312D01*
X25631Y5298D01*
X25616Y5292D01*
X25616Y5409D01*
X25552Y5473D01*
X25384Y5473D01*
X25410Y5485D01*
X25487Y5494D01*
X25563Y5485D01*
X25620Y5460D01*
X25650Y5426D01*
X25664Y5369D01*
X25662Y5374D02*
X25616Y5374D01*
X25616Y5296D02*
X25625Y5296D01*
X25626Y5453D02*
X25572Y5453D01*
X2162Y1591D02*
X2132Y1572D01*
X2145Y1584D01*
X2162Y1591D01*
X2127Y1568D02*
X2072Y1532D01*
X1918Y1432D01*
X1830Y1374D01*
X1606Y1374D01*
X1607Y1375D01*
X1608Y1374D01*
X1650Y1391D01*
X1692Y1407D01*
X1824Y1459D01*
X1954Y1510D01*
X1954Y1510D01*
X1997Y1526D01*
X2039Y1543D01*
X2081Y1560D01*
X2082Y1559D01*
X2105Y1568D01*
X2127Y1568D01*
X2058Y1523D02*
X1988Y1523D01*
X1938Y1445D02*
X1787Y1445D01*
X1327Y1252D02*
X1327Y1080D01*
X1392Y1016D01*
X1830Y1016D01*
X1995Y910D01*
X2226Y760D01*
X2289Y719D01*
X1432Y719D01*
X1433Y762D01*
X1432Y763D01*
X1432Y881D01*
X1432Y926D01*
X1432Y927D01*
X1432Y927D01*
X1400Y959D01*
X1314Y1046D01*
X1133Y1230D01*
X1112Y1252D01*
X1327Y1252D01*
X1327Y1209D02*
X1154Y1209D01*
X1232Y1130D02*
X1327Y1130D01*
X1309Y1051D02*
X1356Y1051D01*
X1386Y973D02*
X1897Y973D01*
X2018Y894D02*
X1432Y894D01*
X1432Y816D02*
X2140Y816D01*
X2261Y737D02*
X1432Y737D01*
X1171Y719D02*
X584Y719D01*
X591Y725D01*
X619Y745D01*
X687Y795D01*
X688Y796D01*
X760Y849D01*
X842Y909D01*
X928Y972D01*
X958Y942D01*
X1148Y743D01*
X1171Y719D01*
X1154Y737D02*
X608Y737D01*
X715Y816D02*
X1078Y816D01*
X1003Y894D02*
X822Y894D01*
X510Y1091D02*
X342Y971D01*
X332Y971D01*
X306Y946D01*
X299Y941D01*
X299Y1285D01*
X332Y1252D01*
X661Y1252D01*
X671Y1241D01*
X683Y1227D01*
X690Y1220D01*
X617Y1168D01*
X510Y1091D01*
X564Y1130D02*
X299Y1130D01*
X299Y1051D02*
X454Y1051D01*
X344Y973D02*
X299Y973D01*
X299Y1209D02*
X674Y1209D01*
X843Y1596D02*
X928Y1596D01*
X929Y1598D01*
X929Y1678D01*
X920Y1701D01*
X929Y1722D01*
X929Y1744D01*
X947Y1761D01*
X957Y1784D01*
X977Y1792D01*
X993Y1808D01*
X1018Y1808D01*
X1067Y1827D01*
X1092Y1851D01*
X1127Y1968D01*
X1107Y2058D01*
X1055Y2119D01*
X969Y2160D01*
X856Y2174D01*
X734Y2159D01*
X646Y2119D01*
X594Y2058D01*
X572Y1961D01*
X585Y1894D01*
X616Y1849D01*
X668Y1816D01*
X746Y1799D01*
X779Y1799D01*
X789Y1789D01*
X802Y1786D01*
X820Y1758D01*
X843Y1735D01*
X843Y1721D01*
X850Y1710D01*
X843Y1678D01*
X843Y1596D01*
X843Y1602D02*
X929Y1602D01*
X928Y1680D02*
X844Y1680D01*
X819Y1759D02*
X944Y1759D01*
X1078Y1837D02*
X634Y1837D01*
X581Y1916D02*
X1111Y1916D01*
X1121Y1995D02*
X580Y1995D01*
X607Y2073D02*
X1094Y2073D01*
X985Y2152D02*
X718Y2152D01*
X305Y2236D02*
X299Y2232D01*
X299Y2239D01*
X305Y2236D01*
X1267Y2388D02*
X1319Y2388D01*
X1327Y2309D02*
X1327Y2309D01*
X1422Y2137D02*
X1597Y2071D01*
X1640Y2056D01*
X1640Y1769D01*
X1513Y1722D01*
X1417Y1688D01*
X1391Y1688D01*
X1376Y1673D01*
X1375Y1672D01*
X1375Y1675D01*
X1412Y1750D01*
X1428Y1762D01*
X1431Y1789D01*
X1444Y1814D01*
X1438Y1832D01*
X1450Y1922D01*
X1462Y1939D01*
X1456Y1965D01*
X1460Y1992D01*
X1448Y2008D01*
X1422Y2137D01*
X1434Y2073D02*
X1593Y2073D01*
X1640Y1995D02*
X1458Y1995D01*
X1449Y1916D02*
X1640Y1916D01*
X1640Y1837D02*
X1438Y1837D01*
X1424Y1759D02*
X1614Y1759D01*
X1384Y1680D02*
X1378Y1680D01*
X1327Y1608D02*
X1327Y1603D01*
X1324Y1596D01*
X1311Y1596D01*
X1324Y1607D01*
X1327Y1608D01*
X1327Y1602D02*
X1317Y1602D01*
X382Y1596D02*
X332Y1596D01*
X299Y1563D01*
X299Y1739D01*
X352Y1648D01*
X357Y1622D01*
X374Y1610D01*
X382Y1596D01*
X379Y1602D02*
X299Y1602D01*
X299Y1680D02*
X333Y1680D01*
X1976Y1890D02*
X1976Y1931D01*
X1992Y1925D01*
X2007Y1911D01*
X1992Y1896D01*
X1992Y1896D01*
X1976Y1890D01*
X1976Y1916D02*
X2001Y1916D01*
D14*
X30679Y4520D03*
D15*
X1434Y2386D03*
D16*
X10988Y4525D03*
D17*
X17348Y4679D03*
D18*
X25514Y4662D03*
D19*
X34123Y1892D02*
X39589Y1892D01*
X39589Y6197D01*
X34123Y6197D01*
X34123Y1892D01*
D20*
X49184Y2522D03*
M02*
