G75*
%MOIN*%
%OFA0B0*%
%FSLAX25Y25*%
%IPPOS*%
%LPD*%
%AMOC8*
5,1,8,0,0,1.08239X$1,22.5*
%
%ADD10C,0.00300*%
%ADD11C,0.00200*%
%ADD12C,0.00600*%
%ADD13C,0.00500*%
%ADD14C,0.00900*%
%ADD15C,0.00400*%
D10*
X0069068Y0011950D02*
X0069068Y0014419D01*
X0070302Y0015653D01*
X0071537Y0014419D01*
X0071537Y0011950D01*
X0072751Y0012567D02*
X0073368Y0011950D01*
X0074602Y0011950D01*
X0075220Y0012567D01*
X0074602Y0013802D02*
X0073368Y0013802D01*
X0072751Y0013184D01*
X0072751Y0012567D01*
X0071537Y0013802D02*
X0069068Y0013802D01*
X0072751Y0015036D02*
X0073368Y0015653D01*
X0074602Y0015653D01*
X0075220Y0015036D01*
X0075220Y0014419D01*
X0074602Y0013802D01*
X0076434Y0013802D02*
X0078903Y0013802D01*
X0080117Y0015036D02*
X0080117Y0015653D01*
X0080117Y0015036D02*
X0081352Y0013802D01*
X0081352Y0011950D01*
X0083800Y0012567D02*
X0084418Y0011950D01*
X0086269Y0011950D01*
X0086269Y0015653D01*
X0084418Y0015653D01*
X0083800Y0015036D01*
X0083800Y0014419D01*
X0084418Y0013802D01*
X0086269Y0013802D01*
X0087483Y0013802D02*
X0089952Y0013802D01*
X0091167Y0015036D02*
X0091784Y0015653D01*
X0093018Y0015653D01*
X0093635Y0015036D01*
X0093635Y0012567D01*
X0093018Y0011950D01*
X0091784Y0011950D01*
X0091167Y0012567D01*
X0094850Y0012567D02*
X0095467Y0011950D01*
X0096701Y0011950D01*
X0097319Y0012567D01*
X0097319Y0015036D01*
X0096701Y0015653D01*
X0095467Y0015653D01*
X0094850Y0015036D01*
X0103450Y0015653D02*
X0104685Y0014419D01*
X0103450Y0015653D02*
X0103450Y0011950D01*
X0102216Y0011950D02*
X0104685Y0011950D01*
X0109582Y0014419D02*
X0110817Y0011950D01*
X0112051Y0014419D01*
X0113266Y0013802D02*
X0113883Y0014419D01*
X0115117Y0014419D01*
X0115734Y0013802D01*
X0115734Y0012567D01*
X0115117Y0011950D01*
X0113883Y0011950D01*
X0113266Y0013184D02*
X0115734Y0013184D01*
X0116949Y0013802D02*
X0117566Y0013184D01*
X0119417Y0013184D01*
X0118183Y0013184D02*
X0116949Y0011950D01*
X0119417Y0011950D02*
X0119417Y0015653D01*
X0117566Y0015653D01*
X0116949Y0015036D01*
X0116949Y0013802D01*
X0113266Y0013802D02*
X0113266Y0013184D01*
X0124315Y0013184D02*
X0124315Y0012567D01*
X0124932Y0011950D01*
X0126784Y0011950D01*
X0126784Y0015653D01*
X0124932Y0015653D01*
X0124315Y0015036D01*
X0124315Y0014419D01*
X0124932Y0013802D01*
X0126784Y0013802D01*
X0127998Y0015036D02*
X0128615Y0015653D01*
X0129850Y0015653D01*
X0130467Y0015036D01*
X0130467Y0012567D01*
X0129850Y0011950D01*
X0128615Y0011950D01*
X0127998Y0012567D01*
X0124932Y0013802D02*
X0124315Y0013184D01*
X0131681Y0013802D02*
X0132298Y0013184D01*
X0134150Y0013184D01*
X0134150Y0011950D02*
X0134150Y0015653D01*
X0132298Y0015653D01*
X0131681Y0015036D01*
X0131681Y0013802D01*
X0129232Y0016716D02*
X0128615Y0016716D01*
X0127998Y0017333D01*
X0127998Y0020419D01*
X0130467Y0020419D02*
X0130467Y0018567D01*
X0129850Y0017950D01*
X0127998Y0017950D01*
X0131681Y0018567D02*
X0132298Y0017950D01*
X0134150Y0017950D01*
X0134150Y0021653D01*
X0132298Y0021653D01*
X0131681Y0021036D01*
X0131681Y0020419D01*
X0132298Y0019802D01*
X0134150Y0019802D01*
X0132298Y0019802D02*
X0131681Y0019184D01*
X0131681Y0018567D01*
X0121866Y0017950D02*
X0121866Y0021653D01*
X0120632Y0021653D02*
X0123101Y0021653D01*
X0119411Y0022716D02*
X0118794Y0022716D01*
X0118176Y0023333D01*
X0118176Y0026419D01*
X0120028Y0026419D01*
X0120645Y0025802D01*
X0120645Y0024567D01*
X0120028Y0023950D01*
X0118176Y0023950D01*
X0116962Y0023950D02*
X0116962Y0026419D01*
X0115110Y0026419D01*
X0114493Y0025802D01*
X0114493Y0023950D01*
X0113279Y0024567D02*
X0113279Y0025802D01*
X0112662Y0026419D01*
X0111427Y0026419D01*
X0110810Y0025802D01*
X0110810Y0025184D01*
X0113279Y0025184D01*
X0113279Y0024567D02*
X0112662Y0023950D01*
X0111427Y0023950D01*
X0109596Y0024567D02*
X0109596Y0025802D01*
X0108979Y0026419D01*
X0107127Y0026419D01*
X0107127Y0027653D02*
X0107127Y0023950D01*
X0108979Y0023950D01*
X0109596Y0024567D01*
X0102229Y0023950D02*
X0100995Y0023950D01*
X0101612Y0023950D02*
X0101612Y0026419D01*
X0102229Y0026419D01*
X0099774Y0026419D02*
X0097922Y0026419D01*
X0097305Y0025802D01*
X0097305Y0023950D01*
X0099774Y0023950D02*
X0099774Y0026419D01*
X0101612Y0027653D02*
X0101612Y0028270D01*
X0098540Y0028716D02*
X0097922Y0028716D01*
X0097305Y0029333D01*
X0097305Y0032419D01*
X0099157Y0032419D01*
X0099774Y0031802D01*
X0099774Y0030567D01*
X0099157Y0029950D01*
X0097305Y0029950D01*
X0100988Y0029950D02*
X0100988Y0031802D01*
X0101606Y0032419D01*
X0103457Y0032419D01*
X0103457Y0029950D01*
X0104678Y0029950D02*
X0105913Y0029950D01*
X0105295Y0029950D02*
X0105295Y0032419D01*
X0105913Y0032419D01*
X0107127Y0031802D02*
X0107127Y0029950D01*
X0109596Y0029950D02*
X0109596Y0033653D01*
X0109596Y0034716D02*
X0109596Y0038419D01*
X0107744Y0038419D01*
X0107127Y0037802D01*
X0107127Y0036567D01*
X0107744Y0035950D01*
X0109596Y0035950D01*
X0110810Y0036567D02*
X0110810Y0037802D01*
X0111427Y0038419D01*
X0112662Y0038419D01*
X0113279Y0037802D01*
X0113279Y0036567D01*
X0112662Y0035950D01*
X0111427Y0035950D01*
X0110810Y0036567D01*
X0114500Y0035950D02*
X0115117Y0036567D01*
X0115117Y0039036D01*
X0115734Y0038419D02*
X0114500Y0038419D01*
X0116949Y0037802D02*
X0116949Y0037184D01*
X0119417Y0037184D01*
X0119417Y0036567D02*
X0119417Y0037802D01*
X0118800Y0038419D01*
X0117566Y0038419D01*
X0116949Y0037802D01*
X0118800Y0035950D02*
X0119417Y0036567D01*
X0118800Y0035950D02*
X0117566Y0035950D01*
X0120632Y0035950D02*
X0120632Y0037802D01*
X0121249Y0038419D01*
X0123101Y0038419D01*
X0123101Y0035950D01*
X0124315Y0035950D02*
X0126167Y0035950D01*
X0126784Y0036567D01*
X0126784Y0037802D01*
X0126167Y0038419D01*
X0124315Y0038419D01*
X0124315Y0035333D01*
X0124932Y0034716D01*
X0125549Y0034716D01*
X0127998Y0035950D02*
X0129850Y0035950D01*
X0130467Y0036567D01*
X0129850Y0037184D01*
X0127998Y0037184D01*
X0127998Y0037802D02*
X0127998Y0035950D01*
X0131681Y0035950D02*
X0131681Y0039653D01*
X0132916Y0038419D01*
X0134150Y0039653D01*
X0134150Y0035950D01*
X0134150Y0033653D02*
X0132916Y0032419D01*
X0131681Y0033653D01*
X0131681Y0029950D01*
X0130467Y0030567D02*
X0129850Y0029950D01*
X0127998Y0029950D01*
X0127998Y0032419D01*
X0126784Y0031802D02*
X0126167Y0032419D01*
X0124315Y0032419D01*
X0123101Y0032419D02*
X0122483Y0032419D01*
X0122483Y0029950D01*
X0121866Y0029950D02*
X0123101Y0029950D01*
X0124315Y0030567D02*
X0124932Y0031184D01*
X0126167Y0031184D01*
X0126784Y0031802D01*
X0124932Y0029950D02*
X0124315Y0030567D01*
X0124932Y0029950D02*
X0126784Y0029950D01*
X0130467Y0030567D02*
X0130467Y0032419D01*
X0134150Y0033653D02*
X0134150Y0029950D01*
X0134150Y0027653D02*
X0132298Y0027653D01*
X0131681Y0027036D01*
X0131681Y0024567D01*
X0132298Y0023950D01*
X0134150Y0023950D01*
X0134150Y0027653D01*
X0130467Y0025802D02*
X0129850Y0026419D01*
X0128615Y0026419D01*
X0127998Y0025802D01*
X0127998Y0025184D01*
X0130467Y0025184D01*
X0130467Y0024567D02*
X0130467Y0025802D01*
X0126784Y0025802D02*
X0126167Y0025184D01*
X0124932Y0025184D01*
X0124315Y0024567D01*
X0124932Y0023950D01*
X0126784Y0023950D01*
X0128615Y0023950D02*
X0129850Y0023950D01*
X0130467Y0024567D01*
X0126784Y0025802D02*
X0126167Y0026419D01*
X0124315Y0026419D01*
X0123101Y0026419D02*
X0122483Y0026419D01*
X0122483Y0023950D01*
X0121866Y0023950D02*
X0123101Y0023950D01*
X0108368Y0021653D02*
X0108368Y0017950D01*
X0107134Y0019184D01*
X0105899Y0017950D01*
X0105899Y0021653D01*
X0104685Y0021653D02*
X0104685Y0017950D01*
X0102216Y0017950D02*
X0102216Y0019802D01*
X0102833Y0020419D01*
X0104068Y0020419D01*
X0104685Y0019802D01*
X0101002Y0020419D02*
X0100385Y0020419D01*
X0100385Y0017950D01*
X0101002Y0017950D02*
X0099767Y0017950D01*
X0097929Y0018567D02*
X0097312Y0017950D01*
X0097929Y0018567D02*
X0097929Y0021036D01*
X0098546Y0020419D02*
X0097312Y0020419D01*
X0096091Y0020419D02*
X0096091Y0018567D01*
X0095474Y0017950D01*
X0094856Y0018567D01*
X0094239Y0017950D01*
X0093622Y0018567D01*
X0093622Y0020419D01*
X0092408Y0019802D02*
X0091791Y0020419D01*
X0090556Y0020419D01*
X0089939Y0019802D01*
X0089939Y0019184D01*
X0092408Y0019184D01*
X0092408Y0018567D02*
X0092408Y0019802D01*
X0092408Y0018567D02*
X0091791Y0017950D01*
X0090556Y0017950D01*
X0088725Y0017950D02*
X0087490Y0017950D01*
X0088107Y0017950D02*
X0088107Y0021653D01*
X0088725Y0021653D01*
X0086269Y0021653D02*
X0085652Y0021653D01*
X0085652Y0017950D01*
X0086269Y0017950D02*
X0085035Y0017950D01*
X0080131Y0017950D02*
X0080131Y0021653D01*
X0078896Y0020419D01*
X0077662Y0021653D01*
X0077662Y0017950D01*
X0076447Y0018567D02*
X0075830Y0019184D01*
X0073979Y0019184D01*
X0073979Y0019802D02*
X0073979Y0017950D01*
X0075830Y0017950D01*
X0076447Y0018567D01*
X0074596Y0020419D02*
X0073979Y0019802D01*
X0074596Y0020419D02*
X0075830Y0020419D01*
X0072764Y0020419D02*
X0072764Y0018567D01*
X0072147Y0017950D01*
X0070295Y0017950D01*
X0070295Y0017333D02*
X0070913Y0016716D01*
X0071530Y0016716D01*
X0070295Y0017333D02*
X0070295Y0020419D01*
X0061715Y0021036D02*
X0061098Y0021653D01*
X0059863Y0021653D01*
X0059246Y0021036D01*
X0059246Y0020419D01*
X0061715Y0017950D01*
X0059246Y0017950D01*
X0058032Y0018567D02*
X0057415Y0017950D01*
X0056180Y0017950D01*
X0055563Y0018567D01*
X0055563Y0021036D01*
X0058032Y0018567D01*
X0058032Y0021036D01*
X0057415Y0021653D01*
X0056180Y0021653D01*
X0055563Y0021036D01*
X0054349Y0020419D02*
X0053114Y0021653D01*
X0053114Y0017950D01*
X0051880Y0017950D02*
X0054349Y0017950D01*
X0050665Y0018567D02*
X0050048Y0017950D01*
X0048814Y0017950D01*
X0048197Y0018567D01*
X0048197Y0019184D01*
X0048814Y0019802D01*
X0050665Y0019802D01*
X0050665Y0018567D01*
X0050665Y0019802D02*
X0049431Y0021036D01*
X0048197Y0021653D01*
X0048200Y0023950D02*
X0047583Y0024567D01*
X0047583Y0025802D01*
X0048200Y0026419D01*
X0049434Y0026419D01*
X0050052Y0025802D01*
X0050052Y0024567D01*
X0049434Y0023950D01*
X0048200Y0023950D01*
X0046368Y0023950D02*
X0046368Y0026419D01*
X0044517Y0026419D01*
X0043900Y0025802D01*
X0043900Y0023950D01*
X0042685Y0024567D02*
X0042685Y0025802D01*
X0042068Y0026419D01*
X0040216Y0026419D01*
X0039002Y0025802D02*
X0039002Y0024567D01*
X0038385Y0023950D01*
X0037151Y0023950D01*
X0036533Y0024567D01*
X0036533Y0025802D01*
X0037151Y0026419D01*
X0038385Y0026419D01*
X0039002Y0025802D01*
X0035319Y0026419D02*
X0033467Y0026419D01*
X0032850Y0025802D01*
X0032850Y0023950D01*
X0035319Y0023950D02*
X0035319Y0026419D01*
X0040216Y0027653D02*
X0040216Y0023950D01*
X0042068Y0023950D01*
X0042685Y0024567D01*
X0051266Y0023950D02*
X0053735Y0023950D01*
X0053735Y0027653D01*
X0061712Y0027653D02*
X0061712Y0023950D01*
X0062329Y0023950D02*
X0061094Y0023950D01*
X0059873Y0022716D02*
X0058639Y0023950D01*
X0059256Y0023950D01*
X0059256Y0024567D01*
X0058639Y0024567D01*
X0058639Y0023950D01*
X0063550Y0023950D02*
X0064784Y0023950D01*
X0064167Y0023950D02*
X0064167Y0027653D01*
X0064784Y0027653D01*
X0066622Y0027653D02*
X0066622Y0028270D01*
X0068454Y0027653D02*
X0068454Y0023950D01*
X0067240Y0023950D02*
X0066005Y0023950D01*
X0066622Y0023950D02*
X0066622Y0026419D01*
X0067240Y0026419D01*
X0068454Y0025802D02*
X0070923Y0025802D01*
X0075820Y0025802D02*
X0075820Y0025184D01*
X0078289Y0025184D01*
X0078289Y0024567D02*
X0078289Y0025802D01*
X0077672Y0026419D01*
X0076437Y0026419D01*
X0075820Y0025802D01*
X0079503Y0025802D02*
X0079503Y0023950D01*
X0078289Y0024567D02*
X0077672Y0023950D01*
X0076437Y0023950D01*
X0070923Y0023950D02*
X0070923Y0027653D01*
X0071537Y0029950D02*
X0071537Y0032419D01*
X0071537Y0031184D02*
X0070302Y0032419D01*
X0069685Y0032419D01*
X0072751Y0031802D02*
X0072751Y0029950D01*
X0074603Y0029950D01*
X0075220Y0030567D01*
X0074603Y0031184D01*
X0072751Y0031184D01*
X0072751Y0031802D02*
X0073368Y0032419D01*
X0074603Y0032419D01*
X0077058Y0033653D02*
X0077058Y0029950D01*
X0077675Y0029950D02*
X0076441Y0029950D01*
X0078889Y0029950D02*
X0078889Y0032419D01*
X0077675Y0033653D02*
X0077058Y0033653D01*
X0081358Y0032419D02*
X0081358Y0030567D01*
X0080741Y0029950D01*
X0078889Y0029950D01*
X0082573Y0029950D02*
X0084424Y0029950D01*
X0085041Y0030567D01*
X0085041Y0031802D01*
X0084424Y0032419D01*
X0082573Y0032419D01*
X0082573Y0033653D02*
X0082573Y0029950D01*
X0086256Y0030567D02*
X0086256Y0031802D01*
X0086873Y0032419D01*
X0088107Y0032419D01*
X0088725Y0031802D01*
X0088725Y0030567D01*
X0088107Y0029950D01*
X0086873Y0029950D01*
X0086256Y0030567D01*
X0089939Y0029950D02*
X0089939Y0033653D01*
X0091173Y0032419D01*
X0092408Y0033653D01*
X0092408Y0029950D01*
X0092408Y0027653D02*
X0092408Y0023950D01*
X0089939Y0023950D02*
X0089939Y0027653D01*
X0089939Y0025802D02*
X0092408Y0025802D01*
X0088725Y0025802D02*
X0088107Y0026419D01*
X0086873Y0026419D01*
X0086256Y0025802D01*
X0086256Y0025184D01*
X0088725Y0025184D01*
X0088725Y0024567D02*
X0088725Y0025802D01*
X0085041Y0026419D02*
X0085041Y0023950D01*
X0085041Y0025184D02*
X0083807Y0026419D01*
X0083190Y0026419D01*
X0081972Y0026419D02*
X0080121Y0026419D01*
X0079503Y0025802D01*
X0081972Y0026419D02*
X0081972Y0023950D01*
X0086873Y0023950D02*
X0088107Y0023950D01*
X0088725Y0024567D01*
X0100385Y0022270D02*
X0100385Y0021653D01*
X0113266Y0019802D02*
X0113266Y0017950D01*
X0114500Y0017950D02*
X0114500Y0019802D01*
X0113883Y0020419D01*
X0113266Y0019802D01*
X0114500Y0019802D02*
X0115117Y0020419D01*
X0115734Y0020419D01*
X0115734Y0017950D01*
X0116949Y0018567D02*
X0117566Y0017950D01*
X0118800Y0017950D01*
X0119417Y0018567D01*
X0119417Y0019802D01*
X0118800Y0020419D01*
X0117566Y0020419D01*
X0116949Y0019802D01*
X0116949Y0018567D01*
X0084418Y0013802D02*
X0083800Y0013184D01*
X0083800Y0012567D01*
X0081352Y0013802D02*
X0082586Y0015036D01*
X0082586Y0015653D01*
X0062329Y0027653D02*
X0061712Y0027653D01*
X0096077Y0035950D02*
X0096077Y0037802D01*
X0096695Y0038419D01*
X0098546Y0038419D01*
X0098546Y0035950D01*
X0099761Y0036567D02*
X0100378Y0035950D01*
X0101612Y0035950D01*
X0102229Y0036567D01*
X0102229Y0037802D01*
X0101612Y0038419D01*
X0100378Y0038419D01*
X0099761Y0037802D01*
X0099761Y0036567D01*
X0103444Y0035950D02*
X0103444Y0037802D01*
X0104061Y0038419D01*
X0105295Y0038419D01*
X0105913Y0037802D01*
X0105913Y0039653D02*
X0105913Y0035950D01*
X0105295Y0034270D02*
X0105295Y0033653D01*
X0107127Y0031802D02*
X0107744Y0032419D01*
X0108979Y0032419D01*
X0109596Y0031802D01*
X0110810Y0033653D02*
X0113279Y0033653D01*
X0112044Y0033653D02*
X0112044Y0029950D01*
X0118176Y0029950D02*
X0120028Y0029950D01*
X0120645Y0030567D01*
X0120645Y0031802D01*
X0120028Y0032419D01*
X0118176Y0032419D01*
X0122483Y0033653D02*
X0122483Y0034270D01*
X0127998Y0037802D02*
X0128615Y0038419D01*
X0129850Y0038419D01*
X0122483Y0028270D02*
X0122483Y0027653D01*
X0419450Y0036950D02*
X0422653Y0036950D01*
X0422653Y0038551D01*
X0422119Y0039085D01*
X0421051Y0039085D01*
X0420518Y0038551D01*
X0420518Y0036950D01*
X0419984Y0040173D02*
X0419450Y0040707D01*
X0419450Y0041774D01*
X0419984Y0042308D01*
X0422119Y0042308D01*
X0422653Y0041774D01*
X0422653Y0040707D01*
X0422119Y0040173D01*
X0419984Y0040173D01*
X0419450Y0043395D02*
X0420518Y0044463D01*
X0419450Y0045531D01*
X0422653Y0045531D01*
X0422653Y0046618D02*
X0419450Y0046618D01*
X0419450Y0048753D01*
X0419450Y0049841D02*
X0422653Y0049841D01*
X0422653Y0051442D01*
X0422119Y0051976D01*
X0421051Y0051976D01*
X0420518Y0051442D01*
X0420518Y0049841D01*
X0420518Y0050909D02*
X0419450Y0051976D01*
X0422653Y0048753D02*
X0422653Y0046618D01*
X0421051Y0046618D02*
X0421051Y0047686D01*
X0419450Y0043395D02*
X0422653Y0043395D01*
D11*
X0198380Y0046970D02*
X0198380Y0049970D01*
X0195620Y0049970D01*
X0195620Y0046970D01*
X0198380Y0046970D01*
X0198380Y0047098D02*
X0195620Y0047098D01*
X0195620Y0047296D02*
X0198380Y0047296D01*
X0198380Y0047495D02*
X0195620Y0047495D01*
X0195620Y0047693D02*
X0198380Y0047693D01*
X0198380Y0047892D02*
X0195620Y0047892D01*
X0195620Y0048090D02*
X0198380Y0048090D01*
X0198380Y0048289D02*
X0195620Y0048289D01*
X0195620Y0048487D02*
X0198380Y0048487D01*
X0198380Y0048686D02*
X0195620Y0048686D01*
X0195620Y0048884D02*
X0198380Y0048884D01*
X0198380Y0049083D02*
X0195620Y0049083D01*
X0195620Y0049281D02*
X0198380Y0049281D01*
X0198380Y0049480D02*
X0195620Y0049480D01*
X0195620Y0049678D02*
X0198380Y0049678D01*
X0198380Y0049877D02*
X0195620Y0049877D01*
X0194060Y0049877D02*
X0181460Y0049877D01*
X0181460Y0049970D02*
X0181460Y0046970D01*
X0194060Y0046970D01*
X0194060Y0049970D01*
X0181460Y0049970D01*
X0181460Y0049678D02*
X0194060Y0049678D01*
X0194060Y0049480D02*
X0181460Y0049480D01*
X0181460Y0049281D02*
X0194060Y0049281D01*
X0194060Y0049083D02*
X0181460Y0049083D01*
X0181460Y0048884D02*
X0194060Y0048884D01*
X0194060Y0048686D02*
X0181460Y0048686D01*
X0181460Y0048487D02*
X0194060Y0048487D01*
X0194060Y0048289D02*
X0181460Y0048289D01*
X0181460Y0048090D02*
X0194060Y0048090D01*
X0194060Y0047892D02*
X0181460Y0047892D01*
X0181460Y0047693D02*
X0194060Y0047693D01*
X0194060Y0047495D02*
X0181460Y0047495D01*
X0181460Y0047296D02*
X0194060Y0047296D01*
X0194060Y0047098D02*
X0181460Y0047098D01*
X0175760Y0048800D02*
X0175100Y0048170D01*
X0174260Y0047690D01*
X0173270Y0047360D01*
X0172190Y0047180D01*
X0169940Y0047060D01*
X0168350Y0047120D01*
X0167000Y0047300D01*
X0165890Y0047570D01*
X0165050Y0047960D01*
X0164420Y0048470D01*
X0163970Y0049100D01*
X0163700Y0049820D01*
X0163610Y0050660D01*
X0163700Y0051260D01*
X0163700Y0051170D01*
X0163820Y0051050D01*
X0166250Y0051050D01*
X0166190Y0051350D01*
X0166250Y0051800D01*
X0166460Y0052160D01*
X0166790Y0052430D01*
X0167210Y0052640D01*
X0168350Y0052910D01*
X0169820Y0053000D01*
X0171770Y0052910D01*
X0173060Y0052670D01*
X0173480Y0052460D01*
X0173780Y0052190D01*
X0173960Y0051860D01*
X0174020Y0051440D01*
X0173960Y0051080D01*
X0176420Y0051080D01*
X0176390Y0051200D01*
X0176120Y0051860D01*
X0175580Y0052490D01*
X0174740Y0053000D01*
X0174740Y0053060D01*
X0176150Y0053060D01*
X0176150Y0055940D01*
X0164180Y0055940D01*
X0163040Y0055880D01*
X0162050Y0055670D01*
X0161210Y0055310D01*
X0160520Y0054830D01*
X0159980Y0054170D01*
X0159590Y0053330D01*
X0159350Y0052310D01*
X0159260Y0051080D01*
X0159320Y0050180D01*
X0159500Y0049400D01*
X0159770Y0048710D01*
X0160160Y0048140D01*
X0160640Y0047690D01*
X0161210Y0047360D01*
X0161870Y0047180D01*
X0162620Y0047120D01*
X0162620Y0050000D01*
X0162080Y0050120D01*
X0161660Y0050450D01*
X0161390Y0050930D01*
X0161300Y0051470D01*
X0161330Y0051890D01*
X0161450Y0052250D01*
X0161660Y0052550D01*
X0161930Y0052760D01*
X0162650Y0053030D01*
X0163520Y0053120D01*
X0165170Y0053120D01*
X0165170Y0053060D01*
X0164540Y0052550D01*
X0164060Y0051950D01*
X0163730Y0051260D01*
X0163700Y0051170D01*
X0166130Y0051170D01*
X0166160Y0051050D01*
X0166370Y0050720D01*
X0166670Y0050450D01*
X0167090Y0050270D01*
X0168140Y0050060D01*
X0169370Y0050000D01*
X0171500Y0050060D01*
X0172280Y0050150D01*
X0172880Y0050300D01*
X0173330Y0050510D01*
X0173630Y0050780D01*
X0173810Y0051140D01*
X0173810Y0051230D01*
X0176270Y0051230D01*
X0176360Y0050720D01*
X0176330Y0050150D01*
X0176210Y0049640D01*
X0176030Y0049190D01*
X0175760Y0048800D01*
X0175818Y0048884D02*
X0164124Y0048884D01*
X0164266Y0048686D02*
X0175640Y0048686D01*
X0175432Y0048487D02*
X0164408Y0048487D01*
X0164644Y0048289D02*
X0175225Y0048289D01*
X0174961Y0048090D02*
X0164889Y0048090D01*
X0165197Y0047892D02*
X0174613Y0047892D01*
X0174266Y0047693D02*
X0165624Y0047693D01*
X0166199Y0047495D02*
X0173674Y0047495D01*
X0172888Y0047296D02*
X0167028Y0047296D01*
X0168938Y0047098D02*
X0170649Y0047098D01*
X0172850Y0045680D02*
X0163490Y0045680D01*
X0163490Y0042680D01*
X0172190Y0042680D01*
X0173030Y0042590D01*
X0173570Y0042350D01*
X0173870Y0041960D01*
X0173960Y0041390D01*
X0173840Y0040700D01*
X0173690Y0040430D01*
X0173450Y0040220D01*
X0172790Y0039920D01*
X0171890Y0039830D01*
X0163550Y0039830D01*
X0163550Y0036830D01*
X0176150Y0036830D01*
X0176150Y0039710D01*
X0176060Y0039650D01*
X0174590Y0039650D01*
X0174590Y0039710D01*
X0175400Y0040250D01*
X0175970Y0040940D01*
X0176300Y0041750D01*
X0176420Y0042680D01*
X0176360Y0043370D01*
X0176210Y0043970D01*
X0175940Y0044480D01*
X0175580Y0044900D01*
X0175100Y0045230D01*
X0174470Y0045470D01*
X0173720Y0045620D01*
X0172850Y0045680D01*
X0174271Y0045510D02*
X0163490Y0045510D01*
X0163490Y0045311D02*
X0174887Y0045311D01*
X0175271Y0045113D02*
X0163490Y0045113D01*
X0163490Y0044914D02*
X0175559Y0044914D01*
X0175738Y0044716D02*
X0163490Y0044716D01*
X0163490Y0044517D02*
X0175908Y0044517D01*
X0176025Y0044319D02*
X0163490Y0044319D01*
X0163490Y0044120D02*
X0176131Y0044120D01*
X0176222Y0043922D02*
X0163490Y0043922D01*
X0163490Y0043723D02*
X0176272Y0043723D01*
X0176321Y0043525D02*
X0163490Y0043525D01*
X0163490Y0043326D02*
X0176364Y0043326D01*
X0176381Y0043128D02*
X0163490Y0043128D01*
X0163490Y0042929D02*
X0176398Y0042929D01*
X0176416Y0042731D02*
X0163490Y0042731D01*
X0162200Y0042650D02*
X0162170Y0042680D01*
X0162170Y0045680D01*
X0145490Y0045680D01*
X0145490Y0042800D01*
X0146840Y0042800D01*
X0146840Y0042770D01*
X0146090Y0042230D01*
X0145610Y0041630D01*
X0145370Y0041000D01*
X0147680Y0041000D01*
X0147680Y0041090D01*
X0147740Y0041540D01*
X0147950Y0041900D01*
X0148280Y0042170D01*
X0148730Y0042350D01*
X0150020Y0042560D01*
X0151820Y0042620D01*
X0153620Y0042560D01*
X0154910Y0042350D01*
X0155360Y0042170D01*
X0155690Y0041900D01*
X0155900Y0041540D01*
X0155960Y0041090D01*
X0155960Y0041000D01*
X0158300Y0041000D01*
X0158060Y0041540D01*
X0157580Y0042110D01*
X0156920Y0042620D01*
X0156920Y0042650D01*
X0162200Y0042650D01*
X0162170Y0042731D02*
X0146785Y0042731D01*
X0146509Y0042532D02*
X0149848Y0042532D01*
X0148689Y0042334D02*
X0146234Y0042334D01*
X0146014Y0042135D02*
X0148237Y0042135D01*
X0147995Y0041937D02*
X0145855Y0041937D01*
X0145696Y0041738D02*
X0147855Y0041738D01*
X0147740Y0041539D02*
X0145576Y0041539D01*
X0145500Y0041341D02*
X0147713Y0041341D01*
X0147687Y0041142D02*
X0145424Y0041142D01*
X0145400Y0040970D02*
X0145340Y0040970D01*
X0147650Y0040970D01*
X0147710Y0040610D01*
X0147920Y0040250D01*
X0148250Y0039980D01*
X0148700Y0039800D01*
X0149990Y0039590D01*
X0151790Y0039530D01*
X0153590Y0039590D01*
X0154880Y0039800D01*
X0155330Y0039980D01*
X0155660Y0040250D01*
X0155870Y0040610D01*
X0155930Y0040970D01*
X0158270Y0040970D01*
X0158330Y0040850D01*
X0158420Y0040070D01*
X0158330Y0039200D01*
X0158030Y0038450D01*
X0157550Y0037820D01*
X0156860Y0037310D01*
X0155960Y0036920D01*
X0154820Y0036650D01*
X0153440Y0036500D01*
X0151820Y0036440D01*
X0150200Y0036500D01*
X0148820Y0036650D01*
X0147680Y0036920D01*
X0146780Y0037310D01*
X0146120Y0037820D01*
X0145640Y0038450D01*
X0145370Y0039200D01*
X0145280Y0040070D01*
X0145370Y0040910D01*
X0145400Y0040970D01*
X0145387Y0040944D02*
X0147654Y0040944D01*
X0147687Y0040745D02*
X0145352Y0040745D01*
X0145331Y0040547D02*
X0147747Y0040547D01*
X0147863Y0040348D02*
X0145310Y0040348D01*
X0145289Y0040150D02*
X0148042Y0040150D01*
X0148322Y0039951D02*
X0145292Y0039951D01*
X0145313Y0039753D02*
X0148989Y0039753D01*
X0151059Y0039554D02*
X0145333Y0039554D01*
X0145354Y0039356D02*
X0158346Y0039356D01*
X0158367Y0039554D02*
X0152521Y0039554D01*
X0154591Y0039753D02*
X0158387Y0039753D01*
X0158408Y0039951D02*
X0155258Y0039951D01*
X0155538Y0040150D02*
X0158411Y0040150D01*
X0158388Y0040348D02*
X0155717Y0040348D01*
X0155833Y0040547D02*
X0158365Y0040547D01*
X0158342Y0040745D02*
X0155893Y0040745D01*
X0155926Y0040944D02*
X0158283Y0040944D01*
X0158237Y0041142D02*
X0155953Y0041142D01*
X0155927Y0041341D02*
X0158148Y0041341D01*
X0158060Y0041539D02*
X0155900Y0041539D01*
X0155785Y0041738D02*
X0157893Y0041738D01*
X0157726Y0041937D02*
X0155645Y0041937D01*
X0155403Y0042135D02*
X0157548Y0042135D01*
X0157291Y0042334D02*
X0154951Y0042334D01*
X0153792Y0042532D02*
X0157034Y0042532D01*
X0162170Y0042929D02*
X0145490Y0042929D01*
X0145490Y0043128D02*
X0162170Y0043128D01*
X0162170Y0043326D02*
X0145490Y0043326D01*
X0145490Y0043525D02*
X0162170Y0043525D01*
X0162170Y0043723D02*
X0145490Y0043723D01*
X0145490Y0043922D02*
X0162170Y0043922D01*
X0162170Y0044120D02*
X0145490Y0044120D01*
X0145490Y0044319D02*
X0162170Y0044319D01*
X0162170Y0044517D02*
X0145490Y0044517D01*
X0145490Y0044716D02*
X0162170Y0044716D01*
X0162170Y0044914D02*
X0145490Y0044914D01*
X0145490Y0045113D02*
X0162170Y0045113D01*
X0162170Y0045311D02*
X0145490Y0045311D01*
X0145490Y0045510D02*
X0162170Y0045510D01*
X0158090Y0046370D02*
X0158090Y0049370D01*
X0149390Y0049370D01*
X0148550Y0049460D01*
X0148010Y0049700D01*
X0147710Y0050090D01*
X0147620Y0050660D01*
X0147740Y0051350D01*
X0147890Y0051620D01*
X0148130Y0051830D01*
X0148790Y0052130D01*
X0149690Y0052220D01*
X0158030Y0052220D01*
X0158030Y0055220D01*
X0145430Y0055220D01*
X0145430Y0052340D01*
X0146900Y0052340D01*
X0146900Y0052280D01*
X0146960Y0052310D01*
X0146150Y0051770D01*
X0145610Y0051080D01*
X0145310Y0050270D01*
X0145220Y0049340D01*
X0145280Y0048680D01*
X0145430Y0048080D01*
X0145670Y0047570D01*
X0146030Y0047150D01*
X0146510Y0046820D01*
X0147110Y0046580D01*
X0147860Y0046430D01*
X0148730Y0046370D01*
X0158090Y0046370D01*
X0158090Y0046502D02*
X0147499Y0046502D01*
X0146808Y0046701D02*
X0158090Y0046701D01*
X0158090Y0046899D02*
X0146395Y0046899D01*
X0146106Y0047098D02*
X0158090Y0047098D01*
X0158090Y0047296D02*
X0145905Y0047296D01*
X0145734Y0047495D02*
X0158090Y0047495D01*
X0158090Y0047693D02*
X0145612Y0047693D01*
X0145519Y0047892D02*
X0158090Y0047892D01*
X0158090Y0048090D02*
X0145427Y0048090D01*
X0145378Y0048289D02*
X0158090Y0048289D01*
X0158090Y0048487D02*
X0145328Y0048487D01*
X0145279Y0048686D02*
X0158090Y0048686D01*
X0158090Y0048884D02*
X0145261Y0048884D01*
X0145243Y0049083D02*
X0158090Y0049083D01*
X0158090Y0049281D02*
X0145225Y0049281D01*
X0145234Y0049480D02*
X0148505Y0049480D01*
X0148059Y0049678D02*
X0145253Y0049678D01*
X0145272Y0049877D02*
X0147874Y0049877D01*
X0147721Y0050075D02*
X0145291Y0050075D01*
X0145311Y0050274D02*
X0147681Y0050274D01*
X0147650Y0050472D02*
X0145385Y0050472D01*
X0145459Y0050671D02*
X0147622Y0050671D01*
X0147656Y0050870D02*
X0145532Y0050870D01*
X0145606Y0051068D02*
X0147691Y0051068D01*
X0147725Y0051267D02*
X0145756Y0051267D01*
X0145911Y0051465D02*
X0147804Y0051465D01*
X0147940Y0051664D02*
X0146067Y0051664D01*
X0146288Y0051862D02*
X0148201Y0051862D01*
X0148637Y0052061D02*
X0146586Y0052061D01*
X0146884Y0052259D02*
X0158030Y0052259D01*
X0158030Y0052458D02*
X0145430Y0052458D01*
X0145430Y0052656D02*
X0158030Y0052656D01*
X0158030Y0052855D02*
X0145430Y0052855D01*
X0145430Y0053053D02*
X0158030Y0053053D01*
X0158030Y0053252D02*
X0145430Y0053252D01*
X0145430Y0053450D02*
X0158030Y0053450D01*
X0158030Y0053649D02*
X0145430Y0053649D01*
X0145430Y0053847D02*
X0158030Y0053847D01*
X0158030Y0054046D02*
X0145430Y0054046D01*
X0145430Y0054244D02*
X0158030Y0054244D01*
X0158030Y0054443D02*
X0145430Y0054443D01*
X0145430Y0054641D02*
X0158030Y0054641D01*
X0158030Y0054840D02*
X0145430Y0054840D01*
X0145430Y0055038D02*
X0158030Y0055038D01*
X0160041Y0054244D02*
X0176150Y0054244D01*
X0176150Y0054046D02*
X0159922Y0054046D01*
X0159830Y0053847D02*
X0176150Y0053847D01*
X0176150Y0053649D02*
X0159738Y0053649D01*
X0159646Y0053450D02*
X0176150Y0053450D01*
X0176150Y0053252D02*
X0159572Y0053252D01*
X0159525Y0053053D02*
X0162874Y0053053D01*
X0162182Y0052855D02*
X0159478Y0052855D01*
X0159431Y0052656D02*
X0161796Y0052656D01*
X0161595Y0052458D02*
X0159385Y0052458D01*
X0159346Y0052259D02*
X0161456Y0052259D01*
X0161387Y0052061D02*
X0159332Y0052061D01*
X0159317Y0051862D02*
X0161328Y0051862D01*
X0161314Y0051664D02*
X0159303Y0051664D01*
X0159288Y0051465D02*
X0161301Y0051465D01*
X0161334Y0051267D02*
X0159274Y0051267D01*
X0159261Y0051068D02*
X0161367Y0051068D01*
X0161424Y0050870D02*
X0159274Y0050870D01*
X0159287Y0050671D02*
X0161536Y0050671D01*
X0161647Y0050472D02*
X0159301Y0050472D01*
X0159314Y0050274D02*
X0161884Y0050274D01*
X0162280Y0050075D02*
X0159344Y0050075D01*
X0159390Y0049877D02*
X0162620Y0049877D01*
X0162620Y0049678D02*
X0159436Y0049678D01*
X0159482Y0049480D02*
X0162620Y0049480D01*
X0162620Y0049281D02*
X0159546Y0049281D01*
X0159624Y0049083D02*
X0162620Y0049083D01*
X0162620Y0048884D02*
X0159702Y0048884D01*
X0159787Y0048686D02*
X0162620Y0048686D01*
X0162620Y0048487D02*
X0159922Y0048487D01*
X0160058Y0048289D02*
X0162620Y0048289D01*
X0162620Y0048090D02*
X0160213Y0048090D01*
X0160425Y0047892D02*
X0162620Y0047892D01*
X0162620Y0047693D02*
X0160636Y0047693D01*
X0160977Y0047495D02*
X0162620Y0047495D01*
X0162620Y0047296D02*
X0161444Y0047296D01*
X0163982Y0049083D02*
X0175956Y0049083D01*
X0176067Y0049281D02*
X0163902Y0049281D01*
X0163828Y0049480D02*
X0176146Y0049480D01*
X0176219Y0049678D02*
X0163753Y0049678D01*
X0163694Y0049877D02*
X0176266Y0049877D01*
X0176312Y0050075D02*
X0171634Y0050075D01*
X0172776Y0050274D02*
X0176337Y0050274D01*
X0176347Y0050472D02*
X0173250Y0050472D01*
X0173509Y0050671D02*
X0176357Y0050671D01*
X0176334Y0050870D02*
X0173675Y0050870D01*
X0173774Y0051068D02*
X0176299Y0051068D01*
X0176363Y0051267D02*
X0173991Y0051267D01*
X0174016Y0051465D02*
X0176282Y0051465D01*
X0176200Y0051664D02*
X0173988Y0051664D01*
X0173959Y0051862D02*
X0176118Y0051862D01*
X0175948Y0052061D02*
X0173851Y0052061D01*
X0173703Y0052259D02*
X0175778Y0052259D01*
X0175608Y0052458D02*
X0173483Y0052458D01*
X0173088Y0052656D02*
X0175306Y0052656D01*
X0174979Y0052855D02*
X0172068Y0052855D01*
X0174740Y0053053D02*
X0165162Y0053053D01*
X0164916Y0052855D02*
X0168116Y0052855D01*
X0167278Y0052656D02*
X0164671Y0052656D01*
X0164466Y0052458D02*
X0166845Y0052458D01*
X0166581Y0052259D02*
X0164307Y0052259D01*
X0164148Y0052061D02*
X0166402Y0052061D01*
X0166286Y0051862D02*
X0164018Y0051862D01*
X0163923Y0051664D02*
X0166232Y0051664D01*
X0166205Y0051465D02*
X0163828Y0051465D01*
X0163733Y0051267D02*
X0166207Y0051267D01*
X0166246Y0051068D02*
X0163802Y0051068D01*
X0163671Y0051068D02*
X0166155Y0051068D01*
X0166275Y0050870D02*
X0163641Y0050870D01*
X0163612Y0050671D02*
X0166424Y0050671D01*
X0166645Y0050472D02*
X0163630Y0050472D01*
X0163651Y0050274D02*
X0167081Y0050274D01*
X0168063Y0050075D02*
X0163673Y0050075D01*
X0181490Y0054170D02*
X0181910Y0053390D01*
X0182540Y0052760D01*
X0183440Y0052280D01*
X0184580Y0051920D01*
X0186020Y0051710D01*
X0187760Y0051650D01*
X0189530Y0051740D01*
X0190970Y0052010D01*
X0192110Y0052430D01*
X0193010Y0053000D01*
X0193640Y0053690D01*
X0194060Y0054500D01*
X0194300Y0055430D01*
X0194390Y0056420D01*
X0194300Y0057410D01*
X0194060Y0058250D01*
X0193640Y0058970D01*
X0193070Y0059570D01*
X0192350Y0060020D01*
X0191510Y0060350D01*
X0190550Y0060560D01*
X0189500Y0060620D01*
X0189500Y0057740D01*
X0190400Y0057680D01*
X0190430Y0057650D01*
X0191240Y0057440D01*
X0191570Y0057260D01*
X0191840Y0057020D01*
X0192020Y0056720D01*
X0192080Y0056330D01*
X0192020Y0055820D01*
X0191810Y0055430D01*
X0191480Y0055130D01*
X0191030Y0054920D01*
X0189710Y0054680D01*
X0187790Y0054620D01*
X0185780Y0054680D01*
X0185030Y0054770D01*
X0184430Y0054920D01*
X0183980Y0055130D01*
X0183650Y0055400D01*
X0183470Y0055760D01*
X0183410Y0056210D01*
X0183440Y0056570D01*
X0183560Y0056870D01*
X0183770Y0057110D01*
X0184070Y0057320D01*
X0184970Y0057590D01*
X0186320Y0057680D01*
X0186320Y0060560D01*
X0185150Y0060500D01*
X0184130Y0060320D01*
X0183260Y0059990D01*
X0182540Y0059540D01*
X0181970Y0058940D01*
X0181550Y0058160D01*
X0181310Y0057230D01*
X0181220Y0056120D01*
X0181280Y0055070D01*
X0181490Y0054170D01*
X0181473Y0054244D02*
X0193927Y0054244D01*
X0193824Y0054046D02*
X0181557Y0054046D01*
X0181664Y0053847D02*
X0193721Y0053847D01*
X0193602Y0053649D02*
X0181771Y0053649D01*
X0181878Y0053450D02*
X0193421Y0053450D01*
X0193240Y0053252D02*
X0182048Y0053252D01*
X0182247Y0053053D02*
X0193059Y0053053D01*
X0192780Y0052855D02*
X0182445Y0052855D01*
X0182735Y0052656D02*
X0192467Y0052656D01*
X0192154Y0052458D02*
X0183107Y0052458D01*
X0183506Y0052259D02*
X0191646Y0052259D01*
X0191107Y0052061D02*
X0184135Y0052061D01*
X0184977Y0051862D02*
X0190181Y0051862D01*
X0188027Y0051664D02*
X0187367Y0051664D01*
X0187079Y0054641D02*
X0181380Y0054641D01*
X0181426Y0054443D02*
X0194030Y0054443D01*
X0194096Y0054641D02*
X0188469Y0054641D01*
X0190589Y0054840D02*
X0194148Y0054840D01*
X0194199Y0055038D02*
X0191283Y0055038D01*
X0191597Y0055237D02*
X0194250Y0055237D01*
X0194300Y0055435D02*
X0191813Y0055435D01*
X0191920Y0055634D02*
X0194319Y0055634D01*
X0194337Y0055832D02*
X0192021Y0055832D01*
X0192045Y0056031D02*
X0194355Y0056031D01*
X0194373Y0056229D02*
X0192068Y0056229D01*
X0192065Y0056428D02*
X0194389Y0056428D01*
X0194371Y0056626D02*
X0192034Y0056626D01*
X0191957Y0056825D02*
X0194353Y0056825D01*
X0194335Y0057023D02*
X0191836Y0057023D01*
X0191613Y0057222D02*
X0194317Y0057222D01*
X0194297Y0057420D02*
X0191276Y0057420D01*
X0190550Y0057619D02*
X0194240Y0057619D01*
X0194184Y0057817D02*
X0189500Y0057817D01*
X0189500Y0058016D02*
X0194127Y0058016D01*
X0194070Y0058214D02*
X0189500Y0058214D01*
X0189500Y0058413D02*
X0193965Y0058413D01*
X0193849Y0058611D02*
X0189500Y0058611D01*
X0189500Y0058810D02*
X0193733Y0058810D01*
X0193603Y0059008D02*
X0189500Y0059008D01*
X0189500Y0059207D02*
X0193415Y0059207D01*
X0193226Y0059405D02*
X0189500Y0059405D01*
X0189500Y0059604D02*
X0193016Y0059604D01*
X0192698Y0059803D02*
X0189500Y0059803D01*
X0189500Y0060001D02*
X0192380Y0060001D01*
X0191893Y0060200D02*
X0189500Y0060200D01*
X0189500Y0060398D02*
X0191290Y0060398D01*
X0189910Y0060597D02*
X0189500Y0060597D01*
X0186320Y0060398D02*
X0184572Y0060398D01*
X0183812Y0060200D02*
X0186320Y0060200D01*
X0186320Y0060001D02*
X0183289Y0060001D01*
X0182960Y0059803D02*
X0186320Y0059803D01*
X0186320Y0059604D02*
X0182642Y0059604D01*
X0182412Y0059405D02*
X0186320Y0059405D01*
X0186320Y0059207D02*
X0182224Y0059207D01*
X0182035Y0059008D02*
X0186320Y0059008D01*
X0186320Y0058810D02*
X0181900Y0058810D01*
X0181793Y0058611D02*
X0186320Y0058611D01*
X0186320Y0058413D02*
X0181686Y0058413D01*
X0181579Y0058214D02*
X0186320Y0058214D01*
X0186320Y0058016D02*
X0181513Y0058016D01*
X0181462Y0057817D02*
X0186320Y0057817D01*
X0185404Y0057619D02*
X0181410Y0057619D01*
X0181359Y0057420D02*
X0184405Y0057420D01*
X0183930Y0057222D02*
X0181309Y0057222D01*
X0181293Y0057023D02*
X0183694Y0057023D01*
X0183542Y0056825D02*
X0181277Y0056825D01*
X0181261Y0056626D02*
X0183463Y0056626D01*
X0183428Y0056428D02*
X0181245Y0056428D01*
X0181229Y0056229D02*
X0183412Y0056229D01*
X0183434Y0056031D02*
X0181225Y0056031D01*
X0181236Y0055832D02*
X0183460Y0055832D01*
X0183533Y0055634D02*
X0181248Y0055634D01*
X0181259Y0055435D02*
X0183632Y0055435D01*
X0183850Y0055237D02*
X0181270Y0055237D01*
X0181287Y0055038D02*
X0184177Y0055038D01*
X0184751Y0054840D02*
X0181334Y0054840D01*
X0176150Y0054840D02*
X0160534Y0054840D01*
X0160366Y0054641D02*
X0176150Y0054641D01*
X0176150Y0054443D02*
X0160203Y0054443D01*
X0160819Y0055038D02*
X0176150Y0055038D01*
X0176150Y0055237D02*
X0161105Y0055237D01*
X0161502Y0055435D02*
X0176150Y0055435D01*
X0176150Y0055634D02*
X0161965Y0055634D01*
X0162200Y0056450D02*
X0162200Y0059450D01*
X0145520Y0059450D01*
X0145520Y0056450D01*
X0162200Y0056450D01*
X0162200Y0056626D02*
X0145520Y0056626D01*
X0145520Y0056825D02*
X0162200Y0056825D01*
X0162200Y0057023D02*
X0145520Y0057023D01*
X0145520Y0057222D02*
X0162200Y0057222D01*
X0162200Y0057420D02*
X0145520Y0057420D01*
X0145520Y0057619D02*
X0162200Y0057619D01*
X0162200Y0057817D02*
X0145520Y0057817D01*
X0145520Y0058016D02*
X0162200Y0058016D01*
X0162200Y0058214D02*
X0145520Y0058214D01*
X0145520Y0058413D02*
X0162200Y0058413D01*
X0162200Y0058611D02*
X0145520Y0058611D01*
X0145520Y0058810D02*
X0162200Y0058810D01*
X0162200Y0059008D02*
X0145520Y0059008D01*
X0145520Y0059207D02*
X0162200Y0059207D01*
X0162200Y0059405D02*
X0145520Y0059405D01*
X0146349Y0061391D02*
X0151333Y0061391D01*
X0151400Y0061430D02*
X0150890Y0061130D01*
X0150290Y0060920D01*
X0149570Y0060800D01*
X0148730Y0060770D01*
X0147470Y0060920D01*
X0146870Y0061130D01*
X0146330Y0061400D01*
X0145880Y0061790D01*
X0145520Y0062270D01*
X0145310Y0062870D01*
X0145250Y0063590D01*
X0145310Y0064580D01*
X0145520Y0065330D01*
X0145520Y0065300D01*
X0147470Y0065300D01*
X0147380Y0064730D01*
X0147500Y0064220D01*
X0147890Y0063860D01*
X0148460Y0063680D01*
X0149120Y0063620D01*
X0149870Y0063710D01*
X0150440Y0064010D01*
X0150860Y0064520D01*
X0151130Y0065300D01*
X0153140Y0065300D01*
X0152690Y0063710D01*
X0152150Y0062360D01*
X0151820Y0061850D01*
X0151400Y0061430D01*
X0151559Y0061589D02*
X0146112Y0061589D01*
X0145883Y0061788D02*
X0151758Y0061788D01*
X0151908Y0061986D02*
X0145733Y0061986D01*
X0145584Y0062185D02*
X0152037Y0062185D01*
X0152159Y0062383D02*
X0145480Y0062383D01*
X0145411Y0062582D02*
X0152239Y0062582D01*
X0152318Y0062780D02*
X0145341Y0062780D01*
X0145301Y0062979D02*
X0152397Y0062979D01*
X0152477Y0063177D02*
X0145284Y0063177D01*
X0145268Y0063376D02*
X0152556Y0063376D01*
X0152636Y0063574D02*
X0145251Y0063574D01*
X0145261Y0063773D02*
X0148166Y0063773D01*
X0147769Y0063971D02*
X0145273Y0063971D01*
X0145285Y0064170D02*
X0147554Y0064170D01*
X0147465Y0064368D02*
X0145297Y0064368D01*
X0145309Y0064567D02*
X0147418Y0064567D01*
X0147386Y0064765D02*
X0145362Y0064765D01*
X0145417Y0064964D02*
X0147417Y0064964D01*
X0147448Y0065162D02*
X0145473Y0065162D01*
X0145490Y0065360D02*
X0145490Y0065390D01*
X0145670Y0065720D01*
X0145940Y0066020D01*
X0146750Y0066590D01*
X0146750Y0066650D01*
X0146090Y0066800D01*
X0145430Y0067040D01*
X0145430Y0069920D01*
X0146480Y0069620D01*
X0147860Y0069530D01*
X0154460Y0069530D01*
X0155270Y0069500D01*
X0156020Y0069380D01*
X0156680Y0069140D01*
X0157250Y0068750D01*
X0157700Y0068210D01*
X0158030Y0067490D01*
X0158240Y0066530D01*
X0158300Y0065300D01*
X0158390Y0065240D01*
X0158330Y0064430D01*
X0158180Y0063650D01*
X0157910Y0062960D01*
X0157520Y0062360D01*
X0156980Y0061850D01*
X0156320Y0061460D01*
X0155480Y0061220D01*
X0154460Y0061130D01*
X0154160Y0061130D01*
X0154160Y0063830D01*
X0154520Y0063830D01*
X0155180Y0063920D01*
X0155690Y0064190D01*
X0156020Y0064610D01*
X0156140Y0065210D01*
X0156050Y0065870D01*
X0155750Y0066290D01*
X0155270Y0066530D01*
X0154640Y0066620D01*
X0154070Y0066560D01*
X0153680Y0066350D01*
X0153380Y0065990D01*
X0153170Y0065420D01*
X0153140Y0065330D01*
X0151130Y0065330D01*
X0151340Y0065960D01*
X0151760Y0066620D01*
X0149270Y0066620D01*
X0148790Y0066590D01*
X0148370Y0066470D01*
X0148040Y0066260D01*
X0147770Y0066020D01*
X0147440Y0065420D01*
X0147440Y0065360D01*
X0145490Y0065360D01*
X0145490Y0065361D02*
X0147440Y0065361D01*
X0147517Y0065559D02*
X0145582Y0065559D01*
X0145704Y0065758D02*
X0147626Y0065758D01*
X0147735Y0065956D02*
X0145883Y0065956D01*
X0146132Y0066155D02*
X0147922Y0066155D01*
X0148187Y0066353D02*
X0146414Y0066353D01*
X0146696Y0066552D02*
X0148657Y0066552D01*
X0146308Y0066750D02*
X0158192Y0066750D01*
X0158235Y0066552D02*
X0155117Y0066552D01*
X0155623Y0066353D02*
X0158249Y0066353D01*
X0158258Y0066155D02*
X0155847Y0066155D01*
X0155988Y0065956D02*
X0158268Y0065956D01*
X0158278Y0065758D02*
X0156065Y0065758D01*
X0156092Y0065559D02*
X0158287Y0065559D01*
X0158297Y0065361D02*
X0156119Y0065361D01*
X0156130Y0065162D02*
X0158384Y0065162D01*
X0158370Y0064964D02*
X0156091Y0064964D01*
X0156051Y0064765D02*
X0158355Y0064765D01*
X0158340Y0064567D02*
X0155986Y0064567D01*
X0155830Y0064368D02*
X0158318Y0064368D01*
X0158280Y0064170D02*
X0155652Y0064170D01*
X0155277Y0063971D02*
X0158242Y0063971D01*
X0158204Y0063773D02*
X0154160Y0063773D01*
X0154160Y0063574D02*
X0158150Y0063574D01*
X0158073Y0063376D02*
X0154160Y0063376D01*
X0154160Y0063177D02*
X0157995Y0063177D01*
X0157917Y0062979D02*
X0154160Y0062979D01*
X0154160Y0062780D02*
X0157793Y0062780D01*
X0157664Y0062582D02*
X0154160Y0062582D01*
X0154160Y0062383D02*
X0157535Y0062383D01*
X0157334Y0062185D02*
X0154160Y0062185D01*
X0154160Y0061986D02*
X0157124Y0061986D01*
X0156874Y0061788D02*
X0154160Y0061788D01*
X0154160Y0061589D02*
X0156539Y0061589D01*
X0156077Y0061391D02*
X0154160Y0061391D01*
X0154160Y0061192D02*
X0155164Y0061192D01*
X0150996Y0061192D02*
X0146746Y0061192D01*
X0147260Y0060994D02*
X0150500Y0060994D01*
X0149432Y0060795D02*
X0148519Y0060795D01*
X0149989Y0063773D02*
X0152708Y0063773D01*
X0152764Y0063971D02*
X0150366Y0063971D01*
X0150572Y0064170D02*
X0152820Y0064170D01*
X0152876Y0064368D02*
X0150735Y0064368D01*
X0150876Y0064567D02*
X0152932Y0064567D01*
X0152989Y0064765D02*
X0150945Y0064765D01*
X0151014Y0064964D02*
X0153045Y0064964D01*
X0153101Y0065162D02*
X0151082Y0065162D01*
X0151140Y0065361D02*
X0153150Y0065361D01*
X0153221Y0065559D02*
X0151206Y0065559D01*
X0151273Y0065758D02*
X0153294Y0065758D01*
X0153368Y0065956D02*
X0151339Y0065956D01*
X0151464Y0066155D02*
X0153517Y0066155D01*
X0153686Y0066353D02*
X0151590Y0066353D01*
X0151717Y0066552D02*
X0154055Y0066552D01*
X0157732Y0068140D02*
X0145430Y0068140D01*
X0145430Y0067941D02*
X0157823Y0067941D01*
X0157914Y0067743D02*
X0145430Y0067743D01*
X0145430Y0067544D02*
X0158005Y0067544D01*
X0158062Y0067346D02*
X0145430Y0067346D01*
X0145430Y0067147D02*
X0158105Y0067147D01*
X0158148Y0066949D02*
X0145680Y0066949D01*
X0145430Y0068339D02*
X0157593Y0068339D01*
X0157427Y0068537D02*
X0145430Y0068537D01*
X0145430Y0068736D02*
X0157262Y0068736D01*
X0156981Y0068934D02*
X0145430Y0068934D01*
X0145430Y0069133D02*
X0156691Y0069133D01*
X0156155Y0069331D02*
X0145430Y0069331D01*
X0145430Y0069530D02*
X0154471Y0069530D01*
X0158090Y0071570D02*
X0145490Y0071570D01*
X0145490Y0074570D01*
X0153050Y0074570D01*
X0153620Y0074630D01*
X0154100Y0074780D01*
X0154490Y0075020D01*
X0154790Y0075320D01*
X0155030Y0075650D01*
X0155180Y0076040D01*
X0155300Y0076820D01*
X0155300Y0077300D01*
X0155270Y0077780D01*
X0158360Y0077780D01*
X0158390Y0077510D01*
X0158390Y0077240D01*
X0158240Y0076370D01*
X0157820Y0075650D01*
X0157190Y0075050D01*
X0156380Y0074540D01*
X0156380Y0074480D01*
X0158060Y0074480D01*
X0158090Y0074450D01*
X0158090Y0071570D01*
X0158090Y0071713D02*
X0145490Y0071713D01*
X0145490Y0071912D02*
X0158090Y0071912D01*
X0158090Y0072110D02*
X0145490Y0072110D01*
X0145490Y0072309D02*
X0158090Y0072309D01*
X0158090Y0072507D02*
X0145490Y0072507D01*
X0145490Y0072706D02*
X0158090Y0072706D01*
X0158090Y0072904D02*
X0145490Y0072904D01*
X0145490Y0073103D02*
X0158090Y0073103D01*
X0158090Y0073301D02*
X0145490Y0073301D01*
X0145490Y0073500D02*
X0158090Y0073500D01*
X0158090Y0073698D02*
X0145490Y0073698D01*
X0145490Y0073897D02*
X0158090Y0073897D01*
X0158090Y0074095D02*
X0145490Y0074095D01*
X0145490Y0074294D02*
X0158090Y0074294D01*
X0157230Y0075088D02*
X0154558Y0075088D01*
X0154756Y0075286D02*
X0157438Y0075286D01*
X0157647Y0075485D02*
X0154910Y0075485D01*
X0155043Y0075683D02*
X0157839Y0075683D01*
X0157955Y0075882D02*
X0155119Y0075882D01*
X0155186Y0076080D02*
X0158071Y0076080D01*
X0158187Y0076279D02*
X0155217Y0076279D01*
X0155247Y0076477D02*
X0158259Y0076477D01*
X0158293Y0076676D02*
X0155278Y0076676D01*
X0155300Y0076874D02*
X0158327Y0076874D01*
X0158361Y0077073D02*
X0155300Y0077073D01*
X0155300Y0077272D02*
X0158390Y0077272D01*
X0158390Y0077470D02*
X0155289Y0077470D01*
X0155277Y0077669D02*
X0158372Y0077669D01*
X0156935Y0074889D02*
X0154278Y0074889D01*
X0153815Y0074691D02*
X0156620Y0074691D01*
X0156380Y0074492D02*
X0145490Y0074492D01*
X0145430Y0069728D02*
X0146102Y0069728D01*
X0162815Y0055832D02*
X0176150Y0055832D01*
X0182600Y0044570D02*
X0183290Y0044960D01*
X0184100Y0045200D01*
X0185030Y0045290D01*
X0185720Y0045260D01*
X0186320Y0045140D01*
X0186860Y0044960D01*
X0187310Y0044690D01*
X0187700Y0044330D01*
X0188060Y0043880D01*
X0188390Y0043340D01*
X0188660Y0042680D01*
X0189320Y0040880D01*
X0189620Y0040250D01*
X0189980Y0039860D01*
X0190370Y0039650D01*
X0190820Y0039590D01*
X0191420Y0039710D01*
X0191840Y0040040D01*
X0192110Y0040490D01*
X0192200Y0041030D01*
X0192080Y0041660D01*
X0191930Y0041900D01*
X0191720Y0042080D01*
X0191120Y0042290D01*
X0190280Y0042350D01*
X0190280Y0045050D01*
X0190790Y0045050D01*
X0191600Y0044990D01*
X0192320Y0044810D01*
X0192920Y0044510D01*
X0193430Y0044090D01*
X0193850Y0043520D01*
X0194150Y0042830D01*
X0194330Y0042020D01*
X0194390Y0041060D01*
X0194300Y0039980D01*
X0194060Y0039080D01*
X0193700Y0038330D01*
X0193250Y0037730D01*
X0192680Y0037280D01*
X0192020Y0036980D01*
X0191300Y0036800D01*
X0190550Y0036740D01*
X0189920Y0036770D01*
X0189350Y0036890D01*
X0188840Y0037100D01*
X0188390Y0037370D01*
X0188000Y0037730D01*
X0187640Y0038150D01*
X0187070Y0039230D01*
X0186260Y0041330D01*
X0186050Y0041750D01*
X0185780Y0042110D01*
X0185390Y0042350D01*
X0184850Y0042440D01*
X0184190Y0042350D01*
X0183710Y0042050D01*
X0183440Y0041570D01*
X0183350Y0040940D01*
X0183470Y0040280D01*
X0183860Y0039800D01*
X0184430Y0039500D01*
X0185180Y0039410D01*
X0185120Y0039320D01*
X0185540Y0039320D01*
X0185540Y0036620D01*
X0185090Y0036620D01*
X0184220Y0036680D01*
X0183440Y0036830D01*
X0182750Y0037100D01*
X0182180Y0037520D01*
X0181730Y0038090D01*
X0181400Y0038840D01*
X0181220Y0039770D01*
X0181160Y0040940D01*
X0181220Y0041840D01*
X0181370Y0042680D01*
X0181640Y0043430D01*
X0182060Y0044060D01*
X0182600Y0044570D01*
X0182544Y0044517D02*
X0187497Y0044517D01*
X0187709Y0044319D02*
X0182334Y0044319D01*
X0182124Y0044120D02*
X0187868Y0044120D01*
X0188027Y0043922D02*
X0181968Y0043922D01*
X0181835Y0043723D02*
X0188156Y0043723D01*
X0188277Y0043525D02*
X0181703Y0043525D01*
X0181603Y0043326D02*
X0188396Y0043326D01*
X0188477Y0043128D02*
X0181531Y0043128D01*
X0181460Y0042929D02*
X0188558Y0042929D01*
X0188639Y0042731D02*
X0181388Y0042731D01*
X0181344Y0042532D02*
X0188714Y0042532D01*
X0188787Y0042334D02*
X0185417Y0042334D01*
X0185739Y0042135D02*
X0188860Y0042135D01*
X0188933Y0041937D02*
X0185910Y0041937D01*
X0186056Y0041738D02*
X0189005Y0041738D01*
X0189078Y0041539D02*
X0186155Y0041539D01*
X0186255Y0041341D02*
X0189151Y0041341D01*
X0189224Y0041142D02*
X0186332Y0041142D01*
X0186409Y0040944D02*
X0189297Y0040944D01*
X0189384Y0040745D02*
X0186485Y0040745D01*
X0186562Y0040547D02*
X0189479Y0040547D01*
X0189573Y0040348D02*
X0186639Y0040348D01*
X0186715Y0040150D02*
X0189712Y0040150D01*
X0189896Y0039951D02*
X0186792Y0039951D01*
X0186868Y0039753D02*
X0190179Y0039753D01*
X0191475Y0039753D02*
X0194239Y0039753D01*
X0194292Y0039951D02*
X0191727Y0039951D01*
X0191906Y0040150D02*
X0194314Y0040150D01*
X0194331Y0040348D02*
X0192025Y0040348D01*
X0192120Y0040547D02*
X0194347Y0040547D01*
X0194364Y0040745D02*
X0192153Y0040745D01*
X0192186Y0040944D02*
X0194380Y0040944D01*
X0194385Y0041142D02*
X0192179Y0041142D01*
X0192141Y0041341D02*
X0194372Y0041341D01*
X0194360Y0041539D02*
X0192103Y0041539D01*
X0192031Y0041738D02*
X0194348Y0041738D01*
X0194335Y0041937D02*
X0191887Y0041937D01*
X0191563Y0042135D02*
X0194304Y0042135D01*
X0194260Y0042334D02*
X0190511Y0042334D01*
X0190280Y0042532D02*
X0194216Y0042532D01*
X0194172Y0042731D02*
X0190280Y0042731D01*
X0190280Y0042929D02*
X0194107Y0042929D01*
X0194021Y0043128D02*
X0190280Y0043128D01*
X0190280Y0043326D02*
X0193934Y0043326D01*
X0193847Y0043525D02*
X0190280Y0043525D01*
X0190280Y0043723D02*
X0193700Y0043723D01*
X0193554Y0043922D02*
X0190280Y0043922D01*
X0190280Y0044120D02*
X0193393Y0044120D01*
X0193152Y0044319D02*
X0190280Y0044319D01*
X0190280Y0044517D02*
X0192906Y0044517D01*
X0192509Y0044716D02*
X0190280Y0044716D01*
X0190280Y0044914D02*
X0191903Y0044914D01*
X0187267Y0044716D02*
X0182858Y0044716D01*
X0183209Y0044914D02*
X0186936Y0044914D01*
X0186402Y0045113D02*
X0183805Y0045113D01*
X0184164Y0042334D02*
X0181308Y0042334D01*
X0181273Y0042135D02*
X0183846Y0042135D01*
X0183646Y0041937D02*
X0181237Y0041937D01*
X0181213Y0041738D02*
X0183534Y0041738D01*
X0183436Y0041539D02*
X0181200Y0041539D01*
X0181187Y0041341D02*
X0183407Y0041341D01*
X0183379Y0041142D02*
X0181174Y0041142D01*
X0181160Y0040944D02*
X0183351Y0040944D01*
X0183385Y0040745D02*
X0181170Y0040745D01*
X0181180Y0040547D02*
X0183421Y0040547D01*
X0183458Y0040348D02*
X0181190Y0040348D01*
X0181201Y0040150D02*
X0183576Y0040150D01*
X0183737Y0039951D02*
X0181211Y0039951D01*
X0181223Y0039753D02*
X0183950Y0039753D01*
X0184327Y0039554D02*
X0181262Y0039554D01*
X0181300Y0039356D02*
X0185144Y0039356D01*
X0185540Y0039157D02*
X0181339Y0039157D01*
X0181377Y0038959D02*
X0185540Y0038959D01*
X0185540Y0038760D02*
X0181435Y0038760D01*
X0181522Y0038562D02*
X0185540Y0038562D01*
X0185540Y0038363D02*
X0181610Y0038363D01*
X0181697Y0038165D02*
X0185540Y0038165D01*
X0185540Y0037966D02*
X0181828Y0037966D01*
X0181984Y0037768D02*
X0185540Y0037768D01*
X0185540Y0037569D02*
X0182141Y0037569D01*
X0182383Y0037371D02*
X0185540Y0037371D01*
X0185540Y0037172D02*
X0182652Y0037172D01*
X0183073Y0036974D02*
X0185540Y0036974D01*
X0185540Y0036775D02*
X0183725Y0036775D01*
X0181430Y0036050D02*
X0181430Y0033170D01*
X0182900Y0033170D01*
X0182900Y0033140D01*
X0182960Y0033170D01*
X0182150Y0032630D01*
X0181610Y0031940D01*
X0181310Y0031130D01*
X0181220Y0030200D01*
X0181280Y0029510D01*
X0181430Y0028910D01*
X0181670Y0028400D01*
X0182030Y0027980D01*
X0182510Y0027650D01*
X0183110Y0027410D01*
X0183860Y0027260D01*
X0184730Y0027200D01*
X0194090Y0027200D01*
X0194090Y0030200D01*
X0185390Y0030200D01*
X0184550Y0030290D01*
X0184010Y0030530D01*
X0183710Y0030920D01*
X0183620Y0031490D01*
X0183740Y0032180D01*
X0183890Y0032450D01*
X0184130Y0032660D01*
X0184790Y0032960D01*
X0185690Y0033050D01*
X0194030Y0033050D01*
X0194030Y0036050D01*
X0181430Y0036050D01*
X0181430Y0035981D02*
X0194030Y0035981D01*
X0194030Y0035783D02*
X0181430Y0035783D01*
X0181430Y0035584D02*
X0194030Y0035584D01*
X0194030Y0035386D02*
X0181430Y0035386D01*
X0181430Y0035187D02*
X0194030Y0035187D01*
X0194030Y0034989D02*
X0181430Y0034989D01*
X0181430Y0034790D02*
X0194030Y0034790D01*
X0194030Y0034592D02*
X0181430Y0034592D01*
X0181430Y0034393D02*
X0194030Y0034393D01*
X0194030Y0034195D02*
X0181430Y0034195D01*
X0181430Y0033996D02*
X0194030Y0033996D01*
X0194030Y0033798D02*
X0181430Y0033798D01*
X0181430Y0033599D02*
X0194030Y0033599D01*
X0194030Y0033401D02*
X0181430Y0033401D01*
X0181430Y0033202D02*
X0194030Y0033202D01*
X0185225Y0033003D02*
X0182710Y0033003D01*
X0182412Y0032805D02*
X0184449Y0032805D01*
X0184069Y0032606D02*
X0182132Y0032606D01*
X0181976Y0032408D02*
X0183867Y0032408D01*
X0183756Y0032209D02*
X0181821Y0032209D01*
X0181666Y0032011D02*
X0183711Y0032011D01*
X0183676Y0031812D02*
X0181563Y0031812D01*
X0181489Y0031614D02*
X0183642Y0031614D01*
X0183632Y0031415D02*
X0181416Y0031415D01*
X0181342Y0031217D02*
X0183663Y0031217D01*
X0183694Y0031018D02*
X0181299Y0031018D01*
X0181280Y0030820D02*
X0183787Y0030820D01*
X0183940Y0030621D02*
X0181261Y0030621D01*
X0181242Y0030423D02*
X0184251Y0030423D01*
X0185163Y0030224D02*
X0181222Y0030224D01*
X0181235Y0030026D02*
X0194090Y0030026D01*
X0194090Y0029827D02*
X0181252Y0029827D01*
X0181270Y0029629D02*
X0194090Y0029629D01*
X0194090Y0029430D02*
X0181300Y0029430D01*
X0181350Y0029232D02*
X0194090Y0029232D01*
X0194090Y0029033D02*
X0181399Y0029033D01*
X0181465Y0028835D02*
X0194090Y0028835D01*
X0194090Y0028636D02*
X0181559Y0028636D01*
X0181652Y0028438D02*
X0194090Y0028438D01*
X0194090Y0028239D02*
X0181808Y0028239D01*
X0181978Y0028041D02*
X0194090Y0028041D01*
X0194090Y0027842D02*
X0182230Y0027842D01*
X0182526Y0027644D02*
X0194090Y0027644D01*
X0194090Y0027445D02*
X0183022Y0027445D01*
X0184053Y0027247D02*
X0194090Y0027247D01*
X0198170Y0025520D02*
X0181490Y0025520D01*
X0181490Y0022640D01*
X0194810Y0022640D01*
X0194810Y0022580D01*
X0190370Y0021650D01*
X0185930Y0020720D01*
X0181490Y0019790D01*
X0181490Y0017360D01*
X0185930Y0016430D01*
X0190370Y0015500D01*
X0194810Y0014570D01*
X0194810Y0014540D01*
X0181490Y0014540D01*
X0181490Y0011660D01*
X0198170Y0011660D01*
X0198170Y0016340D01*
X0194240Y0017090D01*
X0190310Y0017840D01*
X0186380Y0018590D01*
X0186380Y0018620D01*
X0190310Y0019370D01*
X0194240Y0020120D01*
X0198170Y0020870D01*
X0198170Y0025520D01*
X0198170Y0025460D02*
X0181490Y0025460D01*
X0181490Y0025262D02*
X0198170Y0025262D01*
X0198170Y0025063D02*
X0181490Y0025063D01*
X0181490Y0024865D02*
X0198170Y0024865D01*
X0198170Y0024666D02*
X0181490Y0024666D01*
X0181490Y0024468D02*
X0198170Y0024468D01*
X0198170Y0024269D02*
X0181490Y0024269D01*
X0181490Y0024070D02*
X0198170Y0024070D01*
X0198170Y0023872D02*
X0181490Y0023872D01*
X0181490Y0023673D02*
X0198170Y0023673D01*
X0198170Y0023475D02*
X0181490Y0023475D01*
X0181490Y0023276D02*
X0198170Y0023276D01*
X0198170Y0023078D02*
X0181490Y0023078D01*
X0181490Y0022879D02*
X0198170Y0022879D01*
X0198170Y0022681D02*
X0181490Y0022681D01*
X0180200Y0022681D02*
X0163520Y0022681D01*
X0163520Y0022879D02*
X0180200Y0022879D01*
X0180200Y0023078D02*
X0163520Y0023078D01*
X0163520Y0023276D02*
X0180200Y0023276D01*
X0180200Y0023475D02*
X0163520Y0023475D01*
X0163520Y0023673D02*
X0180200Y0023673D01*
X0180200Y0023872D02*
X0163520Y0023872D01*
X0163520Y0024070D02*
X0180200Y0024070D01*
X0180200Y0024269D02*
X0163520Y0024269D01*
X0163520Y0024468D02*
X0180200Y0024468D01*
X0180170Y0024530D02*
X0180200Y0024590D01*
X0180200Y0021590D01*
X0163520Y0021590D01*
X0163520Y0024590D01*
X0171860Y0024590D01*
X0172760Y0024680D01*
X0173420Y0024980D01*
X0173660Y0025190D01*
X0173810Y0025460D01*
X0173930Y0026150D01*
X0173840Y0026720D01*
X0173540Y0027110D01*
X0173000Y0027350D01*
X0172160Y0027440D01*
X0163460Y0027440D01*
X0163460Y0030440D01*
X0172820Y0030440D01*
X0173690Y0030380D01*
X0174440Y0030230D01*
X0175070Y0029990D01*
X0175550Y0029660D01*
X0175910Y0029240D01*
X0176180Y0028730D01*
X0176330Y0028130D01*
X0176390Y0027440D01*
X0176300Y0026510D01*
X0176000Y0025730D01*
X0175490Y0025100D01*
X0174770Y0024590D01*
X0174770Y0024530D01*
X0180170Y0024530D01*
X0175781Y0025460D02*
X0173810Y0025460D01*
X0173845Y0025659D02*
X0175942Y0025659D01*
X0176049Y0025857D02*
X0173879Y0025857D01*
X0173914Y0026056D02*
X0176125Y0026056D01*
X0176202Y0026254D02*
X0173914Y0026254D01*
X0173882Y0026453D02*
X0176278Y0026453D01*
X0176314Y0026651D02*
X0173851Y0026651D01*
X0173740Y0026850D02*
X0176333Y0026850D01*
X0176352Y0027048D02*
X0173588Y0027048D01*
X0173232Y0027247D02*
X0176371Y0027247D01*
X0176390Y0027445D02*
X0163460Y0027445D01*
X0163460Y0027644D02*
X0176372Y0027644D01*
X0176355Y0027842D02*
X0163460Y0027842D01*
X0163460Y0028041D02*
X0176338Y0028041D01*
X0176303Y0028239D02*
X0163460Y0028239D01*
X0163460Y0028438D02*
X0176253Y0028438D01*
X0176203Y0028636D02*
X0163460Y0028636D01*
X0163460Y0028835D02*
X0176125Y0028835D01*
X0176019Y0029033D02*
X0163460Y0029033D01*
X0163460Y0029232D02*
X0175914Y0029232D01*
X0175747Y0029430D02*
X0163460Y0029430D01*
X0163460Y0029629D02*
X0175577Y0029629D01*
X0175307Y0029827D02*
X0163460Y0029827D01*
X0163460Y0030026D02*
X0174976Y0030026D01*
X0174455Y0030224D02*
X0163460Y0030224D01*
X0163460Y0030423D02*
X0173069Y0030423D01*
X0176060Y0032090D02*
X0176060Y0035090D01*
X0163460Y0035090D01*
X0163460Y0032090D01*
X0176060Y0032090D01*
X0176060Y0032209D02*
X0163460Y0032209D01*
X0163460Y0032408D02*
X0176060Y0032408D01*
X0176060Y0032606D02*
X0163460Y0032606D01*
X0163460Y0032805D02*
X0176060Y0032805D01*
X0176060Y0033003D02*
X0163460Y0033003D01*
X0163460Y0033202D02*
X0176060Y0033202D01*
X0176060Y0033401D02*
X0163460Y0033401D01*
X0163460Y0033599D02*
X0176060Y0033599D01*
X0176060Y0033798D02*
X0163460Y0033798D01*
X0163460Y0033996D02*
X0176060Y0033996D01*
X0176060Y0034195D02*
X0163460Y0034195D01*
X0163460Y0034393D02*
X0176060Y0034393D01*
X0176060Y0034592D02*
X0163460Y0034592D01*
X0163460Y0034790D02*
X0176060Y0034790D01*
X0176060Y0034989D02*
X0163460Y0034989D01*
X0158052Y0033401D02*
X0145562Y0033401D01*
X0145610Y0033560D02*
X0146120Y0034370D01*
X0146840Y0035000D01*
X0147770Y0035480D01*
X0148910Y0035810D01*
X0150230Y0035990D01*
X0151760Y0036050D01*
X0153320Y0035990D01*
X0154670Y0035840D01*
X0155810Y0035540D01*
X0156740Y0035090D01*
X0157460Y0034490D01*
X0157970Y0033680D01*
X0158270Y0032660D01*
X0158360Y0031430D01*
X0158330Y0031160D01*
X0158360Y0031130D01*
X0156080Y0031130D01*
X0156050Y0030920D01*
X0155810Y0030530D01*
X0155420Y0030230D01*
X0154910Y0030020D01*
X0153500Y0029810D01*
X0151730Y0029780D01*
X0149960Y0029810D01*
X0148550Y0030020D01*
X0148040Y0030230D01*
X0147650Y0030530D01*
X0147410Y0030920D01*
X0147380Y0031130D01*
X0145220Y0031130D01*
X0145280Y0030170D01*
X0145580Y0029150D01*
X0146090Y0028340D01*
X0146810Y0027710D01*
X0147740Y0027260D01*
X0148880Y0026960D01*
X0150230Y0026810D01*
X0151760Y0026750D01*
X0153290Y0026810D01*
X0154610Y0026990D01*
X0155750Y0027320D01*
X0156680Y0027800D01*
X0157400Y0028430D01*
X0157940Y0029240D01*
X0158270Y0030230D01*
X0158360Y0031130D01*
X0156140Y0031130D01*
X0156200Y0031400D01*
X0156140Y0031820D01*
X0155960Y0032180D01*
X0155630Y0032450D01*
X0155180Y0032660D01*
X0153800Y0032930D01*
X0151760Y0033020D01*
X0149720Y0032930D01*
X0148370Y0032660D01*
X0147920Y0032450D01*
X0147590Y0032180D01*
X0147410Y0031820D01*
X0147350Y0031400D01*
X0147410Y0031130D01*
X0145250Y0031130D01*
X0145220Y0031400D01*
X0145310Y0032570D01*
X0145610Y0033560D01*
X0145635Y0033599D02*
X0157994Y0033599D01*
X0157896Y0033798D02*
X0145760Y0033798D01*
X0145885Y0033996D02*
X0157771Y0033996D01*
X0157646Y0034195D02*
X0146010Y0034195D01*
X0146146Y0034393D02*
X0157521Y0034393D01*
X0157338Y0034592D02*
X0146373Y0034592D01*
X0146600Y0034790D02*
X0157100Y0034790D01*
X0156862Y0034989D02*
X0146827Y0034989D01*
X0147203Y0035187D02*
X0156539Y0035187D01*
X0156129Y0035386D02*
X0147587Y0035386D01*
X0148130Y0035584D02*
X0155642Y0035584D01*
X0154888Y0035783D02*
X0148816Y0035783D01*
X0149494Y0036577D02*
X0154146Y0036577D01*
X0153400Y0035981D02*
X0150165Y0035981D01*
X0148291Y0036775D02*
X0155349Y0036775D01*
X0156084Y0036974D02*
X0147556Y0036974D01*
X0147098Y0037172D02*
X0156542Y0037172D01*
X0156942Y0037371D02*
X0146701Y0037371D01*
X0146445Y0037569D02*
X0157211Y0037569D01*
X0157479Y0037768D02*
X0146188Y0037768D01*
X0146009Y0037966D02*
X0157661Y0037966D01*
X0157813Y0038165D02*
X0145857Y0038165D01*
X0145706Y0038363D02*
X0157964Y0038363D01*
X0158075Y0038562D02*
X0145600Y0038562D01*
X0145528Y0038760D02*
X0158154Y0038760D01*
X0158234Y0038959D02*
X0145457Y0038959D01*
X0145385Y0039157D02*
X0158313Y0039157D01*
X0163550Y0039157D02*
X0176150Y0039157D01*
X0176150Y0038959D02*
X0163550Y0038959D01*
X0163550Y0038760D02*
X0176150Y0038760D01*
X0176150Y0038562D02*
X0163550Y0038562D01*
X0163550Y0038363D02*
X0176150Y0038363D01*
X0176150Y0038165D02*
X0163550Y0038165D01*
X0163550Y0037966D02*
X0176150Y0037966D01*
X0176150Y0037768D02*
X0163550Y0037768D01*
X0163550Y0037569D02*
X0176150Y0037569D01*
X0176150Y0037371D02*
X0163550Y0037371D01*
X0163550Y0037172D02*
X0176150Y0037172D01*
X0176150Y0036974D02*
X0163550Y0036974D01*
X0163550Y0039356D02*
X0176150Y0039356D01*
X0176150Y0039554D02*
X0163550Y0039554D01*
X0163550Y0039753D02*
X0174654Y0039753D01*
X0174952Y0039951D02*
X0172859Y0039951D01*
X0173296Y0040150D02*
X0175250Y0040150D01*
X0175481Y0040348D02*
X0173597Y0040348D01*
X0173755Y0040547D02*
X0175645Y0040547D01*
X0175809Y0040745D02*
X0173848Y0040745D01*
X0173882Y0040944D02*
X0175972Y0040944D01*
X0176052Y0041142D02*
X0173917Y0041142D01*
X0173951Y0041341D02*
X0176133Y0041341D01*
X0176214Y0041539D02*
X0173936Y0041539D01*
X0173905Y0041738D02*
X0176295Y0041738D01*
X0176324Y0041937D02*
X0173874Y0041937D01*
X0173735Y0042135D02*
X0176350Y0042135D01*
X0176375Y0042334D02*
X0173583Y0042334D01*
X0173160Y0042532D02*
X0176401Y0042532D01*
X0186945Y0039554D02*
X0194186Y0039554D01*
X0194134Y0039356D02*
X0187021Y0039356D01*
X0187108Y0039157D02*
X0194081Y0039157D01*
X0194002Y0038959D02*
X0187213Y0038959D01*
X0187318Y0038760D02*
X0193907Y0038760D01*
X0193811Y0038562D02*
X0187423Y0038562D01*
X0187527Y0038363D02*
X0193716Y0038363D01*
X0193576Y0038165D02*
X0187632Y0038165D01*
X0187797Y0037966D02*
X0193427Y0037966D01*
X0193278Y0037768D02*
X0187968Y0037768D01*
X0188174Y0037569D02*
X0193046Y0037569D01*
X0192795Y0037371D02*
X0188389Y0037371D01*
X0188720Y0037172D02*
X0192443Y0037172D01*
X0191995Y0036974D02*
X0189147Y0036974D01*
X0189895Y0036775D02*
X0190990Y0036775D01*
X0180380Y0035090D02*
X0180380Y0032090D01*
X0177620Y0032090D01*
X0177620Y0035090D01*
X0180380Y0035090D01*
X0180380Y0034989D02*
X0177620Y0034989D01*
X0177620Y0034790D02*
X0180380Y0034790D01*
X0180380Y0034592D02*
X0177620Y0034592D01*
X0177620Y0034393D02*
X0180380Y0034393D01*
X0180380Y0034195D02*
X0177620Y0034195D01*
X0177620Y0033996D02*
X0180380Y0033996D01*
X0180380Y0033798D02*
X0177620Y0033798D01*
X0177620Y0033599D02*
X0180380Y0033599D01*
X0180380Y0033401D02*
X0177620Y0033401D01*
X0177620Y0033202D02*
X0180380Y0033202D01*
X0180380Y0033003D02*
X0177620Y0033003D01*
X0177620Y0032805D02*
X0180380Y0032805D01*
X0180380Y0032606D02*
X0177620Y0032606D01*
X0177620Y0032408D02*
X0180380Y0032408D01*
X0180380Y0032209D02*
X0177620Y0032209D01*
X0158358Y0031415D02*
X0156198Y0031415D01*
X0156169Y0031614D02*
X0158347Y0031614D01*
X0158332Y0031812D02*
X0156141Y0031812D01*
X0156045Y0032011D02*
X0158317Y0032011D01*
X0158303Y0032209D02*
X0155924Y0032209D01*
X0155681Y0032408D02*
X0158288Y0032408D01*
X0158274Y0032606D02*
X0155295Y0032606D01*
X0154439Y0032805D02*
X0158227Y0032805D01*
X0158169Y0033003D02*
X0152134Y0033003D01*
X0151386Y0033003D02*
X0145441Y0033003D01*
X0145381Y0032805D02*
X0149095Y0032805D01*
X0148255Y0032606D02*
X0145321Y0032606D01*
X0145298Y0032408D02*
X0147869Y0032408D01*
X0147626Y0032209D02*
X0145282Y0032209D01*
X0145267Y0032011D02*
X0147505Y0032011D01*
X0147409Y0031812D02*
X0145252Y0031812D01*
X0145236Y0031614D02*
X0147381Y0031614D01*
X0147352Y0031415D02*
X0145221Y0031415D01*
X0145240Y0031217D02*
X0147391Y0031217D01*
X0147396Y0031018D02*
X0145227Y0031018D01*
X0145239Y0030820D02*
X0147472Y0030820D01*
X0147594Y0030621D02*
X0145252Y0030621D01*
X0145264Y0030423D02*
X0147789Y0030423D01*
X0148054Y0030224D02*
X0145277Y0030224D01*
X0145322Y0030026D02*
X0148536Y0030026D01*
X0149844Y0029827D02*
X0145381Y0029827D01*
X0145439Y0029629D02*
X0158070Y0029629D01*
X0158136Y0029827D02*
X0153616Y0029827D01*
X0154924Y0030026D02*
X0158202Y0030026D01*
X0158268Y0030224D02*
X0155406Y0030224D01*
X0155671Y0030423D02*
X0158289Y0030423D01*
X0158309Y0030621D02*
X0155866Y0030621D01*
X0155988Y0030820D02*
X0158329Y0030820D01*
X0158349Y0031018D02*
X0156064Y0031018D01*
X0156159Y0031217D02*
X0158336Y0031217D01*
X0158003Y0029430D02*
X0145498Y0029430D01*
X0145556Y0029232D02*
X0157935Y0029232D01*
X0157802Y0029033D02*
X0145653Y0029033D01*
X0145778Y0028835D02*
X0157670Y0028835D01*
X0157538Y0028636D02*
X0145903Y0028636D01*
X0146028Y0028438D02*
X0157405Y0028438D01*
X0157182Y0028239D02*
X0146205Y0028239D01*
X0146432Y0028041D02*
X0156955Y0028041D01*
X0156728Y0027842D02*
X0146659Y0027842D01*
X0146947Y0027644D02*
X0156377Y0027644D01*
X0155993Y0027445D02*
X0147357Y0027445D01*
X0147791Y0027247D02*
X0155497Y0027247D01*
X0154811Y0027048D02*
X0148545Y0027048D01*
X0149873Y0026850D02*
X0153581Y0026850D01*
X0145520Y0025520D02*
X0145520Y0022640D01*
X0158840Y0022640D01*
X0158840Y0022580D01*
X0149960Y0020720D01*
X0145520Y0019790D01*
X0145520Y0017360D01*
X0149960Y0016430D01*
X0158840Y0014570D01*
X0158840Y0014540D01*
X0145520Y0014540D01*
X0145520Y0011660D01*
X0162200Y0011660D01*
X0162200Y0016340D01*
X0158270Y0017090D01*
X0154340Y0017840D01*
X0150410Y0018590D01*
X0150410Y0018620D01*
X0154340Y0019370D01*
X0158270Y0020120D01*
X0162200Y0020870D01*
X0162200Y0025520D01*
X0145520Y0025520D01*
X0145520Y0025460D02*
X0162200Y0025460D01*
X0162200Y0025262D02*
X0145520Y0025262D01*
X0145520Y0025063D02*
X0162200Y0025063D01*
X0162200Y0024865D02*
X0145520Y0024865D01*
X0145520Y0024666D02*
X0162200Y0024666D01*
X0162200Y0024468D02*
X0145520Y0024468D01*
X0145520Y0024269D02*
X0162200Y0024269D01*
X0162200Y0024070D02*
X0145520Y0024070D01*
X0145520Y0023872D02*
X0162200Y0023872D01*
X0162200Y0023673D02*
X0145520Y0023673D01*
X0145520Y0023475D02*
X0162200Y0023475D01*
X0162200Y0023276D02*
X0145520Y0023276D01*
X0145520Y0023078D02*
X0162200Y0023078D01*
X0162200Y0022879D02*
X0145520Y0022879D01*
X0145520Y0022681D02*
X0162200Y0022681D01*
X0162200Y0022482D02*
X0158374Y0022482D01*
X0157426Y0022284D02*
X0162200Y0022284D01*
X0162200Y0022085D02*
X0156479Y0022085D01*
X0155531Y0021887D02*
X0162200Y0021887D01*
X0162200Y0021688D02*
X0154583Y0021688D01*
X0153635Y0021490D02*
X0162200Y0021490D01*
X0162200Y0021291D02*
X0152688Y0021291D01*
X0151740Y0021093D02*
X0162200Y0021093D01*
X0162200Y0020894D02*
X0150792Y0020894D01*
X0149844Y0020696D02*
X0161287Y0020696D01*
X0160247Y0020497D02*
X0148897Y0020497D01*
X0147949Y0020299D02*
X0159207Y0020299D01*
X0158167Y0020100D02*
X0147001Y0020100D01*
X0146054Y0019902D02*
X0157126Y0019902D01*
X0156086Y0019703D02*
X0145520Y0019703D01*
X0145520Y0019505D02*
X0155046Y0019505D01*
X0154006Y0019306D02*
X0145520Y0019306D01*
X0145520Y0019108D02*
X0152966Y0019108D01*
X0152898Y0018115D02*
X0145520Y0018115D01*
X0145520Y0017917D02*
X0153938Y0017917D01*
X0154979Y0017718D02*
X0145520Y0017718D01*
X0145520Y0017520D02*
X0156019Y0017520D01*
X0157059Y0017321D02*
X0145706Y0017321D01*
X0146653Y0017123D02*
X0158099Y0017123D01*
X0159139Y0016924D02*
X0147601Y0016924D01*
X0148549Y0016726D02*
X0160180Y0016726D01*
X0161220Y0016527D02*
X0149497Y0016527D01*
X0150444Y0016329D02*
X0162200Y0016329D01*
X0162200Y0016130D02*
X0151392Y0016130D01*
X0152340Y0015932D02*
X0162200Y0015932D01*
X0162200Y0015733D02*
X0153288Y0015733D01*
X0154235Y0015534D02*
X0162200Y0015534D01*
X0162200Y0015336D02*
X0155183Y0015336D01*
X0156131Y0015137D02*
X0162200Y0015137D01*
X0162200Y0014939D02*
X0157079Y0014939D01*
X0158026Y0014740D02*
X0162200Y0014740D01*
X0162200Y0014542D02*
X0158840Y0014542D01*
X0162200Y0014343D02*
X0145520Y0014343D01*
X0145520Y0014145D02*
X0162200Y0014145D01*
X0162200Y0013946D02*
X0145520Y0013946D01*
X0145520Y0013748D02*
X0162200Y0013748D01*
X0162200Y0013549D02*
X0145520Y0013549D01*
X0145520Y0013351D02*
X0162200Y0013351D01*
X0162200Y0013152D02*
X0145520Y0013152D01*
X0145520Y0012954D02*
X0162200Y0012954D01*
X0162200Y0012755D02*
X0145520Y0012755D01*
X0145520Y0012557D02*
X0162200Y0012557D01*
X0162200Y0012358D02*
X0145520Y0012358D01*
X0145520Y0012160D02*
X0162200Y0012160D01*
X0162200Y0011961D02*
X0145520Y0011961D01*
X0145520Y0011763D02*
X0162200Y0011763D01*
X0163460Y0014210D02*
X0177410Y0014210D01*
X0177410Y0010820D01*
X0180170Y0010820D01*
X0180170Y0020720D01*
X0177410Y0020720D01*
X0177410Y0017330D01*
X0163460Y0017330D01*
X0163460Y0014210D01*
X0163460Y0014343D02*
X0180170Y0014343D01*
X0180170Y0014145D02*
X0177410Y0014145D01*
X0177410Y0013946D02*
X0180170Y0013946D01*
X0180170Y0013748D02*
X0177410Y0013748D01*
X0177410Y0013549D02*
X0180170Y0013549D01*
X0180170Y0013351D02*
X0177410Y0013351D01*
X0177410Y0013152D02*
X0180170Y0013152D01*
X0180170Y0012954D02*
X0177410Y0012954D01*
X0177410Y0012755D02*
X0180170Y0012755D01*
X0180170Y0012557D02*
X0177410Y0012557D01*
X0177410Y0012358D02*
X0180170Y0012358D01*
X0180170Y0012160D02*
X0177410Y0012160D01*
X0177410Y0011961D02*
X0180170Y0011961D01*
X0180170Y0011763D02*
X0177410Y0011763D01*
X0177410Y0011564D02*
X0180170Y0011564D01*
X0180170Y0011366D02*
X0177410Y0011366D01*
X0177410Y0011167D02*
X0180170Y0011167D01*
X0180170Y0010969D02*
X0177410Y0010969D01*
X0181490Y0011763D02*
X0198170Y0011763D01*
X0198170Y0011961D02*
X0181490Y0011961D01*
X0181490Y0012160D02*
X0198170Y0012160D01*
X0198170Y0012358D02*
X0181490Y0012358D01*
X0181490Y0012557D02*
X0198170Y0012557D01*
X0198170Y0012755D02*
X0181490Y0012755D01*
X0181490Y0012954D02*
X0198170Y0012954D01*
X0198170Y0013152D02*
X0181490Y0013152D01*
X0181490Y0013351D02*
X0198170Y0013351D01*
X0198170Y0013549D02*
X0181490Y0013549D01*
X0181490Y0013748D02*
X0198170Y0013748D01*
X0198170Y0013946D02*
X0181490Y0013946D01*
X0181490Y0014145D02*
X0198170Y0014145D01*
X0198170Y0014343D02*
X0181490Y0014343D01*
X0180170Y0014542D02*
X0163460Y0014542D01*
X0163460Y0014740D02*
X0180170Y0014740D01*
X0180170Y0014939D02*
X0163460Y0014939D01*
X0163460Y0015137D02*
X0180170Y0015137D01*
X0180170Y0015336D02*
X0163460Y0015336D01*
X0163460Y0015534D02*
X0180170Y0015534D01*
X0180170Y0015733D02*
X0163460Y0015733D01*
X0163460Y0015932D02*
X0180170Y0015932D01*
X0180170Y0016130D02*
X0163460Y0016130D01*
X0163460Y0016329D02*
X0180170Y0016329D01*
X0180170Y0016527D02*
X0163460Y0016527D01*
X0163460Y0016726D02*
X0180170Y0016726D01*
X0180170Y0016924D02*
X0163460Y0016924D01*
X0163460Y0017123D02*
X0180170Y0017123D01*
X0180170Y0017321D02*
X0163460Y0017321D01*
X0151925Y0018909D02*
X0145520Y0018909D01*
X0145520Y0018711D02*
X0150885Y0018711D01*
X0150818Y0018512D02*
X0145520Y0018512D01*
X0145520Y0018314D02*
X0151858Y0018314D01*
X0163520Y0021688D02*
X0180200Y0021688D01*
X0180200Y0021887D02*
X0163520Y0021887D01*
X0163520Y0022085D02*
X0180200Y0022085D01*
X0180200Y0022284D02*
X0163520Y0022284D01*
X0163520Y0022482D02*
X0180200Y0022482D01*
X0186762Y0020894D02*
X0198170Y0020894D01*
X0198170Y0021093D02*
X0187710Y0021093D01*
X0188658Y0021291D02*
X0198170Y0021291D01*
X0198170Y0021490D02*
X0189605Y0021490D01*
X0190553Y0021688D02*
X0198170Y0021688D01*
X0198170Y0021887D02*
X0191501Y0021887D01*
X0192449Y0022085D02*
X0198170Y0022085D01*
X0198170Y0022284D02*
X0193396Y0022284D01*
X0194344Y0022482D02*
X0198170Y0022482D01*
X0197257Y0020696D02*
X0185814Y0020696D01*
X0184867Y0020497D02*
X0196217Y0020497D01*
X0195177Y0020299D02*
X0183919Y0020299D01*
X0182971Y0020100D02*
X0194137Y0020100D01*
X0193096Y0019902D02*
X0182024Y0019902D01*
X0181490Y0019703D02*
X0192056Y0019703D01*
X0191016Y0019505D02*
X0181490Y0019505D01*
X0181490Y0019306D02*
X0189976Y0019306D01*
X0188936Y0019108D02*
X0181490Y0019108D01*
X0181490Y0018909D02*
X0187895Y0018909D01*
X0187828Y0018314D02*
X0181490Y0018314D01*
X0181490Y0018512D02*
X0186788Y0018512D01*
X0186855Y0018711D02*
X0181490Y0018711D01*
X0181490Y0018115D02*
X0188868Y0018115D01*
X0189908Y0017917D02*
X0181490Y0017917D01*
X0181490Y0017718D02*
X0190949Y0017718D01*
X0191989Y0017520D02*
X0181490Y0017520D01*
X0181676Y0017321D02*
X0193029Y0017321D01*
X0194069Y0017123D02*
X0182623Y0017123D01*
X0183571Y0016924D02*
X0195109Y0016924D01*
X0196150Y0016726D02*
X0184519Y0016726D01*
X0185467Y0016527D02*
X0197190Y0016527D01*
X0198170Y0016329D02*
X0186414Y0016329D01*
X0187362Y0016130D02*
X0198170Y0016130D01*
X0198170Y0015932D02*
X0188310Y0015932D01*
X0189258Y0015733D02*
X0198170Y0015733D01*
X0198170Y0015534D02*
X0190205Y0015534D01*
X0191153Y0015336D02*
X0198170Y0015336D01*
X0198170Y0015137D02*
X0192101Y0015137D01*
X0193049Y0014939D02*
X0198170Y0014939D01*
X0198170Y0014740D02*
X0193996Y0014740D01*
X0194810Y0014542D02*
X0198170Y0014542D01*
X0180170Y0017520D02*
X0177410Y0017520D01*
X0177410Y0017718D02*
X0180170Y0017718D01*
X0180170Y0017917D02*
X0177410Y0017917D01*
X0177410Y0018115D02*
X0180170Y0018115D01*
X0180170Y0018314D02*
X0177410Y0018314D01*
X0177410Y0018512D02*
X0180170Y0018512D01*
X0180170Y0018711D02*
X0177410Y0018711D01*
X0177410Y0018909D02*
X0180170Y0018909D01*
X0180170Y0019108D02*
X0177410Y0019108D01*
X0177410Y0019306D02*
X0180170Y0019306D01*
X0180170Y0019505D02*
X0177410Y0019505D01*
X0177410Y0019703D02*
X0180170Y0019703D01*
X0180170Y0019902D02*
X0177410Y0019902D01*
X0177410Y0020100D02*
X0180170Y0020100D01*
X0180170Y0020299D02*
X0177410Y0020299D01*
X0177410Y0020497D02*
X0180170Y0020497D01*
X0180170Y0020696D02*
X0177410Y0020696D01*
X0174877Y0024666D02*
X0172620Y0024666D01*
X0173166Y0024865D02*
X0175158Y0024865D01*
X0175438Y0025063D02*
X0173515Y0025063D01*
X0173700Y0025262D02*
X0175621Y0025262D01*
X0158111Y0033202D02*
X0145502Y0033202D01*
D12*
X0414300Y0034300D02*
X0416800Y0036800D01*
X0416800Y0051800D01*
X0414300Y0054300D01*
D13*
X0402596Y0033563D02*
X0400928Y0033563D01*
X0400511Y0033146D01*
X0400511Y0031895D01*
X0403013Y0031895D01*
X0403013Y0033146D01*
X0402596Y0033563D01*
X0393086Y0033039D02*
X0393086Y0031788D01*
X0390584Y0031788D01*
X0390584Y0033039D01*
X0391001Y0033456D01*
X0392669Y0033456D01*
X0393086Y0033039D01*
X0393086Y0030693D02*
X0390584Y0030693D01*
X0393086Y0029025D01*
X0390584Y0029025D01*
X0391001Y0027931D02*
X0391835Y0027931D01*
X0391835Y0027097D01*
X0392669Y0027931D02*
X0393086Y0027514D01*
X0393086Y0026680D01*
X0392669Y0026263D01*
X0391001Y0026263D01*
X0390584Y0026680D01*
X0390584Y0027514D01*
X0391001Y0027931D01*
X0383159Y0027407D02*
X0383159Y0026573D01*
X0382742Y0026155D01*
X0381074Y0026155D01*
X0380657Y0026573D01*
X0380657Y0027407D01*
X0381074Y0027824D01*
X0381908Y0027824D01*
X0381908Y0026990D01*
X0382742Y0027824D02*
X0383159Y0027407D01*
X0383159Y0028918D02*
X0380657Y0030586D01*
X0383159Y0030586D01*
X0383159Y0031680D02*
X0383159Y0032931D01*
X0382742Y0033348D01*
X0381074Y0033348D01*
X0380657Y0032931D01*
X0380657Y0031680D01*
X0383159Y0031680D01*
X0383159Y0028918D02*
X0380657Y0028918D01*
X0400511Y0029133D02*
X0403013Y0029133D01*
X0400511Y0030801D01*
X0403013Y0030801D01*
X0402596Y0028038D02*
X0403013Y0027621D01*
X0403013Y0026787D01*
X0402596Y0026370D01*
X0400928Y0026370D01*
X0400511Y0026787D01*
X0400511Y0027621D01*
X0400928Y0028038D01*
X0401762Y0028038D01*
X0401762Y0027204D01*
D14*
X0413061Y0030256D02*
X0413061Y0033659D01*
X0414762Y0031957D02*
X0411359Y0031957D01*
X0371801Y0032628D02*
X0371801Y0029225D01*
D15*
X0366104Y0029500D02*
X0366104Y0031552D01*
X0365420Y0032236D01*
X0364052Y0032236D01*
X0363368Y0031552D01*
X0363368Y0029500D01*
X0363368Y0030868D02*
X0362000Y0032236D01*
X0362000Y0033644D02*
X0362000Y0036379D01*
X0362000Y0037787D02*
X0362000Y0039839D01*
X0362684Y0040523D01*
X0365420Y0040523D01*
X0366104Y0039839D01*
X0366104Y0037787D01*
X0362000Y0037787D01*
X0366104Y0036379D02*
X0366104Y0033644D01*
X0362000Y0033644D01*
X0364052Y0033644D02*
X0364052Y0035011D01*
X0362000Y0029500D02*
X0366104Y0029500D01*
X0366104Y0041931D02*
X0364052Y0044666D01*
X0362000Y0041931D01*
X0362000Y0046074D02*
X0366104Y0046074D01*
X0366104Y0048126D01*
X0365420Y0048810D01*
X0364052Y0048810D01*
X0363368Y0048126D01*
X0363368Y0046074D01*
X0363368Y0047442D02*
X0362000Y0048810D01*
X0362000Y0050218D02*
X0362000Y0052953D01*
X0364052Y0051586D02*
X0364052Y0050218D01*
X0366104Y0050218D02*
X0362000Y0050218D01*
X0366104Y0050218D02*
X0366104Y0052953D01*
X0366104Y0054361D02*
X0362000Y0054361D01*
X0362000Y0056413D01*
X0362684Y0057097D01*
X0365420Y0057097D01*
X0366104Y0056413D01*
X0366104Y0054361D01*
M02*
