G75*
%MOIN*%
%OFA0B0*%
%FSLAX25Y25*%
%IPPOS*%
%LPD*%
%AMOC8*
5,1,8,0,0,1.08239X$1,22.5*
%
%ADD10C,0.00800*%
%ADD11C,0.00200*%
%ADD12C,0.00300*%
%ADD13C,0.00400*%
%ADD14C,0.00600*%
%ADD15C,0.00500*%
%ADD16R,0.02000X0.10000*%
%ADD17R,0.07500X0.03000*%
%ADD18C,0.01575*%
%ADD19C,0.00100*%
D10*
X0146072Y0028158D02*
X0148237Y0028158D01*
X0148237Y0025993D01*
X0160835Y0025993D01*
X0146072Y0028158D02*
X0146072Y0060442D01*
X0148237Y0060442D01*
X0148237Y0062607D01*
X0160835Y0062607D01*
X0179733Y0062607D02*
X0188394Y0062607D01*
X0188394Y0060442D01*
X0190560Y0060442D01*
X0190560Y0028158D01*
X0188394Y0028158D01*
X0188394Y0025993D01*
X0179733Y0025993D01*
X0252300Y0063800D02*
X0256300Y0063800D01*
X0239457Y0069300D02*
X0239460Y0069542D01*
X0239469Y0069783D01*
X0239484Y0070024D01*
X0239504Y0070265D01*
X0239531Y0070505D01*
X0239564Y0070744D01*
X0239602Y0070983D01*
X0239646Y0071220D01*
X0239696Y0071457D01*
X0239752Y0071692D01*
X0239814Y0071925D01*
X0239881Y0072157D01*
X0239954Y0072388D01*
X0240032Y0072616D01*
X0240117Y0072842D01*
X0240206Y0073067D01*
X0240301Y0073289D01*
X0240402Y0073508D01*
X0240508Y0073726D01*
X0240619Y0073940D01*
X0240736Y0074152D01*
X0240857Y0074360D01*
X0240984Y0074566D01*
X0241116Y0074768D01*
X0241253Y0074968D01*
X0241394Y0075163D01*
X0241540Y0075356D01*
X0241691Y0075544D01*
X0241847Y0075729D01*
X0242007Y0075910D01*
X0242171Y0076087D01*
X0242340Y0076260D01*
X0242513Y0076429D01*
X0242690Y0076593D01*
X0242871Y0076753D01*
X0243056Y0076909D01*
X0243244Y0077060D01*
X0243437Y0077206D01*
X0243632Y0077347D01*
X0243832Y0077484D01*
X0244034Y0077616D01*
X0244240Y0077743D01*
X0244448Y0077864D01*
X0244660Y0077981D01*
X0244874Y0078092D01*
X0245092Y0078198D01*
X0245311Y0078299D01*
X0245533Y0078394D01*
X0245758Y0078483D01*
X0245984Y0078568D01*
X0246212Y0078646D01*
X0246443Y0078719D01*
X0246675Y0078786D01*
X0246908Y0078848D01*
X0247143Y0078904D01*
X0247380Y0078954D01*
X0247617Y0078998D01*
X0247856Y0079036D01*
X0248095Y0079069D01*
X0248335Y0079096D01*
X0248576Y0079116D01*
X0248817Y0079131D01*
X0249058Y0079140D01*
X0249300Y0079143D01*
X0249542Y0079140D01*
X0249783Y0079131D01*
X0250024Y0079116D01*
X0250265Y0079096D01*
X0250505Y0079069D01*
X0250744Y0079036D01*
X0250983Y0078998D01*
X0251220Y0078954D01*
X0251457Y0078904D01*
X0251692Y0078848D01*
X0251925Y0078786D01*
X0252157Y0078719D01*
X0252388Y0078646D01*
X0252616Y0078568D01*
X0252842Y0078483D01*
X0253067Y0078394D01*
X0253289Y0078299D01*
X0253508Y0078198D01*
X0253726Y0078092D01*
X0253940Y0077981D01*
X0254152Y0077864D01*
X0254360Y0077743D01*
X0254566Y0077616D01*
X0254768Y0077484D01*
X0254968Y0077347D01*
X0255163Y0077206D01*
X0255356Y0077060D01*
X0255544Y0076909D01*
X0255729Y0076753D01*
X0255910Y0076593D01*
X0256087Y0076429D01*
X0256260Y0076260D01*
X0256429Y0076087D01*
X0256593Y0075910D01*
X0256753Y0075729D01*
X0256909Y0075544D01*
X0257060Y0075356D01*
X0257206Y0075163D01*
X0257347Y0074968D01*
X0257484Y0074768D01*
X0257616Y0074566D01*
X0257743Y0074360D01*
X0257864Y0074152D01*
X0257981Y0073940D01*
X0258092Y0073726D01*
X0258198Y0073508D01*
X0258299Y0073289D01*
X0258394Y0073067D01*
X0258483Y0072842D01*
X0258568Y0072616D01*
X0258646Y0072388D01*
X0258719Y0072157D01*
X0258786Y0071925D01*
X0258848Y0071692D01*
X0258904Y0071457D01*
X0258954Y0071220D01*
X0258998Y0070983D01*
X0259036Y0070744D01*
X0259069Y0070505D01*
X0259096Y0070265D01*
X0259116Y0070024D01*
X0259131Y0069783D01*
X0259140Y0069542D01*
X0259143Y0069300D01*
X0259140Y0069058D01*
X0259131Y0068817D01*
X0259116Y0068576D01*
X0259096Y0068335D01*
X0259069Y0068095D01*
X0259036Y0067856D01*
X0258998Y0067617D01*
X0258954Y0067380D01*
X0258904Y0067143D01*
X0258848Y0066908D01*
X0258786Y0066675D01*
X0258719Y0066443D01*
X0258646Y0066212D01*
X0258568Y0065984D01*
X0258483Y0065758D01*
X0258394Y0065533D01*
X0258299Y0065311D01*
X0258198Y0065092D01*
X0258092Y0064874D01*
X0257981Y0064660D01*
X0257864Y0064448D01*
X0257743Y0064240D01*
X0257616Y0064034D01*
X0257484Y0063832D01*
X0257347Y0063632D01*
X0257206Y0063437D01*
X0257060Y0063244D01*
X0256909Y0063056D01*
X0256753Y0062871D01*
X0256593Y0062690D01*
X0256429Y0062513D01*
X0256260Y0062340D01*
X0256087Y0062171D01*
X0255910Y0062007D01*
X0255729Y0061847D01*
X0255544Y0061691D01*
X0255356Y0061540D01*
X0255163Y0061394D01*
X0254968Y0061253D01*
X0254768Y0061116D01*
X0254566Y0060984D01*
X0254360Y0060857D01*
X0254152Y0060736D01*
X0253940Y0060619D01*
X0253726Y0060508D01*
X0253508Y0060402D01*
X0253289Y0060301D01*
X0253067Y0060206D01*
X0252842Y0060117D01*
X0252616Y0060032D01*
X0252388Y0059954D01*
X0252157Y0059881D01*
X0251925Y0059814D01*
X0251692Y0059752D01*
X0251457Y0059696D01*
X0251220Y0059646D01*
X0250983Y0059602D01*
X0250744Y0059564D01*
X0250505Y0059531D01*
X0250265Y0059504D01*
X0250024Y0059484D01*
X0249783Y0059469D01*
X0249542Y0059460D01*
X0249300Y0059457D01*
X0249058Y0059460D01*
X0248817Y0059469D01*
X0248576Y0059484D01*
X0248335Y0059504D01*
X0248095Y0059531D01*
X0247856Y0059564D01*
X0247617Y0059602D01*
X0247380Y0059646D01*
X0247143Y0059696D01*
X0246908Y0059752D01*
X0246675Y0059814D01*
X0246443Y0059881D01*
X0246212Y0059954D01*
X0245984Y0060032D01*
X0245758Y0060117D01*
X0245533Y0060206D01*
X0245311Y0060301D01*
X0245092Y0060402D01*
X0244874Y0060508D01*
X0244660Y0060619D01*
X0244448Y0060736D01*
X0244240Y0060857D01*
X0244034Y0060984D01*
X0243832Y0061116D01*
X0243632Y0061253D01*
X0243437Y0061394D01*
X0243244Y0061540D01*
X0243056Y0061691D01*
X0242871Y0061847D01*
X0242690Y0062007D01*
X0242513Y0062171D01*
X0242340Y0062340D01*
X0242171Y0062513D01*
X0242007Y0062690D01*
X0241847Y0062871D01*
X0241691Y0063056D01*
X0241540Y0063244D01*
X0241394Y0063437D01*
X0241253Y0063632D01*
X0241116Y0063832D01*
X0240984Y0064034D01*
X0240857Y0064240D01*
X0240736Y0064448D01*
X0240619Y0064660D01*
X0240508Y0064874D01*
X0240402Y0065092D01*
X0240301Y0065311D01*
X0240206Y0065533D01*
X0240117Y0065758D01*
X0240032Y0065984D01*
X0239954Y0066212D01*
X0239881Y0066443D01*
X0239814Y0066675D01*
X0239752Y0066908D01*
X0239696Y0067143D01*
X0239646Y0067380D01*
X0239602Y0067617D01*
X0239564Y0067856D01*
X0239531Y0068095D01*
X0239504Y0068335D01*
X0239484Y0068576D01*
X0239469Y0068817D01*
X0239460Y0069058D01*
X0239457Y0069300D01*
X0349800Y0077300D02*
X0353800Y0077300D01*
X0346957Y0071800D02*
X0346960Y0072042D01*
X0346969Y0072283D01*
X0346984Y0072524D01*
X0347004Y0072765D01*
X0347031Y0073005D01*
X0347064Y0073244D01*
X0347102Y0073483D01*
X0347146Y0073720D01*
X0347196Y0073957D01*
X0347252Y0074192D01*
X0347314Y0074425D01*
X0347381Y0074657D01*
X0347454Y0074888D01*
X0347532Y0075116D01*
X0347617Y0075342D01*
X0347706Y0075567D01*
X0347801Y0075789D01*
X0347902Y0076008D01*
X0348008Y0076226D01*
X0348119Y0076440D01*
X0348236Y0076652D01*
X0348357Y0076860D01*
X0348484Y0077066D01*
X0348616Y0077268D01*
X0348753Y0077468D01*
X0348894Y0077663D01*
X0349040Y0077856D01*
X0349191Y0078044D01*
X0349347Y0078229D01*
X0349507Y0078410D01*
X0349671Y0078587D01*
X0349840Y0078760D01*
X0350013Y0078929D01*
X0350190Y0079093D01*
X0350371Y0079253D01*
X0350556Y0079409D01*
X0350744Y0079560D01*
X0350937Y0079706D01*
X0351132Y0079847D01*
X0351332Y0079984D01*
X0351534Y0080116D01*
X0351740Y0080243D01*
X0351948Y0080364D01*
X0352160Y0080481D01*
X0352374Y0080592D01*
X0352592Y0080698D01*
X0352811Y0080799D01*
X0353033Y0080894D01*
X0353258Y0080983D01*
X0353484Y0081068D01*
X0353712Y0081146D01*
X0353943Y0081219D01*
X0354175Y0081286D01*
X0354408Y0081348D01*
X0354643Y0081404D01*
X0354880Y0081454D01*
X0355117Y0081498D01*
X0355356Y0081536D01*
X0355595Y0081569D01*
X0355835Y0081596D01*
X0356076Y0081616D01*
X0356317Y0081631D01*
X0356558Y0081640D01*
X0356800Y0081643D01*
X0357042Y0081640D01*
X0357283Y0081631D01*
X0357524Y0081616D01*
X0357765Y0081596D01*
X0358005Y0081569D01*
X0358244Y0081536D01*
X0358483Y0081498D01*
X0358720Y0081454D01*
X0358957Y0081404D01*
X0359192Y0081348D01*
X0359425Y0081286D01*
X0359657Y0081219D01*
X0359888Y0081146D01*
X0360116Y0081068D01*
X0360342Y0080983D01*
X0360567Y0080894D01*
X0360789Y0080799D01*
X0361008Y0080698D01*
X0361226Y0080592D01*
X0361440Y0080481D01*
X0361652Y0080364D01*
X0361860Y0080243D01*
X0362066Y0080116D01*
X0362268Y0079984D01*
X0362468Y0079847D01*
X0362663Y0079706D01*
X0362856Y0079560D01*
X0363044Y0079409D01*
X0363229Y0079253D01*
X0363410Y0079093D01*
X0363587Y0078929D01*
X0363760Y0078760D01*
X0363929Y0078587D01*
X0364093Y0078410D01*
X0364253Y0078229D01*
X0364409Y0078044D01*
X0364560Y0077856D01*
X0364706Y0077663D01*
X0364847Y0077468D01*
X0364984Y0077268D01*
X0365116Y0077066D01*
X0365243Y0076860D01*
X0365364Y0076652D01*
X0365481Y0076440D01*
X0365592Y0076226D01*
X0365698Y0076008D01*
X0365799Y0075789D01*
X0365894Y0075567D01*
X0365983Y0075342D01*
X0366068Y0075116D01*
X0366146Y0074888D01*
X0366219Y0074657D01*
X0366286Y0074425D01*
X0366348Y0074192D01*
X0366404Y0073957D01*
X0366454Y0073720D01*
X0366498Y0073483D01*
X0366536Y0073244D01*
X0366569Y0073005D01*
X0366596Y0072765D01*
X0366616Y0072524D01*
X0366631Y0072283D01*
X0366640Y0072042D01*
X0366643Y0071800D01*
X0366640Y0071558D01*
X0366631Y0071317D01*
X0366616Y0071076D01*
X0366596Y0070835D01*
X0366569Y0070595D01*
X0366536Y0070356D01*
X0366498Y0070117D01*
X0366454Y0069880D01*
X0366404Y0069643D01*
X0366348Y0069408D01*
X0366286Y0069175D01*
X0366219Y0068943D01*
X0366146Y0068712D01*
X0366068Y0068484D01*
X0365983Y0068258D01*
X0365894Y0068033D01*
X0365799Y0067811D01*
X0365698Y0067592D01*
X0365592Y0067374D01*
X0365481Y0067160D01*
X0365364Y0066948D01*
X0365243Y0066740D01*
X0365116Y0066534D01*
X0364984Y0066332D01*
X0364847Y0066132D01*
X0364706Y0065937D01*
X0364560Y0065744D01*
X0364409Y0065556D01*
X0364253Y0065371D01*
X0364093Y0065190D01*
X0363929Y0065013D01*
X0363760Y0064840D01*
X0363587Y0064671D01*
X0363410Y0064507D01*
X0363229Y0064347D01*
X0363044Y0064191D01*
X0362856Y0064040D01*
X0362663Y0063894D01*
X0362468Y0063753D01*
X0362268Y0063616D01*
X0362066Y0063484D01*
X0361860Y0063357D01*
X0361652Y0063236D01*
X0361440Y0063119D01*
X0361226Y0063008D01*
X0361008Y0062902D01*
X0360789Y0062801D01*
X0360567Y0062706D01*
X0360342Y0062617D01*
X0360116Y0062532D01*
X0359888Y0062454D01*
X0359657Y0062381D01*
X0359425Y0062314D01*
X0359192Y0062252D01*
X0358957Y0062196D01*
X0358720Y0062146D01*
X0358483Y0062102D01*
X0358244Y0062064D01*
X0358005Y0062031D01*
X0357765Y0062004D01*
X0357524Y0061984D01*
X0357283Y0061969D01*
X0357042Y0061960D01*
X0356800Y0061957D01*
X0356558Y0061960D01*
X0356317Y0061969D01*
X0356076Y0061984D01*
X0355835Y0062004D01*
X0355595Y0062031D01*
X0355356Y0062064D01*
X0355117Y0062102D01*
X0354880Y0062146D01*
X0354643Y0062196D01*
X0354408Y0062252D01*
X0354175Y0062314D01*
X0353943Y0062381D01*
X0353712Y0062454D01*
X0353484Y0062532D01*
X0353258Y0062617D01*
X0353033Y0062706D01*
X0352811Y0062801D01*
X0352592Y0062902D01*
X0352374Y0063008D01*
X0352160Y0063119D01*
X0351948Y0063236D01*
X0351740Y0063357D01*
X0351534Y0063484D01*
X0351332Y0063616D01*
X0351132Y0063753D01*
X0350937Y0063894D01*
X0350744Y0064040D01*
X0350556Y0064191D01*
X0350371Y0064347D01*
X0350190Y0064507D01*
X0350013Y0064671D01*
X0349840Y0064840D01*
X0349671Y0065013D01*
X0349507Y0065190D01*
X0349347Y0065371D01*
X0349191Y0065556D01*
X0349040Y0065744D01*
X0348894Y0065937D01*
X0348753Y0066132D01*
X0348616Y0066332D01*
X0348484Y0066534D01*
X0348357Y0066740D01*
X0348236Y0066948D01*
X0348119Y0067160D01*
X0348008Y0067374D01*
X0347902Y0067592D01*
X0347801Y0067811D01*
X0347706Y0068033D01*
X0347617Y0068258D01*
X0347532Y0068484D01*
X0347454Y0068712D01*
X0347381Y0068943D01*
X0347314Y0069175D01*
X0347252Y0069408D01*
X0347196Y0069643D01*
X0347146Y0069880D01*
X0347102Y0070117D01*
X0347064Y0070356D01*
X0347031Y0070595D01*
X0347004Y0070835D01*
X0346984Y0071076D01*
X0346969Y0071317D01*
X0346960Y0071558D01*
X0346957Y0071800D01*
X0346957Y0016800D02*
X0346960Y0017042D01*
X0346969Y0017283D01*
X0346984Y0017524D01*
X0347004Y0017765D01*
X0347031Y0018005D01*
X0347064Y0018244D01*
X0347102Y0018483D01*
X0347146Y0018720D01*
X0347196Y0018957D01*
X0347252Y0019192D01*
X0347314Y0019425D01*
X0347381Y0019657D01*
X0347454Y0019888D01*
X0347532Y0020116D01*
X0347617Y0020342D01*
X0347706Y0020567D01*
X0347801Y0020789D01*
X0347902Y0021008D01*
X0348008Y0021226D01*
X0348119Y0021440D01*
X0348236Y0021652D01*
X0348357Y0021860D01*
X0348484Y0022066D01*
X0348616Y0022268D01*
X0348753Y0022468D01*
X0348894Y0022663D01*
X0349040Y0022856D01*
X0349191Y0023044D01*
X0349347Y0023229D01*
X0349507Y0023410D01*
X0349671Y0023587D01*
X0349840Y0023760D01*
X0350013Y0023929D01*
X0350190Y0024093D01*
X0350371Y0024253D01*
X0350556Y0024409D01*
X0350744Y0024560D01*
X0350937Y0024706D01*
X0351132Y0024847D01*
X0351332Y0024984D01*
X0351534Y0025116D01*
X0351740Y0025243D01*
X0351948Y0025364D01*
X0352160Y0025481D01*
X0352374Y0025592D01*
X0352592Y0025698D01*
X0352811Y0025799D01*
X0353033Y0025894D01*
X0353258Y0025983D01*
X0353484Y0026068D01*
X0353712Y0026146D01*
X0353943Y0026219D01*
X0354175Y0026286D01*
X0354408Y0026348D01*
X0354643Y0026404D01*
X0354880Y0026454D01*
X0355117Y0026498D01*
X0355356Y0026536D01*
X0355595Y0026569D01*
X0355835Y0026596D01*
X0356076Y0026616D01*
X0356317Y0026631D01*
X0356558Y0026640D01*
X0356800Y0026643D01*
X0357042Y0026640D01*
X0357283Y0026631D01*
X0357524Y0026616D01*
X0357765Y0026596D01*
X0358005Y0026569D01*
X0358244Y0026536D01*
X0358483Y0026498D01*
X0358720Y0026454D01*
X0358957Y0026404D01*
X0359192Y0026348D01*
X0359425Y0026286D01*
X0359657Y0026219D01*
X0359888Y0026146D01*
X0360116Y0026068D01*
X0360342Y0025983D01*
X0360567Y0025894D01*
X0360789Y0025799D01*
X0361008Y0025698D01*
X0361226Y0025592D01*
X0361440Y0025481D01*
X0361652Y0025364D01*
X0361860Y0025243D01*
X0362066Y0025116D01*
X0362268Y0024984D01*
X0362468Y0024847D01*
X0362663Y0024706D01*
X0362856Y0024560D01*
X0363044Y0024409D01*
X0363229Y0024253D01*
X0363410Y0024093D01*
X0363587Y0023929D01*
X0363760Y0023760D01*
X0363929Y0023587D01*
X0364093Y0023410D01*
X0364253Y0023229D01*
X0364409Y0023044D01*
X0364560Y0022856D01*
X0364706Y0022663D01*
X0364847Y0022468D01*
X0364984Y0022268D01*
X0365116Y0022066D01*
X0365243Y0021860D01*
X0365364Y0021652D01*
X0365481Y0021440D01*
X0365592Y0021226D01*
X0365698Y0021008D01*
X0365799Y0020789D01*
X0365894Y0020567D01*
X0365983Y0020342D01*
X0366068Y0020116D01*
X0366146Y0019888D01*
X0366219Y0019657D01*
X0366286Y0019425D01*
X0366348Y0019192D01*
X0366404Y0018957D01*
X0366454Y0018720D01*
X0366498Y0018483D01*
X0366536Y0018244D01*
X0366569Y0018005D01*
X0366596Y0017765D01*
X0366616Y0017524D01*
X0366631Y0017283D01*
X0366640Y0017042D01*
X0366643Y0016800D01*
X0366640Y0016558D01*
X0366631Y0016317D01*
X0366616Y0016076D01*
X0366596Y0015835D01*
X0366569Y0015595D01*
X0366536Y0015356D01*
X0366498Y0015117D01*
X0366454Y0014880D01*
X0366404Y0014643D01*
X0366348Y0014408D01*
X0366286Y0014175D01*
X0366219Y0013943D01*
X0366146Y0013712D01*
X0366068Y0013484D01*
X0365983Y0013258D01*
X0365894Y0013033D01*
X0365799Y0012811D01*
X0365698Y0012592D01*
X0365592Y0012374D01*
X0365481Y0012160D01*
X0365364Y0011948D01*
X0365243Y0011740D01*
X0365116Y0011534D01*
X0364984Y0011332D01*
X0364847Y0011132D01*
X0364706Y0010937D01*
X0364560Y0010744D01*
X0364409Y0010556D01*
X0364253Y0010371D01*
X0364093Y0010190D01*
X0363929Y0010013D01*
X0363760Y0009840D01*
X0363587Y0009671D01*
X0363410Y0009507D01*
X0363229Y0009347D01*
X0363044Y0009191D01*
X0362856Y0009040D01*
X0362663Y0008894D01*
X0362468Y0008753D01*
X0362268Y0008616D01*
X0362066Y0008484D01*
X0361860Y0008357D01*
X0361652Y0008236D01*
X0361440Y0008119D01*
X0361226Y0008008D01*
X0361008Y0007902D01*
X0360789Y0007801D01*
X0360567Y0007706D01*
X0360342Y0007617D01*
X0360116Y0007532D01*
X0359888Y0007454D01*
X0359657Y0007381D01*
X0359425Y0007314D01*
X0359192Y0007252D01*
X0358957Y0007196D01*
X0358720Y0007146D01*
X0358483Y0007102D01*
X0358244Y0007064D01*
X0358005Y0007031D01*
X0357765Y0007004D01*
X0357524Y0006984D01*
X0357283Y0006969D01*
X0357042Y0006960D01*
X0356800Y0006957D01*
X0356558Y0006960D01*
X0356317Y0006969D01*
X0356076Y0006984D01*
X0355835Y0007004D01*
X0355595Y0007031D01*
X0355356Y0007064D01*
X0355117Y0007102D01*
X0354880Y0007146D01*
X0354643Y0007196D01*
X0354408Y0007252D01*
X0354175Y0007314D01*
X0353943Y0007381D01*
X0353712Y0007454D01*
X0353484Y0007532D01*
X0353258Y0007617D01*
X0353033Y0007706D01*
X0352811Y0007801D01*
X0352592Y0007902D01*
X0352374Y0008008D01*
X0352160Y0008119D01*
X0351948Y0008236D01*
X0351740Y0008357D01*
X0351534Y0008484D01*
X0351332Y0008616D01*
X0351132Y0008753D01*
X0350937Y0008894D01*
X0350744Y0009040D01*
X0350556Y0009191D01*
X0350371Y0009347D01*
X0350190Y0009507D01*
X0350013Y0009671D01*
X0349840Y0009840D01*
X0349671Y0010013D01*
X0349507Y0010190D01*
X0349347Y0010371D01*
X0349191Y0010556D01*
X0349040Y0010744D01*
X0348894Y0010937D01*
X0348753Y0011132D01*
X0348616Y0011332D01*
X0348484Y0011534D01*
X0348357Y0011740D01*
X0348236Y0011948D01*
X0348119Y0012160D01*
X0348008Y0012374D01*
X0347902Y0012592D01*
X0347801Y0012811D01*
X0347706Y0013033D01*
X0347617Y0013258D01*
X0347532Y0013484D01*
X0347454Y0013712D01*
X0347381Y0013943D01*
X0347314Y0014175D01*
X0347252Y0014408D01*
X0347196Y0014643D01*
X0347146Y0014880D01*
X0347102Y0015117D01*
X0347064Y0015356D01*
X0347031Y0015595D01*
X0347004Y0015835D01*
X0346984Y0016076D01*
X0346969Y0016317D01*
X0346960Y0016558D01*
X0346957Y0016800D01*
X0359800Y0011300D02*
X0363800Y0011300D01*
D11*
X0165300Y0044300D02*
X0165302Y0044426D01*
X0165308Y0044552D01*
X0165318Y0044678D01*
X0165332Y0044804D01*
X0165350Y0044929D01*
X0165372Y0045053D01*
X0165397Y0045177D01*
X0165427Y0045300D01*
X0165460Y0045421D01*
X0165498Y0045542D01*
X0165539Y0045661D01*
X0165584Y0045780D01*
X0165632Y0045896D01*
X0165684Y0046011D01*
X0165740Y0046124D01*
X0165800Y0046236D01*
X0165863Y0046345D01*
X0165929Y0046453D01*
X0165998Y0046558D01*
X0166071Y0046661D01*
X0166148Y0046762D01*
X0166227Y0046860D01*
X0166309Y0046956D01*
X0166395Y0047049D01*
X0166483Y0047140D01*
X0166574Y0047227D01*
X0166668Y0047312D01*
X0166764Y0047393D01*
X0166863Y0047472D01*
X0166964Y0047547D01*
X0167068Y0047619D01*
X0167174Y0047688D01*
X0167282Y0047754D01*
X0167392Y0047816D01*
X0167504Y0047874D01*
X0167617Y0047929D01*
X0167733Y0047980D01*
X0167850Y0048028D01*
X0167968Y0048072D01*
X0168088Y0048112D01*
X0168209Y0048148D01*
X0168331Y0048181D01*
X0168454Y0048210D01*
X0168578Y0048234D01*
X0168702Y0048255D01*
X0168827Y0048272D01*
X0168953Y0048285D01*
X0169079Y0048294D01*
X0169205Y0048299D01*
X0169332Y0048300D01*
X0169458Y0048297D01*
X0169584Y0048290D01*
X0169710Y0048279D01*
X0169835Y0048264D01*
X0169960Y0048245D01*
X0170084Y0048222D01*
X0170208Y0048196D01*
X0170330Y0048165D01*
X0170452Y0048131D01*
X0170572Y0048092D01*
X0170691Y0048050D01*
X0170809Y0048005D01*
X0170925Y0047955D01*
X0171040Y0047902D01*
X0171152Y0047845D01*
X0171263Y0047785D01*
X0171372Y0047721D01*
X0171479Y0047654D01*
X0171584Y0047584D01*
X0171687Y0047510D01*
X0171787Y0047433D01*
X0171885Y0047353D01*
X0171980Y0047270D01*
X0172072Y0047184D01*
X0172162Y0047095D01*
X0172249Y0047003D01*
X0172332Y0046909D01*
X0172413Y0046812D01*
X0172491Y0046712D01*
X0172566Y0046610D01*
X0172637Y0046506D01*
X0172705Y0046399D01*
X0172769Y0046291D01*
X0172830Y0046180D01*
X0172888Y0046068D01*
X0172942Y0045954D01*
X0172992Y0045838D01*
X0173039Y0045721D01*
X0173082Y0045602D01*
X0173121Y0045482D01*
X0173157Y0045361D01*
X0173188Y0045238D01*
X0173216Y0045115D01*
X0173240Y0044991D01*
X0173260Y0044866D01*
X0173276Y0044741D01*
X0173288Y0044615D01*
X0173296Y0044489D01*
X0173300Y0044363D01*
X0173300Y0044237D01*
X0173296Y0044111D01*
X0173288Y0043985D01*
X0173276Y0043859D01*
X0173260Y0043734D01*
X0173240Y0043609D01*
X0173216Y0043485D01*
X0173188Y0043362D01*
X0173157Y0043239D01*
X0173121Y0043118D01*
X0173082Y0042998D01*
X0173039Y0042879D01*
X0172992Y0042762D01*
X0172942Y0042646D01*
X0172888Y0042532D01*
X0172830Y0042420D01*
X0172769Y0042309D01*
X0172705Y0042201D01*
X0172637Y0042094D01*
X0172566Y0041990D01*
X0172491Y0041888D01*
X0172413Y0041788D01*
X0172332Y0041691D01*
X0172249Y0041597D01*
X0172162Y0041505D01*
X0172072Y0041416D01*
X0171980Y0041330D01*
X0171885Y0041247D01*
X0171787Y0041167D01*
X0171687Y0041090D01*
X0171584Y0041016D01*
X0171479Y0040946D01*
X0171372Y0040879D01*
X0171263Y0040815D01*
X0171152Y0040755D01*
X0171040Y0040698D01*
X0170925Y0040645D01*
X0170809Y0040595D01*
X0170691Y0040550D01*
X0170572Y0040508D01*
X0170452Y0040469D01*
X0170330Y0040435D01*
X0170208Y0040404D01*
X0170084Y0040378D01*
X0169960Y0040355D01*
X0169835Y0040336D01*
X0169710Y0040321D01*
X0169584Y0040310D01*
X0169458Y0040303D01*
X0169332Y0040300D01*
X0169205Y0040301D01*
X0169079Y0040306D01*
X0168953Y0040315D01*
X0168827Y0040328D01*
X0168702Y0040345D01*
X0168578Y0040366D01*
X0168454Y0040390D01*
X0168331Y0040419D01*
X0168209Y0040452D01*
X0168088Y0040488D01*
X0167968Y0040528D01*
X0167850Y0040572D01*
X0167733Y0040620D01*
X0167617Y0040671D01*
X0167504Y0040726D01*
X0167392Y0040784D01*
X0167282Y0040846D01*
X0167174Y0040912D01*
X0167068Y0040981D01*
X0166964Y0041053D01*
X0166863Y0041128D01*
X0166764Y0041207D01*
X0166668Y0041288D01*
X0166574Y0041373D01*
X0166483Y0041460D01*
X0166395Y0041551D01*
X0166309Y0041644D01*
X0166227Y0041740D01*
X0166148Y0041838D01*
X0166071Y0041939D01*
X0165998Y0042042D01*
X0165929Y0042147D01*
X0165863Y0042255D01*
X0165800Y0042364D01*
X0165740Y0042476D01*
X0165684Y0042589D01*
X0165632Y0042704D01*
X0165584Y0042820D01*
X0165539Y0042939D01*
X0165498Y0043058D01*
X0165460Y0043179D01*
X0165427Y0043300D01*
X0165397Y0043423D01*
X0165372Y0043547D01*
X0165350Y0043671D01*
X0165332Y0043796D01*
X0165318Y0043922D01*
X0165308Y0044048D01*
X0165302Y0044174D01*
X0165300Y0044300D01*
X0163800Y0044300D02*
X0163802Y0044448D01*
X0163808Y0044596D01*
X0163818Y0044744D01*
X0163832Y0044892D01*
X0163850Y0045039D01*
X0163872Y0045186D01*
X0163898Y0045332D01*
X0163927Y0045477D01*
X0163961Y0045622D01*
X0163999Y0045765D01*
X0164040Y0045908D01*
X0164085Y0046049D01*
X0164135Y0046189D01*
X0164187Y0046327D01*
X0164244Y0046465D01*
X0164304Y0046600D01*
X0164368Y0046734D01*
X0164435Y0046866D01*
X0164506Y0046996D01*
X0164581Y0047125D01*
X0164659Y0047251D01*
X0164740Y0047375D01*
X0164824Y0047497D01*
X0164912Y0047616D01*
X0165003Y0047733D01*
X0165097Y0047848D01*
X0165195Y0047960D01*
X0165295Y0048069D01*
X0165398Y0048176D01*
X0165504Y0048280D01*
X0165612Y0048381D01*
X0165724Y0048479D01*
X0165838Y0048574D01*
X0165954Y0048665D01*
X0166073Y0048754D01*
X0166194Y0048839D01*
X0166318Y0048921D01*
X0166444Y0049000D01*
X0166571Y0049075D01*
X0166701Y0049147D01*
X0166833Y0049216D01*
X0166966Y0049280D01*
X0167101Y0049341D01*
X0167238Y0049399D01*
X0167376Y0049453D01*
X0167516Y0049503D01*
X0167657Y0049549D01*
X0167799Y0049591D01*
X0167942Y0049630D01*
X0168086Y0049664D01*
X0168232Y0049695D01*
X0168377Y0049722D01*
X0168524Y0049745D01*
X0168671Y0049764D01*
X0168819Y0049779D01*
X0168966Y0049790D01*
X0169115Y0049797D01*
X0169263Y0049800D01*
X0169411Y0049799D01*
X0169559Y0049794D01*
X0169707Y0049785D01*
X0169855Y0049772D01*
X0170003Y0049755D01*
X0170149Y0049734D01*
X0170296Y0049709D01*
X0170441Y0049680D01*
X0170586Y0049648D01*
X0170729Y0049611D01*
X0170872Y0049571D01*
X0171014Y0049526D01*
X0171154Y0049478D01*
X0171293Y0049426D01*
X0171430Y0049371D01*
X0171566Y0049311D01*
X0171701Y0049248D01*
X0171833Y0049182D01*
X0171964Y0049112D01*
X0172093Y0049038D01*
X0172219Y0048961D01*
X0172344Y0048881D01*
X0172466Y0048797D01*
X0172587Y0048710D01*
X0172704Y0048620D01*
X0172820Y0048526D01*
X0172932Y0048430D01*
X0173042Y0048331D01*
X0173150Y0048228D01*
X0173254Y0048123D01*
X0173356Y0048015D01*
X0173454Y0047904D01*
X0173550Y0047791D01*
X0173643Y0047675D01*
X0173732Y0047557D01*
X0173818Y0047436D01*
X0173901Y0047313D01*
X0173981Y0047188D01*
X0174057Y0047061D01*
X0174130Y0046931D01*
X0174199Y0046800D01*
X0174264Y0046667D01*
X0174327Y0046533D01*
X0174385Y0046396D01*
X0174440Y0046258D01*
X0174490Y0046119D01*
X0174538Y0045978D01*
X0174581Y0045837D01*
X0174621Y0045694D01*
X0174656Y0045550D01*
X0174688Y0045405D01*
X0174716Y0045259D01*
X0174740Y0045113D01*
X0174760Y0044966D01*
X0174776Y0044818D01*
X0174788Y0044671D01*
X0174796Y0044522D01*
X0174800Y0044374D01*
X0174800Y0044226D01*
X0174796Y0044078D01*
X0174788Y0043929D01*
X0174776Y0043782D01*
X0174760Y0043634D01*
X0174740Y0043487D01*
X0174716Y0043341D01*
X0174688Y0043195D01*
X0174656Y0043050D01*
X0174621Y0042906D01*
X0174581Y0042763D01*
X0174538Y0042622D01*
X0174490Y0042481D01*
X0174440Y0042342D01*
X0174385Y0042204D01*
X0174327Y0042067D01*
X0174264Y0041933D01*
X0174199Y0041800D01*
X0174130Y0041669D01*
X0174057Y0041539D01*
X0173981Y0041412D01*
X0173901Y0041287D01*
X0173818Y0041164D01*
X0173732Y0041043D01*
X0173643Y0040925D01*
X0173550Y0040809D01*
X0173454Y0040696D01*
X0173356Y0040585D01*
X0173254Y0040477D01*
X0173150Y0040372D01*
X0173042Y0040269D01*
X0172932Y0040170D01*
X0172820Y0040074D01*
X0172704Y0039980D01*
X0172587Y0039890D01*
X0172466Y0039803D01*
X0172344Y0039719D01*
X0172219Y0039639D01*
X0172093Y0039562D01*
X0171964Y0039488D01*
X0171833Y0039418D01*
X0171701Y0039352D01*
X0171566Y0039289D01*
X0171430Y0039229D01*
X0171293Y0039174D01*
X0171154Y0039122D01*
X0171014Y0039074D01*
X0170872Y0039029D01*
X0170729Y0038989D01*
X0170586Y0038952D01*
X0170441Y0038920D01*
X0170296Y0038891D01*
X0170149Y0038866D01*
X0170003Y0038845D01*
X0169855Y0038828D01*
X0169707Y0038815D01*
X0169559Y0038806D01*
X0169411Y0038801D01*
X0169263Y0038800D01*
X0169115Y0038803D01*
X0168966Y0038810D01*
X0168819Y0038821D01*
X0168671Y0038836D01*
X0168524Y0038855D01*
X0168377Y0038878D01*
X0168232Y0038905D01*
X0168086Y0038936D01*
X0167942Y0038970D01*
X0167799Y0039009D01*
X0167657Y0039051D01*
X0167516Y0039097D01*
X0167376Y0039147D01*
X0167238Y0039201D01*
X0167101Y0039259D01*
X0166966Y0039320D01*
X0166833Y0039384D01*
X0166701Y0039453D01*
X0166571Y0039525D01*
X0166444Y0039600D01*
X0166318Y0039679D01*
X0166194Y0039761D01*
X0166073Y0039846D01*
X0165954Y0039935D01*
X0165838Y0040026D01*
X0165724Y0040121D01*
X0165612Y0040219D01*
X0165504Y0040320D01*
X0165398Y0040424D01*
X0165295Y0040531D01*
X0165195Y0040640D01*
X0165097Y0040752D01*
X0165003Y0040867D01*
X0164912Y0040984D01*
X0164824Y0041103D01*
X0164740Y0041225D01*
X0164659Y0041349D01*
X0164581Y0041475D01*
X0164506Y0041604D01*
X0164435Y0041734D01*
X0164368Y0041866D01*
X0164304Y0042000D01*
X0164244Y0042135D01*
X0164187Y0042273D01*
X0164135Y0042411D01*
X0164085Y0042551D01*
X0164040Y0042692D01*
X0163999Y0042835D01*
X0163961Y0042978D01*
X0163927Y0043123D01*
X0163898Y0043268D01*
X0163872Y0043414D01*
X0163850Y0043561D01*
X0163832Y0043708D01*
X0163818Y0043856D01*
X0163808Y0044004D01*
X0163802Y0044152D01*
X0163800Y0044300D01*
D12*
X0179447Y0045920D02*
X0180097Y0045270D01*
X0182699Y0045270D01*
X0183350Y0045920D01*
X0183350Y0047222D01*
X0182699Y0047872D01*
X0181398Y0047872D01*
X0181398Y0046571D01*
X0180097Y0047872D02*
X0179447Y0047222D01*
X0179447Y0045920D01*
X0180748Y0049137D02*
X0179447Y0050438D01*
X0180748Y0051739D01*
X0183350Y0051739D01*
X0183350Y0053004D02*
X0183350Y0054306D01*
X0183350Y0053655D02*
X0179447Y0053655D01*
X0179447Y0053004D02*
X0179447Y0054306D01*
X0179447Y0055583D02*
X0183350Y0058185D01*
X0179447Y0058185D01*
X0179447Y0055583D02*
X0183350Y0055583D01*
X0181398Y0051739D02*
X0181398Y0049137D01*
X0180748Y0049137D02*
X0183350Y0049137D01*
X0262797Y0074950D02*
X0262797Y0078653D01*
X0260945Y0076802D01*
X0263414Y0076802D01*
X0264628Y0075567D02*
X0264628Y0074950D01*
X0264628Y0075567D02*
X0267097Y0078036D01*
X0267097Y0078653D01*
X0264628Y0078653D01*
X0268311Y0077419D02*
X0268311Y0075567D01*
X0268929Y0074950D01*
X0270780Y0074950D01*
X0270780Y0077419D01*
X0271995Y0076802D02*
X0273229Y0076802D01*
X0272612Y0078036D02*
X0272612Y0074950D01*
X0272612Y0078036D02*
X0273229Y0078653D01*
X0339700Y0079786D02*
X0339700Y0077317D01*
X0340317Y0076700D01*
X0341552Y0076700D01*
X0342169Y0077317D01*
X0343383Y0076700D02*
X0345852Y0079169D01*
X0345852Y0079786D01*
X0345235Y0080403D01*
X0344000Y0080403D01*
X0343383Y0079786D01*
X0342169Y0079786D02*
X0341552Y0080403D01*
X0340317Y0080403D01*
X0339700Y0079786D01*
X0343383Y0076700D02*
X0345852Y0076700D01*
X0353184Y0061153D02*
X0353184Y0057450D01*
X0351950Y0057450D02*
X0354419Y0057450D01*
X0355633Y0058067D02*
X0356250Y0057450D01*
X0357485Y0057450D01*
X0358102Y0058067D01*
X0358102Y0060536D01*
X0355633Y0058067D01*
X0355633Y0060536D01*
X0356250Y0061153D01*
X0357485Y0061153D01*
X0358102Y0060536D01*
X0359316Y0059919D02*
X0359316Y0058067D01*
X0359933Y0057450D01*
X0361785Y0057450D01*
X0361785Y0059919D01*
X0362999Y0059302D02*
X0364234Y0059302D01*
X0363617Y0060536D02*
X0364234Y0061153D01*
X0363617Y0060536D02*
X0363617Y0057450D01*
X0353184Y0061153D02*
X0351950Y0059919D01*
X0352180Y0031153D02*
X0352180Y0027450D01*
X0353414Y0027450D02*
X0350945Y0027450D01*
X0354628Y0028067D02*
X0357097Y0030536D01*
X0357097Y0028067D01*
X0356480Y0027450D01*
X0355245Y0027450D01*
X0354628Y0028067D01*
X0354628Y0030536D01*
X0355245Y0031153D01*
X0356480Y0031153D01*
X0357097Y0030536D01*
X0358311Y0029919D02*
X0358311Y0028067D01*
X0358929Y0027450D01*
X0360780Y0027450D01*
X0360780Y0029919D01*
X0361995Y0029302D02*
X0363229Y0029302D01*
X0362612Y0030536D02*
X0362612Y0027450D01*
X0352180Y0031153D02*
X0350945Y0029919D01*
X0362612Y0030536D02*
X0363229Y0031153D01*
X0345501Y0011903D02*
X0345501Y0008200D01*
X0344267Y0008200D02*
X0346736Y0008200D01*
X0343052Y0008817D02*
X0342435Y0008200D01*
X0341201Y0008200D01*
X0340584Y0008817D01*
X0340584Y0011286D01*
X0341201Y0011903D01*
X0342435Y0011903D01*
X0343052Y0011286D01*
X0344267Y0010669D02*
X0345501Y0011903D01*
D13*
X0378741Y0024650D02*
X0378741Y0027853D01*
X0380876Y0027853D01*
X0382055Y0027853D02*
X0382055Y0025184D01*
X0382589Y0024650D01*
X0383657Y0024650D01*
X0384191Y0025184D01*
X0384191Y0027853D01*
X0385370Y0027319D02*
X0385904Y0027853D01*
X0386972Y0027853D01*
X0387505Y0027319D01*
X0386972Y0026251D02*
X0387505Y0025718D01*
X0387505Y0025184D01*
X0386972Y0024650D01*
X0385904Y0024650D01*
X0385370Y0025184D01*
X0385904Y0026251D02*
X0386972Y0026251D01*
X0385904Y0026251D02*
X0385370Y0026785D01*
X0385370Y0027319D01*
X0388685Y0027853D02*
X0388685Y0024650D01*
X0390820Y0024650D01*
X0389753Y0026251D02*
X0388685Y0026251D01*
X0388685Y0027853D02*
X0390820Y0027853D01*
X0379808Y0026251D02*
X0378741Y0026251D01*
X0289600Y0029500D02*
X0289600Y0031635D01*
X0289600Y0030568D02*
X0286397Y0030568D01*
X0287465Y0029500D01*
X0282600Y0030034D02*
X0282600Y0031101D01*
X0282066Y0031635D01*
X0282066Y0032815D02*
X0280999Y0032815D01*
X0280999Y0034416D01*
X0281532Y0034950D01*
X0282066Y0034950D01*
X0282600Y0034416D01*
X0282600Y0033349D01*
X0282066Y0032815D01*
X0280999Y0032815D02*
X0279931Y0033882D01*
X0279397Y0034950D01*
X0286397Y0034950D02*
X0286397Y0032815D01*
X0287999Y0032815D01*
X0287465Y0033882D01*
X0287465Y0034416D01*
X0287999Y0034950D01*
X0289066Y0034950D01*
X0289600Y0034416D01*
X0289600Y0033349D01*
X0289066Y0032815D01*
X0279931Y0031635D02*
X0279397Y0031101D01*
X0279397Y0030034D01*
X0279931Y0029500D01*
X0282066Y0029500D01*
X0282600Y0030034D01*
X0273088Y0027761D02*
X0273088Y0025692D01*
X0273088Y0026726D02*
X0269985Y0026726D01*
X0271019Y0025692D01*
X0270502Y0024538D02*
X0271536Y0024538D01*
X0272054Y0024021D01*
X0272054Y0022469D01*
X0273088Y0022469D02*
X0269985Y0022469D01*
X0269985Y0024021D01*
X0270502Y0024538D01*
X0272054Y0023504D02*
X0273088Y0024538D01*
X0263088Y0024538D02*
X0262054Y0023504D01*
X0262054Y0024021D02*
X0262054Y0022469D01*
X0263088Y0022469D02*
X0259985Y0022469D01*
X0259985Y0024021D01*
X0260502Y0024538D01*
X0261536Y0024538D01*
X0262054Y0024021D01*
X0263088Y0025692D02*
X0263088Y0027761D01*
X0263088Y0026726D02*
X0259985Y0026726D01*
X0261019Y0025692D01*
X0260502Y0028915D02*
X0259985Y0029432D01*
X0259985Y0030466D01*
X0260502Y0030983D01*
X0262571Y0028915D01*
X0263088Y0029432D01*
X0263088Y0030466D01*
X0262571Y0030983D01*
X0260502Y0030983D01*
X0258128Y0031547D02*
X0258128Y0029746D01*
X0254525Y0029746D01*
X0254525Y0031547D01*
X0255125Y0032148D01*
X0257527Y0032148D01*
X0258128Y0031547D01*
X0252915Y0031614D02*
X0252915Y0030413D01*
X0252314Y0029813D01*
X0249912Y0029813D01*
X0249312Y0030413D01*
X0249312Y0031614D01*
X0249912Y0032215D01*
X0252314Y0032215D02*
X0252915Y0031614D01*
X0252915Y0033496D02*
X0252314Y0033496D01*
X0249912Y0035898D01*
X0249312Y0035898D01*
X0249312Y0033496D01*
X0254525Y0033429D02*
X0258128Y0035831D01*
X0254525Y0035831D01*
X0254525Y0037112D02*
X0254525Y0038913D01*
X0255125Y0039514D01*
X0256326Y0039514D01*
X0256927Y0038913D01*
X0256927Y0037112D01*
X0258128Y0037112D02*
X0254525Y0037112D01*
X0254525Y0033429D02*
X0258128Y0033429D01*
X0260502Y0028915D02*
X0262571Y0028915D01*
X0243088Y0027243D02*
X0243088Y0026209D01*
X0242571Y0025692D01*
X0242054Y0025692D01*
X0241536Y0026209D01*
X0241536Y0027243D01*
X0242054Y0027761D01*
X0242571Y0027761D01*
X0243088Y0027243D01*
X0241536Y0027243D02*
X0241019Y0027761D01*
X0240502Y0027761D01*
X0239985Y0027243D01*
X0239985Y0026209D01*
X0240502Y0025692D01*
X0241019Y0025692D01*
X0241536Y0026209D01*
X0241536Y0024538D02*
X0242054Y0024021D01*
X0242054Y0022469D01*
X0243088Y0022469D02*
X0239985Y0022469D01*
X0239985Y0024021D01*
X0240502Y0024538D01*
X0241536Y0024538D01*
X0242054Y0023504D02*
X0243088Y0024538D01*
X0224290Y0020030D02*
X0221888Y0017628D01*
X0222489Y0017028D01*
X0223690Y0017028D01*
X0224290Y0017628D01*
X0224290Y0020030D01*
X0223690Y0020631D01*
X0222489Y0020631D01*
X0221888Y0020030D01*
X0221888Y0017628D01*
X0220607Y0017628D02*
X0220006Y0017028D01*
X0218805Y0017028D01*
X0218205Y0017628D01*
X0220607Y0020030D01*
X0220607Y0017628D01*
X0218205Y0017628D02*
X0218205Y0020030D01*
X0218805Y0020631D01*
X0220006Y0020631D01*
X0220607Y0020030D01*
X0215723Y0020631D02*
X0214522Y0019430D01*
X0215723Y0020631D02*
X0215723Y0017028D01*
X0214522Y0017028D02*
X0216924Y0017028D01*
X0221821Y0014817D02*
X0221821Y0012415D01*
X0222421Y0011815D01*
X0223622Y0011815D01*
X0224223Y0012415D01*
X0225504Y0013616D02*
X0227906Y0013616D01*
X0227305Y0015418D02*
X0225504Y0013616D01*
X0224223Y0014817D02*
X0223622Y0015418D01*
X0222421Y0015418D01*
X0221821Y0014817D01*
X0227305Y0015418D02*
X0227305Y0011815D01*
X0227973Y0017028D02*
X0227973Y0018829D01*
X0227373Y0019430D01*
X0225571Y0019430D01*
X0225571Y0017028D01*
X0287465Y0036130D02*
X0287465Y0037731D01*
X0287999Y0038265D01*
X0289600Y0038265D01*
X0287999Y0039444D02*
X0287999Y0040512D01*
X0286931Y0039978D02*
X0286397Y0040512D01*
X0286931Y0039978D02*
X0289600Y0039978D01*
X0289600Y0036130D02*
X0287465Y0036130D01*
X0378741Y0059650D02*
X0378741Y0062853D01*
X0380876Y0062853D01*
X0382055Y0062853D02*
X0382055Y0060184D01*
X0382589Y0059650D01*
X0383657Y0059650D01*
X0384191Y0060184D01*
X0384191Y0062853D01*
X0385370Y0062319D02*
X0385904Y0062853D01*
X0386972Y0062853D01*
X0387505Y0062319D01*
X0386972Y0061251D02*
X0387505Y0060718D01*
X0387505Y0060184D01*
X0386972Y0059650D01*
X0385904Y0059650D01*
X0385370Y0060184D01*
X0385904Y0061251D02*
X0386972Y0061251D01*
X0385904Y0061251D02*
X0385370Y0061785D01*
X0385370Y0062319D01*
X0388685Y0062853D02*
X0388685Y0059650D01*
X0390820Y0059650D01*
X0389753Y0061251D02*
X0388685Y0061251D01*
X0388685Y0062853D02*
X0390820Y0062853D01*
X0379808Y0061251D02*
X0378741Y0061251D01*
X0197906Y0067415D02*
X0197305Y0066815D01*
X0196104Y0066815D01*
X0195504Y0067415D01*
X0195504Y0068616D02*
X0196705Y0069217D01*
X0197305Y0069217D01*
X0197906Y0068616D01*
X0197906Y0067415D01*
X0195504Y0068616D02*
X0195504Y0070418D01*
X0197906Y0070418D01*
X0197973Y0072028D02*
X0197973Y0073829D01*
X0197373Y0074430D01*
X0195571Y0074430D01*
X0195571Y0072028D01*
X0194290Y0072628D02*
X0193690Y0072028D01*
X0192489Y0072028D01*
X0191888Y0072628D01*
X0194290Y0075030D01*
X0194290Y0072628D01*
X0191888Y0072628D02*
X0191888Y0075030D01*
X0192489Y0075631D01*
X0193690Y0075631D01*
X0194290Y0075030D01*
X0190607Y0075030D02*
X0188205Y0072628D01*
X0188805Y0072028D01*
X0190006Y0072028D01*
X0190607Y0072628D01*
X0190607Y0075030D01*
X0190006Y0075631D01*
X0188805Y0075631D01*
X0188205Y0075030D01*
X0188205Y0072628D01*
X0186924Y0072028D02*
X0184522Y0072028D01*
X0185723Y0072028D02*
X0185723Y0075631D01*
X0184522Y0074430D01*
X0191821Y0069817D02*
X0192421Y0070418D01*
X0193622Y0070418D01*
X0194223Y0069817D01*
X0191821Y0069817D02*
X0191821Y0067415D01*
X0192421Y0066815D01*
X0193622Y0066815D01*
X0194223Y0067415D01*
X0159100Y0057965D02*
X0157565Y0055663D01*
X0156031Y0057965D01*
X0154496Y0055663D02*
X0159100Y0055663D01*
X0158333Y0054129D02*
X0155263Y0054129D01*
X0158333Y0051059D01*
X0159100Y0051827D01*
X0159100Y0053361D01*
X0158333Y0054129D01*
X0155263Y0054129D02*
X0154496Y0053361D01*
X0154496Y0051827D01*
X0155263Y0051059D01*
X0158333Y0051059D01*
X0158333Y0049525D02*
X0156798Y0049525D01*
X0156031Y0048757D01*
X0156031Y0047990D01*
X0156798Y0046456D01*
X0154496Y0046456D01*
X0154496Y0049525D01*
X0158333Y0049525D02*
X0159100Y0048757D01*
X0159100Y0047223D01*
X0158333Y0046456D01*
X0108065Y0025404D02*
X0104996Y0025404D01*
X0103461Y0025404D02*
X0100392Y0020800D01*
X0098857Y0020800D02*
X0095788Y0020800D01*
X0095788Y0025404D01*
X0098857Y0025404D01*
X0100392Y0025404D02*
X0103461Y0020800D01*
X0106531Y0020800D02*
X0106531Y0025404D01*
X0097323Y0023102D02*
X0095788Y0023102D01*
X0048065Y0025404D02*
X0044996Y0025404D01*
X0043461Y0025404D02*
X0043461Y0021567D01*
X0042694Y0020800D01*
X0041159Y0020800D01*
X0040392Y0021567D01*
X0040392Y0025404D01*
X0038857Y0024637D02*
X0038090Y0025404D01*
X0036556Y0025404D01*
X0035788Y0024637D01*
X0035788Y0021567D01*
X0036556Y0020800D01*
X0038090Y0020800D01*
X0038857Y0021567D01*
X0038857Y0024637D01*
X0046531Y0025404D02*
X0046531Y0020800D01*
X0028483Y0018615D02*
X0027449Y0018098D01*
X0026415Y0017064D01*
X0027966Y0017064D01*
X0028483Y0016546D01*
X0028483Y0016029D01*
X0027966Y0015512D01*
X0026932Y0015512D01*
X0026415Y0016029D01*
X0026415Y0017064D01*
X0025261Y0015512D02*
X0023192Y0015512D01*
X0024226Y0015512D02*
X0024226Y0018615D01*
X0023192Y0017581D01*
X0022038Y0018098D02*
X0022038Y0017064D01*
X0021521Y0016546D01*
X0019969Y0016546D01*
X0019969Y0015512D02*
X0019969Y0018615D01*
X0021521Y0018615D01*
X0022038Y0018098D01*
X0021004Y0016546D02*
X0022038Y0015512D01*
X0067469Y0073012D02*
X0067469Y0076115D01*
X0069021Y0076115D01*
X0069538Y0075598D01*
X0069538Y0074564D01*
X0069021Y0074046D01*
X0067469Y0074046D01*
X0068504Y0074046D02*
X0069538Y0073012D01*
X0070692Y0073012D02*
X0072761Y0073012D01*
X0071726Y0073012D02*
X0071726Y0076115D01*
X0070692Y0075081D01*
X0073915Y0075598D02*
X0074432Y0076115D01*
X0075466Y0076115D01*
X0075983Y0075598D01*
X0075983Y0075081D01*
X0073915Y0073012D01*
X0075983Y0073012D01*
X0112469Y0073012D02*
X0112469Y0076115D01*
X0114021Y0076115D01*
X0114538Y0075598D01*
X0114538Y0074564D01*
X0114021Y0074046D01*
X0112469Y0074046D01*
X0113504Y0074046D02*
X0114538Y0073012D01*
X0115692Y0073012D02*
X0117761Y0073012D01*
X0116726Y0073012D02*
X0116726Y0076115D01*
X0115692Y0075081D01*
X0118915Y0074564D02*
X0120983Y0074564D01*
X0120466Y0076115D02*
X0118915Y0074564D01*
X0120466Y0076115D02*
X0120466Y0073012D01*
D14*
X0019300Y0009800D02*
X0017800Y0009800D01*
X0017740Y0009802D01*
X0017679Y0009807D01*
X0017620Y0009816D01*
X0017561Y0009829D01*
X0017502Y0009845D01*
X0017445Y0009865D01*
X0017390Y0009888D01*
X0017335Y0009915D01*
X0017283Y0009944D01*
X0017232Y0009977D01*
X0017183Y0010013D01*
X0017137Y0010051D01*
X0017093Y0010093D01*
X0017051Y0010137D01*
X0017013Y0010183D01*
X0016977Y0010232D01*
X0016944Y0010283D01*
X0016915Y0010335D01*
X0016888Y0010390D01*
X0016865Y0010445D01*
X0016845Y0010502D01*
X0016829Y0010561D01*
X0016816Y0010620D01*
X0016807Y0010679D01*
X0016802Y0010740D01*
X0016800Y0010800D01*
X0039300Y0009800D02*
X0040800Y0009800D01*
X0040860Y0009802D01*
X0040921Y0009807D01*
X0040980Y0009816D01*
X0041039Y0009829D01*
X0041098Y0009845D01*
X0041155Y0009865D01*
X0041210Y0009888D01*
X0041265Y0009915D01*
X0041317Y0009944D01*
X0041368Y0009977D01*
X0041417Y0010013D01*
X0041463Y0010051D01*
X0041507Y0010093D01*
X0041549Y0010137D01*
X0041587Y0010183D01*
X0041623Y0010232D01*
X0041656Y0010283D01*
X0041685Y0010335D01*
X0041712Y0010390D01*
X0041735Y0010445D01*
X0041755Y0010502D01*
X0041771Y0010561D01*
X0041784Y0010620D01*
X0041793Y0010679D01*
X0041798Y0010740D01*
X0041800Y0010800D01*
X0041800Y0017800D02*
X0041798Y0017860D01*
X0041793Y0017921D01*
X0041784Y0017980D01*
X0041771Y0018039D01*
X0041755Y0018098D01*
X0041735Y0018155D01*
X0041712Y0018210D01*
X0041685Y0018265D01*
X0041656Y0018317D01*
X0041623Y0018368D01*
X0041587Y0018417D01*
X0041549Y0018463D01*
X0041507Y0018507D01*
X0041463Y0018549D01*
X0041417Y0018587D01*
X0041368Y0018623D01*
X0041317Y0018656D01*
X0041265Y0018685D01*
X0041210Y0018712D01*
X0041155Y0018735D01*
X0041098Y0018755D01*
X0041039Y0018771D01*
X0040980Y0018784D01*
X0040921Y0018793D01*
X0040860Y0018798D01*
X0040800Y0018800D01*
X0039300Y0018800D01*
X0019300Y0018800D02*
X0017800Y0018800D01*
X0017740Y0018798D01*
X0017679Y0018793D01*
X0017620Y0018784D01*
X0017561Y0018771D01*
X0017502Y0018755D01*
X0017445Y0018735D01*
X0017390Y0018712D01*
X0017335Y0018685D01*
X0017283Y0018656D01*
X0017232Y0018623D01*
X0017183Y0018587D01*
X0017137Y0018549D01*
X0017093Y0018507D01*
X0017051Y0018463D01*
X0017013Y0018417D01*
X0016977Y0018368D01*
X0016944Y0018317D01*
X0016915Y0018265D01*
X0016888Y0018210D01*
X0016865Y0018155D01*
X0016845Y0018098D01*
X0016829Y0018039D01*
X0016816Y0017980D01*
X0016807Y0017921D01*
X0016802Y0017860D01*
X0016800Y0017800D01*
X0196800Y0032800D02*
X0196800Y0055800D01*
X0236800Y0055800D01*
X0236800Y0048300D01*
X0236674Y0048298D01*
X0236549Y0048292D01*
X0236424Y0048282D01*
X0236299Y0048268D01*
X0236174Y0048251D01*
X0236050Y0048229D01*
X0235927Y0048204D01*
X0235805Y0048174D01*
X0235684Y0048141D01*
X0235564Y0048104D01*
X0235445Y0048064D01*
X0235328Y0048019D01*
X0235211Y0047971D01*
X0235097Y0047919D01*
X0234984Y0047864D01*
X0234873Y0047805D01*
X0234764Y0047743D01*
X0234657Y0047677D01*
X0234552Y0047608D01*
X0234449Y0047536D01*
X0234348Y0047461D01*
X0234250Y0047382D01*
X0234155Y0047300D01*
X0234062Y0047216D01*
X0233972Y0047128D01*
X0233884Y0047038D01*
X0233800Y0046945D01*
X0233718Y0046850D01*
X0233639Y0046752D01*
X0233564Y0046651D01*
X0233492Y0046548D01*
X0233423Y0046443D01*
X0233357Y0046336D01*
X0233295Y0046227D01*
X0233236Y0046116D01*
X0233181Y0046003D01*
X0233129Y0045889D01*
X0233081Y0045772D01*
X0233036Y0045655D01*
X0232996Y0045536D01*
X0232959Y0045416D01*
X0232926Y0045295D01*
X0232896Y0045173D01*
X0232871Y0045050D01*
X0232849Y0044926D01*
X0232832Y0044801D01*
X0232818Y0044676D01*
X0232808Y0044551D01*
X0232802Y0044426D01*
X0232800Y0044300D01*
X0232802Y0044174D01*
X0232808Y0044049D01*
X0232818Y0043924D01*
X0232832Y0043799D01*
X0232849Y0043674D01*
X0232871Y0043550D01*
X0232896Y0043427D01*
X0232926Y0043305D01*
X0232959Y0043184D01*
X0232996Y0043064D01*
X0233036Y0042945D01*
X0233081Y0042828D01*
X0233129Y0042711D01*
X0233181Y0042597D01*
X0233236Y0042484D01*
X0233295Y0042373D01*
X0233357Y0042264D01*
X0233423Y0042157D01*
X0233492Y0042052D01*
X0233564Y0041949D01*
X0233639Y0041848D01*
X0233718Y0041750D01*
X0233800Y0041655D01*
X0233884Y0041562D01*
X0233972Y0041472D01*
X0234062Y0041384D01*
X0234155Y0041300D01*
X0234250Y0041218D01*
X0234348Y0041139D01*
X0234449Y0041064D01*
X0234552Y0040992D01*
X0234657Y0040923D01*
X0234764Y0040857D01*
X0234873Y0040795D01*
X0234984Y0040736D01*
X0235097Y0040681D01*
X0235211Y0040629D01*
X0235328Y0040581D01*
X0235445Y0040536D01*
X0235564Y0040496D01*
X0235684Y0040459D01*
X0235805Y0040426D01*
X0235927Y0040396D01*
X0236050Y0040371D01*
X0236174Y0040349D01*
X0236299Y0040332D01*
X0236424Y0040318D01*
X0236549Y0040308D01*
X0236674Y0040302D01*
X0236800Y0040300D01*
X0236800Y0032800D01*
X0196800Y0032800D01*
X0239800Y0041800D02*
X0239800Y0043300D01*
X0239802Y0043360D01*
X0239807Y0043421D01*
X0239816Y0043480D01*
X0239829Y0043539D01*
X0239845Y0043598D01*
X0239865Y0043655D01*
X0239888Y0043710D01*
X0239915Y0043765D01*
X0239944Y0043817D01*
X0239977Y0043868D01*
X0240013Y0043917D01*
X0240051Y0043963D01*
X0240093Y0044007D01*
X0240137Y0044049D01*
X0240183Y0044087D01*
X0240232Y0044123D01*
X0240283Y0044156D01*
X0240335Y0044185D01*
X0240390Y0044212D01*
X0240445Y0044235D01*
X0240502Y0044255D01*
X0240561Y0044271D01*
X0240620Y0044284D01*
X0240679Y0044293D01*
X0240740Y0044298D01*
X0240800Y0044300D01*
X0247800Y0044300D02*
X0247860Y0044298D01*
X0247921Y0044293D01*
X0247980Y0044284D01*
X0248039Y0044271D01*
X0248098Y0044255D01*
X0248155Y0044235D01*
X0248210Y0044212D01*
X0248265Y0044185D01*
X0248317Y0044156D01*
X0248368Y0044123D01*
X0248417Y0044087D01*
X0248463Y0044049D01*
X0248507Y0044007D01*
X0248549Y0043963D01*
X0248587Y0043917D01*
X0248623Y0043868D01*
X0248656Y0043817D01*
X0248685Y0043765D01*
X0248712Y0043710D01*
X0248735Y0043655D01*
X0248755Y0043598D01*
X0248771Y0043539D01*
X0248784Y0043480D01*
X0248793Y0043421D01*
X0248798Y0043360D01*
X0248800Y0043300D01*
X0248800Y0041800D01*
X0259800Y0041800D02*
X0259800Y0043300D01*
X0259802Y0043360D01*
X0259807Y0043421D01*
X0259816Y0043480D01*
X0259829Y0043539D01*
X0259845Y0043598D01*
X0259865Y0043655D01*
X0259888Y0043710D01*
X0259915Y0043765D01*
X0259944Y0043817D01*
X0259977Y0043868D01*
X0260013Y0043917D01*
X0260051Y0043963D01*
X0260093Y0044007D01*
X0260137Y0044049D01*
X0260183Y0044087D01*
X0260232Y0044123D01*
X0260283Y0044156D01*
X0260335Y0044185D01*
X0260390Y0044212D01*
X0260445Y0044235D01*
X0260502Y0044255D01*
X0260561Y0044271D01*
X0260620Y0044284D01*
X0260679Y0044293D01*
X0260740Y0044298D01*
X0260800Y0044300D01*
X0267800Y0044300D02*
X0267860Y0044298D01*
X0267921Y0044293D01*
X0267980Y0044284D01*
X0268039Y0044271D01*
X0268098Y0044255D01*
X0268155Y0044235D01*
X0268210Y0044212D01*
X0268265Y0044185D01*
X0268317Y0044156D01*
X0268368Y0044123D01*
X0268417Y0044087D01*
X0268463Y0044049D01*
X0268507Y0044007D01*
X0268549Y0043963D01*
X0268587Y0043917D01*
X0268623Y0043868D01*
X0268656Y0043817D01*
X0268685Y0043765D01*
X0268712Y0043710D01*
X0268735Y0043655D01*
X0268755Y0043598D01*
X0268771Y0043539D01*
X0268784Y0043480D01*
X0268793Y0043421D01*
X0268798Y0043360D01*
X0268800Y0043300D01*
X0268800Y0041800D01*
X0269800Y0041800D02*
X0269800Y0043300D01*
X0269802Y0043360D01*
X0269807Y0043421D01*
X0269816Y0043480D01*
X0269829Y0043539D01*
X0269845Y0043598D01*
X0269865Y0043655D01*
X0269888Y0043710D01*
X0269915Y0043765D01*
X0269944Y0043817D01*
X0269977Y0043868D01*
X0270013Y0043917D01*
X0270051Y0043963D01*
X0270093Y0044007D01*
X0270137Y0044049D01*
X0270183Y0044087D01*
X0270232Y0044123D01*
X0270283Y0044156D01*
X0270335Y0044185D01*
X0270390Y0044212D01*
X0270445Y0044235D01*
X0270502Y0044255D01*
X0270561Y0044271D01*
X0270620Y0044284D01*
X0270679Y0044293D01*
X0270740Y0044298D01*
X0270800Y0044300D01*
X0277800Y0044300D02*
X0277860Y0044298D01*
X0277921Y0044293D01*
X0277980Y0044284D01*
X0278039Y0044271D01*
X0278098Y0044255D01*
X0278155Y0044235D01*
X0278210Y0044212D01*
X0278265Y0044185D01*
X0278317Y0044156D01*
X0278368Y0044123D01*
X0278417Y0044087D01*
X0278463Y0044049D01*
X0278507Y0044007D01*
X0278549Y0043963D01*
X0278587Y0043917D01*
X0278623Y0043868D01*
X0278656Y0043817D01*
X0278685Y0043765D01*
X0278712Y0043710D01*
X0278735Y0043655D01*
X0278755Y0043598D01*
X0278771Y0043539D01*
X0278784Y0043480D01*
X0278793Y0043421D01*
X0278798Y0043360D01*
X0278800Y0043300D01*
X0278800Y0041800D01*
X0258665Y0046801D02*
X0258663Y0046888D01*
X0258657Y0046975D01*
X0258648Y0047062D01*
X0258635Y0047148D01*
X0258618Y0047234D01*
X0258597Y0047319D01*
X0258572Y0047402D01*
X0258544Y0047485D01*
X0258513Y0047566D01*
X0258478Y0047646D01*
X0258439Y0047724D01*
X0258397Y0047801D01*
X0258352Y0047876D01*
X0258303Y0047948D01*
X0258252Y0048019D01*
X0258197Y0048087D01*
X0258140Y0048152D01*
X0258079Y0048215D01*
X0258016Y0048276D01*
X0257951Y0048333D01*
X0257883Y0048388D01*
X0257812Y0048439D01*
X0257740Y0048488D01*
X0257665Y0048533D01*
X0257588Y0048575D01*
X0257510Y0048614D01*
X0257430Y0048649D01*
X0257349Y0048680D01*
X0257266Y0048708D01*
X0257183Y0048733D01*
X0257098Y0048754D01*
X0257012Y0048771D01*
X0256926Y0048784D01*
X0256839Y0048793D01*
X0256752Y0048799D01*
X0256665Y0048801D01*
X0251969Y0048868D02*
X0251882Y0048866D01*
X0251795Y0048860D01*
X0251708Y0048851D01*
X0251622Y0048838D01*
X0251536Y0048821D01*
X0251451Y0048800D01*
X0251368Y0048775D01*
X0251285Y0048747D01*
X0251204Y0048716D01*
X0251124Y0048681D01*
X0251046Y0048642D01*
X0250969Y0048600D01*
X0250894Y0048555D01*
X0250822Y0048506D01*
X0250751Y0048455D01*
X0250683Y0048400D01*
X0250618Y0048343D01*
X0250555Y0048282D01*
X0250494Y0048219D01*
X0250437Y0048154D01*
X0250382Y0048086D01*
X0250331Y0048015D01*
X0250282Y0047943D01*
X0250237Y0047868D01*
X0250195Y0047791D01*
X0250156Y0047713D01*
X0250121Y0047633D01*
X0250090Y0047552D01*
X0250062Y0047469D01*
X0250037Y0047386D01*
X0250016Y0047301D01*
X0249999Y0047215D01*
X0249986Y0047129D01*
X0249977Y0047042D01*
X0249971Y0046955D01*
X0249969Y0046868D01*
X0278300Y0050300D02*
X0278300Y0023300D01*
X0278302Y0023240D01*
X0278307Y0023179D01*
X0278316Y0023120D01*
X0278329Y0023061D01*
X0278345Y0023002D01*
X0278365Y0022945D01*
X0278388Y0022890D01*
X0278415Y0022835D01*
X0278444Y0022783D01*
X0278477Y0022732D01*
X0278513Y0022683D01*
X0278551Y0022637D01*
X0278593Y0022593D01*
X0278637Y0022551D01*
X0278683Y0022513D01*
X0278732Y0022477D01*
X0278783Y0022444D01*
X0278835Y0022415D01*
X0278890Y0022388D01*
X0278945Y0022365D01*
X0279002Y0022345D01*
X0279061Y0022329D01*
X0279120Y0022316D01*
X0279179Y0022307D01*
X0279240Y0022302D01*
X0279300Y0022300D01*
X0289300Y0022300D01*
X0289360Y0022302D01*
X0289421Y0022307D01*
X0289480Y0022316D01*
X0289539Y0022329D01*
X0289598Y0022345D01*
X0289655Y0022365D01*
X0289710Y0022388D01*
X0289765Y0022415D01*
X0289817Y0022444D01*
X0289868Y0022477D01*
X0289917Y0022513D01*
X0289963Y0022551D01*
X0290007Y0022593D01*
X0290049Y0022637D01*
X0290087Y0022683D01*
X0290123Y0022732D01*
X0290156Y0022783D01*
X0290185Y0022835D01*
X0290212Y0022890D01*
X0290235Y0022945D01*
X0290255Y0023002D01*
X0290271Y0023061D01*
X0290284Y0023120D01*
X0290293Y0023179D01*
X0290298Y0023240D01*
X0290300Y0023300D01*
X0290300Y0050300D01*
X0290298Y0050360D01*
X0290293Y0050421D01*
X0290284Y0050480D01*
X0290271Y0050539D01*
X0290255Y0050598D01*
X0290235Y0050655D01*
X0290212Y0050710D01*
X0290185Y0050765D01*
X0290156Y0050817D01*
X0290123Y0050868D01*
X0290087Y0050917D01*
X0290049Y0050963D01*
X0290007Y0051007D01*
X0289963Y0051049D01*
X0289917Y0051087D01*
X0289868Y0051123D01*
X0289817Y0051156D01*
X0289765Y0051185D01*
X0289710Y0051212D01*
X0289655Y0051235D01*
X0289598Y0051255D01*
X0289539Y0051271D01*
X0289480Y0051284D01*
X0289421Y0051293D01*
X0289360Y0051298D01*
X0289300Y0051300D01*
X0279300Y0051300D01*
X0279240Y0051298D01*
X0279179Y0051293D01*
X0279120Y0051284D01*
X0279061Y0051271D01*
X0279002Y0051255D01*
X0278945Y0051235D01*
X0278890Y0051212D01*
X0278835Y0051185D01*
X0278783Y0051156D01*
X0278732Y0051123D01*
X0278683Y0051087D01*
X0278637Y0051049D01*
X0278593Y0051007D01*
X0278551Y0050963D01*
X0278513Y0050917D01*
X0278477Y0050868D01*
X0278444Y0050817D01*
X0278415Y0050765D01*
X0278388Y0050710D01*
X0278365Y0050655D01*
X0278345Y0050598D01*
X0278329Y0050539D01*
X0278316Y0050480D01*
X0278307Y0050421D01*
X0278302Y0050360D01*
X0278300Y0050300D01*
X0203751Y0069367D02*
X0203749Y0069280D01*
X0203743Y0069193D01*
X0203734Y0069106D01*
X0203721Y0069020D01*
X0203704Y0068934D01*
X0203683Y0068849D01*
X0203658Y0068766D01*
X0203630Y0068683D01*
X0203599Y0068602D01*
X0203564Y0068522D01*
X0203525Y0068444D01*
X0203483Y0068367D01*
X0203438Y0068292D01*
X0203389Y0068220D01*
X0203338Y0068149D01*
X0203283Y0068081D01*
X0203226Y0068016D01*
X0203165Y0067953D01*
X0203102Y0067892D01*
X0203037Y0067835D01*
X0202969Y0067780D01*
X0202898Y0067729D01*
X0202826Y0067680D01*
X0202751Y0067635D01*
X0202674Y0067593D01*
X0202596Y0067554D01*
X0202516Y0067519D01*
X0202435Y0067488D01*
X0202352Y0067460D01*
X0202269Y0067435D01*
X0202184Y0067414D01*
X0202098Y0067397D01*
X0202012Y0067384D01*
X0201925Y0067375D01*
X0201838Y0067369D01*
X0201751Y0067367D01*
X0181732Y0067469D02*
X0181645Y0067471D01*
X0181558Y0067477D01*
X0181471Y0067486D01*
X0181385Y0067499D01*
X0181299Y0067516D01*
X0181214Y0067537D01*
X0181131Y0067562D01*
X0181048Y0067590D01*
X0180967Y0067621D01*
X0180887Y0067656D01*
X0180809Y0067695D01*
X0180732Y0067737D01*
X0180657Y0067782D01*
X0180585Y0067831D01*
X0180514Y0067882D01*
X0180446Y0067937D01*
X0180381Y0067994D01*
X0180318Y0068055D01*
X0180257Y0068118D01*
X0180200Y0068183D01*
X0180145Y0068251D01*
X0180094Y0068322D01*
X0180045Y0068394D01*
X0180000Y0068469D01*
X0179958Y0068546D01*
X0179919Y0068624D01*
X0179884Y0068704D01*
X0179853Y0068785D01*
X0179825Y0068868D01*
X0179800Y0068951D01*
X0179779Y0069036D01*
X0179762Y0069122D01*
X0179749Y0069208D01*
X0179740Y0069295D01*
X0179734Y0069382D01*
X0179732Y0069469D01*
X0179799Y0074165D02*
X0179801Y0074252D01*
X0179807Y0074339D01*
X0179816Y0074426D01*
X0179829Y0074512D01*
X0179846Y0074598D01*
X0179867Y0074683D01*
X0179892Y0074766D01*
X0179920Y0074849D01*
X0179951Y0074930D01*
X0179986Y0075010D01*
X0180025Y0075088D01*
X0180067Y0075165D01*
X0180112Y0075240D01*
X0180161Y0075312D01*
X0180212Y0075383D01*
X0180267Y0075451D01*
X0180324Y0075516D01*
X0180385Y0075579D01*
X0180448Y0075640D01*
X0180513Y0075697D01*
X0180581Y0075752D01*
X0180652Y0075803D01*
X0180724Y0075852D01*
X0180799Y0075897D01*
X0180876Y0075939D01*
X0180954Y0075978D01*
X0181034Y0076013D01*
X0181115Y0076044D01*
X0181198Y0076072D01*
X0181281Y0076097D01*
X0181366Y0076118D01*
X0181452Y0076135D01*
X0181538Y0076148D01*
X0181625Y0076157D01*
X0181712Y0076163D01*
X0181799Y0076165D01*
X0201902Y0076098D02*
X0201989Y0076096D01*
X0202076Y0076090D01*
X0202163Y0076081D01*
X0202249Y0076068D01*
X0202335Y0076051D01*
X0202420Y0076030D01*
X0202503Y0076005D01*
X0202586Y0075977D01*
X0202667Y0075946D01*
X0202747Y0075911D01*
X0202825Y0075872D01*
X0202902Y0075830D01*
X0202977Y0075785D01*
X0203049Y0075736D01*
X0203120Y0075685D01*
X0203188Y0075630D01*
X0203253Y0075573D01*
X0203316Y0075512D01*
X0203377Y0075449D01*
X0203434Y0075384D01*
X0203489Y0075316D01*
X0203540Y0075245D01*
X0203589Y0075173D01*
X0203634Y0075098D01*
X0203676Y0075021D01*
X0203715Y0074943D01*
X0203750Y0074863D01*
X0203781Y0074782D01*
X0203809Y0074699D01*
X0203834Y0074616D01*
X0203855Y0074531D01*
X0203872Y0074445D01*
X0203885Y0074359D01*
X0203894Y0074272D01*
X0203900Y0074185D01*
X0203902Y0074098D01*
X0134300Y0075300D02*
X0134298Y0075360D01*
X0134293Y0075421D01*
X0134284Y0075480D01*
X0134271Y0075539D01*
X0134255Y0075598D01*
X0134235Y0075655D01*
X0134212Y0075710D01*
X0134185Y0075765D01*
X0134156Y0075817D01*
X0134123Y0075868D01*
X0134087Y0075917D01*
X0134049Y0075963D01*
X0134007Y0076007D01*
X0133963Y0076049D01*
X0133917Y0076087D01*
X0133868Y0076123D01*
X0133817Y0076156D01*
X0133765Y0076185D01*
X0133710Y0076212D01*
X0133655Y0076235D01*
X0133598Y0076255D01*
X0133539Y0076271D01*
X0133480Y0076284D01*
X0133421Y0076293D01*
X0133360Y0076298D01*
X0133300Y0076300D01*
X0131800Y0076300D01*
X0111800Y0076300D02*
X0110300Y0076300D01*
X0110240Y0076298D01*
X0110179Y0076293D01*
X0110120Y0076284D01*
X0110061Y0076271D01*
X0110002Y0076255D01*
X0109945Y0076235D01*
X0109890Y0076212D01*
X0109835Y0076185D01*
X0109783Y0076156D01*
X0109732Y0076123D01*
X0109683Y0076087D01*
X0109637Y0076049D01*
X0109593Y0076007D01*
X0109551Y0075963D01*
X0109513Y0075917D01*
X0109477Y0075868D01*
X0109444Y0075817D01*
X0109415Y0075765D01*
X0109388Y0075710D01*
X0109365Y0075655D01*
X0109345Y0075598D01*
X0109329Y0075539D01*
X0109316Y0075480D01*
X0109307Y0075421D01*
X0109302Y0075360D01*
X0109300Y0075300D01*
X0089300Y0075300D02*
X0089298Y0075360D01*
X0089293Y0075421D01*
X0089284Y0075480D01*
X0089271Y0075539D01*
X0089255Y0075598D01*
X0089235Y0075655D01*
X0089212Y0075710D01*
X0089185Y0075765D01*
X0089156Y0075817D01*
X0089123Y0075868D01*
X0089087Y0075917D01*
X0089049Y0075963D01*
X0089007Y0076007D01*
X0088963Y0076049D01*
X0088917Y0076087D01*
X0088868Y0076123D01*
X0088817Y0076156D01*
X0088765Y0076185D01*
X0088710Y0076212D01*
X0088655Y0076235D01*
X0088598Y0076255D01*
X0088539Y0076271D01*
X0088480Y0076284D01*
X0088421Y0076293D01*
X0088360Y0076298D01*
X0088300Y0076300D01*
X0086800Y0076300D01*
X0066800Y0076300D02*
X0065300Y0076300D01*
X0065240Y0076298D01*
X0065179Y0076293D01*
X0065120Y0076284D01*
X0065061Y0076271D01*
X0065002Y0076255D01*
X0064945Y0076235D01*
X0064890Y0076212D01*
X0064835Y0076185D01*
X0064783Y0076156D01*
X0064732Y0076123D01*
X0064683Y0076087D01*
X0064637Y0076049D01*
X0064593Y0076007D01*
X0064551Y0075963D01*
X0064513Y0075917D01*
X0064477Y0075868D01*
X0064444Y0075817D01*
X0064415Y0075765D01*
X0064388Y0075710D01*
X0064365Y0075655D01*
X0064345Y0075598D01*
X0064329Y0075539D01*
X0064316Y0075480D01*
X0064307Y0075421D01*
X0064302Y0075360D01*
X0064300Y0075300D01*
X0064300Y0068300D02*
X0064302Y0068240D01*
X0064307Y0068179D01*
X0064316Y0068120D01*
X0064329Y0068061D01*
X0064345Y0068002D01*
X0064365Y0067945D01*
X0064388Y0067890D01*
X0064415Y0067835D01*
X0064444Y0067783D01*
X0064477Y0067732D01*
X0064513Y0067683D01*
X0064551Y0067637D01*
X0064593Y0067593D01*
X0064637Y0067551D01*
X0064683Y0067513D01*
X0064732Y0067477D01*
X0064783Y0067444D01*
X0064835Y0067415D01*
X0064890Y0067388D01*
X0064945Y0067365D01*
X0065002Y0067345D01*
X0065061Y0067329D01*
X0065120Y0067316D01*
X0065179Y0067307D01*
X0065240Y0067302D01*
X0065300Y0067300D01*
X0066800Y0067300D01*
X0086800Y0067300D02*
X0088300Y0067300D01*
X0088360Y0067302D01*
X0088421Y0067307D01*
X0088480Y0067316D01*
X0088539Y0067329D01*
X0088598Y0067345D01*
X0088655Y0067365D01*
X0088710Y0067388D01*
X0088765Y0067415D01*
X0088817Y0067444D01*
X0088868Y0067477D01*
X0088917Y0067513D01*
X0088963Y0067551D01*
X0089007Y0067593D01*
X0089049Y0067637D01*
X0089087Y0067683D01*
X0089123Y0067732D01*
X0089156Y0067783D01*
X0089185Y0067835D01*
X0089212Y0067890D01*
X0089235Y0067945D01*
X0089255Y0068002D01*
X0089271Y0068061D01*
X0089284Y0068120D01*
X0089293Y0068179D01*
X0089298Y0068240D01*
X0089300Y0068300D01*
X0109300Y0068300D02*
X0109302Y0068240D01*
X0109307Y0068179D01*
X0109316Y0068120D01*
X0109329Y0068061D01*
X0109345Y0068002D01*
X0109365Y0067945D01*
X0109388Y0067890D01*
X0109415Y0067835D01*
X0109444Y0067783D01*
X0109477Y0067732D01*
X0109513Y0067683D01*
X0109551Y0067637D01*
X0109593Y0067593D01*
X0109637Y0067551D01*
X0109683Y0067513D01*
X0109732Y0067477D01*
X0109783Y0067444D01*
X0109835Y0067415D01*
X0109890Y0067388D01*
X0109945Y0067365D01*
X0110002Y0067345D01*
X0110061Y0067329D01*
X0110120Y0067316D01*
X0110179Y0067307D01*
X0110240Y0067302D01*
X0110300Y0067300D01*
X0111800Y0067300D01*
X0131800Y0067300D02*
X0133300Y0067300D01*
X0133360Y0067302D01*
X0133421Y0067307D01*
X0133480Y0067316D01*
X0133539Y0067329D01*
X0133598Y0067345D01*
X0133655Y0067365D01*
X0133710Y0067388D01*
X0133765Y0067415D01*
X0133817Y0067444D01*
X0133868Y0067477D01*
X0133917Y0067513D01*
X0133963Y0067551D01*
X0134007Y0067593D01*
X0134049Y0067637D01*
X0134087Y0067683D01*
X0134123Y0067732D01*
X0134156Y0067783D01*
X0134185Y0067835D01*
X0134212Y0067890D01*
X0134235Y0067945D01*
X0134255Y0068002D01*
X0134271Y0068061D01*
X0134284Y0068120D01*
X0134293Y0068179D01*
X0134298Y0068240D01*
X0134300Y0068300D01*
X0249867Y0026849D02*
X0249869Y0026762D01*
X0249875Y0026675D01*
X0249884Y0026588D01*
X0249897Y0026502D01*
X0249914Y0026416D01*
X0249935Y0026331D01*
X0249960Y0026248D01*
X0249988Y0026165D01*
X0250019Y0026084D01*
X0250054Y0026004D01*
X0250093Y0025926D01*
X0250135Y0025849D01*
X0250180Y0025774D01*
X0250229Y0025702D01*
X0250280Y0025631D01*
X0250335Y0025563D01*
X0250392Y0025498D01*
X0250453Y0025435D01*
X0250516Y0025374D01*
X0250581Y0025317D01*
X0250649Y0025262D01*
X0250720Y0025211D01*
X0250792Y0025162D01*
X0250867Y0025117D01*
X0250944Y0025075D01*
X0251022Y0025036D01*
X0251102Y0025001D01*
X0251183Y0024970D01*
X0251266Y0024942D01*
X0251349Y0024917D01*
X0251434Y0024896D01*
X0251520Y0024879D01*
X0251606Y0024866D01*
X0251693Y0024857D01*
X0251780Y0024851D01*
X0251867Y0024849D01*
X0256598Y0024698D02*
X0256685Y0024700D01*
X0256772Y0024706D01*
X0256859Y0024715D01*
X0256945Y0024728D01*
X0257031Y0024745D01*
X0257116Y0024766D01*
X0257199Y0024791D01*
X0257282Y0024819D01*
X0257363Y0024850D01*
X0257443Y0024885D01*
X0257521Y0024924D01*
X0257598Y0024966D01*
X0257673Y0025011D01*
X0257745Y0025060D01*
X0257816Y0025111D01*
X0257884Y0025166D01*
X0257949Y0025223D01*
X0258012Y0025284D01*
X0258073Y0025347D01*
X0258130Y0025412D01*
X0258185Y0025480D01*
X0258236Y0025551D01*
X0258285Y0025623D01*
X0258330Y0025698D01*
X0258372Y0025775D01*
X0258411Y0025853D01*
X0258446Y0025933D01*
X0258477Y0026014D01*
X0258505Y0026097D01*
X0258530Y0026180D01*
X0258551Y0026265D01*
X0258568Y0026351D01*
X0258581Y0026437D01*
X0258590Y0026524D01*
X0258596Y0026611D01*
X0258598Y0026698D01*
X0259800Y0021800D02*
X0259800Y0020300D01*
X0259802Y0020240D01*
X0259807Y0020179D01*
X0259816Y0020120D01*
X0259829Y0020061D01*
X0259845Y0020002D01*
X0259865Y0019945D01*
X0259888Y0019890D01*
X0259915Y0019835D01*
X0259944Y0019783D01*
X0259977Y0019732D01*
X0260013Y0019683D01*
X0260051Y0019637D01*
X0260093Y0019593D01*
X0260137Y0019551D01*
X0260183Y0019513D01*
X0260232Y0019477D01*
X0260283Y0019444D01*
X0260335Y0019415D01*
X0260390Y0019388D01*
X0260445Y0019365D01*
X0260502Y0019345D01*
X0260561Y0019329D01*
X0260620Y0019316D01*
X0260679Y0019307D01*
X0260740Y0019302D01*
X0260800Y0019300D01*
X0267800Y0019300D02*
X0267860Y0019302D01*
X0267921Y0019307D01*
X0267980Y0019316D01*
X0268039Y0019329D01*
X0268098Y0019345D01*
X0268155Y0019365D01*
X0268210Y0019388D01*
X0268265Y0019415D01*
X0268317Y0019444D01*
X0268368Y0019477D01*
X0268417Y0019513D01*
X0268463Y0019551D01*
X0268507Y0019593D01*
X0268549Y0019637D01*
X0268587Y0019683D01*
X0268623Y0019732D01*
X0268656Y0019783D01*
X0268685Y0019835D01*
X0268712Y0019890D01*
X0268735Y0019945D01*
X0268755Y0020002D01*
X0268771Y0020061D01*
X0268784Y0020120D01*
X0268793Y0020179D01*
X0268798Y0020240D01*
X0268800Y0020300D01*
X0268800Y0021800D01*
X0269800Y0021800D02*
X0269800Y0020300D01*
X0269802Y0020240D01*
X0269807Y0020179D01*
X0269816Y0020120D01*
X0269829Y0020061D01*
X0269845Y0020002D01*
X0269865Y0019945D01*
X0269888Y0019890D01*
X0269915Y0019835D01*
X0269944Y0019783D01*
X0269977Y0019732D01*
X0270013Y0019683D01*
X0270051Y0019637D01*
X0270093Y0019593D01*
X0270137Y0019551D01*
X0270183Y0019513D01*
X0270232Y0019477D01*
X0270283Y0019444D01*
X0270335Y0019415D01*
X0270390Y0019388D01*
X0270445Y0019365D01*
X0270502Y0019345D01*
X0270561Y0019329D01*
X0270620Y0019316D01*
X0270679Y0019307D01*
X0270740Y0019302D01*
X0270800Y0019300D01*
X0277800Y0019300D02*
X0277860Y0019302D01*
X0277921Y0019307D01*
X0277980Y0019316D01*
X0278039Y0019329D01*
X0278098Y0019345D01*
X0278155Y0019365D01*
X0278210Y0019388D01*
X0278265Y0019415D01*
X0278317Y0019444D01*
X0278368Y0019477D01*
X0278417Y0019513D01*
X0278463Y0019551D01*
X0278507Y0019593D01*
X0278549Y0019637D01*
X0278587Y0019683D01*
X0278623Y0019732D01*
X0278656Y0019783D01*
X0278685Y0019835D01*
X0278712Y0019890D01*
X0278735Y0019945D01*
X0278755Y0020002D01*
X0278771Y0020061D01*
X0278784Y0020120D01*
X0278793Y0020179D01*
X0278798Y0020240D01*
X0278800Y0020300D01*
X0278800Y0021800D01*
X0248800Y0021800D02*
X0248800Y0020300D01*
X0248798Y0020240D01*
X0248793Y0020179D01*
X0248784Y0020120D01*
X0248771Y0020061D01*
X0248755Y0020002D01*
X0248735Y0019945D01*
X0248712Y0019890D01*
X0248685Y0019835D01*
X0248656Y0019783D01*
X0248623Y0019732D01*
X0248587Y0019683D01*
X0248549Y0019637D01*
X0248507Y0019593D01*
X0248463Y0019551D01*
X0248417Y0019513D01*
X0248368Y0019477D01*
X0248317Y0019444D01*
X0248265Y0019415D01*
X0248210Y0019388D01*
X0248155Y0019365D01*
X0248098Y0019345D01*
X0248039Y0019329D01*
X0247980Y0019316D01*
X0247921Y0019307D01*
X0247860Y0019302D01*
X0247800Y0019300D01*
X0240800Y0019300D02*
X0240740Y0019302D01*
X0240679Y0019307D01*
X0240620Y0019316D01*
X0240561Y0019329D01*
X0240502Y0019345D01*
X0240445Y0019365D01*
X0240390Y0019388D01*
X0240335Y0019415D01*
X0240283Y0019444D01*
X0240232Y0019477D01*
X0240183Y0019513D01*
X0240137Y0019551D01*
X0240093Y0019593D01*
X0240051Y0019637D01*
X0240013Y0019683D01*
X0239977Y0019732D01*
X0239944Y0019783D01*
X0239915Y0019835D01*
X0239888Y0019890D01*
X0239865Y0019945D01*
X0239845Y0020002D01*
X0239829Y0020061D01*
X0239816Y0020120D01*
X0239807Y0020179D01*
X0239802Y0020240D01*
X0239800Y0020300D01*
X0239800Y0021800D01*
X0233902Y0019098D02*
X0233900Y0019185D01*
X0233894Y0019272D01*
X0233885Y0019359D01*
X0233872Y0019445D01*
X0233855Y0019531D01*
X0233834Y0019616D01*
X0233809Y0019699D01*
X0233781Y0019782D01*
X0233750Y0019863D01*
X0233715Y0019943D01*
X0233676Y0020021D01*
X0233634Y0020098D01*
X0233589Y0020173D01*
X0233540Y0020245D01*
X0233489Y0020316D01*
X0233434Y0020384D01*
X0233377Y0020449D01*
X0233316Y0020512D01*
X0233253Y0020573D01*
X0233188Y0020630D01*
X0233120Y0020685D01*
X0233049Y0020736D01*
X0232977Y0020785D01*
X0232902Y0020830D01*
X0232825Y0020872D01*
X0232747Y0020911D01*
X0232667Y0020946D01*
X0232586Y0020977D01*
X0232503Y0021005D01*
X0232420Y0021030D01*
X0232335Y0021051D01*
X0232249Y0021068D01*
X0232163Y0021081D01*
X0232076Y0021090D01*
X0231989Y0021096D01*
X0231902Y0021098D01*
X0211799Y0021165D02*
X0211712Y0021163D01*
X0211625Y0021157D01*
X0211538Y0021148D01*
X0211452Y0021135D01*
X0211366Y0021118D01*
X0211281Y0021097D01*
X0211198Y0021072D01*
X0211115Y0021044D01*
X0211034Y0021013D01*
X0210954Y0020978D01*
X0210876Y0020939D01*
X0210799Y0020897D01*
X0210724Y0020852D01*
X0210652Y0020803D01*
X0210581Y0020752D01*
X0210513Y0020697D01*
X0210448Y0020640D01*
X0210385Y0020579D01*
X0210324Y0020516D01*
X0210267Y0020451D01*
X0210212Y0020383D01*
X0210161Y0020312D01*
X0210112Y0020240D01*
X0210067Y0020165D01*
X0210025Y0020088D01*
X0209986Y0020010D01*
X0209951Y0019930D01*
X0209920Y0019849D01*
X0209892Y0019766D01*
X0209867Y0019683D01*
X0209846Y0019598D01*
X0209829Y0019512D01*
X0209816Y0019426D01*
X0209807Y0019339D01*
X0209801Y0019252D01*
X0209799Y0019165D01*
X0209732Y0014469D02*
X0209734Y0014382D01*
X0209740Y0014295D01*
X0209749Y0014208D01*
X0209762Y0014122D01*
X0209779Y0014036D01*
X0209800Y0013951D01*
X0209825Y0013868D01*
X0209853Y0013785D01*
X0209884Y0013704D01*
X0209919Y0013624D01*
X0209958Y0013546D01*
X0210000Y0013469D01*
X0210045Y0013394D01*
X0210094Y0013322D01*
X0210145Y0013251D01*
X0210200Y0013183D01*
X0210257Y0013118D01*
X0210318Y0013055D01*
X0210381Y0012994D01*
X0210446Y0012937D01*
X0210514Y0012882D01*
X0210585Y0012831D01*
X0210657Y0012782D01*
X0210732Y0012737D01*
X0210809Y0012695D01*
X0210887Y0012656D01*
X0210967Y0012621D01*
X0211048Y0012590D01*
X0211131Y0012562D01*
X0211214Y0012537D01*
X0211299Y0012516D01*
X0211385Y0012499D01*
X0211471Y0012486D01*
X0211558Y0012477D01*
X0211645Y0012471D01*
X0211732Y0012469D01*
X0231751Y0012367D02*
X0231838Y0012369D01*
X0231925Y0012375D01*
X0232012Y0012384D01*
X0232098Y0012397D01*
X0232184Y0012414D01*
X0232269Y0012435D01*
X0232352Y0012460D01*
X0232435Y0012488D01*
X0232516Y0012519D01*
X0232596Y0012554D01*
X0232674Y0012593D01*
X0232751Y0012635D01*
X0232826Y0012680D01*
X0232898Y0012729D01*
X0232969Y0012780D01*
X0233037Y0012835D01*
X0233102Y0012892D01*
X0233165Y0012953D01*
X0233226Y0013016D01*
X0233283Y0013081D01*
X0233338Y0013149D01*
X0233389Y0013220D01*
X0233438Y0013292D01*
X0233483Y0013367D01*
X0233525Y0013444D01*
X0233564Y0013522D01*
X0233599Y0013602D01*
X0233630Y0013683D01*
X0233658Y0013766D01*
X0233683Y0013849D01*
X0233704Y0013934D01*
X0233721Y0014020D01*
X0233734Y0014106D01*
X0233743Y0014193D01*
X0233749Y0014280D01*
X0233751Y0014367D01*
X0369800Y0023800D02*
X0369800Y0029800D01*
X0371300Y0029800D01*
X0377300Y0029800D02*
X0391300Y0029800D01*
X0397300Y0029800D02*
X0398800Y0029800D01*
X0398800Y0023800D01*
X0398798Y0023713D01*
X0398792Y0023626D01*
X0398783Y0023539D01*
X0398770Y0023453D01*
X0398753Y0023367D01*
X0398732Y0023282D01*
X0398707Y0023199D01*
X0398679Y0023116D01*
X0398648Y0023035D01*
X0398613Y0022955D01*
X0398574Y0022877D01*
X0398532Y0022800D01*
X0398487Y0022725D01*
X0398438Y0022653D01*
X0398387Y0022582D01*
X0398332Y0022514D01*
X0398275Y0022449D01*
X0398214Y0022386D01*
X0398151Y0022325D01*
X0398086Y0022268D01*
X0398018Y0022213D01*
X0397947Y0022162D01*
X0397875Y0022113D01*
X0397800Y0022068D01*
X0397723Y0022026D01*
X0397645Y0021987D01*
X0397565Y0021952D01*
X0397484Y0021921D01*
X0397401Y0021893D01*
X0397318Y0021868D01*
X0397233Y0021847D01*
X0397147Y0021830D01*
X0397061Y0021817D01*
X0396974Y0021808D01*
X0396887Y0021802D01*
X0396800Y0021800D01*
X0371800Y0021800D01*
X0371713Y0021802D01*
X0371626Y0021808D01*
X0371539Y0021817D01*
X0371453Y0021830D01*
X0371367Y0021847D01*
X0371282Y0021868D01*
X0371199Y0021893D01*
X0371116Y0021921D01*
X0371035Y0021952D01*
X0370955Y0021987D01*
X0370877Y0022026D01*
X0370800Y0022068D01*
X0370725Y0022113D01*
X0370653Y0022162D01*
X0370582Y0022213D01*
X0370514Y0022268D01*
X0370449Y0022325D01*
X0370386Y0022386D01*
X0370325Y0022449D01*
X0370268Y0022514D01*
X0370213Y0022582D01*
X0370162Y0022653D01*
X0370113Y0022725D01*
X0370068Y0022800D01*
X0370026Y0022877D01*
X0369987Y0022955D01*
X0369952Y0023035D01*
X0369921Y0023116D01*
X0369893Y0023199D01*
X0369868Y0023282D01*
X0369847Y0023367D01*
X0369830Y0023453D01*
X0369817Y0023539D01*
X0369808Y0023626D01*
X0369802Y0023713D01*
X0369800Y0023800D01*
X0386300Y0021800D02*
X0386300Y0011800D01*
X0402300Y0011800D01*
X0402300Y0021800D01*
X0386300Y0021800D01*
X0394300Y0019300D02*
X0394300Y0016800D01*
X0394300Y0014300D01*
X0394300Y0016800D02*
X0398300Y0014300D01*
X0398300Y0019300D01*
X0394300Y0016800D01*
X0400300Y0016800D01*
X0394300Y0016800D02*
X0391800Y0016800D01*
X0396800Y0056800D02*
X0371800Y0056800D01*
X0371713Y0056802D01*
X0371626Y0056808D01*
X0371539Y0056817D01*
X0371453Y0056830D01*
X0371367Y0056847D01*
X0371282Y0056868D01*
X0371199Y0056893D01*
X0371116Y0056921D01*
X0371035Y0056952D01*
X0370955Y0056987D01*
X0370877Y0057026D01*
X0370800Y0057068D01*
X0370725Y0057113D01*
X0370653Y0057162D01*
X0370582Y0057213D01*
X0370514Y0057268D01*
X0370449Y0057325D01*
X0370386Y0057386D01*
X0370325Y0057449D01*
X0370268Y0057514D01*
X0370213Y0057582D01*
X0370162Y0057653D01*
X0370113Y0057725D01*
X0370068Y0057800D01*
X0370026Y0057877D01*
X0369987Y0057955D01*
X0369952Y0058035D01*
X0369921Y0058116D01*
X0369893Y0058199D01*
X0369868Y0058282D01*
X0369847Y0058367D01*
X0369830Y0058453D01*
X0369817Y0058539D01*
X0369808Y0058626D01*
X0369802Y0058713D01*
X0369800Y0058800D01*
X0369800Y0064800D01*
X0371300Y0064800D01*
X0377300Y0064800D02*
X0391300Y0064800D01*
X0386300Y0066800D02*
X0386300Y0076800D01*
X0402300Y0076800D01*
X0402300Y0066800D01*
X0386300Y0066800D01*
X0394300Y0069300D02*
X0394300Y0071800D01*
X0394300Y0074300D01*
X0394300Y0071800D02*
X0398300Y0074300D01*
X0398300Y0069300D01*
X0394300Y0071800D01*
X0400300Y0071800D01*
X0394300Y0071800D02*
X0391800Y0071800D01*
X0397300Y0064800D02*
X0398800Y0064800D01*
X0398800Y0058800D01*
X0398798Y0058713D01*
X0398792Y0058626D01*
X0398783Y0058539D01*
X0398770Y0058453D01*
X0398753Y0058367D01*
X0398732Y0058282D01*
X0398707Y0058199D01*
X0398679Y0058116D01*
X0398648Y0058035D01*
X0398613Y0057955D01*
X0398574Y0057877D01*
X0398532Y0057800D01*
X0398487Y0057725D01*
X0398438Y0057653D01*
X0398387Y0057582D01*
X0398332Y0057514D01*
X0398275Y0057449D01*
X0398214Y0057386D01*
X0398151Y0057325D01*
X0398086Y0057268D01*
X0398018Y0057213D01*
X0397947Y0057162D01*
X0397875Y0057113D01*
X0397800Y0057068D01*
X0397723Y0057026D01*
X0397645Y0056987D01*
X0397565Y0056952D01*
X0397484Y0056921D01*
X0397401Y0056893D01*
X0397318Y0056868D01*
X0397233Y0056847D01*
X0397147Y0056830D01*
X0397061Y0056817D01*
X0396974Y0056808D01*
X0396887Y0056802D01*
X0396800Y0056800D01*
D15*
X0339572Y0055324D02*
X0298628Y0055324D01*
X0298628Y0023828D01*
X0339572Y0023828D01*
X0330911Y0037607D02*
X0307289Y0037607D01*
X0307289Y0050993D01*
X0330911Y0050993D01*
X0330911Y0037607D01*
X0324021Y0040954D02*
X0314179Y0040954D01*
X0314179Y0047646D01*
X0324021Y0047646D01*
X0324021Y0040954D01*
X0277995Y0040627D02*
X0273992Y0040627D01*
X0273992Y0039152D02*
X0274659Y0037818D01*
X0275994Y0036483D01*
X0275994Y0038485D01*
X0276661Y0039152D01*
X0277328Y0039152D01*
X0277995Y0038485D01*
X0277995Y0037151D01*
X0277328Y0036483D01*
X0275994Y0036483D01*
X0277328Y0035079D02*
X0277995Y0035079D01*
X0277995Y0034412D01*
X0277328Y0034412D01*
X0277328Y0035079D01*
X0277328Y0032937D02*
X0276661Y0032937D01*
X0275994Y0032270D01*
X0275994Y0031603D01*
X0275994Y0032270D02*
X0275326Y0032937D01*
X0274659Y0032937D01*
X0273992Y0032270D01*
X0273992Y0030935D01*
X0274659Y0030268D01*
X0277328Y0030268D02*
X0277995Y0030935D01*
X0277995Y0032270D01*
X0277328Y0032937D01*
X0267995Y0033007D02*
X0267328Y0032340D01*
X0264659Y0035009D01*
X0267328Y0035009D01*
X0267995Y0034342D01*
X0267995Y0033007D01*
X0267328Y0032340D02*
X0264659Y0032340D01*
X0263992Y0033007D01*
X0263992Y0034342D01*
X0264659Y0035009D01*
X0264659Y0036483D02*
X0263992Y0037151D01*
X0263992Y0038485D01*
X0264659Y0039152D01*
X0267328Y0036483D01*
X0267995Y0037151D01*
X0267995Y0038485D01*
X0267328Y0039152D01*
X0264659Y0039152D01*
X0263992Y0040627D02*
X0267995Y0040627D01*
X0266661Y0040627D02*
X0265326Y0042629D01*
X0266661Y0040627D02*
X0267995Y0042629D01*
X0275326Y0042629D02*
X0276661Y0040627D01*
X0277995Y0042629D01*
X0267328Y0036483D02*
X0264659Y0036483D01*
X0247995Y0036460D02*
X0247328Y0035793D01*
X0244659Y0038462D01*
X0247328Y0038462D01*
X0247995Y0037795D01*
X0247995Y0036460D01*
X0247328Y0035793D02*
X0244659Y0035793D01*
X0243992Y0036460D01*
X0243992Y0037795D01*
X0244659Y0038462D01*
X0243992Y0039936D02*
X0243992Y0041938D01*
X0244659Y0042605D01*
X0245994Y0042605D01*
X0246661Y0041938D01*
X0246661Y0039936D01*
X0247995Y0039936D02*
X0243992Y0039936D01*
X0246661Y0041271D02*
X0247995Y0042605D01*
X0229449Y0046299D02*
X0226446Y0046299D01*
X0224845Y0047050D02*
X0221842Y0047050D01*
X0224845Y0050053D01*
X0224845Y0050803D01*
X0224094Y0051554D01*
X0222593Y0051554D01*
X0221842Y0050803D01*
X0220241Y0050803D02*
X0220241Y0051554D01*
X0217238Y0051554D01*
X0215637Y0050803D02*
X0214886Y0051554D01*
X0213385Y0051554D01*
X0212634Y0050803D01*
X0212634Y0047801D01*
X0215637Y0050803D01*
X0215637Y0047801D01*
X0214886Y0047050D01*
X0213385Y0047050D01*
X0212634Y0047801D01*
X0211033Y0047050D02*
X0208030Y0047050D01*
X0208030Y0051554D01*
X0206429Y0051554D02*
X0203426Y0051554D01*
X0204928Y0051554D02*
X0204928Y0047050D01*
X0217238Y0047050D02*
X0217238Y0047801D01*
X0220241Y0050803D01*
X0221342Y0043054D02*
X0221342Y0039301D01*
X0222093Y0038550D01*
X0223594Y0038550D01*
X0224345Y0039301D01*
X0224345Y0043054D01*
X0225946Y0042303D02*
X0226697Y0043054D01*
X0228198Y0043054D01*
X0228949Y0042303D01*
X0228949Y0041553D01*
X0225946Y0038550D01*
X0228949Y0038550D01*
X0243992Y0033651D02*
X0244659Y0034318D01*
X0247328Y0031649D01*
X0247995Y0032316D01*
X0247995Y0033651D01*
X0247328Y0034318D01*
X0244659Y0034318D01*
X0243992Y0033651D02*
X0243992Y0032316D01*
X0244659Y0031649D01*
X0247328Y0031649D01*
X0247995Y0030175D02*
X0247995Y0027506D01*
X0245326Y0030175D01*
X0244659Y0030175D01*
X0243992Y0029507D01*
X0243992Y0028173D01*
X0244659Y0027506D01*
X0263992Y0028864D02*
X0264659Y0028196D01*
X0263992Y0028864D02*
X0263992Y0030198D01*
X0264659Y0030865D01*
X0265326Y0030865D01*
X0267995Y0028196D01*
X0267995Y0030865D01*
X0118178Y0043513D02*
X0118178Y0045087D01*
X0109517Y0045087D01*
X0109517Y0062017D01*
X0068178Y0062017D01*
X0068178Y0050206D01*
X0076052Y0050206D01*
X0076052Y0038394D01*
X0068178Y0038394D01*
X0068178Y0050206D01*
X0058178Y0045087D02*
X0049517Y0045087D01*
X0049517Y0062017D01*
X0008178Y0062017D01*
X0008178Y0050206D01*
X0016052Y0050206D01*
X0016052Y0038394D01*
X0008178Y0038394D01*
X0008178Y0050206D01*
X0021207Y0044300D02*
X0021210Y0044560D01*
X0021220Y0044820D01*
X0021236Y0045079D01*
X0021258Y0045338D01*
X0021287Y0045597D01*
X0021322Y0045854D01*
X0021363Y0046111D01*
X0021411Y0046367D01*
X0021464Y0046621D01*
X0021524Y0046874D01*
X0021591Y0047125D01*
X0021663Y0047375D01*
X0021742Y0047623D01*
X0021826Y0047869D01*
X0021917Y0048112D01*
X0022013Y0048354D01*
X0022116Y0048593D01*
X0022224Y0048829D01*
X0022338Y0049063D01*
X0022458Y0049294D01*
X0022583Y0049521D01*
X0022714Y0049746D01*
X0022850Y0049967D01*
X0022992Y0050185D01*
X0023139Y0050400D01*
X0023292Y0050610D01*
X0023449Y0050817D01*
X0023612Y0051020D01*
X0023779Y0051219D01*
X0023951Y0051414D01*
X0024128Y0051604D01*
X0024310Y0051790D01*
X0024496Y0051972D01*
X0024686Y0052149D01*
X0024881Y0052321D01*
X0025080Y0052488D01*
X0025283Y0052651D01*
X0025490Y0052808D01*
X0025700Y0052961D01*
X0025915Y0053108D01*
X0026133Y0053250D01*
X0026354Y0053386D01*
X0026579Y0053517D01*
X0026806Y0053642D01*
X0027037Y0053762D01*
X0027271Y0053876D01*
X0027507Y0053984D01*
X0027746Y0054087D01*
X0027988Y0054183D01*
X0028231Y0054274D01*
X0028477Y0054358D01*
X0028725Y0054437D01*
X0028975Y0054509D01*
X0029226Y0054576D01*
X0029479Y0054636D01*
X0029733Y0054689D01*
X0029989Y0054737D01*
X0030246Y0054778D01*
X0030503Y0054813D01*
X0030762Y0054842D01*
X0031021Y0054864D01*
X0031280Y0054880D01*
X0031540Y0054890D01*
X0031800Y0054893D01*
X0032060Y0054890D01*
X0032320Y0054880D01*
X0032579Y0054864D01*
X0032838Y0054842D01*
X0033097Y0054813D01*
X0033354Y0054778D01*
X0033611Y0054737D01*
X0033867Y0054689D01*
X0034121Y0054636D01*
X0034374Y0054576D01*
X0034625Y0054509D01*
X0034875Y0054437D01*
X0035123Y0054358D01*
X0035369Y0054274D01*
X0035612Y0054183D01*
X0035854Y0054087D01*
X0036093Y0053984D01*
X0036329Y0053876D01*
X0036563Y0053762D01*
X0036794Y0053642D01*
X0037021Y0053517D01*
X0037246Y0053386D01*
X0037467Y0053250D01*
X0037685Y0053108D01*
X0037900Y0052961D01*
X0038110Y0052808D01*
X0038317Y0052651D01*
X0038520Y0052488D01*
X0038719Y0052321D01*
X0038914Y0052149D01*
X0039104Y0051972D01*
X0039290Y0051790D01*
X0039472Y0051604D01*
X0039649Y0051414D01*
X0039821Y0051219D01*
X0039988Y0051020D01*
X0040151Y0050817D01*
X0040308Y0050610D01*
X0040461Y0050400D01*
X0040608Y0050185D01*
X0040750Y0049967D01*
X0040886Y0049746D01*
X0041017Y0049521D01*
X0041142Y0049294D01*
X0041262Y0049063D01*
X0041376Y0048829D01*
X0041484Y0048593D01*
X0041587Y0048354D01*
X0041683Y0048112D01*
X0041774Y0047869D01*
X0041858Y0047623D01*
X0041937Y0047375D01*
X0042009Y0047125D01*
X0042076Y0046874D01*
X0042136Y0046621D01*
X0042189Y0046367D01*
X0042237Y0046111D01*
X0042278Y0045854D01*
X0042313Y0045597D01*
X0042342Y0045338D01*
X0042364Y0045079D01*
X0042380Y0044820D01*
X0042390Y0044560D01*
X0042393Y0044300D01*
X0042390Y0044040D01*
X0042380Y0043780D01*
X0042364Y0043521D01*
X0042342Y0043262D01*
X0042313Y0043003D01*
X0042278Y0042746D01*
X0042237Y0042489D01*
X0042189Y0042233D01*
X0042136Y0041979D01*
X0042076Y0041726D01*
X0042009Y0041475D01*
X0041937Y0041225D01*
X0041858Y0040977D01*
X0041774Y0040731D01*
X0041683Y0040488D01*
X0041587Y0040246D01*
X0041484Y0040007D01*
X0041376Y0039771D01*
X0041262Y0039537D01*
X0041142Y0039306D01*
X0041017Y0039079D01*
X0040886Y0038854D01*
X0040750Y0038633D01*
X0040608Y0038415D01*
X0040461Y0038200D01*
X0040308Y0037990D01*
X0040151Y0037783D01*
X0039988Y0037580D01*
X0039821Y0037381D01*
X0039649Y0037186D01*
X0039472Y0036996D01*
X0039290Y0036810D01*
X0039104Y0036628D01*
X0038914Y0036451D01*
X0038719Y0036279D01*
X0038520Y0036112D01*
X0038317Y0035949D01*
X0038110Y0035792D01*
X0037900Y0035639D01*
X0037685Y0035492D01*
X0037467Y0035350D01*
X0037246Y0035214D01*
X0037021Y0035083D01*
X0036794Y0034958D01*
X0036563Y0034838D01*
X0036329Y0034724D01*
X0036093Y0034616D01*
X0035854Y0034513D01*
X0035612Y0034417D01*
X0035369Y0034326D01*
X0035123Y0034242D01*
X0034875Y0034163D01*
X0034625Y0034091D01*
X0034374Y0034024D01*
X0034121Y0033964D01*
X0033867Y0033911D01*
X0033611Y0033863D01*
X0033354Y0033822D01*
X0033097Y0033787D01*
X0032838Y0033758D01*
X0032579Y0033736D01*
X0032320Y0033720D01*
X0032060Y0033710D01*
X0031800Y0033707D01*
X0031540Y0033710D01*
X0031280Y0033720D01*
X0031021Y0033736D01*
X0030762Y0033758D01*
X0030503Y0033787D01*
X0030246Y0033822D01*
X0029989Y0033863D01*
X0029733Y0033911D01*
X0029479Y0033964D01*
X0029226Y0034024D01*
X0028975Y0034091D01*
X0028725Y0034163D01*
X0028477Y0034242D01*
X0028231Y0034326D01*
X0027988Y0034417D01*
X0027746Y0034513D01*
X0027507Y0034616D01*
X0027271Y0034724D01*
X0027037Y0034838D01*
X0026806Y0034958D01*
X0026579Y0035083D01*
X0026354Y0035214D01*
X0026133Y0035350D01*
X0025915Y0035492D01*
X0025700Y0035639D01*
X0025490Y0035792D01*
X0025283Y0035949D01*
X0025080Y0036112D01*
X0024881Y0036279D01*
X0024686Y0036451D01*
X0024496Y0036628D01*
X0024310Y0036810D01*
X0024128Y0036996D01*
X0023951Y0037186D01*
X0023779Y0037381D01*
X0023612Y0037580D01*
X0023449Y0037783D01*
X0023292Y0037990D01*
X0023139Y0038200D01*
X0022992Y0038415D01*
X0022850Y0038633D01*
X0022714Y0038854D01*
X0022583Y0039079D01*
X0022458Y0039306D01*
X0022338Y0039537D01*
X0022224Y0039771D01*
X0022116Y0040007D01*
X0022013Y0040246D01*
X0021917Y0040488D01*
X0021826Y0040731D01*
X0021742Y0040977D01*
X0021663Y0041225D01*
X0021591Y0041475D01*
X0021524Y0041726D01*
X0021464Y0041979D01*
X0021411Y0042233D01*
X0021363Y0042489D01*
X0021322Y0042746D01*
X0021287Y0043003D01*
X0021258Y0043262D01*
X0021236Y0043521D01*
X0021220Y0043780D01*
X0021210Y0044040D01*
X0021207Y0044300D01*
X0019350Y0044300D02*
X0019354Y0044606D01*
X0019365Y0044911D01*
X0019384Y0045216D01*
X0019410Y0045520D01*
X0019444Y0045824D01*
X0019485Y0046127D01*
X0019533Y0046428D01*
X0019589Y0046729D01*
X0019653Y0047028D01*
X0019723Y0047325D01*
X0019801Y0047621D01*
X0019886Y0047914D01*
X0019978Y0048205D01*
X0020078Y0048494D01*
X0020184Y0048781D01*
X0020298Y0049064D01*
X0020418Y0049345D01*
X0020545Y0049623D01*
X0020679Y0049898D01*
X0020820Y0050169D01*
X0020967Y0050437D01*
X0021121Y0050701D01*
X0021282Y0050961D01*
X0021448Y0051217D01*
X0021621Y0051469D01*
X0021800Y0051716D01*
X0021985Y0051960D01*
X0022176Y0052198D01*
X0022373Y0052432D01*
X0022575Y0052661D01*
X0022783Y0052885D01*
X0022997Y0053103D01*
X0023215Y0053317D01*
X0023439Y0053525D01*
X0023668Y0053727D01*
X0023902Y0053924D01*
X0024140Y0054115D01*
X0024384Y0054300D01*
X0024631Y0054479D01*
X0024883Y0054652D01*
X0025139Y0054818D01*
X0025399Y0054979D01*
X0025663Y0055133D01*
X0025931Y0055280D01*
X0026202Y0055421D01*
X0026477Y0055555D01*
X0026755Y0055682D01*
X0027036Y0055802D01*
X0027319Y0055916D01*
X0027606Y0056022D01*
X0027895Y0056122D01*
X0028186Y0056214D01*
X0028479Y0056299D01*
X0028775Y0056377D01*
X0029072Y0056447D01*
X0029371Y0056511D01*
X0029672Y0056567D01*
X0029973Y0056615D01*
X0030276Y0056656D01*
X0030580Y0056690D01*
X0030884Y0056716D01*
X0031189Y0056735D01*
X0031494Y0056746D01*
X0031800Y0056750D01*
X0032106Y0056746D01*
X0032411Y0056735D01*
X0032716Y0056716D01*
X0033020Y0056690D01*
X0033324Y0056656D01*
X0033627Y0056615D01*
X0033928Y0056567D01*
X0034229Y0056511D01*
X0034528Y0056447D01*
X0034825Y0056377D01*
X0035121Y0056299D01*
X0035414Y0056214D01*
X0035705Y0056122D01*
X0035994Y0056022D01*
X0036281Y0055916D01*
X0036564Y0055802D01*
X0036845Y0055682D01*
X0037123Y0055555D01*
X0037398Y0055421D01*
X0037669Y0055280D01*
X0037937Y0055133D01*
X0038201Y0054979D01*
X0038461Y0054818D01*
X0038717Y0054652D01*
X0038969Y0054479D01*
X0039216Y0054300D01*
X0039460Y0054115D01*
X0039698Y0053924D01*
X0039932Y0053727D01*
X0040161Y0053525D01*
X0040385Y0053317D01*
X0040603Y0053103D01*
X0040817Y0052885D01*
X0041025Y0052661D01*
X0041227Y0052432D01*
X0041424Y0052198D01*
X0041615Y0051960D01*
X0041800Y0051716D01*
X0041979Y0051469D01*
X0042152Y0051217D01*
X0042318Y0050961D01*
X0042479Y0050701D01*
X0042633Y0050437D01*
X0042780Y0050169D01*
X0042921Y0049898D01*
X0043055Y0049623D01*
X0043182Y0049345D01*
X0043302Y0049064D01*
X0043416Y0048781D01*
X0043522Y0048494D01*
X0043622Y0048205D01*
X0043714Y0047914D01*
X0043799Y0047621D01*
X0043877Y0047325D01*
X0043947Y0047028D01*
X0044011Y0046729D01*
X0044067Y0046428D01*
X0044115Y0046127D01*
X0044156Y0045824D01*
X0044190Y0045520D01*
X0044216Y0045216D01*
X0044235Y0044911D01*
X0044246Y0044606D01*
X0044250Y0044300D01*
X0044246Y0043994D01*
X0044235Y0043689D01*
X0044216Y0043384D01*
X0044190Y0043080D01*
X0044156Y0042776D01*
X0044115Y0042473D01*
X0044067Y0042172D01*
X0044011Y0041871D01*
X0043947Y0041572D01*
X0043877Y0041275D01*
X0043799Y0040979D01*
X0043714Y0040686D01*
X0043622Y0040395D01*
X0043522Y0040106D01*
X0043416Y0039819D01*
X0043302Y0039536D01*
X0043182Y0039255D01*
X0043055Y0038977D01*
X0042921Y0038702D01*
X0042780Y0038431D01*
X0042633Y0038163D01*
X0042479Y0037899D01*
X0042318Y0037639D01*
X0042152Y0037383D01*
X0041979Y0037131D01*
X0041800Y0036884D01*
X0041615Y0036640D01*
X0041424Y0036402D01*
X0041227Y0036168D01*
X0041025Y0035939D01*
X0040817Y0035715D01*
X0040603Y0035497D01*
X0040385Y0035283D01*
X0040161Y0035075D01*
X0039932Y0034873D01*
X0039698Y0034676D01*
X0039460Y0034485D01*
X0039216Y0034300D01*
X0038969Y0034121D01*
X0038717Y0033948D01*
X0038461Y0033782D01*
X0038201Y0033621D01*
X0037937Y0033467D01*
X0037669Y0033320D01*
X0037398Y0033179D01*
X0037123Y0033045D01*
X0036845Y0032918D01*
X0036564Y0032798D01*
X0036281Y0032684D01*
X0035994Y0032578D01*
X0035705Y0032478D01*
X0035414Y0032386D01*
X0035121Y0032301D01*
X0034825Y0032223D01*
X0034528Y0032153D01*
X0034229Y0032089D01*
X0033928Y0032033D01*
X0033627Y0031985D01*
X0033324Y0031944D01*
X0033020Y0031910D01*
X0032716Y0031884D01*
X0032411Y0031865D01*
X0032106Y0031854D01*
X0031800Y0031850D01*
X0031494Y0031854D01*
X0031189Y0031865D01*
X0030884Y0031884D01*
X0030580Y0031910D01*
X0030276Y0031944D01*
X0029973Y0031985D01*
X0029672Y0032033D01*
X0029371Y0032089D01*
X0029072Y0032153D01*
X0028775Y0032223D01*
X0028479Y0032301D01*
X0028186Y0032386D01*
X0027895Y0032478D01*
X0027606Y0032578D01*
X0027319Y0032684D01*
X0027036Y0032798D01*
X0026755Y0032918D01*
X0026477Y0033045D01*
X0026202Y0033179D01*
X0025931Y0033320D01*
X0025663Y0033467D01*
X0025399Y0033621D01*
X0025139Y0033782D01*
X0024883Y0033948D01*
X0024631Y0034121D01*
X0024384Y0034300D01*
X0024140Y0034485D01*
X0023902Y0034676D01*
X0023668Y0034873D01*
X0023439Y0035075D01*
X0023215Y0035283D01*
X0022997Y0035497D01*
X0022783Y0035715D01*
X0022575Y0035939D01*
X0022373Y0036168D01*
X0022176Y0036402D01*
X0021985Y0036640D01*
X0021800Y0036884D01*
X0021621Y0037131D01*
X0021448Y0037383D01*
X0021282Y0037639D01*
X0021121Y0037899D01*
X0020967Y0038163D01*
X0020820Y0038431D01*
X0020679Y0038702D01*
X0020545Y0038977D01*
X0020418Y0039255D01*
X0020298Y0039536D01*
X0020184Y0039819D01*
X0020078Y0040106D01*
X0019978Y0040395D01*
X0019886Y0040686D01*
X0019801Y0040979D01*
X0019723Y0041275D01*
X0019653Y0041572D01*
X0019589Y0041871D01*
X0019533Y0042172D01*
X0019485Y0042473D01*
X0019444Y0042776D01*
X0019410Y0043080D01*
X0019384Y0043384D01*
X0019365Y0043689D01*
X0019354Y0043994D01*
X0019350Y0044300D01*
X0008178Y0038394D02*
X0008178Y0026583D01*
X0049517Y0026583D01*
X0049517Y0045087D01*
X0049910Y0043513D02*
X0058178Y0043513D01*
X0058178Y0045087D01*
X0068178Y0038394D02*
X0068178Y0026583D01*
X0109517Y0026583D01*
X0109517Y0045087D01*
X0109910Y0043513D02*
X0118178Y0043513D01*
X0081207Y0044300D02*
X0081210Y0044560D01*
X0081220Y0044820D01*
X0081236Y0045079D01*
X0081258Y0045338D01*
X0081287Y0045597D01*
X0081322Y0045854D01*
X0081363Y0046111D01*
X0081411Y0046367D01*
X0081464Y0046621D01*
X0081524Y0046874D01*
X0081591Y0047125D01*
X0081663Y0047375D01*
X0081742Y0047623D01*
X0081826Y0047869D01*
X0081917Y0048112D01*
X0082013Y0048354D01*
X0082116Y0048593D01*
X0082224Y0048829D01*
X0082338Y0049063D01*
X0082458Y0049294D01*
X0082583Y0049521D01*
X0082714Y0049746D01*
X0082850Y0049967D01*
X0082992Y0050185D01*
X0083139Y0050400D01*
X0083292Y0050610D01*
X0083449Y0050817D01*
X0083612Y0051020D01*
X0083779Y0051219D01*
X0083951Y0051414D01*
X0084128Y0051604D01*
X0084310Y0051790D01*
X0084496Y0051972D01*
X0084686Y0052149D01*
X0084881Y0052321D01*
X0085080Y0052488D01*
X0085283Y0052651D01*
X0085490Y0052808D01*
X0085700Y0052961D01*
X0085915Y0053108D01*
X0086133Y0053250D01*
X0086354Y0053386D01*
X0086579Y0053517D01*
X0086806Y0053642D01*
X0087037Y0053762D01*
X0087271Y0053876D01*
X0087507Y0053984D01*
X0087746Y0054087D01*
X0087988Y0054183D01*
X0088231Y0054274D01*
X0088477Y0054358D01*
X0088725Y0054437D01*
X0088975Y0054509D01*
X0089226Y0054576D01*
X0089479Y0054636D01*
X0089733Y0054689D01*
X0089989Y0054737D01*
X0090246Y0054778D01*
X0090503Y0054813D01*
X0090762Y0054842D01*
X0091021Y0054864D01*
X0091280Y0054880D01*
X0091540Y0054890D01*
X0091800Y0054893D01*
X0092060Y0054890D01*
X0092320Y0054880D01*
X0092579Y0054864D01*
X0092838Y0054842D01*
X0093097Y0054813D01*
X0093354Y0054778D01*
X0093611Y0054737D01*
X0093867Y0054689D01*
X0094121Y0054636D01*
X0094374Y0054576D01*
X0094625Y0054509D01*
X0094875Y0054437D01*
X0095123Y0054358D01*
X0095369Y0054274D01*
X0095612Y0054183D01*
X0095854Y0054087D01*
X0096093Y0053984D01*
X0096329Y0053876D01*
X0096563Y0053762D01*
X0096794Y0053642D01*
X0097021Y0053517D01*
X0097246Y0053386D01*
X0097467Y0053250D01*
X0097685Y0053108D01*
X0097900Y0052961D01*
X0098110Y0052808D01*
X0098317Y0052651D01*
X0098520Y0052488D01*
X0098719Y0052321D01*
X0098914Y0052149D01*
X0099104Y0051972D01*
X0099290Y0051790D01*
X0099472Y0051604D01*
X0099649Y0051414D01*
X0099821Y0051219D01*
X0099988Y0051020D01*
X0100151Y0050817D01*
X0100308Y0050610D01*
X0100461Y0050400D01*
X0100608Y0050185D01*
X0100750Y0049967D01*
X0100886Y0049746D01*
X0101017Y0049521D01*
X0101142Y0049294D01*
X0101262Y0049063D01*
X0101376Y0048829D01*
X0101484Y0048593D01*
X0101587Y0048354D01*
X0101683Y0048112D01*
X0101774Y0047869D01*
X0101858Y0047623D01*
X0101937Y0047375D01*
X0102009Y0047125D01*
X0102076Y0046874D01*
X0102136Y0046621D01*
X0102189Y0046367D01*
X0102237Y0046111D01*
X0102278Y0045854D01*
X0102313Y0045597D01*
X0102342Y0045338D01*
X0102364Y0045079D01*
X0102380Y0044820D01*
X0102390Y0044560D01*
X0102393Y0044300D01*
X0102390Y0044040D01*
X0102380Y0043780D01*
X0102364Y0043521D01*
X0102342Y0043262D01*
X0102313Y0043003D01*
X0102278Y0042746D01*
X0102237Y0042489D01*
X0102189Y0042233D01*
X0102136Y0041979D01*
X0102076Y0041726D01*
X0102009Y0041475D01*
X0101937Y0041225D01*
X0101858Y0040977D01*
X0101774Y0040731D01*
X0101683Y0040488D01*
X0101587Y0040246D01*
X0101484Y0040007D01*
X0101376Y0039771D01*
X0101262Y0039537D01*
X0101142Y0039306D01*
X0101017Y0039079D01*
X0100886Y0038854D01*
X0100750Y0038633D01*
X0100608Y0038415D01*
X0100461Y0038200D01*
X0100308Y0037990D01*
X0100151Y0037783D01*
X0099988Y0037580D01*
X0099821Y0037381D01*
X0099649Y0037186D01*
X0099472Y0036996D01*
X0099290Y0036810D01*
X0099104Y0036628D01*
X0098914Y0036451D01*
X0098719Y0036279D01*
X0098520Y0036112D01*
X0098317Y0035949D01*
X0098110Y0035792D01*
X0097900Y0035639D01*
X0097685Y0035492D01*
X0097467Y0035350D01*
X0097246Y0035214D01*
X0097021Y0035083D01*
X0096794Y0034958D01*
X0096563Y0034838D01*
X0096329Y0034724D01*
X0096093Y0034616D01*
X0095854Y0034513D01*
X0095612Y0034417D01*
X0095369Y0034326D01*
X0095123Y0034242D01*
X0094875Y0034163D01*
X0094625Y0034091D01*
X0094374Y0034024D01*
X0094121Y0033964D01*
X0093867Y0033911D01*
X0093611Y0033863D01*
X0093354Y0033822D01*
X0093097Y0033787D01*
X0092838Y0033758D01*
X0092579Y0033736D01*
X0092320Y0033720D01*
X0092060Y0033710D01*
X0091800Y0033707D01*
X0091540Y0033710D01*
X0091280Y0033720D01*
X0091021Y0033736D01*
X0090762Y0033758D01*
X0090503Y0033787D01*
X0090246Y0033822D01*
X0089989Y0033863D01*
X0089733Y0033911D01*
X0089479Y0033964D01*
X0089226Y0034024D01*
X0088975Y0034091D01*
X0088725Y0034163D01*
X0088477Y0034242D01*
X0088231Y0034326D01*
X0087988Y0034417D01*
X0087746Y0034513D01*
X0087507Y0034616D01*
X0087271Y0034724D01*
X0087037Y0034838D01*
X0086806Y0034958D01*
X0086579Y0035083D01*
X0086354Y0035214D01*
X0086133Y0035350D01*
X0085915Y0035492D01*
X0085700Y0035639D01*
X0085490Y0035792D01*
X0085283Y0035949D01*
X0085080Y0036112D01*
X0084881Y0036279D01*
X0084686Y0036451D01*
X0084496Y0036628D01*
X0084310Y0036810D01*
X0084128Y0036996D01*
X0083951Y0037186D01*
X0083779Y0037381D01*
X0083612Y0037580D01*
X0083449Y0037783D01*
X0083292Y0037990D01*
X0083139Y0038200D01*
X0082992Y0038415D01*
X0082850Y0038633D01*
X0082714Y0038854D01*
X0082583Y0039079D01*
X0082458Y0039306D01*
X0082338Y0039537D01*
X0082224Y0039771D01*
X0082116Y0040007D01*
X0082013Y0040246D01*
X0081917Y0040488D01*
X0081826Y0040731D01*
X0081742Y0040977D01*
X0081663Y0041225D01*
X0081591Y0041475D01*
X0081524Y0041726D01*
X0081464Y0041979D01*
X0081411Y0042233D01*
X0081363Y0042489D01*
X0081322Y0042746D01*
X0081287Y0043003D01*
X0081258Y0043262D01*
X0081236Y0043521D01*
X0081220Y0043780D01*
X0081210Y0044040D01*
X0081207Y0044300D01*
X0079350Y0044300D02*
X0079354Y0044606D01*
X0079365Y0044911D01*
X0079384Y0045216D01*
X0079410Y0045520D01*
X0079444Y0045824D01*
X0079485Y0046127D01*
X0079533Y0046428D01*
X0079589Y0046729D01*
X0079653Y0047028D01*
X0079723Y0047325D01*
X0079801Y0047621D01*
X0079886Y0047914D01*
X0079978Y0048205D01*
X0080078Y0048494D01*
X0080184Y0048781D01*
X0080298Y0049064D01*
X0080418Y0049345D01*
X0080545Y0049623D01*
X0080679Y0049898D01*
X0080820Y0050169D01*
X0080967Y0050437D01*
X0081121Y0050701D01*
X0081282Y0050961D01*
X0081448Y0051217D01*
X0081621Y0051469D01*
X0081800Y0051716D01*
X0081985Y0051960D01*
X0082176Y0052198D01*
X0082373Y0052432D01*
X0082575Y0052661D01*
X0082783Y0052885D01*
X0082997Y0053103D01*
X0083215Y0053317D01*
X0083439Y0053525D01*
X0083668Y0053727D01*
X0083902Y0053924D01*
X0084140Y0054115D01*
X0084384Y0054300D01*
X0084631Y0054479D01*
X0084883Y0054652D01*
X0085139Y0054818D01*
X0085399Y0054979D01*
X0085663Y0055133D01*
X0085931Y0055280D01*
X0086202Y0055421D01*
X0086477Y0055555D01*
X0086755Y0055682D01*
X0087036Y0055802D01*
X0087319Y0055916D01*
X0087606Y0056022D01*
X0087895Y0056122D01*
X0088186Y0056214D01*
X0088479Y0056299D01*
X0088775Y0056377D01*
X0089072Y0056447D01*
X0089371Y0056511D01*
X0089672Y0056567D01*
X0089973Y0056615D01*
X0090276Y0056656D01*
X0090580Y0056690D01*
X0090884Y0056716D01*
X0091189Y0056735D01*
X0091494Y0056746D01*
X0091800Y0056750D01*
X0092106Y0056746D01*
X0092411Y0056735D01*
X0092716Y0056716D01*
X0093020Y0056690D01*
X0093324Y0056656D01*
X0093627Y0056615D01*
X0093928Y0056567D01*
X0094229Y0056511D01*
X0094528Y0056447D01*
X0094825Y0056377D01*
X0095121Y0056299D01*
X0095414Y0056214D01*
X0095705Y0056122D01*
X0095994Y0056022D01*
X0096281Y0055916D01*
X0096564Y0055802D01*
X0096845Y0055682D01*
X0097123Y0055555D01*
X0097398Y0055421D01*
X0097669Y0055280D01*
X0097937Y0055133D01*
X0098201Y0054979D01*
X0098461Y0054818D01*
X0098717Y0054652D01*
X0098969Y0054479D01*
X0099216Y0054300D01*
X0099460Y0054115D01*
X0099698Y0053924D01*
X0099932Y0053727D01*
X0100161Y0053525D01*
X0100385Y0053317D01*
X0100603Y0053103D01*
X0100817Y0052885D01*
X0101025Y0052661D01*
X0101227Y0052432D01*
X0101424Y0052198D01*
X0101615Y0051960D01*
X0101800Y0051716D01*
X0101979Y0051469D01*
X0102152Y0051217D01*
X0102318Y0050961D01*
X0102479Y0050701D01*
X0102633Y0050437D01*
X0102780Y0050169D01*
X0102921Y0049898D01*
X0103055Y0049623D01*
X0103182Y0049345D01*
X0103302Y0049064D01*
X0103416Y0048781D01*
X0103522Y0048494D01*
X0103622Y0048205D01*
X0103714Y0047914D01*
X0103799Y0047621D01*
X0103877Y0047325D01*
X0103947Y0047028D01*
X0104011Y0046729D01*
X0104067Y0046428D01*
X0104115Y0046127D01*
X0104156Y0045824D01*
X0104190Y0045520D01*
X0104216Y0045216D01*
X0104235Y0044911D01*
X0104246Y0044606D01*
X0104250Y0044300D01*
X0104246Y0043994D01*
X0104235Y0043689D01*
X0104216Y0043384D01*
X0104190Y0043080D01*
X0104156Y0042776D01*
X0104115Y0042473D01*
X0104067Y0042172D01*
X0104011Y0041871D01*
X0103947Y0041572D01*
X0103877Y0041275D01*
X0103799Y0040979D01*
X0103714Y0040686D01*
X0103622Y0040395D01*
X0103522Y0040106D01*
X0103416Y0039819D01*
X0103302Y0039536D01*
X0103182Y0039255D01*
X0103055Y0038977D01*
X0102921Y0038702D01*
X0102780Y0038431D01*
X0102633Y0038163D01*
X0102479Y0037899D01*
X0102318Y0037639D01*
X0102152Y0037383D01*
X0101979Y0037131D01*
X0101800Y0036884D01*
X0101615Y0036640D01*
X0101424Y0036402D01*
X0101227Y0036168D01*
X0101025Y0035939D01*
X0100817Y0035715D01*
X0100603Y0035497D01*
X0100385Y0035283D01*
X0100161Y0035075D01*
X0099932Y0034873D01*
X0099698Y0034676D01*
X0099460Y0034485D01*
X0099216Y0034300D01*
X0098969Y0034121D01*
X0098717Y0033948D01*
X0098461Y0033782D01*
X0098201Y0033621D01*
X0097937Y0033467D01*
X0097669Y0033320D01*
X0097398Y0033179D01*
X0097123Y0033045D01*
X0096845Y0032918D01*
X0096564Y0032798D01*
X0096281Y0032684D01*
X0095994Y0032578D01*
X0095705Y0032478D01*
X0095414Y0032386D01*
X0095121Y0032301D01*
X0094825Y0032223D01*
X0094528Y0032153D01*
X0094229Y0032089D01*
X0093928Y0032033D01*
X0093627Y0031985D01*
X0093324Y0031944D01*
X0093020Y0031910D01*
X0092716Y0031884D01*
X0092411Y0031865D01*
X0092106Y0031854D01*
X0091800Y0031850D01*
X0091494Y0031854D01*
X0091189Y0031865D01*
X0090884Y0031884D01*
X0090580Y0031910D01*
X0090276Y0031944D01*
X0089973Y0031985D01*
X0089672Y0032033D01*
X0089371Y0032089D01*
X0089072Y0032153D01*
X0088775Y0032223D01*
X0088479Y0032301D01*
X0088186Y0032386D01*
X0087895Y0032478D01*
X0087606Y0032578D01*
X0087319Y0032684D01*
X0087036Y0032798D01*
X0086755Y0032918D01*
X0086477Y0033045D01*
X0086202Y0033179D01*
X0085931Y0033320D01*
X0085663Y0033467D01*
X0085399Y0033621D01*
X0085139Y0033782D01*
X0084883Y0033948D01*
X0084631Y0034121D01*
X0084384Y0034300D01*
X0084140Y0034485D01*
X0083902Y0034676D01*
X0083668Y0034873D01*
X0083439Y0035075D01*
X0083215Y0035283D01*
X0082997Y0035497D01*
X0082783Y0035715D01*
X0082575Y0035939D01*
X0082373Y0036168D01*
X0082176Y0036402D01*
X0081985Y0036640D01*
X0081800Y0036884D01*
X0081621Y0037131D01*
X0081448Y0037383D01*
X0081282Y0037639D01*
X0081121Y0037899D01*
X0080967Y0038163D01*
X0080820Y0038431D01*
X0080679Y0038702D01*
X0080545Y0038977D01*
X0080418Y0039255D01*
X0080298Y0039536D01*
X0080184Y0039819D01*
X0080078Y0040106D01*
X0079978Y0040395D01*
X0079886Y0040686D01*
X0079801Y0040979D01*
X0079723Y0041275D01*
X0079653Y0041572D01*
X0079589Y0041871D01*
X0079533Y0042172D01*
X0079485Y0042473D01*
X0079444Y0042776D01*
X0079410Y0043080D01*
X0079384Y0043384D01*
X0079365Y0043689D01*
X0079354Y0043994D01*
X0079350Y0044300D01*
X0079412Y0068105D02*
X0080079Y0068105D01*
X0080079Y0068772D01*
X0079412Y0068772D01*
X0079412Y0068105D01*
X0077937Y0068105D02*
X0075268Y0068105D01*
X0077937Y0070774D01*
X0077937Y0071441D01*
X0077270Y0072108D01*
X0075935Y0072108D01*
X0075268Y0071441D01*
X0081483Y0071441D02*
X0082151Y0072108D01*
X0083485Y0072108D01*
X0084152Y0071441D01*
X0084152Y0070774D01*
X0081483Y0068105D01*
X0084152Y0068105D01*
X0085627Y0068105D02*
X0085627Y0072108D01*
X0087629Y0070774D02*
X0085627Y0069439D01*
X0087629Y0068105D01*
X0120268Y0068105D02*
X0122937Y0070774D01*
X0122937Y0071441D01*
X0122270Y0072108D01*
X0120935Y0072108D01*
X0120268Y0071441D01*
X0126483Y0071441D02*
X0127151Y0072108D01*
X0128485Y0072108D01*
X0129152Y0071441D01*
X0129152Y0070774D01*
X0126483Y0068105D01*
X0129152Y0068105D01*
X0130627Y0068105D02*
X0130627Y0072108D01*
X0132629Y0070774D02*
X0130627Y0069439D01*
X0132629Y0068105D01*
X0125079Y0068105D02*
X0124412Y0068105D01*
X0124412Y0068772D01*
X0125079Y0068772D01*
X0125079Y0068105D01*
X0122937Y0068105D02*
X0120268Y0068105D01*
X0040105Y0013941D02*
X0039438Y0014608D01*
X0037436Y0014608D01*
X0037436Y0010605D01*
X0037436Y0011939D02*
X0039438Y0011939D01*
X0040105Y0012606D01*
X0040105Y0013941D01*
X0035962Y0013941D02*
X0035295Y0014608D01*
X0033960Y0014608D01*
X0033293Y0013941D01*
X0033293Y0011272D01*
X0035962Y0013941D01*
X0035962Y0011272D01*
X0035295Y0010605D01*
X0033960Y0010605D01*
X0033293Y0011272D01*
X0031818Y0011272D02*
X0031151Y0010605D01*
X0029816Y0010605D01*
X0029149Y0011272D01*
X0031818Y0013941D01*
X0031818Y0011272D01*
X0029149Y0011272D02*
X0029149Y0013941D01*
X0029816Y0014608D01*
X0031151Y0014608D01*
X0031818Y0013941D01*
X0027675Y0013941D02*
X0027675Y0013274D01*
X0025006Y0010605D01*
X0027675Y0010605D01*
X0027675Y0013941D02*
X0027007Y0014608D01*
X0025673Y0014608D01*
X0025006Y0013941D01*
X0038771Y0011939D02*
X0040105Y0010605D01*
D16*
X0388800Y0016800D03*
X0388800Y0071800D03*
D17*
X0382550Y0071800D03*
X0406050Y0071800D03*
X0406050Y0016800D03*
X0382550Y0016800D03*
D18*
X0340360Y0024221D02*
X0340360Y0055324D01*
D19*
X0252378Y0062000D02*
X0252127Y0061750D01*
X0251627Y0061750D01*
X0251377Y0062000D01*
X0250904Y0062000D02*
X0250654Y0061750D01*
X0250154Y0061750D01*
X0249903Y0062000D01*
X0249903Y0063001D01*
X0250154Y0063251D01*
X0250654Y0063251D01*
X0250904Y0063001D01*
X0251377Y0063001D02*
X0251627Y0063251D01*
X0252127Y0063251D01*
X0252378Y0063001D01*
X0252378Y0062751D01*
X0252127Y0062501D01*
X0252378Y0062250D01*
X0252378Y0062000D01*
X0252127Y0062501D02*
X0251877Y0062501D01*
M02*
