G75*
%MOIN*%
%OFA0B0*%
%FSLAX25Y25*%
%IPPOS*%
%LPD*%
%AMOC8*
5,1,8,0,0,1.08239X$1,22.5*
%
%ADD10R,0.06600X0.06600*%
%ADD11OC8,0.06600*%
%ADD12R,0.12268X0.12268*%
%ADD13OC8,0.04800*%
%ADD14R,0.06500X0.06500*%
%ADD15C,0.06500*%
%ADD16C,0.06600*%
%ADD17R,0.08858X0.08858*%
%ADD18C,0.06496*%
%ADD19C,0.05000*%
%ADD20OC8,0.07400*%
%ADD21C,0.01600*%
%ADD22C,0.03200*%
%ADD23C,0.02400*%
D10*
X0141741Y0054143D03*
D11*
X0141741Y0044300D03*
X0141741Y0034457D03*
D12*
X0169300Y0026583D03*
X0169300Y0062017D03*
D13*
X0014300Y0014300D03*
X0044300Y0014300D03*
X0211800Y0016800D03*
X0231800Y0016800D03*
X0244300Y0016800D03*
X0264300Y0016800D03*
X0274300Y0016800D03*
X0284300Y0026800D03*
X0254300Y0026800D03*
X0254300Y0046800D03*
X0244300Y0046800D03*
X0264300Y0046800D03*
X0274300Y0046800D03*
X0284300Y0046800D03*
X0374300Y0061800D03*
X0394300Y0061800D03*
X0394300Y0026800D03*
X0374300Y0026800D03*
X0201800Y0071800D03*
X0181800Y0071800D03*
X0136800Y0071800D03*
X0106800Y0071800D03*
X0091800Y0071800D03*
X0061800Y0071800D03*
D14*
X0244300Y0069300D03*
X0361800Y0071800D03*
X0351800Y0016800D03*
D15*
X0361800Y0016800D03*
X0254300Y0069300D03*
X0351800Y0071800D03*
D16*
X0374300Y0071800D03*
X0414300Y0071800D03*
X0414300Y0016800D03*
X0374300Y0016800D03*
D17*
X0327958Y0031308D03*
X0310242Y0031308D03*
D18*
X0117391Y0044300D03*
X0105580Y0044300D03*
X0072115Y0044300D03*
X0057391Y0044300D03*
X0045580Y0044300D03*
X0012115Y0044300D03*
D19*
X0201800Y0031800D02*
X0201800Y0026800D01*
X0211800Y0026800D02*
X0211800Y0031800D01*
X0221800Y0031800D02*
X0221800Y0026800D01*
X0231800Y0026800D02*
X0231800Y0031800D01*
X0231800Y0056800D02*
X0231800Y0061800D01*
X0221800Y0061800D02*
X0221800Y0056800D01*
X0211800Y0056800D02*
X0211800Y0061800D01*
X0201800Y0061800D02*
X0201800Y0056800D01*
D20*
X0371800Y0048800D03*
X0381800Y0049800D03*
X0391800Y0048800D03*
X0401800Y0049800D03*
X0411800Y0048800D03*
X0401800Y0039800D03*
X0411800Y0038800D03*
X0391800Y0038800D03*
X0381800Y0039800D03*
X0371800Y0038800D03*
D21*
X0360336Y0041800D02*
X0210814Y0041800D01*
X0211800Y0029300D02*
X0196940Y0044160D01*
X0190566Y0046800D02*
X0166431Y0046800D01*
X0158525Y0050075D02*
X0136800Y0071800D01*
X0136800Y0070336D01*
X0136712Y0071712D02*
X0136800Y0071800D01*
X0136800Y0070336D02*
X0136798Y0070218D01*
X0136792Y0070100D01*
X0136782Y0069982D01*
X0136768Y0069865D01*
X0136751Y0069748D01*
X0136729Y0069632D01*
X0136704Y0069516D01*
X0136674Y0069402D01*
X0136641Y0069288D01*
X0136604Y0069176D01*
X0136564Y0069065D01*
X0136519Y0068956D01*
X0136471Y0068848D01*
X0136420Y0068741D01*
X0136365Y0068637D01*
X0136306Y0068534D01*
X0136244Y0068433D01*
X0136179Y0068335D01*
X0136111Y0068239D01*
X0136039Y0068145D01*
X0135964Y0068053D01*
X0135886Y0067964D01*
X0135806Y0067878D01*
X0135722Y0067794D01*
X0135636Y0067714D01*
X0135547Y0067636D01*
X0135455Y0067561D01*
X0135361Y0067489D01*
X0135265Y0067421D01*
X0135167Y0067356D01*
X0135066Y0067294D01*
X0134963Y0067235D01*
X0134859Y0067180D01*
X0134752Y0067129D01*
X0134644Y0067081D01*
X0134535Y0067036D01*
X0134424Y0066996D01*
X0134312Y0066959D01*
X0134198Y0066926D01*
X0134084Y0066896D01*
X0133968Y0066871D01*
X0133852Y0066849D01*
X0133735Y0066832D01*
X0133618Y0066818D01*
X0133500Y0066808D01*
X0133382Y0066802D01*
X0133264Y0066800D01*
X0095336Y0066800D01*
X0084300Y0079300D02*
X0083998Y0079296D01*
X0083696Y0079285D01*
X0083395Y0079267D01*
X0083094Y0079242D01*
X0082793Y0079209D01*
X0082494Y0079169D01*
X0082196Y0079122D01*
X0081898Y0079067D01*
X0081603Y0079006D01*
X0081309Y0078937D01*
X0081016Y0078861D01*
X0080726Y0078778D01*
X0080437Y0078688D01*
X0080151Y0078591D01*
X0079867Y0078488D01*
X0079586Y0078377D01*
X0079308Y0078260D01*
X0079032Y0078136D01*
X0078760Y0078005D01*
X0078491Y0077868D01*
X0078225Y0077725D01*
X0077963Y0077575D01*
X0077704Y0077418D01*
X0077450Y0077256D01*
X0077199Y0077087D01*
X0076953Y0076913D01*
X0076710Y0076732D01*
X0076473Y0076546D01*
X0076239Y0076354D01*
X0076011Y0076156D01*
X0075787Y0075953D01*
X0075569Y0075745D01*
X0075355Y0075531D01*
X0075147Y0075313D01*
X0074944Y0075089D01*
X0074746Y0074861D01*
X0074554Y0074627D01*
X0074368Y0074390D01*
X0074187Y0074147D01*
X0074013Y0073901D01*
X0073844Y0073650D01*
X0073682Y0073396D01*
X0073525Y0073137D01*
X0073375Y0072875D01*
X0073232Y0072609D01*
X0073095Y0072340D01*
X0072964Y0072068D01*
X0072840Y0071792D01*
X0072723Y0071514D01*
X0072612Y0071233D01*
X0072509Y0070949D01*
X0072412Y0070663D01*
X0072322Y0070374D01*
X0072239Y0070084D01*
X0072163Y0069791D01*
X0072094Y0069497D01*
X0072033Y0069202D01*
X0071978Y0068904D01*
X0071931Y0068606D01*
X0071891Y0068307D01*
X0071858Y0068006D01*
X0071833Y0067705D01*
X0071815Y0067404D01*
X0071804Y0067102D01*
X0071800Y0066800D01*
X0071800Y0044300D01*
X0072115Y0044300D01*
X0089611Y0044611D02*
X0065599Y0020599D01*
X0050392Y0014300D02*
X0044300Y0014300D01*
X0014300Y0014300D02*
X0014300Y0042115D01*
X0014298Y0042208D01*
X0014292Y0042300D01*
X0014282Y0042393D01*
X0014269Y0042484D01*
X0014251Y0042575D01*
X0014229Y0042666D01*
X0014204Y0042755D01*
X0014175Y0042843D01*
X0014142Y0042930D01*
X0014106Y0043015D01*
X0014066Y0043099D01*
X0014023Y0043181D01*
X0013976Y0043261D01*
X0013925Y0043339D01*
X0013872Y0043414D01*
X0013815Y0043488D01*
X0013755Y0043559D01*
X0013692Y0043627D01*
X0013627Y0043692D01*
X0013559Y0043755D01*
X0013488Y0043815D01*
X0013414Y0043872D01*
X0013339Y0043925D01*
X0013261Y0043976D01*
X0013181Y0044023D01*
X0013099Y0044066D01*
X0013015Y0044106D01*
X0012930Y0044142D01*
X0012843Y0044175D01*
X0012755Y0044204D01*
X0012666Y0044229D01*
X0012575Y0044251D01*
X0012484Y0044269D01*
X0012393Y0044282D01*
X0012300Y0044292D01*
X0012208Y0044298D01*
X0012115Y0044300D01*
X0050392Y0014300D02*
X0050904Y0014306D01*
X0051415Y0014324D01*
X0051926Y0014355D01*
X0052436Y0014397D01*
X0052945Y0014452D01*
X0053453Y0014519D01*
X0053958Y0014598D01*
X0054462Y0014689D01*
X0054963Y0014791D01*
X0055462Y0014906D01*
X0055958Y0015033D01*
X0056451Y0015171D01*
X0056940Y0015321D01*
X0057426Y0015483D01*
X0057908Y0015656D01*
X0058385Y0015841D01*
X0058858Y0016036D01*
X0059326Y0016243D01*
X0059789Y0016462D01*
X0060247Y0016691D01*
X0060699Y0016931D01*
X0061145Y0017181D01*
X0061585Y0017442D01*
X0062019Y0017714D01*
X0062446Y0017996D01*
X0062867Y0018288D01*
X0063280Y0018590D01*
X0063686Y0018901D01*
X0064085Y0019222D01*
X0064475Y0019553D01*
X0064858Y0019893D01*
X0065233Y0020241D01*
X0065599Y0020599D01*
X0104300Y0026071D02*
X0104300Y0041800D01*
X0105580Y0044300D01*
X0100931Y0049300D02*
X0136741Y0049300D01*
X0136881Y0049298D01*
X0137021Y0049292D01*
X0137161Y0049282D01*
X0137301Y0049269D01*
X0137440Y0049251D01*
X0137579Y0049229D01*
X0137716Y0049204D01*
X0137854Y0049175D01*
X0137990Y0049142D01*
X0138125Y0049105D01*
X0138259Y0049064D01*
X0138392Y0049019D01*
X0138524Y0048971D01*
X0138654Y0048919D01*
X0138783Y0048864D01*
X0138910Y0048805D01*
X0139036Y0048742D01*
X0139160Y0048676D01*
X0139281Y0048607D01*
X0139401Y0048534D01*
X0139519Y0048457D01*
X0139634Y0048378D01*
X0139748Y0048295D01*
X0139858Y0048209D01*
X0139967Y0048120D01*
X0140073Y0048028D01*
X0140176Y0047933D01*
X0140277Y0047836D01*
X0140374Y0047735D01*
X0140469Y0047632D01*
X0140561Y0047526D01*
X0140650Y0047417D01*
X0140736Y0047307D01*
X0140819Y0047193D01*
X0140898Y0047078D01*
X0140975Y0046960D01*
X0141048Y0046840D01*
X0141117Y0046719D01*
X0141183Y0046595D01*
X0141246Y0046469D01*
X0141305Y0046342D01*
X0141360Y0046213D01*
X0141412Y0046083D01*
X0141460Y0045951D01*
X0141505Y0045818D01*
X0141546Y0045684D01*
X0141583Y0045549D01*
X0141616Y0045413D01*
X0141645Y0045275D01*
X0141670Y0045138D01*
X0141692Y0044999D01*
X0141710Y0044860D01*
X0141723Y0044720D01*
X0141733Y0044580D01*
X0141739Y0044440D01*
X0141741Y0044300D01*
X0141741Y0039300D01*
X0174669Y0039300D01*
X0182575Y0036025D02*
X0194160Y0024440D01*
X0200534Y0021800D02*
X0219300Y0021800D01*
X0219398Y0021802D01*
X0219496Y0021808D01*
X0219594Y0021817D01*
X0219691Y0021831D01*
X0219788Y0021848D01*
X0219884Y0021869D01*
X0219979Y0021894D01*
X0220073Y0021922D01*
X0220165Y0021955D01*
X0220257Y0021990D01*
X0220347Y0022030D01*
X0220435Y0022072D01*
X0220522Y0022119D01*
X0220606Y0022168D01*
X0220689Y0022221D01*
X0220769Y0022277D01*
X0220848Y0022337D01*
X0220924Y0022399D01*
X0220997Y0022464D01*
X0221068Y0022532D01*
X0221136Y0022603D01*
X0221201Y0022676D01*
X0221263Y0022752D01*
X0221323Y0022831D01*
X0221379Y0022911D01*
X0221432Y0022994D01*
X0221481Y0023078D01*
X0221528Y0023165D01*
X0221570Y0023253D01*
X0221610Y0023343D01*
X0221645Y0023435D01*
X0221678Y0023527D01*
X0221706Y0023621D01*
X0221731Y0023716D01*
X0221752Y0023812D01*
X0221769Y0023909D01*
X0221783Y0024006D01*
X0221792Y0024104D01*
X0221798Y0024202D01*
X0221800Y0024300D01*
X0221800Y0029300D01*
X0231800Y0029300D02*
X0231800Y0030286D01*
X0231800Y0029300D02*
X0231800Y0016800D01*
X0231800Y0030286D02*
X0231803Y0030504D01*
X0231811Y0030721D01*
X0231824Y0030939D01*
X0231842Y0031156D01*
X0231866Y0031373D01*
X0231895Y0031588D01*
X0231929Y0031804D01*
X0231968Y0032018D01*
X0232012Y0032231D01*
X0232062Y0032443D01*
X0232117Y0032654D01*
X0232176Y0032864D01*
X0232241Y0033071D01*
X0232311Y0033278D01*
X0232386Y0033482D01*
X0232465Y0033685D01*
X0232550Y0033886D01*
X0232639Y0034085D01*
X0232734Y0034281D01*
X0232832Y0034475D01*
X0232936Y0034667D01*
X0233044Y0034856D01*
X0233157Y0035042D01*
X0233274Y0035226D01*
X0233396Y0035407D01*
X0233522Y0035584D01*
X0233652Y0035759D01*
X0233786Y0035930D01*
X0233924Y0036099D01*
X0234067Y0036263D01*
X0234213Y0036425D01*
X0234364Y0036582D01*
X0234518Y0036736D01*
X0234675Y0036887D01*
X0234837Y0037033D01*
X0235001Y0037176D01*
X0235170Y0037314D01*
X0235341Y0037448D01*
X0235516Y0037578D01*
X0235693Y0037704D01*
X0235874Y0037826D01*
X0236058Y0037943D01*
X0236244Y0038056D01*
X0236433Y0038164D01*
X0236625Y0038268D01*
X0236819Y0038366D01*
X0237015Y0038461D01*
X0237214Y0038550D01*
X0237415Y0038635D01*
X0237618Y0038714D01*
X0237822Y0038789D01*
X0238029Y0038859D01*
X0238236Y0038924D01*
X0238446Y0038983D01*
X0238657Y0039038D01*
X0238869Y0039088D01*
X0239082Y0039132D01*
X0239296Y0039171D01*
X0239512Y0039205D01*
X0239727Y0039234D01*
X0239944Y0039258D01*
X0240161Y0039276D01*
X0240379Y0039289D01*
X0240596Y0039297D01*
X0240814Y0039300D01*
X0344729Y0039300D01*
X0362836Y0042836D02*
X0363568Y0043568D01*
X0364300Y0045336D02*
X0364300Y0049484D01*
X0364302Y0049630D01*
X0364308Y0049777D01*
X0364317Y0049923D01*
X0364331Y0050068D01*
X0364348Y0050214D01*
X0364369Y0050358D01*
X0364394Y0050503D01*
X0364422Y0050646D01*
X0364454Y0050789D01*
X0364490Y0050931D01*
X0364530Y0051072D01*
X0364574Y0051211D01*
X0364621Y0051350D01*
X0364671Y0051487D01*
X0364726Y0051623D01*
X0364783Y0051758D01*
X0364845Y0051891D01*
X0364909Y0052022D01*
X0364977Y0052151D01*
X0365049Y0052279D01*
X0365124Y0052405D01*
X0365202Y0052529D01*
X0365283Y0052650D01*
X0365368Y0052770D01*
X0365455Y0052887D01*
X0365546Y0053002D01*
X0365639Y0053114D01*
X0365736Y0053224D01*
X0365835Y0053332D01*
X0365937Y0053437D01*
X0374300Y0061800D01*
X0364300Y0045336D02*
X0364298Y0045238D01*
X0364292Y0045140D01*
X0364283Y0045042D01*
X0364269Y0044945D01*
X0364252Y0044848D01*
X0364231Y0044752D01*
X0364206Y0044657D01*
X0364178Y0044563D01*
X0364145Y0044471D01*
X0364110Y0044379D01*
X0364070Y0044289D01*
X0364028Y0044201D01*
X0363981Y0044114D01*
X0363932Y0044030D01*
X0363879Y0043947D01*
X0363823Y0043867D01*
X0363763Y0043788D01*
X0363701Y0043712D01*
X0363636Y0043639D01*
X0363568Y0043568D01*
X0362836Y0042836D02*
X0362753Y0042755D01*
X0362667Y0042677D01*
X0362579Y0042603D01*
X0362489Y0042531D01*
X0362396Y0042462D01*
X0362300Y0042396D01*
X0362203Y0042333D01*
X0362104Y0042274D01*
X0362003Y0042218D01*
X0361900Y0042165D01*
X0361795Y0042115D01*
X0361689Y0042069D01*
X0361582Y0042027D01*
X0361473Y0041988D01*
X0361362Y0041952D01*
X0361251Y0041920D01*
X0361139Y0041892D01*
X0361026Y0041868D01*
X0360912Y0041847D01*
X0360798Y0041830D01*
X0360683Y0041817D01*
X0360567Y0041808D01*
X0360452Y0041802D01*
X0360336Y0041800D01*
X0351800Y0032229D02*
X0351800Y0017786D01*
X0351800Y0016800D01*
X0327980Y0026371D02*
X0327958Y0031708D01*
X0327958Y0031308D01*
X0344729Y0039300D02*
X0344900Y0039298D01*
X0345071Y0039292D01*
X0345241Y0039281D01*
X0345411Y0039267D01*
X0345581Y0039248D01*
X0345751Y0039226D01*
X0345919Y0039199D01*
X0346088Y0039168D01*
X0346255Y0039133D01*
X0346421Y0039095D01*
X0346587Y0039052D01*
X0346751Y0039005D01*
X0346914Y0038954D01*
X0347076Y0038899D01*
X0347236Y0038840D01*
X0347395Y0038778D01*
X0347553Y0038712D01*
X0347709Y0038642D01*
X0347863Y0038568D01*
X0348015Y0038490D01*
X0348165Y0038409D01*
X0348314Y0038324D01*
X0348460Y0038236D01*
X0348604Y0038144D01*
X0348746Y0038048D01*
X0348885Y0037950D01*
X0349022Y0037847D01*
X0349157Y0037742D01*
X0349289Y0037633D01*
X0349418Y0037522D01*
X0349544Y0037407D01*
X0349668Y0037289D01*
X0349789Y0037168D01*
X0349907Y0037044D01*
X0350022Y0036918D01*
X0350133Y0036789D01*
X0350242Y0036657D01*
X0350347Y0036522D01*
X0350450Y0036385D01*
X0350548Y0036246D01*
X0350644Y0036104D01*
X0350736Y0035960D01*
X0350824Y0035814D01*
X0350909Y0035665D01*
X0350990Y0035515D01*
X0351068Y0035363D01*
X0351142Y0035209D01*
X0351212Y0035053D01*
X0351278Y0034895D01*
X0351340Y0034736D01*
X0351399Y0034576D01*
X0351454Y0034414D01*
X0351505Y0034251D01*
X0351552Y0034087D01*
X0351595Y0033921D01*
X0351633Y0033755D01*
X0351668Y0033588D01*
X0351699Y0033419D01*
X0351726Y0033251D01*
X0351748Y0033081D01*
X0351767Y0032911D01*
X0351781Y0032741D01*
X0351792Y0032571D01*
X0351798Y0032400D01*
X0351800Y0032229D01*
X0327980Y0026370D02*
X0327977Y0025958D01*
X0327963Y0025547D01*
X0327940Y0025135D01*
X0327907Y0024725D01*
X0327864Y0024315D01*
X0327811Y0023907D01*
X0327748Y0023500D01*
X0327675Y0023094D01*
X0327592Y0022691D01*
X0327500Y0022289D01*
X0327398Y0021890D01*
X0327286Y0021494D01*
X0327165Y0021100D01*
X0327034Y0020709D01*
X0326894Y0020322D01*
X0326744Y0019938D01*
X0326586Y0019558D01*
X0326418Y0019182D01*
X0326241Y0018810D01*
X0326055Y0018443D01*
X0325860Y0018080D01*
X0325656Y0017722D01*
X0325444Y0017369D01*
X0325224Y0017021D01*
X0324995Y0016678D01*
X0324757Y0016342D01*
X0324512Y0016011D01*
X0324259Y0015686D01*
X0323998Y0015367D01*
X0323729Y0015055D01*
X0323453Y0014749D01*
X0323169Y0014451D01*
X0322879Y0014159D01*
X0322581Y0013874D01*
X0322276Y0013597D01*
X0321965Y0013327D01*
X0321648Y0013064D01*
X0321324Y0012810D01*
X0320994Y0012563D01*
X0320658Y0012324D01*
X0320317Y0012094D01*
X0319970Y0011872D01*
X0319618Y0011658D01*
X0319261Y0011453D01*
X0318898Y0011257D01*
X0318532Y0011070D01*
X0318160Y0010891D01*
X0317785Y0010722D01*
X0317406Y0010561D01*
X0317022Y0010410D01*
X0316636Y0010269D01*
X0316245Y0010136D01*
X0315852Y0010013D01*
X0315456Y0009900D01*
X0315058Y0009796D01*
X0314657Y0009703D01*
X0314253Y0009618D01*
X0313848Y0009544D01*
X0313441Y0009479D01*
X0313033Y0009425D01*
X0312624Y0009380D01*
X0312213Y0009345D01*
X0311802Y0009320D01*
X0311390Y0009305D01*
X0310979Y0009300D01*
X0310978Y0009300D02*
X0121071Y0009300D01*
X0120666Y0009305D01*
X0120261Y0009320D01*
X0119856Y0009344D01*
X0119452Y0009378D01*
X0119049Y0009422D01*
X0118648Y0009476D01*
X0118247Y0009539D01*
X0117849Y0009612D01*
X0117452Y0009695D01*
X0117057Y0009787D01*
X0116665Y0009889D01*
X0116275Y0010000D01*
X0115888Y0010121D01*
X0115505Y0010251D01*
X0115124Y0010390D01*
X0114747Y0010538D01*
X0114373Y0010695D01*
X0114004Y0010862D01*
X0113638Y0011037D01*
X0113277Y0011221D01*
X0112921Y0011414D01*
X0112569Y0011615D01*
X0112222Y0011825D01*
X0111880Y0012043D01*
X0111544Y0012269D01*
X0111213Y0012503D01*
X0110888Y0012745D01*
X0110569Y0012995D01*
X0110256Y0013253D01*
X0109950Y0013518D01*
X0109650Y0013790D01*
X0109356Y0014070D01*
X0109070Y0014356D01*
X0108790Y0014650D01*
X0108518Y0014950D01*
X0108253Y0015256D01*
X0107995Y0015569D01*
X0107745Y0015888D01*
X0107503Y0016213D01*
X0107269Y0016544D01*
X0107043Y0016880D01*
X0106825Y0017222D01*
X0106615Y0017569D01*
X0106414Y0017921D01*
X0106221Y0018277D01*
X0106037Y0018638D01*
X0105862Y0019004D01*
X0105695Y0019373D01*
X0105538Y0019747D01*
X0105390Y0020124D01*
X0105251Y0020505D01*
X0105121Y0020888D01*
X0105000Y0021275D01*
X0104889Y0021665D01*
X0104787Y0022057D01*
X0104695Y0022452D01*
X0104612Y0022849D01*
X0104539Y0023247D01*
X0104476Y0023648D01*
X0104422Y0024049D01*
X0104378Y0024452D01*
X0104344Y0024856D01*
X0104320Y0025261D01*
X0104305Y0025666D01*
X0104300Y0026071D01*
X0100931Y0049300D02*
X0100538Y0049295D01*
X0100146Y0049281D01*
X0099753Y0049257D01*
X0099362Y0049223D01*
X0098971Y0049180D01*
X0098582Y0049127D01*
X0098194Y0049064D01*
X0097808Y0048992D01*
X0097424Y0048911D01*
X0097041Y0048820D01*
X0096661Y0048720D01*
X0096284Y0048611D01*
X0095910Y0048492D01*
X0095538Y0048364D01*
X0095170Y0048227D01*
X0094805Y0048081D01*
X0094444Y0047927D01*
X0094087Y0047763D01*
X0093734Y0047591D01*
X0093385Y0047410D01*
X0093041Y0047220D01*
X0092701Y0047023D01*
X0092367Y0046816D01*
X0092037Y0046602D01*
X0091713Y0046380D01*
X0091395Y0046150D01*
X0091082Y0045912D01*
X0090776Y0045666D01*
X0090475Y0045413D01*
X0090181Y0045153D01*
X0089893Y0044886D01*
X0089612Y0044611D01*
X0141741Y0039300D02*
X0141741Y0034457D01*
X0174669Y0039300D02*
X0174943Y0039297D01*
X0175218Y0039287D01*
X0175491Y0039270D01*
X0175765Y0039246D01*
X0176038Y0039216D01*
X0176309Y0039179D01*
X0176580Y0039135D01*
X0176850Y0039085D01*
X0177119Y0039028D01*
X0177386Y0038965D01*
X0177651Y0038895D01*
X0177914Y0038819D01*
X0178176Y0038736D01*
X0178435Y0038646D01*
X0178693Y0038551D01*
X0178947Y0038449D01*
X0179200Y0038341D01*
X0179449Y0038227D01*
X0179696Y0038106D01*
X0179939Y0037980D01*
X0180180Y0037848D01*
X0180417Y0037709D01*
X0180650Y0037565D01*
X0180880Y0037416D01*
X0181107Y0037261D01*
X0181329Y0037100D01*
X0181547Y0036934D01*
X0181762Y0036762D01*
X0181971Y0036586D01*
X0182177Y0036404D01*
X0182378Y0036217D01*
X0182574Y0036025D01*
X0190566Y0046800D02*
X0190781Y0046797D01*
X0190995Y0046790D01*
X0191209Y0046777D01*
X0191423Y0046759D01*
X0191636Y0046736D01*
X0191849Y0046708D01*
X0192061Y0046675D01*
X0192272Y0046637D01*
X0192482Y0046594D01*
X0192691Y0046546D01*
X0192899Y0046493D01*
X0193106Y0046435D01*
X0193311Y0046372D01*
X0193514Y0046304D01*
X0193716Y0046232D01*
X0193916Y0046154D01*
X0194114Y0046072D01*
X0194311Y0045985D01*
X0194505Y0045894D01*
X0194696Y0045798D01*
X0194886Y0045697D01*
X0195073Y0045592D01*
X0195257Y0045483D01*
X0195439Y0045369D01*
X0195618Y0045251D01*
X0195795Y0045129D01*
X0195968Y0045002D01*
X0196138Y0044871D01*
X0196305Y0044737D01*
X0196469Y0044598D01*
X0196629Y0044456D01*
X0196786Y0044310D01*
X0196940Y0044160D01*
X0201800Y0050814D02*
X0201800Y0059300D01*
X0201800Y0071800D01*
X0202786Y0079300D02*
X0203004Y0079297D01*
X0203221Y0079289D01*
X0203439Y0079276D01*
X0203656Y0079258D01*
X0203873Y0079234D01*
X0204088Y0079205D01*
X0204304Y0079171D01*
X0204518Y0079132D01*
X0204731Y0079088D01*
X0204943Y0079038D01*
X0205154Y0078983D01*
X0205364Y0078924D01*
X0205571Y0078859D01*
X0205778Y0078789D01*
X0205982Y0078714D01*
X0206185Y0078635D01*
X0206386Y0078550D01*
X0206585Y0078461D01*
X0206781Y0078366D01*
X0206975Y0078268D01*
X0207167Y0078164D01*
X0207356Y0078056D01*
X0207542Y0077943D01*
X0207726Y0077826D01*
X0207907Y0077704D01*
X0208084Y0077578D01*
X0208259Y0077448D01*
X0208430Y0077314D01*
X0208599Y0077176D01*
X0208763Y0077033D01*
X0208925Y0076887D01*
X0209082Y0076736D01*
X0209236Y0076582D01*
X0209387Y0076425D01*
X0209533Y0076263D01*
X0209676Y0076099D01*
X0209814Y0075930D01*
X0209948Y0075759D01*
X0210078Y0075584D01*
X0210204Y0075407D01*
X0210326Y0075226D01*
X0210443Y0075042D01*
X0210556Y0074856D01*
X0210664Y0074667D01*
X0210768Y0074475D01*
X0210866Y0074281D01*
X0210961Y0074085D01*
X0211050Y0073886D01*
X0211135Y0073685D01*
X0211214Y0073482D01*
X0211289Y0073278D01*
X0211359Y0073071D01*
X0211424Y0072864D01*
X0211483Y0072654D01*
X0211538Y0072443D01*
X0211588Y0072231D01*
X0211632Y0072018D01*
X0211671Y0071804D01*
X0211705Y0071588D01*
X0211734Y0071373D01*
X0211758Y0071156D01*
X0211776Y0070939D01*
X0211789Y0070721D01*
X0211797Y0070504D01*
X0211800Y0070286D01*
X0211800Y0059300D01*
X0231800Y0059300D02*
X0248710Y0059300D01*
X0248859Y0059298D01*
X0249008Y0059292D01*
X0249156Y0059282D01*
X0249304Y0059268D01*
X0249452Y0059251D01*
X0249599Y0059229D01*
X0249746Y0059203D01*
X0249892Y0059174D01*
X0250037Y0059140D01*
X0250181Y0059103D01*
X0250324Y0059062D01*
X0250466Y0059017D01*
X0250606Y0058969D01*
X0250746Y0058916D01*
X0250884Y0058860D01*
X0251020Y0058800D01*
X0251155Y0058737D01*
X0251288Y0058670D01*
X0251419Y0058600D01*
X0251548Y0058526D01*
X0251675Y0058449D01*
X0251800Y0058368D01*
X0251923Y0058284D01*
X0252044Y0058197D01*
X0252162Y0058107D01*
X0252278Y0058013D01*
X0252391Y0057917D01*
X0252502Y0057817D01*
X0252610Y0057715D01*
X0252715Y0057610D01*
X0252817Y0057502D01*
X0252917Y0057391D01*
X0253013Y0057278D01*
X0253107Y0057162D01*
X0253197Y0057044D01*
X0253284Y0056923D01*
X0253368Y0056800D01*
X0253449Y0056675D01*
X0253526Y0056548D01*
X0253600Y0056419D01*
X0253670Y0056288D01*
X0253737Y0056155D01*
X0253800Y0056020D01*
X0253860Y0055884D01*
X0253916Y0055746D01*
X0253969Y0055606D01*
X0254017Y0055466D01*
X0254062Y0055324D01*
X0254103Y0055181D01*
X0254140Y0055037D01*
X0254174Y0054892D01*
X0254203Y0054746D01*
X0254229Y0054599D01*
X0254251Y0054452D01*
X0254268Y0054304D01*
X0254282Y0054156D01*
X0254292Y0054008D01*
X0254298Y0053859D01*
X0254300Y0053710D01*
X0254300Y0046800D01*
X0264300Y0046800D01*
X0274300Y0046800D01*
X0210814Y0041800D02*
X0210596Y0041803D01*
X0210379Y0041811D01*
X0210161Y0041824D01*
X0209944Y0041842D01*
X0209727Y0041866D01*
X0209512Y0041895D01*
X0209296Y0041929D01*
X0209082Y0041968D01*
X0208869Y0042012D01*
X0208657Y0042062D01*
X0208446Y0042117D01*
X0208236Y0042176D01*
X0208029Y0042241D01*
X0207822Y0042311D01*
X0207618Y0042386D01*
X0207415Y0042465D01*
X0207214Y0042550D01*
X0207015Y0042639D01*
X0206819Y0042734D01*
X0206625Y0042832D01*
X0206433Y0042936D01*
X0206244Y0043044D01*
X0206058Y0043157D01*
X0205874Y0043274D01*
X0205693Y0043396D01*
X0205516Y0043522D01*
X0205341Y0043652D01*
X0205170Y0043786D01*
X0205001Y0043924D01*
X0204837Y0044067D01*
X0204675Y0044213D01*
X0204518Y0044364D01*
X0204364Y0044518D01*
X0204213Y0044675D01*
X0204067Y0044837D01*
X0203924Y0045001D01*
X0203786Y0045170D01*
X0203652Y0045341D01*
X0203522Y0045516D01*
X0203396Y0045693D01*
X0203274Y0045874D01*
X0203157Y0046058D01*
X0203044Y0046244D01*
X0202936Y0046433D01*
X0202832Y0046625D01*
X0202734Y0046819D01*
X0202639Y0047015D01*
X0202550Y0047214D01*
X0202465Y0047415D01*
X0202386Y0047618D01*
X0202311Y0047822D01*
X0202241Y0048029D01*
X0202176Y0048236D01*
X0202117Y0048446D01*
X0202062Y0048657D01*
X0202012Y0048869D01*
X0201968Y0049082D01*
X0201929Y0049296D01*
X0201895Y0049512D01*
X0201866Y0049727D01*
X0201842Y0049944D01*
X0201824Y0050161D01*
X0201811Y0050379D01*
X0201803Y0050596D01*
X0201800Y0050814D01*
X0166431Y0046800D02*
X0166157Y0046803D01*
X0165882Y0046813D01*
X0165609Y0046830D01*
X0165335Y0046854D01*
X0165062Y0046884D01*
X0164791Y0046921D01*
X0164520Y0046965D01*
X0164250Y0047015D01*
X0163981Y0047072D01*
X0163714Y0047135D01*
X0163449Y0047205D01*
X0163186Y0047281D01*
X0162924Y0047364D01*
X0162665Y0047454D01*
X0162407Y0047549D01*
X0162153Y0047651D01*
X0161900Y0047759D01*
X0161651Y0047873D01*
X0161404Y0047994D01*
X0161161Y0048120D01*
X0160920Y0048252D01*
X0160683Y0048391D01*
X0160450Y0048535D01*
X0160220Y0048684D01*
X0159993Y0048839D01*
X0159771Y0049000D01*
X0159553Y0049166D01*
X0159338Y0049338D01*
X0159129Y0049514D01*
X0158923Y0049696D01*
X0158722Y0049883D01*
X0158526Y0050075D01*
X0194160Y0024440D02*
X0194314Y0024290D01*
X0194471Y0024144D01*
X0194631Y0024002D01*
X0194795Y0023863D01*
X0194962Y0023729D01*
X0195132Y0023598D01*
X0195305Y0023471D01*
X0195482Y0023349D01*
X0195661Y0023231D01*
X0195843Y0023117D01*
X0196027Y0023008D01*
X0196214Y0022903D01*
X0196404Y0022802D01*
X0196595Y0022706D01*
X0196789Y0022615D01*
X0196986Y0022528D01*
X0197184Y0022446D01*
X0197384Y0022368D01*
X0197586Y0022296D01*
X0197789Y0022228D01*
X0197994Y0022165D01*
X0198201Y0022107D01*
X0198409Y0022054D01*
X0198618Y0022006D01*
X0198828Y0021963D01*
X0199039Y0021925D01*
X0199251Y0021892D01*
X0199464Y0021864D01*
X0199677Y0021841D01*
X0199891Y0021823D01*
X0200105Y0021810D01*
X0200319Y0021803D01*
X0200534Y0021800D01*
X0394300Y0026800D02*
X0395942Y0026800D01*
X0411800Y0036800D02*
X0411800Y0038800D01*
X0202786Y0079300D02*
X0084300Y0079300D01*
X0091800Y0071800D02*
X0091800Y0070336D01*
X0091802Y0070218D01*
X0091808Y0070100D01*
X0091818Y0069982D01*
X0091832Y0069865D01*
X0091849Y0069748D01*
X0091871Y0069632D01*
X0091896Y0069516D01*
X0091926Y0069402D01*
X0091959Y0069288D01*
X0091996Y0069176D01*
X0092036Y0069065D01*
X0092081Y0068956D01*
X0092129Y0068848D01*
X0092180Y0068741D01*
X0092235Y0068637D01*
X0092294Y0068534D01*
X0092356Y0068433D01*
X0092421Y0068335D01*
X0092489Y0068239D01*
X0092561Y0068145D01*
X0092636Y0068053D01*
X0092714Y0067964D01*
X0092794Y0067878D01*
X0092878Y0067794D01*
X0092964Y0067714D01*
X0093053Y0067636D01*
X0093145Y0067561D01*
X0093239Y0067489D01*
X0093335Y0067421D01*
X0093433Y0067356D01*
X0093534Y0067294D01*
X0093637Y0067235D01*
X0093741Y0067180D01*
X0093848Y0067129D01*
X0093956Y0067081D01*
X0094065Y0067036D01*
X0094176Y0066996D01*
X0094288Y0066959D01*
X0094402Y0066926D01*
X0094516Y0066896D01*
X0094632Y0066871D01*
X0094748Y0066849D01*
X0094865Y0066832D01*
X0094982Y0066818D01*
X0095100Y0066808D01*
X0095218Y0066802D01*
X0095336Y0066800D01*
D22*
X0360814Y0026800D02*
X0374300Y0026800D01*
X0381193Y0023693D02*
X0374300Y0016800D01*
X0360814Y0026800D02*
X0360596Y0026797D01*
X0360379Y0026789D01*
X0360161Y0026776D01*
X0359944Y0026758D01*
X0359727Y0026734D01*
X0359512Y0026705D01*
X0359296Y0026671D01*
X0359082Y0026632D01*
X0358869Y0026588D01*
X0358657Y0026538D01*
X0358446Y0026483D01*
X0358236Y0026424D01*
X0358029Y0026359D01*
X0357822Y0026289D01*
X0357618Y0026214D01*
X0357415Y0026135D01*
X0357214Y0026050D01*
X0357015Y0025961D01*
X0356819Y0025866D01*
X0356625Y0025768D01*
X0356433Y0025664D01*
X0356244Y0025556D01*
X0356058Y0025443D01*
X0355874Y0025326D01*
X0355693Y0025204D01*
X0355516Y0025078D01*
X0355341Y0024948D01*
X0355170Y0024814D01*
X0355001Y0024676D01*
X0354837Y0024533D01*
X0354675Y0024387D01*
X0354518Y0024236D01*
X0354364Y0024082D01*
X0354213Y0023925D01*
X0354067Y0023763D01*
X0353924Y0023599D01*
X0353786Y0023430D01*
X0353652Y0023259D01*
X0353522Y0023084D01*
X0353396Y0022907D01*
X0353274Y0022726D01*
X0353157Y0022542D01*
X0353044Y0022356D01*
X0352936Y0022167D01*
X0352832Y0021975D01*
X0352734Y0021781D01*
X0352639Y0021585D01*
X0352550Y0021386D01*
X0352465Y0021185D01*
X0352386Y0020982D01*
X0352311Y0020778D01*
X0352241Y0020571D01*
X0352176Y0020364D01*
X0352117Y0020154D01*
X0352062Y0019943D01*
X0352012Y0019731D01*
X0351968Y0019518D01*
X0351929Y0019304D01*
X0351895Y0019088D01*
X0351866Y0018873D01*
X0351842Y0018656D01*
X0351824Y0018439D01*
X0351811Y0018221D01*
X0351803Y0018004D01*
X0351800Y0017786D01*
X0381193Y0023693D02*
X0381379Y0023875D01*
X0381570Y0024052D01*
X0381765Y0024225D01*
X0381964Y0024392D01*
X0382167Y0024555D01*
X0382374Y0024713D01*
X0382585Y0024865D01*
X0382800Y0025012D01*
X0383018Y0025154D01*
X0383240Y0025291D01*
X0383465Y0025422D01*
X0383693Y0025548D01*
X0383924Y0025667D01*
X0384158Y0025782D01*
X0384395Y0025890D01*
X0384634Y0025993D01*
X0384876Y0026089D01*
X0385120Y0026180D01*
X0385366Y0026265D01*
X0385614Y0026343D01*
X0385864Y0026416D01*
X0386116Y0026482D01*
X0386369Y0026542D01*
X0386624Y0026596D01*
X0386880Y0026644D01*
X0387137Y0026685D01*
X0387395Y0026720D01*
X0387653Y0026749D01*
X0387913Y0026771D01*
X0388173Y0026787D01*
X0388433Y0026797D01*
X0388693Y0026800D01*
X0394300Y0026800D01*
X0405942Y0030942D02*
X0411800Y0036800D01*
X0411800Y0038800D02*
X0411800Y0048800D01*
X0386431Y0061800D02*
X0386165Y0061797D01*
X0385899Y0061787D01*
X0385633Y0061772D01*
X0385368Y0061749D01*
X0385104Y0061721D01*
X0384840Y0061686D01*
X0384577Y0061645D01*
X0384315Y0061598D01*
X0384055Y0061545D01*
X0383795Y0061485D01*
X0383537Y0061419D01*
X0383281Y0061347D01*
X0383027Y0061269D01*
X0382774Y0061185D01*
X0382524Y0061095D01*
X0382276Y0060999D01*
X0382030Y0060897D01*
X0381787Y0060790D01*
X0381546Y0060676D01*
X0381308Y0060557D01*
X0381073Y0060432D01*
X0380841Y0060302D01*
X0380612Y0060166D01*
X0380387Y0060025D01*
X0380165Y0059879D01*
X0379946Y0059727D01*
X0379731Y0059570D01*
X0379520Y0059408D01*
X0379313Y0059241D01*
X0379110Y0059069D01*
X0378911Y0058893D01*
X0378716Y0058711D01*
X0378526Y0058525D01*
X0378525Y0058525D02*
X0371800Y0051800D01*
X0371800Y0048800D01*
X0371800Y0038800D01*
X0395942Y0026800D02*
X0396279Y0026804D01*
X0396615Y0026816D01*
X0396951Y0026836D01*
X0397286Y0026864D01*
X0397621Y0026900D01*
X0397955Y0026944D01*
X0398287Y0026996D01*
X0398618Y0027056D01*
X0398948Y0027123D01*
X0399276Y0027199D01*
X0399602Y0027282D01*
X0399926Y0027373D01*
X0400248Y0027472D01*
X0400567Y0027578D01*
X0400884Y0027692D01*
X0401198Y0027813D01*
X0401509Y0027942D01*
X0401817Y0028078D01*
X0402121Y0028221D01*
X0402422Y0028372D01*
X0402720Y0028530D01*
X0403013Y0028695D01*
X0403302Y0028866D01*
X0403588Y0029045D01*
X0403869Y0029230D01*
X0404145Y0029422D01*
X0404417Y0029621D01*
X0404684Y0029826D01*
X0404946Y0030037D01*
X0405203Y0030254D01*
X0405455Y0030478D01*
X0405701Y0030707D01*
X0405942Y0030942D01*
X0398262Y0061800D02*
X0394300Y0061800D01*
X0386431Y0061800D01*
X0408570Y0066070D02*
X0414300Y0071800D01*
X0408569Y0066070D02*
X0408321Y0065827D01*
X0408067Y0065591D01*
X0407808Y0065360D01*
X0407543Y0065136D01*
X0407273Y0064919D01*
X0406998Y0064708D01*
X0406717Y0064503D01*
X0406433Y0064305D01*
X0406143Y0064114D01*
X0405849Y0063930D01*
X0405550Y0063753D01*
X0405248Y0063583D01*
X0404942Y0063420D01*
X0404631Y0063265D01*
X0404318Y0063117D01*
X0404000Y0062977D01*
X0403680Y0062844D01*
X0403356Y0062719D01*
X0403030Y0062602D01*
X0402700Y0062492D01*
X0402369Y0062390D01*
X0402035Y0062297D01*
X0401699Y0062211D01*
X0401361Y0062133D01*
X0401021Y0062063D01*
X0400679Y0062002D01*
X0400337Y0061948D01*
X0399993Y0061903D01*
X0399648Y0061866D01*
X0399302Y0061837D01*
X0398956Y0061817D01*
X0398609Y0061804D01*
X0398262Y0061800D01*
D23*
X0374300Y0061800D02*
X0373871Y0062229D01*
X0368871Y0064300D02*
X0358871Y0064300D01*
X0355336Y0065764D02*
X0352836Y0068264D01*
X0355335Y0065764D02*
X0355436Y0065667D01*
X0355539Y0065572D01*
X0355645Y0065480D01*
X0355754Y0065391D01*
X0355864Y0065305D01*
X0355978Y0065222D01*
X0356093Y0065143D01*
X0356211Y0065066D01*
X0356331Y0064993D01*
X0356452Y0064924D01*
X0356576Y0064858D01*
X0356702Y0064795D01*
X0356829Y0064736D01*
X0356958Y0064681D01*
X0357088Y0064629D01*
X0357220Y0064581D01*
X0357353Y0064536D01*
X0357487Y0064495D01*
X0357622Y0064458D01*
X0357758Y0064425D01*
X0357896Y0064396D01*
X0358033Y0064371D01*
X0358172Y0064349D01*
X0358311Y0064331D01*
X0358451Y0064318D01*
X0358591Y0064308D01*
X0358731Y0064302D01*
X0358871Y0064300D01*
X0352836Y0068264D02*
X0352755Y0068347D01*
X0352677Y0068433D01*
X0352603Y0068521D01*
X0352531Y0068611D01*
X0352462Y0068704D01*
X0352396Y0068800D01*
X0352333Y0068897D01*
X0352274Y0068996D01*
X0352218Y0069097D01*
X0352165Y0069200D01*
X0352115Y0069305D01*
X0352069Y0069411D01*
X0352027Y0069518D01*
X0351988Y0069627D01*
X0351952Y0069738D01*
X0351920Y0069849D01*
X0351892Y0069961D01*
X0351868Y0070074D01*
X0351847Y0070188D01*
X0351830Y0070302D01*
X0351817Y0070417D01*
X0351808Y0070533D01*
X0351802Y0070648D01*
X0351800Y0070764D01*
X0351800Y0071800D01*
X0368871Y0064300D02*
X0369045Y0064298D01*
X0369218Y0064291D01*
X0369391Y0064281D01*
X0369564Y0064266D01*
X0369737Y0064247D01*
X0369909Y0064223D01*
X0370080Y0064196D01*
X0370250Y0064164D01*
X0370420Y0064128D01*
X0370589Y0064088D01*
X0370757Y0064044D01*
X0370924Y0063996D01*
X0371089Y0063943D01*
X0371253Y0063887D01*
X0371416Y0063826D01*
X0371577Y0063762D01*
X0371736Y0063693D01*
X0371894Y0063621D01*
X0372050Y0063545D01*
X0372204Y0063465D01*
X0372356Y0063381D01*
X0372506Y0063294D01*
X0372654Y0063203D01*
X0372799Y0063108D01*
X0372943Y0063010D01*
X0373083Y0062908D01*
X0373221Y0062803D01*
X0373357Y0062695D01*
X0373490Y0062583D01*
X0373620Y0062468D01*
X0373747Y0062350D01*
X0373871Y0062229D01*
M02*
