G75*
%MOIN*%
%OFA0B0*%
%FSLAX25Y25*%
%IPPOS*%
%LPD*%
%AMOC8*
5,1,8,0,0,1.08239X$1,22.5*
%
%ADD10C,0.00000*%
%ADD11R,0.42200X0.32900*%
%ADD12C,0.00200*%
%ADD13C,0.00300*%
%ADD14C,0.00010*%
%ADD15C,0.12598*%
D10*
X0001594Y0005800D02*
X0507499Y0005800D01*
X0507499Y0084540D01*
X0001594Y0084540D01*
X0001594Y0005800D01*
D11*
X0368894Y0040550D03*
D12*
X0347794Y0024100D02*
X0347794Y0057100D01*
X0390194Y0057100D01*
X0390194Y0024100D01*
X0347794Y0024100D01*
X0493105Y0045911D02*
X0493572Y0045444D01*
X0495440Y0045444D01*
X0495907Y0045911D01*
X0495907Y0046846D01*
X0495440Y0047313D01*
X0495440Y0048207D02*
X0493105Y0048207D01*
X0493572Y0047313D02*
X0493105Y0046846D01*
X0493105Y0045911D01*
X0495440Y0048207D02*
X0495907Y0048674D01*
X0495907Y0049608D01*
X0495440Y0050075D01*
X0493105Y0050075D01*
X0493105Y0050969D02*
X0493105Y0052837D01*
X0493105Y0051903D02*
X0495907Y0051903D01*
X0495440Y0056494D02*
X0493572Y0056494D01*
X0493105Y0056961D01*
X0493105Y0057895D01*
X0493572Y0058362D01*
X0495440Y0058362D01*
X0495907Y0057895D01*
X0495907Y0056961D01*
X0495440Y0056494D01*
X0495440Y0059256D02*
X0493105Y0059256D01*
X0495440Y0059256D02*
X0495907Y0059723D01*
X0495907Y0060657D01*
X0495440Y0061124D01*
X0493105Y0061124D01*
X0493105Y0062018D02*
X0493105Y0063887D01*
X0493105Y0062953D02*
X0495907Y0062953D01*
X0014805Y0062953D02*
X0012002Y0062953D01*
X0012002Y0063887D02*
X0012002Y0062018D01*
X0012002Y0061124D02*
X0014338Y0061124D01*
X0014805Y0060657D01*
X0014805Y0059723D01*
X0014338Y0059256D01*
X0012002Y0059256D01*
X0012469Y0058362D02*
X0012002Y0057895D01*
X0012002Y0056961D01*
X0012469Y0056494D01*
X0014338Y0056494D01*
X0014805Y0056961D01*
X0014805Y0057895D01*
X0014338Y0058362D01*
X0012469Y0058362D01*
X0012002Y0052837D02*
X0012002Y0050969D01*
X0012002Y0050075D02*
X0014338Y0050075D01*
X0014805Y0049608D01*
X0014805Y0048674D01*
X0014338Y0048207D01*
X0012002Y0048207D01*
X0012469Y0047313D02*
X0012002Y0046846D01*
X0012002Y0045911D01*
X0012469Y0045444D01*
X0014338Y0045444D01*
X0014805Y0045911D01*
X0014805Y0046846D01*
X0014338Y0047313D01*
X0014805Y0051903D02*
X0012002Y0051903D01*
D13*
X0358944Y0050236D02*
X0358944Y0047767D01*
X0359561Y0047150D01*
X0360795Y0047150D01*
X0361412Y0047767D01*
X0362627Y0047767D02*
X0363244Y0047150D01*
X0364478Y0047150D01*
X0365096Y0047767D01*
X0365096Y0050853D01*
X0366310Y0050853D02*
X0368779Y0050853D01*
X0367544Y0050853D02*
X0367544Y0047150D01*
X0362627Y0047767D02*
X0362627Y0050853D01*
X0361412Y0050236D02*
X0360795Y0050853D01*
X0359561Y0050853D01*
X0358944Y0050236D01*
X0373676Y0050236D02*
X0373676Y0047767D01*
X0374293Y0047150D01*
X0375528Y0047150D01*
X0376145Y0047767D01*
X0376145Y0050236D01*
X0375528Y0050853D01*
X0374293Y0050853D01*
X0373676Y0050236D01*
X0377359Y0050853D02*
X0377359Y0047767D01*
X0377977Y0047150D01*
X0379211Y0047150D01*
X0379828Y0047767D01*
X0379828Y0050853D01*
X0381043Y0050853D02*
X0383511Y0050853D01*
X0382277Y0050853D02*
X0382277Y0047150D01*
D14*
X0488208Y0050013D02*
X0488208Y0060013D01*
X0488210Y0060171D01*
X0488216Y0060329D01*
X0488226Y0060487D01*
X0488240Y0060645D01*
X0488258Y0060802D01*
X0488279Y0060959D01*
X0488305Y0061115D01*
X0488335Y0061271D01*
X0488368Y0061426D01*
X0488406Y0061579D01*
X0488447Y0061732D01*
X0488492Y0061884D01*
X0488541Y0062035D01*
X0488594Y0062184D01*
X0488650Y0062332D01*
X0488710Y0062478D01*
X0488774Y0062623D01*
X0488842Y0062766D01*
X0488913Y0062908D01*
X0488987Y0063048D01*
X0489065Y0063185D01*
X0489147Y0063321D01*
X0489231Y0063455D01*
X0489320Y0063586D01*
X0489411Y0063715D01*
X0489506Y0063842D01*
X0489603Y0063967D01*
X0489704Y0064089D01*
X0489808Y0064208D01*
X0489915Y0064325D01*
X0490025Y0064439D01*
X0490138Y0064550D01*
X0490253Y0064659D01*
X0490371Y0064764D01*
X0490492Y0064866D01*
X0490615Y0064966D01*
X0490741Y0065062D01*
X0490869Y0065155D01*
X0490999Y0065245D01*
X0491132Y0065331D01*
X0491267Y0065415D01*
X0491403Y0065494D01*
X0491542Y0065571D01*
X0491683Y0065643D01*
X0491825Y0065713D01*
X0491969Y0065778D01*
X0492115Y0065840D01*
X0492262Y0065898D01*
X0492411Y0065953D01*
X0492561Y0066004D01*
X0492712Y0066051D01*
X0492864Y0066094D01*
X0493017Y0066133D01*
X0493172Y0066169D01*
X0493327Y0066200D01*
X0493483Y0066228D01*
X0493639Y0066252D01*
X0493796Y0066272D01*
X0493954Y0066288D01*
X0494111Y0066300D01*
X0494270Y0066308D01*
X0494428Y0066312D01*
X0494586Y0066312D01*
X0494744Y0066308D01*
X0494903Y0066300D01*
X0495060Y0066288D01*
X0495218Y0066272D01*
X0495375Y0066252D01*
X0495531Y0066228D01*
X0495687Y0066200D01*
X0495842Y0066169D01*
X0495997Y0066133D01*
X0496150Y0066094D01*
X0496302Y0066051D01*
X0496453Y0066004D01*
X0496603Y0065953D01*
X0496752Y0065898D01*
X0496899Y0065840D01*
X0497045Y0065778D01*
X0497189Y0065713D01*
X0497331Y0065643D01*
X0497472Y0065571D01*
X0497611Y0065494D01*
X0497747Y0065415D01*
X0497882Y0065331D01*
X0498015Y0065245D01*
X0498145Y0065155D01*
X0498273Y0065062D01*
X0498399Y0064966D01*
X0498522Y0064866D01*
X0498643Y0064764D01*
X0498761Y0064659D01*
X0498876Y0064550D01*
X0498989Y0064439D01*
X0499099Y0064325D01*
X0499206Y0064208D01*
X0499310Y0064089D01*
X0499411Y0063967D01*
X0499508Y0063842D01*
X0499603Y0063715D01*
X0499694Y0063586D01*
X0499783Y0063455D01*
X0499867Y0063321D01*
X0499949Y0063185D01*
X0500027Y0063048D01*
X0500101Y0062908D01*
X0500172Y0062766D01*
X0500240Y0062623D01*
X0500304Y0062478D01*
X0500364Y0062332D01*
X0500420Y0062184D01*
X0500473Y0062035D01*
X0500522Y0061884D01*
X0500567Y0061732D01*
X0500608Y0061579D01*
X0500646Y0061426D01*
X0500679Y0061271D01*
X0500709Y0061115D01*
X0500735Y0060959D01*
X0500756Y0060802D01*
X0500774Y0060645D01*
X0500788Y0060487D01*
X0500798Y0060329D01*
X0500804Y0060171D01*
X0500806Y0060013D01*
X0500806Y0050013D01*
X0500804Y0049855D01*
X0500798Y0049697D01*
X0500788Y0049539D01*
X0500774Y0049381D01*
X0500756Y0049224D01*
X0500735Y0049067D01*
X0500709Y0048911D01*
X0500679Y0048755D01*
X0500646Y0048600D01*
X0500608Y0048447D01*
X0500567Y0048294D01*
X0500522Y0048142D01*
X0500473Y0047991D01*
X0500420Y0047842D01*
X0500364Y0047694D01*
X0500304Y0047548D01*
X0500240Y0047403D01*
X0500172Y0047260D01*
X0500101Y0047118D01*
X0500027Y0046978D01*
X0499949Y0046841D01*
X0499867Y0046705D01*
X0499783Y0046571D01*
X0499694Y0046440D01*
X0499603Y0046311D01*
X0499508Y0046184D01*
X0499411Y0046059D01*
X0499310Y0045937D01*
X0499206Y0045818D01*
X0499099Y0045701D01*
X0498989Y0045587D01*
X0498876Y0045476D01*
X0498761Y0045367D01*
X0498643Y0045262D01*
X0498522Y0045160D01*
X0498399Y0045060D01*
X0498273Y0044964D01*
X0498145Y0044871D01*
X0498015Y0044781D01*
X0497882Y0044695D01*
X0497747Y0044611D01*
X0497611Y0044532D01*
X0497472Y0044455D01*
X0497331Y0044383D01*
X0497189Y0044313D01*
X0497045Y0044248D01*
X0496899Y0044186D01*
X0496752Y0044128D01*
X0496603Y0044073D01*
X0496453Y0044022D01*
X0496302Y0043975D01*
X0496150Y0043932D01*
X0495997Y0043893D01*
X0495842Y0043857D01*
X0495687Y0043826D01*
X0495531Y0043798D01*
X0495375Y0043774D01*
X0495218Y0043754D01*
X0495060Y0043738D01*
X0494903Y0043726D01*
X0494744Y0043718D01*
X0494586Y0043714D01*
X0494428Y0043714D01*
X0494270Y0043718D01*
X0494111Y0043726D01*
X0493954Y0043738D01*
X0493796Y0043754D01*
X0493639Y0043774D01*
X0493483Y0043798D01*
X0493327Y0043826D01*
X0493172Y0043857D01*
X0493017Y0043893D01*
X0492864Y0043932D01*
X0492712Y0043975D01*
X0492561Y0044022D01*
X0492411Y0044073D01*
X0492262Y0044128D01*
X0492115Y0044186D01*
X0491969Y0044248D01*
X0491825Y0044313D01*
X0491683Y0044383D01*
X0491542Y0044455D01*
X0491403Y0044532D01*
X0491267Y0044611D01*
X0491132Y0044695D01*
X0490999Y0044781D01*
X0490869Y0044871D01*
X0490741Y0044964D01*
X0490615Y0045060D01*
X0490492Y0045160D01*
X0490371Y0045262D01*
X0490253Y0045367D01*
X0490138Y0045476D01*
X0490025Y0045587D01*
X0489915Y0045701D01*
X0489808Y0045818D01*
X0489704Y0045937D01*
X0489603Y0046059D01*
X0489506Y0046184D01*
X0489411Y0046311D01*
X0489320Y0046440D01*
X0489231Y0046571D01*
X0489147Y0046705D01*
X0489065Y0046841D01*
X0488987Y0046978D01*
X0488913Y0047118D01*
X0488842Y0047260D01*
X0488774Y0047403D01*
X0488710Y0047548D01*
X0488650Y0047694D01*
X0488594Y0047842D01*
X0488541Y0047991D01*
X0488492Y0048142D01*
X0488447Y0048294D01*
X0488406Y0048447D01*
X0488368Y0048600D01*
X0488335Y0048755D01*
X0488305Y0048911D01*
X0488279Y0049067D01*
X0488258Y0049224D01*
X0488240Y0049381D01*
X0488226Y0049539D01*
X0488216Y0049697D01*
X0488210Y0049855D01*
X0488208Y0050013D01*
X0019704Y0050013D02*
X0019704Y0060013D01*
X0019702Y0060171D01*
X0019696Y0060329D01*
X0019686Y0060487D01*
X0019672Y0060645D01*
X0019654Y0060802D01*
X0019633Y0060959D01*
X0019607Y0061115D01*
X0019577Y0061271D01*
X0019544Y0061426D01*
X0019506Y0061579D01*
X0019465Y0061732D01*
X0019420Y0061884D01*
X0019371Y0062035D01*
X0019318Y0062184D01*
X0019262Y0062332D01*
X0019202Y0062478D01*
X0019138Y0062623D01*
X0019070Y0062766D01*
X0018999Y0062908D01*
X0018925Y0063048D01*
X0018847Y0063185D01*
X0018765Y0063321D01*
X0018681Y0063455D01*
X0018592Y0063586D01*
X0018501Y0063715D01*
X0018406Y0063842D01*
X0018309Y0063967D01*
X0018208Y0064089D01*
X0018104Y0064208D01*
X0017997Y0064325D01*
X0017887Y0064439D01*
X0017774Y0064550D01*
X0017659Y0064659D01*
X0017541Y0064764D01*
X0017420Y0064866D01*
X0017297Y0064966D01*
X0017171Y0065062D01*
X0017043Y0065155D01*
X0016913Y0065245D01*
X0016780Y0065331D01*
X0016645Y0065415D01*
X0016509Y0065494D01*
X0016370Y0065571D01*
X0016229Y0065643D01*
X0016087Y0065713D01*
X0015943Y0065778D01*
X0015797Y0065840D01*
X0015650Y0065898D01*
X0015501Y0065953D01*
X0015351Y0066004D01*
X0015200Y0066051D01*
X0015048Y0066094D01*
X0014895Y0066133D01*
X0014740Y0066169D01*
X0014585Y0066200D01*
X0014429Y0066228D01*
X0014273Y0066252D01*
X0014116Y0066272D01*
X0013958Y0066288D01*
X0013801Y0066300D01*
X0013642Y0066308D01*
X0013484Y0066312D01*
X0013326Y0066312D01*
X0013168Y0066308D01*
X0013009Y0066300D01*
X0012852Y0066288D01*
X0012694Y0066272D01*
X0012537Y0066252D01*
X0012381Y0066228D01*
X0012225Y0066200D01*
X0012070Y0066169D01*
X0011915Y0066133D01*
X0011762Y0066094D01*
X0011610Y0066051D01*
X0011459Y0066004D01*
X0011309Y0065953D01*
X0011160Y0065898D01*
X0011013Y0065840D01*
X0010867Y0065778D01*
X0010723Y0065713D01*
X0010581Y0065643D01*
X0010440Y0065571D01*
X0010301Y0065494D01*
X0010165Y0065415D01*
X0010030Y0065331D01*
X0009897Y0065245D01*
X0009767Y0065155D01*
X0009639Y0065062D01*
X0009513Y0064966D01*
X0009390Y0064866D01*
X0009269Y0064764D01*
X0009151Y0064659D01*
X0009036Y0064550D01*
X0008923Y0064439D01*
X0008813Y0064325D01*
X0008706Y0064208D01*
X0008602Y0064089D01*
X0008501Y0063967D01*
X0008404Y0063842D01*
X0008309Y0063715D01*
X0008218Y0063586D01*
X0008129Y0063455D01*
X0008045Y0063321D01*
X0007963Y0063185D01*
X0007885Y0063048D01*
X0007811Y0062908D01*
X0007740Y0062766D01*
X0007672Y0062623D01*
X0007608Y0062478D01*
X0007548Y0062332D01*
X0007492Y0062184D01*
X0007439Y0062035D01*
X0007390Y0061884D01*
X0007345Y0061732D01*
X0007304Y0061579D01*
X0007266Y0061426D01*
X0007233Y0061271D01*
X0007203Y0061115D01*
X0007177Y0060959D01*
X0007156Y0060802D01*
X0007138Y0060645D01*
X0007124Y0060487D01*
X0007114Y0060329D01*
X0007108Y0060171D01*
X0007106Y0060013D01*
X0007106Y0050013D01*
X0007108Y0049855D01*
X0007114Y0049697D01*
X0007124Y0049539D01*
X0007138Y0049381D01*
X0007156Y0049224D01*
X0007177Y0049067D01*
X0007203Y0048911D01*
X0007233Y0048755D01*
X0007266Y0048600D01*
X0007304Y0048447D01*
X0007345Y0048294D01*
X0007390Y0048142D01*
X0007439Y0047991D01*
X0007492Y0047842D01*
X0007548Y0047694D01*
X0007608Y0047548D01*
X0007672Y0047403D01*
X0007740Y0047260D01*
X0007811Y0047118D01*
X0007885Y0046978D01*
X0007963Y0046841D01*
X0008045Y0046705D01*
X0008129Y0046571D01*
X0008218Y0046440D01*
X0008309Y0046311D01*
X0008404Y0046184D01*
X0008501Y0046059D01*
X0008602Y0045937D01*
X0008706Y0045818D01*
X0008813Y0045701D01*
X0008923Y0045587D01*
X0009036Y0045476D01*
X0009151Y0045367D01*
X0009269Y0045262D01*
X0009390Y0045160D01*
X0009513Y0045060D01*
X0009639Y0044964D01*
X0009767Y0044871D01*
X0009897Y0044781D01*
X0010030Y0044695D01*
X0010165Y0044611D01*
X0010301Y0044532D01*
X0010440Y0044455D01*
X0010581Y0044383D01*
X0010723Y0044313D01*
X0010867Y0044248D01*
X0011013Y0044186D01*
X0011160Y0044128D01*
X0011309Y0044073D01*
X0011459Y0044022D01*
X0011610Y0043975D01*
X0011762Y0043932D01*
X0011915Y0043893D01*
X0012070Y0043857D01*
X0012225Y0043826D01*
X0012381Y0043798D01*
X0012537Y0043774D01*
X0012694Y0043754D01*
X0012852Y0043738D01*
X0013009Y0043726D01*
X0013168Y0043718D01*
X0013326Y0043714D01*
X0013484Y0043714D01*
X0013642Y0043718D01*
X0013801Y0043726D01*
X0013958Y0043738D01*
X0014116Y0043754D01*
X0014273Y0043774D01*
X0014429Y0043798D01*
X0014585Y0043826D01*
X0014740Y0043857D01*
X0014895Y0043893D01*
X0015048Y0043932D01*
X0015200Y0043975D01*
X0015351Y0044022D01*
X0015501Y0044073D01*
X0015650Y0044128D01*
X0015797Y0044186D01*
X0015943Y0044248D01*
X0016087Y0044313D01*
X0016229Y0044383D01*
X0016370Y0044455D01*
X0016509Y0044532D01*
X0016645Y0044611D01*
X0016780Y0044695D01*
X0016913Y0044781D01*
X0017043Y0044871D01*
X0017171Y0044964D01*
X0017297Y0045060D01*
X0017420Y0045160D01*
X0017541Y0045262D01*
X0017659Y0045367D01*
X0017774Y0045476D01*
X0017887Y0045587D01*
X0017997Y0045701D01*
X0018104Y0045818D01*
X0018208Y0045937D01*
X0018309Y0046059D01*
X0018406Y0046184D01*
X0018501Y0046311D01*
X0018592Y0046440D01*
X0018681Y0046571D01*
X0018765Y0046705D01*
X0018847Y0046841D01*
X0018925Y0046978D01*
X0018999Y0047118D01*
X0019070Y0047260D01*
X0019138Y0047403D01*
X0019202Y0047548D01*
X0019262Y0047694D01*
X0019318Y0047842D01*
X0019371Y0047991D01*
X0019420Y0048142D01*
X0019465Y0048294D01*
X0019506Y0048447D01*
X0019544Y0048600D01*
X0019577Y0048755D01*
X0019607Y0048911D01*
X0019633Y0049067D01*
X0019654Y0049224D01*
X0019672Y0049381D01*
X0019686Y0049539D01*
X0019696Y0049697D01*
X0019702Y0049855D01*
X0019704Y0050013D01*
D15*
X0013405Y0050013D02*
X0013405Y0060013D01*
X0494507Y0060013D02*
X0494507Y0050013D01*
M02*
