G75*
%MOIN*%
%OFA0B0*%
%FSLAX25Y25*%
%IPPOS*%
%LPD*%
%AMOC8*
5,1,8,0,0,1.08239X$1,22.5*
%
%ADD10R,0.06600X0.06600*%
%ADD11OC8,0.06600*%
%ADD12R,0.12268X0.12268*%
%ADD13OC8,0.04800*%
%ADD14R,0.06500X0.06500*%
%ADD15C,0.06500*%
%ADD16C,0.06600*%
%ADD17R,0.08858X0.08858*%
%ADD18C,0.06496*%
%ADD19C,0.05000*%
%ADD20OC8,0.07400*%
%ADD21C,0.04000*%
%ADD22C,0.02400*%
%ADD23C,0.03200*%
D10*
X0141741Y0054143D03*
D11*
X0141741Y0044300D03*
X0141741Y0034457D03*
D12*
X0169300Y0026583D03*
X0169300Y0062017D03*
D13*
X0136800Y0071800D03*
X0106800Y0071800D03*
X0091800Y0071800D03*
X0061800Y0071800D03*
X0044300Y0071800D03*
X0014300Y0071800D03*
X0201800Y0074300D03*
X0221800Y0074300D03*
X0251800Y0044300D03*
X0271800Y0044300D03*
X0281800Y0044300D03*
X0261800Y0039300D03*
X0261800Y0019300D03*
X0251800Y0014300D03*
X0271800Y0014300D03*
X0281800Y0014300D03*
X0231800Y0014300D03*
X0211800Y0014300D03*
X0374300Y0026800D03*
X0394300Y0026800D03*
X0394300Y0061800D03*
X0374300Y0061800D03*
D14*
X0361800Y0071800D03*
X0254300Y0069300D03*
X0351800Y0016800D03*
D15*
X0361800Y0016800D03*
X0244300Y0069300D03*
X0351800Y0071800D03*
D16*
X0374300Y0071800D03*
X0414300Y0071800D03*
X0414300Y0016800D03*
X0374300Y0016800D03*
D17*
X0327958Y0031308D03*
X0310242Y0031308D03*
D18*
X0117391Y0044300D03*
X0105580Y0044300D03*
X0072115Y0044300D03*
X0057391Y0044300D03*
X0045580Y0044300D03*
X0012115Y0044300D03*
D19*
X0201800Y0031800D02*
X0201800Y0026800D01*
X0211800Y0026800D02*
X0211800Y0031800D01*
X0221800Y0031800D02*
X0221800Y0026800D01*
X0231800Y0026800D02*
X0231800Y0031800D01*
X0231800Y0056800D02*
X0231800Y0061800D01*
X0221800Y0061800D02*
X0221800Y0056800D01*
X0211800Y0056800D02*
X0211800Y0061800D01*
X0201800Y0061800D02*
X0201800Y0056800D01*
D20*
X0371800Y0048800D03*
X0381800Y0049800D03*
X0391800Y0048800D03*
X0401800Y0049800D03*
X0411800Y0048800D03*
X0401800Y0039800D03*
X0411800Y0038800D03*
X0391800Y0038800D03*
X0381800Y0039800D03*
X0371800Y0038800D03*
D21*
X0119300Y0014300D02*
X0105580Y0028020D01*
X0105580Y0044300D01*
X0116800Y0056800D02*
X0129300Y0044300D01*
X0129300Y0034300D01*
X0136800Y0026800D01*
X0146800Y0026800D01*
X0156800Y0036800D01*
X0196800Y0036800D01*
X0211800Y0051800D01*
X0211800Y0059300D01*
X0221800Y0059300D02*
X0221800Y0056800D01*
X0239300Y0039300D01*
X0261800Y0039300D01*
X0271800Y0044300D02*
X0281800Y0044300D01*
X0271800Y0044300D02*
X0266800Y0049300D01*
X0241800Y0049300D01*
X0231800Y0059300D01*
X0216800Y0064300D02*
X0212300Y0068800D01*
X0198800Y0068800D01*
X0174300Y0044300D01*
X0141741Y0044300D01*
X0139300Y0044300D01*
X0136800Y0046800D01*
X0119241Y0064300D01*
X0051800Y0064300D01*
X0044300Y0071800D01*
X0091800Y0071800D02*
X0096800Y0076800D01*
X0131800Y0076800D01*
X0136800Y0071800D01*
X0124083Y0071800D02*
X0141741Y0054143D01*
X0116800Y0056800D02*
X0076800Y0056800D01*
X0071800Y0051800D01*
X0072115Y0044300D01*
X0178800Y0014300D02*
X0185800Y0020800D01*
X0239800Y0020800D01*
X0244800Y0025800D01*
X0292800Y0025800D01*
X0296800Y0021800D01*
X0318450Y0021800D01*
X0327958Y0031308D01*
X0351800Y0016800D02*
X0361800Y0026800D01*
X0374300Y0026800D01*
X0384300Y0016800D02*
X0394300Y0026800D01*
X0399800Y0026800D01*
X0411800Y0038800D01*
X0411800Y0048800D01*
X0394300Y0061800D02*
X0389300Y0056800D01*
X0376800Y0056800D01*
X0371800Y0051800D01*
X0371800Y0048800D01*
X0371800Y0038800D01*
X0374300Y0016800D02*
X0384300Y0016800D01*
X0281800Y0014300D02*
X0276800Y0019300D01*
X0269300Y0019300D01*
X0264300Y0014300D01*
X0251800Y0014300D01*
X0221800Y0029300D02*
X0221800Y0048300D01*
X0216800Y0053300D01*
X0124083Y0071800D02*
X0106800Y0071800D01*
X0221800Y0074300D02*
X0224300Y0076800D01*
X0349300Y0076800D01*
X0351800Y0071800D01*
X0356800Y0064300D01*
X0371800Y0064300D01*
X0374300Y0061800D01*
X0394300Y0061800D02*
X0404300Y0071800D01*
X0414300Y0071800D01*
X0178800Y0014300D02*
X0119300Y0014300D01*
D22*
X0231800Y0014300D02*
X0236800Y0009300D01*
X0344300Y0009300D01*
X0351800Y0016800D01*
D23*
X0216800Y0053300D02*
X0216800Y0064300D01*
M02*
