%
M48
M72
T01C0.0276
T02C0.0320
T03C0.0400
T04C0.0433
T05C0.0440
T06C0.0591
T07C0.0827
%
T01
X24430Y6930
X25430Y6930
X35180Y7180
X36180Y7180
X36180Y1680
X35180Y1680
T02
X37430Y2680
X39430Y2680
X28180Y1430
X27180Y1430
X25180Y1430
X26180Y1930
X23180Y1430
X21180Y1430
X21180Y2930
X20180Y2930
X22180Y2930
X23180Y2930
X26180Y3930
X25180Y4430
X27180Y4430
X28180Y4430
X23180Y5930
X22180Y5930
X21180Y5930
X20180Y5930
X13680Y7180
X10680Y7180
X9180Y7180
X6180Y7180
X4430Y7180
X1430Y7180
X20180Y7430
X22180Y7430
X37430Y6180
X39430Y6180
T03
X40180Y4980
X41180Y4880
X39180Y4880
X38180Y4980
X37180Y4880
X38180Y3980
X37180Y3880
X39180Y3880
X40180Y3980
X41180Y3880
T04
X14174Y3446
X14174Y4430
X11739Y4430
X10558Y4430
X7211Y4430
X5739Y4430
X4558Y4430
X1211Y4430
X14174Y5414
T05
X37430Y7180
X41430Y7180
X41430Y1680
X37430Y1680
T06
X32796Y3131
X31024Y3131
T07
X16930Y2658
X16930Y6202
M30
