G75*
%MOIN*%
%OFA0B0*%
%FSLAX25Y25*%
%IPPOS*%
%LPD*%
%AMOC8*
5,1,8,0,0,1.08239X$1,22.5*
%
%ADD10C,0.00100*%
%ADD11C,0.10000*%
%ADD12C,0.00300*%
D10*
X0006800Y0006800D02*
X0420186Y0006800D01*
X0420186Y0081603D01*
X0006800Y0081603D01*
X0006800Y0006800D01*
D11*
X0264300Y0056800D02*
X0356800Y0056800D01*
D12*
X0319056Y0056950D02*
X0318438Y0057567D01*
X0318438Y0060036D01*
X0317821Y0059419D02*
X0319056Y0059419D01*
X0316607Y0059419D02*
X0316607Y0056950D01*
X0314755Y0056950D01*
X0314138Y0057567D01*
X0314138Y0059419D01*
X0312924Y0058802D02*
X0312306Y0059419D01*
X0311072Y0059419D01*
X0310455Y0058802D01*
X0310455Y0057567D01*
X0311072Y0056950D01*
X0312306Y0056950D01*
X0312924Y0057567D01*
X0312924Y0058802D01*
X0305551Y0059419D02*
X0304316Y0059419D01*
X0304933Y0060036D02*
X0304933Y0057567D01*
X0305551Y0056950D01*
X0303102Y0056950D02*
X0303102Y0059419D01*
X0300633Y0059419D02*
X0300633Y0057567D01*
X0301250Y0056950D01*
X0303102Y0056950D01*
X0299419Y0057567D02*
X0298802Y0056950D01*
X0297567Y0056950D01*
X0296950Y0057567D01*
X0296950Y0060036D01*
X0297567Y0060653D01*
X0298802Y0060653D01*
X0299419Y0060036D01*
M02*
