G75*
%MOIN*%
%OFA0B0*%
%FSLAX25Y25*%
%IPPOS*%
%LPD*%
%AMOC8*
5,1,8,0,0,1.08239X$1,22.5*
%
%ADD10R,0.07000X0.07000*%
%ADD11OC8,0.07000*%
%ADD12R,0.12668X0.12668*%
%ADD13OC8,0.05200*%
%ADD14R,0.06900X0.06900*%
%ADD15C,0.06900*%
%ADD16C,0.07000*%
%ADD17R,0.09258X0.09258*%
%ADD18C,0.06896*%
%ADD19C,0.05400*%
%ADD20OC8,0.07800*%
D10*
X0141741Y0054143D03*
D11*
X0141741Y0034457D03*
X0141741Y0044300D03*
D12*
X0169300Y0026583D03*
X0169300Y0062017D03*
D13*
X0136800Y0071800D03*
X0106800Y0071800D03*
X0091800Y0071800D03*
X0061800Y0071800D03*
X0044300Y0071800D03*
X0014300Y0071800D03*
X0201800Y0074300D03*
X0221800Y0074300D03*
X0251800Y0044300D03*
X0271800Y0044300D03*
X0281800Y0044300D03*
X0261800Y0039300D03*
X0261800Y0019300D03*
X0251800Y0014300D03*
X0271800Y0014300D03*
X0281800Y0014300D03*
X0231800Y0014300D03*
X0211800Y0014300D03*
X0374300Y0026800D03*
X0394300Y0026800D03*
X0394300Y0061800D03*
X0374300Y0061800D03*
D14*
X0361800Y0071800D03*
X0254300Y0069300D03*
X0351800Y0016800D03*
D15*
X0361800Y0016800D03*
X0244300Y0069300D03*
X0351800Y0071800D03*
D16*
X0374300Y0071800D03*
X0414300Y0071800D03*
X0414300Y0016800D03*
X0374300Y0016800D03*
D17*
X0327958Y0031308D03*
X0310242Y0031308D03*
D18*
X0117391Y0044300D03*
X0105580Y0044300D03*
X0072115Y0044300D03*
X0057391Y0044300D03*
X0045580Y0044300D03*
X0012115Y0044300D03*
D19*
X0201800Y0031800D02*
X0201800Y0026800D01*
X0211800Y0026800D02*
X0211800Y0031800D01*
X0221800Y0031800D02*
X0221800Y0026800D01*
X0231800Y0026800D02*
X0231800Y0031800D01*
X0231800Y0056800D02*
X0231800Y0061800D01*
X0221800Y0061800D02*
X0221800Y0056800D01*
X0211800Y0056800D02*
X0211800Y0061800D01*
X0201800Y0061800D02*
X0201800Y0056800D01*
D20*
X0371800Y0048800D03*
X0381800Y0049800D03*
X0391800Y0048800D03*
X0401800Y0049800D03*
X0411800Y0048800D03*
X0401800Y0039800D03*
X0411800Y0038800D03*
X0391800Y0038800D03*
X0381800Y0039800D03*
X0371800Y0038800D03*
M02*
